<svg width="106" height="106" viewBox="0 0 106 106" fill="none" xmlns="http://www.w3.org/2000/svg">
<rect width="150" height="35" transform="translate(24.9497 -25.0251) rotate(45)" fill="#0A3C77"/>
<path d="M40.991 23.5431L47.2822 17.252L44.8518 14.8216L45.6883 13.9851L51.43 19.7268L50.5935 20.5633L48.1632 18.133L41.8721 24.4241L40.991 23.5431ZM45.3695 28.2186C44.9703 27.8193 44.7079 27.4118 44.5825 26.996C44.4637 26.5802 44.4555 26.1826 44.5578 25.8031C44.6634 25.4269 44.8597 25.0953 45.1468 24.8082C45.4273 24.5277 45.7226 24.338 46.0328 24.239C46.3496 24.14 46.673 24.1202 47.003 24.1796C47.3362 24.2357 47.6778 24.3594 48.0276 24.5508C48.3509 24.7356 48.6941 24.96 49.0571 25.224C49.4267 25.488 49.7946 25.7602 50.1609 26.0407C50.5272 26.3212 50.8704 26.5819 51.1904 26.8228L50.6905 26.6891C51.1756 26.2238 51.4313 25.7767 51.4577 25.3477C51.4874 24.9221 51.2581 24.465 50.7697 23.9767C50.4463 23.6533 50.0883 23.4437 49.6956 23.348C49.3095 23.2523 48.902 23.32 48.473 23.551L47.889 22.462C48.4862 22.1222 49.1033 22.0034 49.7402 22.1057C50.377 22.2079 50.9974 22.561 51.6013 23.1649C52.0863 23.65 52.4147 24.1532 52.5863 24.6746C52.7645 25.1959 52.7546 25.7074 52.5566 26.209C52.4675 26.4499 52.3355 26.6776 52.1606 26.8921C51.989 27.1032 51.7976 27.3144 51.5864 27.5256L48.28 30.8321L47.4979 30.05L48.7799 28.768L48.8443 29.0699C48.2107 29.3009 47.6019 29.3455 47.0178 29.2036C46.437 29.065 45.8876 28.7367 45.3695 28.2186ZM46.2407 27.6147C46.5575 27.9315 46.8875 28.1493 47.2306 28.2681C47.5804 28.3869 47.9187 28.4248 48.2453 28.3819C48.5753 28.3357 48.8723 28.2235 49.1363 28.0454C49.3508 27.9299 49.5603 27.7731 49.7649 27.5751C49.9761 27.3771 50.1361 27.2237 50.245 27.1148L50.4183 27.5553C50.0916 27.3078 49.7715 27.0637 49.458 26.8228C49.1445 26.5819 48.8426 26.3591 48.5522 26.1545C48.2651 25.9467 47.9946 25.7718 47.7405 25.6299C47.5491 25.5309 47.3527 25.4533 47.1514 25.3972C46.9535 25.3444 46.7571 25.3362 46.5624 25.3725C46.3743 25.4088 46.1961 25.5111 46.0279 25.6794C45.8827 25.8246 45.7804 25.9995 45.721 26.204C45.6649 26.4119 45.6731 26.6347 45.7457 26.8723C45.8216 27.1131 45.9866 27.3606 46.2407 27.6147ZM49.2699 31.822L56.5461 24.5459L57.4271 25.4269L50.151 32.7031L49.2699 31.822ZM51.3392 33.8912L58.6153 26.6151L59.4963 27.4962L52.2202 34.7723L51.3392 33.8912ZM51.676 38.9798L55.5219 37.2028L54.7052 38.0493L58.1107 29.9713L59.0363 30.8969L56.2495 37.3464L55.9328 37.0296L62.2684 34.1291L63.1643 35.025L52.5323 39.8361L51.676 38.9798ZM70.3412 38.638L71.2371 39.5339L62.2088 44.7609L61.3129 43.865L70.3412 38.638ZM68.4211 50.9732L74.7123 44.6821L72.2819 42.2517L73.1184 41.4152L78.8601 47.1569L78.0236 47.9935L75.5933 45.5631L69.3022 51.8543L68.4211 50.9732ZM78.5147 48.4846L79.4255 47.5738L80.3066 48.4549L79.3958 49.3656L78.5147 48.4846ZM72.2236 54.7757L77.5693 49.43L78.4504 50.311L73.1047 55.6567L72.2236 54.7757ZM73.8325 61.4333C73.552 61.1528 73.321 60.8361 73.1396 60.483C72.9581 60.1299 72.8426 59.7537 72.7931 59.3544C72.7436 58.9618 72.7766 58.5592 72.8921 58.1467L74.1246 58.5278C73.9959 58.9205 73.9926 59.2967 74.1147 59.6564C74.24 60.0194 74.4314 60.3295 74.6888 60.5869C75.0287 60.9268 75.3735 61.1462 75.7233 61.2452C76.0698 61.3475 76.4179 61.3294 76.7677 61.1908C77.1208 61.0555 77.4772 60.8047 77.8369 60.4384L79.297 58.9783L79.401 59.0822L83.3113 55.1719L84.0933 55.954L78.713 61.3343C78.5678 61.4795 78.4226 61.6148 78.2774 61.7402C78.1355 61.8689 77.9854 61.9861 77.827 62.0916C77.3782 62.4018 76.9294 62.5767 76.4806 62.6163C76.0286 62.6592 75.5814 62.5784 75.1393 62.3738C74.6938 62.1725 74.2582 61.859 73.8325 61.4333ZM76.1441 58.9931C75.6458 58.4948 75.3422 57.9438 75.2333 57.3399C75.1277 56.7327 75.1904 56.119 75.4214 55.4986C75.6557 54.8815 76.0401 54.3057 76.5747 53.7711C77.1093 53.2365 77.6851 52.8521 78.3021 52.6178C78.9225 52.3868 79.533 52.3274 80.1335 52.4396C80.7374 52.5485 81.2868 52.8505 81.7818 53.3454C82.2867 53.8503 82.5886 54.3964 82.6876 54.9838C82.7866 55.5712 82.7107 56.1651 82.4599 56.7657C82.2124 57.3696 81.8198 57.9405 81.2819 58.4783C80.7506 59.0096 80.1814 59.4006 79.5742 59.6514C78.9737 59.9022 78.3764 59.9814 77.7824 59.889C77.1917 59.7933 76.6456 59.4947 76.1441 58.9931ZM77.0598 58.2952C77.4194 58.6549 77.8006 58.8644 78.2031 58.9238C78.609 58.9799 79.0182 58.9106 79.4307 58.7159C79.8498 58.5212 80.254 58.2292 80.6434 57.8398C81.0394 57.4438 81.3314 57.0396 81.5195 56.6271C81.7142 56.2146 81.7818 55.8104 81.7224 55.4144C81.6663 55.0152 81.4634 54.6406 81.1136 54.2908C80.7506 53.9279 80.3612 53.7167 79.9455 53.6573C79.533 53.6012 79.1172 53.6672 78.6981 53.8553C78.2823 54.0467 77.8864 54.3304 77.5102 54.7066C77.1307 55.0861 76.8453 55.487 76.6539 55.9094C76.4658 56.3285 76.3981 56.7426 76.4509 57.1518C76.507 57.5643 76.71 57.9454 77.0598 58.2952ZM79.3724 66.9732C79.0919 66.6927 78.8609 66.3759 78.6794 66.0228C78.4979 65.6697 78.3824 65.2936 78.3329 64.8943C78.2834 64.5016 78.3164 64.099 78.4319 63.6865L79.6644 64.0677C79.5357 64.4604 79.5324 64.8365 79.6545 65.1962C79.7799 65.5592 79.9713 65.8694 80.2287 66.1268C80.5686 66.4667 80.9134 66.6861 81.2632 66.7851C81.6097 66.8874 81.9578 66.8692 82.3076 66.7306C82.6607 66.5953 83.017 66.3446 83.3767 65.9783L84.8369 64.5181L84.9408 64.6221L88.8511 60.7118L89.6332 61.4938L84.2528 66.8742C84.1076 67.0194 83.9624 67.1547 83.8172 67.2801C83.6753 67.4088 83.5252 67.5259 83.3668 67.6315C82.918 67.9417 82.4693 68.1166 82.0205 68.1562C81.5684 68.1991 81.1213 68.1182 80.6791 67.9136C80.2336 67.7123 79.798 67.3989 79.3724 66.9732ZM81.6839 64.533C81.1856 64.0347 80.882 63.4836 80.7731 62.8797C80.6676 62.2726 80.7302 61.6588 80.9612 61.0384C81.1955 60.4214 81.58 59.8455 82.1145 59.311C82.6491 58.7764 83.2249 58.392 83.842 58.1577C84.4624 57.9267 85.0728 57.8673 85.6734 57.9795C86.2773 58.0884 86.8267 58.3903 87.3217 58.8853C87.8265 59.3902 88.1285 59.9363 88.2275 60.5237C88.3265 61.111 88.2506 61.705 87.9998 62.3056C87.7523 62.9094 87.3596 63.4803 86.8217 64.0182C86.2905 64.5495 85.7212 64.9405 85.1141 65.1913C84.5135 65.4421 83.9162 65.5213 83.3223 65.4289C82.7316 65.3332 82.1855 65.0345 81.6839 64.533ZM82.5996 63.835C82.9593 64.1947 83.3404 64.4043 83.743 64.4637C84.1489 64.5198 84.5581 64.4505 84.9705 64.2558C85.3896 64.0611 85.7938 63.769 86.1832 63.3797C86.5792 62.9837 86.8712 62.5795 87.0593 62.167C87.254 61.7545 87.3217 61.3503 87.2623 60.9543C87.2062 60.555 87.0032 60.1805 86.6534 59.8307C86.2905 59.4677 85.9011 59.2565 85.4853 59.1971C85.0728 59.141 84.657 59.207 84.238 59.3951C83.8222 59.5865 83.4262 59.8703 83.05 60.2465C82.6705 60.626 82.3851 61.0269 82.1937 61.4493C82.0056 61.8683 81.938 62.2825 81.9908 62.6916C82.0469 63.1041 82.2498 63.4853 82.5996 63.835Z" fill="white"/>
</svg>
