<svg width="74" height="61" viewBox="0 0 74 61" fill="none" xmlns="http://www.w3.org/2000/svg">
<path d="M28.2143 0.956543H12.2673V56.4825H28.2143V0.956543Z" fill="#E62727"/>
<path d="M24.2834 44.2585C24.2834 46.4916 22.4737 48.3012 20.2407 48.3012C18.0076 48.3012 16.198 46.4916 16.198 44.2585C16.198 42.0254 18.0076 40.2158 20.2407 40.2158C22.4737 40.2158 24.2834 42.0254 24.2834 44.2585Z" fill="#616161"/>
<path d="M23.6008 44.2585C23.6008 46.1141 22.0958 47.6191 20.2402 47.6191C18.3846 47.6191 16.8796 46.1141 16.8796 44.2585C16.8796 42.403 18.3846 40.8979 20.2402 40.8979C22.0958 40.8979 23.6008 42.403 23.6008 44.2585Z" fill="#242424"/>
<path d="M26.5151 4.12256H13.9656V27.369H26.5151V4.12256Z" fill="#701313"/>
<path d="M26.2141 4.61597H14.2659V26.7499H26.2141V4.61597Z" fill="white"/>
<path d="M24.9674 6.6543H15.6946V8.13236H24.9674V6.6543Z" fill="#A6A6A6"/>
<path d="M24.9674 9.87915H15.6946V11.3572H24.9674V9.87915Z" fill="#A6A6A6"/>
<path d="M24.9674 13.1038H15.6946V14.5818H24.9674V13.1038Z" fill="#A6A6A6"/>
<path d="M22.0782 16.3296H15.6946V17.8077H22.0782V16.3296Z" fill="#A6A6A6"/>
<path d="M25.5258 8.33374H15.3123V8.51249H25.5258V8.33374Z" fill="#3B3B3B"/>
<path d="M25.5258 11.5586H15.3123V11.7373H25.5258V11.5586Z" fill="#3B3B3B"/>
<path d="M25.5258 14.7842H15.3123V14.963H25.5258V14.7842Z" fill="#3B3B3B"/>
<path d="M25.5258 18.009H15.3123V18.1878H25.5258V18.009Z" fill="#3B3B3B"/>
<path d="M25.5258 21.2339H15.3123V21.4126H25.5258V21.2339Z" fill="#3B3B3B"/>
<path d="M25.5258 24.46H15.3123V24.6387H25.5258V24.46Z" fill="#3B3B3B"/>
<path d="M45.416 0.956543H29.469V56.4825H45.416V0.956543Z" fill="#4CB5C7"/>
<path d="M41.4843 44.2585C41.4843 46.4916 39.6747 48.3012 37.4416 48.3012C35.2085 48.3012 33.3989 46.4916 33.3989 44.2585C33.3989 42.0254 35.2085 40.2158 37.4416 40.2158C39.6747 40.2158 41.4843 42.0254 41.4843 44.2585Z" fill="#616161"/>
<path d="M40.8015 44.2585C40.8015 46.1141 39.2964 47.6191 37.4409 47.6191C35.5853 47.6191 34.0803 46.1141 34.0803 44.2585C34.0803 42.403 35.5853 40.8979 37.4409 40.8979C39.2964 40.8979 40.8015 42.403 40.8015 44.2585Z" fill="#242424"/>
<path d="M43.7177 4.12231H31.1682V27.3687H43.7177V4.12231Z" fill="#255861"/>
<path d="M43.4168 4.61597H31.4685V26.7499H43.4168V4.61597Z" fill="white"/>
<path d="M42.169 6.6543H32.8962V8.13236H42.169V6.6543Z" fill="#A6A6A6"/>
<path d="M42.169 9.87915H32.8962V11.3572H42.169V9.87915Z" fill="#A6A6A6"/>
<path d="M42.169 13.1038H32.8962V14.5818H42.169V13.1038Z" fill="#A6A6A6"/>
<path d="M42.169 19.5554H32.8962V21.0335H42.169V19.5554Z" fill="#A6A6A6"/>
<path d="M39.2798 16.3296H32.8962V17.8077H39.2798V16.3296Z" fill="#A6A6A6"/>
<path d="M42.7284 8.33374H32.5149V8.51249H42.7284V8.33374Z" fill="#3B3B3B"/>
<path d="M42.7284 11.5586H32.5149V11.7373H42.7284V11.5586Z" fill="#3B3B3B"/>
<path d="M42.7284 14.7842H32.5149V14.963H42.7284V14.7842Z" fill="#3B3B3B"/>
<path d="M42.7284 18.009H32.5149V18.1878H42.7284V18.009Z" fill="#3B3B3B"/>
<path d="M42.7284 21.2339H32.5149V21.4126H42.7284V21.2339Z" fill="#3B3B3B"/>
<path d="M42.7284 24.46H32.5149V24.6387H42.7284V24.46Z" fill="#3B3B3B"/>
<path d="M62.6164 0.956543H46.6694V56.4825H62.6164V0.956543Z" fill="#C4B941"/>
<path d="M58.685 44.2585C58.685 46.4916 56.8754 48.3012 54.6423 48.3012C52.4102 48.3012 50.5996 46.4916 50.5996 44.2585C50.5996 42.0254 52.4092 40.2158 54.6423 40.2158C56.8744 40.2158 58.685 42.0254 58.685 44.2585Z" fill="#616161"/>
<path d="M58.0024 44.2585C58.0024 46.1141 56.4974 47.6191 54.6418 47.6191C52.7863 47.6191 51.2812 46.1141 51.2812 44.2585C51.2812 42.403 52.7863 40.8979 54.6418 40.8979C56.4974 40.8979 58.0024 42.403 58.0024 44.2585Z" fill="#242424"/>
<path d="M60.9174 4.12231H48.3679V27.3687H60.9174V4.12231Z" fill="#6E6725"/>
<path d="M60.617 4.61597H48.6687V26.7499H60.617V4.61597Z" fill="white"/>
<path d="M59.3692 6.6543H50.0964V8.13236H59.3692V6.6543Z" fill="#A6A6A6"/>
<path d="M59.3692 9.87915H50.0964V11.3572H59.3692V9.87915Z" fill="#A6A6A6"/>
<path d="M56.48 13.1038H50.0964V14.5818H56.48V13.1038Z" fill="#A6A6A6"/>
<path d="M59.9286 8.33374H49.7151V8.51249H59.9286V8.33374Z" fill="#3B3B3B"/>
<path d="M59.9286 11.5586H49.7151V11.7373H59.9286V11.5586Z" fill="#3B3B3B"/>
<path d="M59.9286 14.7842H49.7151V14.963H59.9286V14.7842Z" fill="#3B3B3B"/>
<path d="M59.9286 18.009H49.7151V18.1878H59.9286V18.009Z" fill="#3B3B3B"/>
<path d="M59.9286 21.2339H49.7151V21.4126H59.9286V21.2339Z" fill="#3B3B3B"/>
<path d="M59.9286 24.46H49.7151V24.6387H59.9286V24.46Z" fill="#3B3B3B"/>
<path d="M73.1116 56.4824H0.888672V60.9565H73.1116V56.4824Z" fill="#314C61"/>
</svg>
