<svg width="16" height="1048" viewBox="0 0 16 1048" fill="none" xmlns="http://www.w3.org/2000/svg">
<path d="M7.29294 1047.45C7.68346 1047.84 8.31663 1047.84 8.70715 1047.45L15.0711 1041.08C15.4616 1040.69 15.4616 1040.06 15.0711 1039.67C14.6806 1039.28 14.0474 1039.28 13.6569 1039.67L8.00005 1045.33L2.34319 1039.67C1.95267 1039.28 1.3195 1039.28 0.928978 1039.67C0.538453 1040.06 0.538453 1040.69 0.928978 1041.08L7.29294 1047.45ZM8 0.739746L7 0.739746L7 2.73593L8 2.73593L9 2.73593L9 0.739746L8 0.739746ZM8 6.7283L7 6.7283L7 10.7207L8 10.7207L9 10.7207L9 6.7283L8 6.7283ZM8 14.713L7 14.713L7 18.7054L8 18.7054L9 18.7054L9 14.713L8 14.713ZM8 22.6978L7 22.6978L7 26.6901L8 26.6901L9 26.6901L9 22.6978L8 22.6978ZM8 30.6825L7 30.6825L7 34.6749L8 34.6749L9 34.6749L9 30.6825L8 30.6825ZM8 38.6672L7 38.6672L7 42.6596L8 42.6596L9 42.6596L9 38.6672L8 38.6672ZM8 46.652L7 46.652L7 50.6443L8 50.6443L9 50.6443L9 46.652L8 46.652ZM8 54.6367L7 54.6367L7 58.6291L8 58.6291L9 58.6291L9 54.6367L8 54.6367ZM8 62.6214L7 62.6214L7 66.6138L8 66.6138L9 66.6138L9 62.6214L8 62.6214ZM8 70.6062L7 70.6062L7 74.5985L8 74.5985L9 74.5985L9 70.6062L8 70.6062ZM8 78.5909L7 78.5909L7 82.5832L8 82.5832L9 82.5832L9 78.5909L8 78.5909ZM8 86.5756L7 86.5756L7 90.568L8 90.568L9 90.568L9 86.5756L8 86.5756ZM8 94.5603L7 94.5603L7 98.5527L8 98.5527L9 98.5527L9 94.5603L8 94.5603ZM8 102.545L7 102.545L7 106.537L8 106.537L9 106.537L9 102.545L8 102.545ZM8 110.53L7 110.53L7 114.522L8 114.522L9 114.522L9 110.53L8 110.53ZM8.00001 118.515L7.00001 118.515L7.00001 122.507L8.00001 122.507L9.00001 122.507L9.00001 118.515L8.00001 118.515ZM8.00001 126.499L7.00001 126.499L7.00001 130.492L8.00001 130.492L9.00001 130.492L9.00001 126.499L8.00001 126.499ZM8.00001 134.484L7.00001 134.484L7.00001 138.476L8.00001 138.476L9.00001 138.476L9.00001 134.484L8.00001 134.484ZM8.00001 142.469L7.00001 142.469L7.00001 146.461L8.00001 146.461L9.00001 146.461L9.00001 142.469L8.00001 142.469ZM8.00001 150.453L7.00001 150.453L7.00001 154.446L8.00001 154.446L9.00001 154.446L9.00001 150.453L8.00001 150.453ZM8.00001 158.438L7.00001 158.438L7.00001 162.431L8.00001 162.431L9.00001 162.431L9.00001 158.438L8.00001 158.438ZM8.00001 166.423L7.00001 166.423L7.00001 170.415L8.00001 170.415L9.00001 170.415L9.00001 166.423L8.00001 166.423ZM8.00001 174.408L7.00001 174.408L7.00001 178.4L8.00001 178.4L9.00001 178.4L9.00001 174.408L8.00001 174.408ZM8.00001 182.392L7.00001 182.392L7.00001 186.385L8.00001 186.385L9.00001 186.385L9.00001 182.392L8.00001 182.392ZM8.00001 190.377L7.00001 190.377L7.00001 194.37L8.00001 194.37L9.00001 194.37L9.00001 190.377L8.00001 190.377ZM8.00001 198.362L7.00001 198.362L7.00001 202.354L8.00001 202.354L9.00001 202.354L9.00001 198.362L8.00001 198.362ZM8.00001 206.347L7.00001 206.347L7.00001 210.339L8.00001 210.339L9.00001 210.339L9.00001 206.347L8.00001 206.347ZM8.00001 214.331L7.00001 214.331L7.00001 218.324L8.00001 218.324L9.00001 218.324L9.00001 214.331L8.00001 214.331ZM8.00001 222.316L7.00001 222.316L7.00001 226.309L8.00001 226.309L9.00001 226.309L9.00001 222.316L8.00001 222.316ZM8.00001 230.301L7.00001 230.301L7.00001 234.293L8.00001 234.293L9.00001 234.293L9.00001 230.301L8.00001 230.301ZM8.00001 238.286L7.00001 238.286L7.00001 242.278L8.00001 242.278L9.00001 242.278L9.00001 238.286L8.00001 238.286ZM8.00001 246.27L7.00001 246.27L7.00001 250.263L8.00001 250.263L9.00001 250.263L9.00001 246.27L8.00001 246.27ZM8.00001 254.255L7.00001 254.255L7.00001 258.247L8.00001 258.247L9.00001 258.247L9.00001 254.255L8.00001 254.255ZM8.00001 262.24L7.00001 262.24L7.00001 266.232L8.00001 266.232L9.00001 266.232L9.00001 262.24L8.00001 262.24ZM8.00001 270.225L7.00001 270.225L7.00001 274.217L8.00001 274.217L9.00001 274.217L9.00001 270.225L8.00001 270.225ZM8.00001 278.209L7.00001 278.209L7.00001 282.202L8.00001 282.202L9.00001 282.202L9.00001 278.209L8.00001 278.209ZM8.00001 286.194L7.00001 286.194L7.00001 290.186L8.00001 290.186L9.00001 290.186L9.00001 286.194L8.00001 286.194ZM8.00001 294.179L7.00001 294.179L7.00001 298.171L8.00001 298.171L9.00001 298.171L9.00001 294.179L8.00001 294.179ZM8.00001 302.164L7.00001 302.164L7.00001 306.156L8.00001 306.156L9.00001 306.156L9.00001 302.164L8.00001 302.164ZM8.00001 310.148L7.00001 310.148L7.00001 314.141L8.00001 314.141L9.00001 314.141L9.00001 310.148L8.00001 310.148ZM8.00001 318.133L7.00001 318.133L7.00001 322.125L8.00001 322.125L9.00001 322.125L9.00001 318.133L8.00001 318.133ZM8.00001 326.118L7.00001 326.118L7.00001 330.11L8.00001 330.11L9.00001 330.11L9.00001 326.118L8.00001 326.118ZM8.00001 334.103L7.00001 334.103L7.00001 338.095L8.00001 338.095L9.00001 338.095L9.00001 334.103L8.00001 334.103ZM8.00001 342.087L7.00001 342.087L7.00002 346.08L8.00002 346.08L9.00002 346.08L9.00001 342.087L8.00001 342.087ZM8.00002 350.072L7.00002 350.072L7.00002 354.064L8.00002 354.064L9.00002 354.064L9.00002 350.072L8.00002 350.072ZM8.00002 358.057L7.00002 358.057L7.00002 362.049L8.00002 362.049L9.00002 362.049L9.00002 358.057L8.00002 358.057ZM8.00002 366.041L7.00002 366.041L7.00002 370.034L8.00002 370.034L9.00002 370.034L9.00002 366.041L8.00002 366.041ZM8.00002 374.026L7.00002 374.026L7.00002 378.019L8.00002 378.019L9.00002 378.019L9.00002 374.026L8.00002 374.026ZM8.00002 382.011L7.00002 382.011L7.00002 386.003L8.00002 386.003L9.00002 386.003L9.00002 382.011L8.00002 382.011ZM8.00002 389.996L7.00002 389.996L7.00002 393.988L8.00002 393.988L9.00002 393.988L9.00002 389.996L8.00002 389.996ZM8.00002 397.98L7.00002 397.98L7.00002 401.973L8.00002 401.973L9.00002 401.973L9.00002 397.98L8.00002 397.98ZM8.00002 405.965L7.00002 405.965L7.00002 409.958L8.00002 409.958L9.00002 409.958L9.00002 405.965L8.00002 405.965ZM8.00002 413.95L7.00002 413.95L7.00002 417.942L8.00002 417.942L9.00002 417.942L9.00002 413.95L8.00002 413.95ZM8.00002 421.935L7.00002 421.935L7.00002 425.927L8.00002 425.927L9.00002 425.927L9.00002 421.935L8.00002 421.935ZM8.00002 429.919L7.00002 429.919L7.00002 433.912L8.00002 433.912L9.00002 433.912L9.00002 429.919L8.00002 429.919ZM8.00002 437.904L7.00002 437.904L7.00002 441.897L8.00002 441.897L9.00002 441.897L9.00002 437.904L8.00002 437.904ZM8.00002 445.889L7.00002 445.889L7.00002 449.881L8.00002 449.881L9.00002 449.881L9.00002 445.889L8.00002 445.889ZM8.00002 453.874L7.00002 453.874L7.00002 457.866L8.00002 457.866L9.00002 457.866L9.00002 453.874L8.00002 453.874ZM8.00002 461.858L7.00002 461.858L7.00002 465.851L8.00002 465.851L9.00002 465.851L9.00002 461.858L8.00002 461.858ZM8.00002 469.843L7.00002 469.843L7.00002 473.835L8.00002 473.835L9.00002 473.835L9.00002 469.843L8.00002 469.843ZM8.00002 477.828L7.00002 477.828L7.00002 481.82L8.00002 481.82L9.00002 481.82L9.00002 477.828L8.00002 477.828ZM8.00002 485.813L7.00002 485.813L7.00002 489.805L8.00002 489.805L9.00002 489.805L9.00002 485.813L8.00002 485.813ZM8.00002 493.797L7.00002 493.797L7.00002 497.79L8.00002 497.79L9.00002 497.79L9.00002 493.797L8.00002 493.797ZM8.00002 501.782L7.00002 501.782L7.00002 505.774L8.00002 505.774L9.00002 505.774L9.00002 501.782L8.00002 501.782ZM8.00002 509.767L7.00002 509.767L7.00002 513.759L8.00002 513.759L9.00002 513.759L9.00002 509.767L8.00002 509.767ZM8.00002 517.752L7.00002 517.752L7.00002 521.744L8.00002 521.744L9.00002 521.744L9.00002 517.752L8.00002 517.752ZM8.00002 525.736L7.00002 525.736L7.00002 529.729L8.00002 529.729L9.00002 529.729L9.00002 525.736L8.00002 525.736ZM8.00002 533.721L7.00002 533.721L7.00002 537.713L8.00002 537.713L9.00002 537.713L9.00002 533.721L8.00002 533.721ZM8.00002 541.706L7.00002 541.706L7.00002 545.698L8.00002 545.698L9.00002 545.698L9.00002 541.706L8.00002 541.706ZM8.00002 549.69L7.00002 549.69L7.00002 553.683L8.00002 553.683L9.00002 553.683L9.00002 549.69L8.00002 549.69ZM8.00002 557.675L7.00002 557.675L7.00002 561.668L8.00002 561.668L9.00002 561.668L9.00002 557.675L8.00002 557.675ZM8.00002 565.66L7.00002 565.66L7.00002 569.652L8.00002 569.652L9.00002 569.652L9.00002 565.66L8.00002 565.66ZM8.00003 573.645L7.00003 573.645L7.00003 577.637L8.00003 577.637L9.00003 577.637L9.00003 573.645L8.00003 573.645ZM8.00003 581.629L7.00003 581.629L7.00003 585.622L8.00003 585.622L9.00003 585.622L9.00003 581.629L8.00003 581.629ZM8.00003 589.614L7.00003 589.614L7.00003 593.607L8.00003 593.607L9.00003 593.607L9.00003 589.614L8.00003 589.614ZM8.00003 597.599L7.00003 597.599L7.00003 601.591L8.00003 601.591L9.00003 601.591L9.00003 597.599L8.00003 597.599ZM8.00003 605.584L7.00003 605.584L7.00003 609.576L8.00003 609.576L9.00003 609.576L9.00003 605.584L8.00003 605.584ZM8.00003 613.568L7.00003 613.568L7.00003 617.561L8.00003 617.561L9.00003 617.561L9.00003 613.568L8.00003 613.568ZM8.00003 621.553L7.00003 621.553L7.00003 625.546L8.00003 625.546L9.00003 625.546L9.00003 621.553L8.00003 621.553ZM8.00003 629.538L7.00003 629.538L7.00003 633.53L8.00003 633.53L9.00003 633.53L9.00003 629.538L8.00003 629.538ZM8.00003 637.523L7.00003 637.523L7.00003 641.515L8.00003 641.515L9.00003 641.515L9.00003 637.523L8.00003 637.523ZM8.00003 645.507L7.00003 645.507L7.00003 649.5L8.00003 649.5L9.00003 649.5L9.00003 645.507L8.00003 645.507ZM8.00003 653.492L7.00003 653.492L7.00003 657.484L8.00003 657.484L9.00003 657.484L9.00003 653.492L8.00003 653.492ZM8.00003 661.477L7.00003 661.477L7.00003 665.469L8.00003 665.469L9.00003 665.469L9.00003 661.477L8.00003 661.477ZM8.00003 669.462L7.00003 669.462L7.00003 673.454L8.00003 673.454L9.00003 673.454L9.00003 669.462L8.00003 669.462ZM8.00003 677.446L7.00003 677.446L7.00003 681.439L8.00003 681.439L9.00003 681.439L9.00003 677.446L8.00003 677.446ZM8.00003 685.431L7.00003 685.431L7.00003 689.423L8.00003 689.423L9.00003 689.423L9.00003 685.431L8.00003 685.431ZM8.00003 693.416L7.00003 693.416L7.00003 697.408L8.00003 697.408L9.00003 697.408L9.00003 693.416L8.00003 693.416ZM8.00003 701.401L7.00003 701.401L7.00003 705.393L8.00003 705.393L9.00003 705.393L9.00003 701.401L8.00003 701.401ZM8.00003 709.385L7.00003 709.385L7.00003 713.378L8.00003 713.378L9.00003 713.378L9.00003 709.385L8.00003 709.385ZM8.00003 717.37L7.00003 717.37L7.00003 721.362L8.00003 721.362L9.00003 721.362L9.00003 717.37L8.00003 717.37ZM8.00003 725.355L7.00003 725.355L7.00003 729.347L8.00003 729.347L9.00003 729.347L9.00003 725.355L8.00003 725.355ZM8.00003 733.34L7.00003 733.34L7.00003 737.332L8.00003 737.332L9.00003 737.332L9.00003 733.34L8.00003 733.34ZM8.00003 741.324L7.00003 741.324L7.00003 745.317L8.00003 745.317L9.00003 745.317L9.00003 741.324L8.00003 741.324ZM8.00003 749.309L7.00003 749.309L7.00003 753.301L8.00003 753.301L9.00003 753.301L9.00003 749.309L8.00003 749.309ZM8.00003 757.294L7.00003 757.294L7.00003 761.286L8.00003 761.286L9.00003 761.286L9.00003 757.294L8.00003 757.294ZM8.00003 765.279L7.00003 765.279L7.00003 769.271L8.00003 769.271L9.00003 769.271L9.00003 765.279L8.00003 765.279ZM8.00003 773.263L7.00003 773.263L7.00003 777.256L8.00003 777.256L9.00003 777.256L9.00003 773.263L8.00003 773.263ZM8.00003 781.248L7.00003 781.248L7.00003 785.24L8.00003 785.24L9.00003 785.24L9.00003 781.248L8.00003 781.248ZM8.00003 789.233L7.00003 789.233L7.00003 793.225L8.00003 793.225L9.00003 793.225L9.00003 789.233L8.00003 789.233ZM8.00003 797.217L7.00003 797.217L7.00003 801.21L8.00003 801.21L9.00003 801.21L9.00003 797.217L8.00003 797.217ZM8.00004 805.202L7.00004 805.202L7.00004 809.195L8.00004 809.195L9.00004 809.195L9.00004 805.202L8.00004 805.202ZM8.00004 813.187L7.00004 813.187L7.00004 817.179L8.00004 817.179L9.00004 817.179L9.00004 813.187L8.00004 813.187ZM8.00004 821.172L7.00004 821.172L7.00004 825.164L8.00004 825.164L9.00004 825.164L9.00004 821.172L8.00004 821.172ZM8.00004 829.156L7.00004 829.156L7.00004 833.149L8.00004 833.149L9.00004 833.149L9.00004 829.156L8.00004 829.156ZM8.00004 837.141L7.00004 837.141L7.00004 841.134L8.00004 841.134L9.00004 841.134L9.00004 837.141L8.00004 837.141ZM8.00004 845.126L7.00004 845.126L7.00004 849.118L8.00004 849.118L9.00004 849.118L9.00004 845.126L8.00004 845.126ZM8.00004 853.111L7.00004 853.111L7.00004 857.103L8.00004 857.103L9.00004 857.103L9.00004 853.111L8.00004 853.111ZM8.00004 861.095L7.00004 861.095L7.00004 865.088L8.00004 865.088L9.00004 865.088L9.00004 861.095L8.00004 861.095ZM8.00004 869.08L7.00004 869.08L7.00004 873.073L8.00004 873.073L9.00004 873.073L9.00004 869.08L8.00004 869.08ZM8.00004 877.065L7.00004 877.065L7.00004 881.057L8.00004 881.057L9.00004 881.057L9.00004 877.065L8.00004 877.065ZM8.00004 885.05L7.00004 885.05L7.00004 889.042L8.00004 889.042L9.00004 889.042L9.00004 885.05L8.00004 885.05ZM8.00004 893.034L7.00004 893.034L7.00004 897.027L8.00004 897.027L9.00004 897.027L9.00004 893.034L8.00004 893.034ZM8.00004 901.019L7.00004 901.019L7.00004 905.011L8.00004 905.011L9.00004 905.011L9.00004 901.019L8.00004 901.019ZM8.00004 909.004L7.00004 909.004L7.00004 912.996L8.00004 912.996L9.00004 912.996L9.00004 909.004L8.00004 909.004ZM8.00004 916.989L7.00004 916.989L7.00004 920.981L8.00004 920.981L9.00004 920.981L9.00004 916.989L8.00004 916.989ZM8.00004 924.973L7.00004 924.973L7.00004 928.966L8.00004 928.966L9.00004 928.966L9.00004 924.973L8.00004 924.973ZM8.00004 932.958L7.00004 932.958L7.00004 936.95L8.00004 936.95L9.00004 936.95L9.00004 932.958L8.00004 932.958ZM8.00004 940.943L7.00004 940.943L7.00004 944.935L8.00004 944.935L9.00004 944.935L9.00004 940.943L8.00004 940.943ZM8.00004 948.928L7.00004 948.928L7.00004 952.92L8.00004 952.92L9.00004 952.92L9.00004 948.928L8.00004 948.928ZM8.00004 956.912L7.00004 956.912L7.00004 960.905L8.00004 960.905L9.00004 960.905L9.00004 956.912L8.00004 956.912ZM8.00004 964.897L7.00004 964.897L7.00004 968.889L8.00004 968.889L9.00004 968.889L9.00004 964.897L8.00004 964.897ZM8.00004 972.882L7.00004 972.882L7.00004 976.874L8.00004 976.874L9.00004 976.874L9.00004 972.882L8.00004 972.882ZM8.00004 980.867L7.00004 980.867L7.00004 984.859L8.00004 984.859L9.00004 984.859L9.00004 980.867L8.00004 980.867ZM8.00004 988.851L7.00004 988.851L7.00004 992.844L8.00004 992.844L9.00004 992.844L9.00004 988.851L8.00004 988.851ZM8.00004 996.836L7.00004 996.836L7.00004 1000.83L8.00004 1000.83L9.00004 1000.83L9.00004 996.836L8.00004 996.836ZM8.00004 1004.82L7.00004 1004.82L7.00004 1008.81L8.00004 1008.81L9.00004 1008.81L9.00004 1004.82L8.00004 1004.82ZM8.00004 1012.81L7.00004 1012.81L7.00004 1016.8L8.00004 1016.8L9.00004 1016.8L9.00004 1012.81L8.00004 1012.81ZM8.00004 1020.79L7.00004 1020.79L7.00004 1024.78L8.00004 1024.78L9.00004 1024.78L9.00004 1020.79L8.00004 1020.79ZM8.00004 1028.77L7.00004 1028.77L7.00005 1032.77L8.00005 1032.77L9.00005 1032.77L9.00004 1028.77L8.00004 1028.77ZM8.00005 1036.76L7.00005 1036.76L7.00005 1040.75L8.00005 1040.75L9.00005 1040.75L9.00005 1036.76L8.00005 1036.76ZM8.00005 1044.74L7.00005 1044.74L7.00005 1046.74L8.00005 1046.74L9.00005 1046.74L9.00005 1044.74L8.00005 1044.74ZM7.29294 1047.45C7.68346 1047.84 8.31663 1047.84 8.70715 1047.45L15.0711 1041.08C15.4616 1040.69 15.4616 1040.06 15.0711 1039.67C14.6806 1039.28 14.0474 1039.28 13.6569 1039.67L8.00005 1045.33L2.34319 1039.67C1.95267 1039.28 1.3195 1039.28 0.928978 1039.67C0.538453 1040.06 0.538453 1040.69 0.928978 1041.08L7.29294 1047.45ZM8 0.739746L7 0.739746L7 2.73593L8 2.73593L9 2.73593L9 0.739746L8 0.739746ZM8 6.7283L7 6.7283L7 10.7207L8 10.7207L9 10.7207L9 6.7283L8 6.7283ZM8 14.713L7 14.713L7 18.7054L8 18.7054L9 18.7054L9 14.713L8 14.713ZM8 22.6978L7 22.6978L7 26.6901L8 26.6901L9 26.6901L9 22.6978L8 22.6978ZM8 30.6825L7 30.6825L7 34.6749L8 34.6749L9 34.6749L9 30.6825L8 30.6825ZM8 38.6672L7 38.6672L7 42.6596L8 42.6596L9 42.6596L9 38.6672L8 38.6672ZM8 46.652L7 46.652L7 50.6443L8 50.6443L9 50.6443L9 46.652L8 46.652ZM8 54.6367L7 54.6367L7 58.6291L8 58.6291L9 58.6291L9 54.6367L8 54.6367ZM8 62.6214L7 62.6214L7 66.6138L8 66.6138L9 66.6138L9 62.6214L8 62.6214ZM8 70.6062L7 70.6062L7 74.5985L8 74.5985L9 74.5985L9 70.6062L8 70.6062ZM8 78.5909L7 78.5909L7 82.5832L8 82.5832L9 82.5832L9 78.5909L8 78.5909ZM8 86.5756L7 86.5756L7 90.568L8 90.568L9 90.568L9 86.5756L8 86.5756ZM8 94.5603L7 94.5603L7 98.5527L8 98.5527L9 98.5527L9 94.5603L8 94.5603ZM8 102.545L7 102.545L7 106.537L8 106.537L9 106.537L9 102.545L8 102.545ZM8 110.53L7 110.53L7 114.522L8 114.522L9 114.522L9 110.53L8 110.53ZM8.00001 118.515L7.00001 118.515L7.00001 122.507L8.00001 122.507L9.00001 122.507L9.00001 118.515L8.00001 118.515ZM8.00001 126.499L7.00001 126.499L7.00001 130.492L8.00001 130.492L9.00001 130.492L9.00001 126.499L8.00001 126.499ZM8.00001 134.484L7.00001 134.484L7.00001 138.476L8.00001 138.476L9.00001 138.476L9.00001 134.484L8.00001 134.484ZM8.00001 142.469L7.00001 142.469L7.00001 146.461L8.00001 146.461L9.00001 146.461L9.00001 142.469L8.00001 142.469ZM8.00001 150.453L7.00001 150.453L7.00001 154.446L8.00001 154.446L9.00001 154.446L9.00001 150.453L8.00001 150.453ZM8.00001 158.438L7.00001 158.438L7.00001 162.431L8.00001 162.431L9.00001 162.431L9.00001 158.438L8.00001 158.438ZM8.00001 166.423L7.00001 166.423L7.00001 170.415L8.00001 170.415L9.00001 170.415L9.00001 166.423L8.00001 166.423ZM8.00001 174.408L7.00001 174.408L7.00001 178.4L8.00001 178.4L9.00001 178.4L9.00001 174.408L8.00001 174.408ZM8.00001 182.392L7.00001 182.392L7.00001 186.385L8.00001 186.385L9.00001 186.385L9.00001 182.392L8.00001 182.392ZM8.00001 190.377L7.00001 190.377L7.00001 194.37L8.00001 194.37L9.00001 194.37L9.00001 190.377L8.00001 190.377ZM8.00001 198.362L7.00001 198.362L7.00001 202.354L8.00001 202.354L9.00001 202.354L9.00001 198.362L8.00001 198.362ZM8.00001 206.347L7.00001 206.347L7.00001 210.339L8.00001 210.339L9.00001 210.339L9.00001 206.347L8.00001 206.347ZM8.00001 214.331L7.00001 214.331L7.00001 218.324L8.00001 218.324L9.00001 218.324L9.00001 214.331L8.00001 214.331ZM8.00001 222.316L7.00001 222.316L7.00001 226.309L8.00001 226.309L9.00001 226.309L9.00001 222.316L8.00001 222.316ZM8.00001 230.301L7.00001 230.301L7.00001 234.293L8.00001 234.293L9.00001 234.293L9.00001 230.301L8.00001 230.301ZM8.00001 238.286L7.00001 238.286L7.00001 242.278L8.00001 242.278L9.00001 242.278L9.00001 238.286L8.00001 238.286ZM8.00001 246.27L7.00001 246.27L7.00001 250.263L8.00001 250.263L9.00001 250.263L9.00001 246.27L8.00001 246.27ZM8.00001 254.255L7.00001 254.255L7.00001 258.247L8.00001 258.247L9.00001 258.247L9.00001 254.255L8.00001 254.255ZM8.00001 262.24L7.00001 262.24L7.00001 266.232L8.00001 266.232L9.00001 266.232L9.00001 262.24L8.00001 262.24ZM8.00001 270.225L7.00001 270.225L7.00001 274.217L8.00001 274.217L9.00001 274.217L9.00001 270.225L8.00001 270.225ZM8.00001 278.209L7.00001 278.209L7.00001 282.202L8.00001 282.202L9.00001 282.202L9.00001 278.209L8.00001 278.209ZM8.00001 286.194L7.00001 286.194L7.00001 290.186L8.00001 290.186L9.00001 290.186L9.00001 286.194L8.00001 286.194ZM8.00001 294.179L7.00001 294.179L7.00001 298.171L8.00001 298.171L9.00001 298.171L9.00001 294.179L8.00001 294.179ZM8.00001 302.164L7.00001 302.164L7.00001 306.156L8.00001 306.156L9.00001 306.156L9.00001 302.164L8.00001 302.164ZM8.00001 310.148L7.00001 310.148L7.00001 314.141L8.00001 314.141L9.00001 314.141L9.00001 310.148L8.00001 310.148ZM8.00001 318.133L7.00001 318.133L7.00001 322.125L8.00001 322.125L9.00001 322.125L9.00001 318.133L8.00001 318.133ZM8.00001 326.118L7.00001 326.118L7.00001 330.11L8.00001 330.11L9.00001 330.11L9.00001 326.118L8.00001 326.118ZM8.00001 334.103L7.00001 334.103L7.00001 338.095L8.00001 338.095L9.00001 338.095L9.00001 334.103L8.00001 334.103ZM8.00001 342.087L7.00001 342.087L7.00002 346.08L8.00002 346.08L9.00002 346.08L9.00001 342.087L8.00001 342.087ZM8.00002 350.072L7.00002 350.072L7.00002 354.064L8.00002 354.064L9.00002 354.064L9.00002 350.072L8.00002 350.072ZM8.00002 358.057L7.00002 358.057L7.00002 362.049L8.00002 362.049L9.00002 362.049L9.00002 358.057L8.00002 358.057ZM8.00002 366.041L7.00002 366.041L7.00002 370.034L8.00002 370.034L9.00002 370.034L9.00002 366.041L8.00002 366.041ZM8.00002 374.026L7.00002 374.026L7.00002 378.019L8.00002 378.019L9.00002 378.019L9.00002 374.026L8.00002 374.026ZM8.00002 382.011L7.00002 382.011L7.00002 386.003L8.00002 386.003L9.00002 386.003L9.00002 382.011L8.00002 382.011ZM8.00002 389.996L7.00002 389.996L7.00002 393.988L8.00002 393.988L9.00002 393.988L9.00002 389.996L8.00002 389.996ZM8.00002 397.98L7.00002 397.98L7.00002 401.973L8.00002 401.973L9.00002 401.973L9.00002 397.98L8.00002 397.98ZM8.00002 405.965L7.00002 405.965L7.00002 409.958L8.00002 409.958L9.00002 409.958L9.00002 405.965L8.00002 405.965ZM8.00002 413.95L7.00002 413.95L7.00002 417.942L8.00002 417.942L9.00002 417.942L9.00002 413.95L8.00002 413.95ZM8.00002 421.935L7.00002 421.935L7.00002 425.927L8.00002 425.927L9.00002 425.927L9.00002 421.935L8.00002 421.935ZM8.00002 429.919L7.00002 429.919L7.00002 433.912L8.00002 433.912L9.00002 433.912L9.00002 429.919L8.00002 429.919ZM8.00002 437.904L7.00002 437.904L7.00002 441.897L8.00002 441.897L9.00002 441.897L9.00002 437.904L8.00002 437.904ZM8.00002 445.889L7.00002 445.889L7.00002 449.881L8.00002 449.881L9.00002 449.881L9.00002 445.889L8.00002 445.889ZM8.00002 453.874L7.00002 453.874L7.00002 457.866L8.00002 457.866L9.00002 457.866L9.00002 453.874L8.00002 453.874ZM8.00002 461.858L7.00002 461.858L7.00002 465.851L8.00002 465.851L9.00002 465.851L9.00002 461.858L8.00002 461.858ZM8.00002 469.843L7.00002 469.843L7.00002 473.835L8.00002 473.835L9.00002 473.835L9.00002 469.843L8.00002 469.843ZM8.00002 477.828L7.00002 477.828L7.00002 481.82L8.00002 481.82L9.00002 481.82L9.00002 477.828L8.00002 477.828ZM8.00002 485.813L7.00002 485.813L7.00002 489.805L8.00002 489.805L9.00002 489.805L9.00002 485.813L8.00002 485.813ZM8.00002 493.797L7.00002 493.797L7.00002 497.79L8.00002 497.79L9.00002 497.79L9.00002 493.797L8.00002 493.797ZM8.00002 501.782L7.00002 501.782L7.00002 505.774L8.00002 505.774L9.00002 505.774L9.00002 501.782L8.00002 501.782ZM8.00002 509.767L7.00002 509.767L7.00002 513.759L8.00002 513.759L9.00002 513.759L9.00002 509.767L8.00002 509.767ZM8.00002 517.752L7.00002 517.752L7.00002 521.744L8.00002 521.744L9.00002 521.744L9.00002 517.752L8.00002 517.752ZM8.00002 525.736L7.00002 525.736L7.00002 529.729L8.00002 529.729L9.00002 529.729L9.00002 525.736L8.00002 525.736ZM8.00002 533.721L7.00002 533.721L7.00002 537.713L8.00002 537.713L9.00002 537.713L9.00002 533.721L8.00002 533.721ZM8.00002 541.706L7.00002 541.706L7.00002 545.698L8.00002 545.698L9.00002 545.698L9.00002 541.706L8.00002 541.706ZM8.00002 549.69L7.00002 549.69L7.00002 553.683L8.00002 553.683L9.00002 553.683L9.00002 549.69L8.00002 549.69ZM8.00002 557.675L7.00002 557.675L7.00002 561.668L8.00002 561.668L9.00002 561.668L9.00002 557.675L8.00002 557.675ZM8.00002 565.66L7.00002 565.66L7.00002 569.652L8.00002 569.652L9.00002 569.652L9.00002 565.66L8.00002 565.66ZM8.00003 573.645L7.00003 573.645L7.00003 577.637L8.00003 577.637L9.00003 577.637L9.00003 573.645L8.00003 573.645ZM8.00003 581.629L7.00003 581.629L7.00003 585.622L8.00003 585.622L9.00003 585.622L9.00003 581.629L8.00003 581.629ZM8.00003 589.614L7.00003 589.614L7.00003 593.607L8.00003 593.607L9.00003 593.607L9.00003 589.614L8.00003 589.614ZM8.00003 597.599L7.00003 597.599L7.00003 601.591L8.00003 601.591L9.00003 601.591L9.00003 597.599L8.00003 597.599ZM8.00003 605.584L7.00003 605.584L7.00003 609.576L8.00003 609.576L9.00003 609.576L9.00003 605.584L8.00003 605.584ZM8.00003 613.568L7.00003 613.568L7.00003 617.561L8.00003 617.561L9.00003 617.561L9.00003 613.568L8.00003 613.568ZM8.00003 621.553L7.00003 621.553L7.00003 625.546L8.00003 625.546L9.00003 625.546L9.00003 621.553L8.00003 621.553ZM8.00003 629.538L7.00003 629.538L7.00003 633.53L8.00003 633.53L9.00003 633.53L9.00003 629.538L8.00003 629.538ZM8.00003 637.523L7.00003 637.523L7.00003 641.515L8.00003 641.515L9.00003 641.515L9.00003 637.523L8.00003 637.523ZM8.00003 645.507L7.00003 645.507L7.00003 649.5L8.00003 649.5L9.00003 649.5L9.00003 645.507L8.00003 645.507ZM8.00003 653.492L7.00003 653.492L7.00003 657.484L8.00003 657.484L9.00003 657.484L9.00003 653.492L8.00003 653.492ZM8.00003 661.477L7.00003 661.477L7.00003 665.469L8.00003 665.469L9.00003 665.469L9.00003 661.477L8.00003 661.477ZM8.00003 669.462L7.00003 669.462L7.00003 673.454L8.00003 673.454L9.00003 673.454L9.00003 669.462L8.00003 669.462ZM8.00003 677.446L7.00003 677.446L7.00003 681.439L8.00003 681.439L9.00003 681.439L9.00003 677.446L8.00003 677.446ZM8.00003 685.431L7.00003 685.431L7.00003 689.423L8.00003 689.423L9.00003 689.423L9.00003 685.431L8.00003 685.431ZM8.00003 693.416L7.00003 693.416L7.00003 697.408L8.00003 697.408L9.00003 697.408L9.00003 693.416L8.00003 693.416ZM8.00003 701.401L7.00003 701.401L7.00003 705.393L8.00003 705.393L9.00003 705.393L9.00003 701.401L8.00003 701.401ZM8.00003 709.385L7.00003 709.385L7.00003 713.378L8.00003 713.378L9.00003 713.378L9.00003 709.385L8.00003 709.385ZM8.00003 717.37L7.00003 717.37L7.00003 721.362L8.00003 721.362L9.00003 721.362L9.00003 717.37L8.00003 717.37ZM8.00003 725.355L7.00003 725.355L7.00003 729.347L8.00003 729.347L9.00003 729.347L9.00003 725.355L8.00003 725.355ZM8.00003 733.34L7.00003 733.34L7.00003 737.332L8.00003 737.332L9.00003 737.332L9.00003 733.34L8.00003 733.34ZM8.00003 741.324L7.00003 741.324L7.00003 745.317L8.00003 745.317L9.00003 745.317L9.00003 741.324L8.00003 741.324ZM8.00003 749.309L7.00003 749.309L7.00003 753.301L8.00003 753.301L9.00003 753.301L9.00003 749.309L8.00003 749.309ZM8.00003 757.294L7.00003 757.294L7.00003 761.286L8.00003 761.286L9.00003 761.286L9.00003 757.294L8.00003 757.294ZM8.00003 765.279L7.00003 765.279L7.00003 769.271L8.00003 769.271L9.00003 769.271L9.00003 765.279L8.00003 765.279ZM8.00003 773.263L7.00003 773.263L7.00003 777.256L8.00003 777.256L9.00003 777.256L9.00003 773.263L8.00003 773.263ZM8.00003 781.248L7.00003 781.248L7.00003 785.24L8.00003 785.24L9.00003 785.24L9.00003 781.248L8.00003 781.248ZM8.00003 789.233L7.00003 789.233L7.00003 793.225L8.00003 793.225L9.00003 793.225L9.00003 789.233L8.00003 789.233ZM8.00003 797.217L7.00003 797.217L7.00003 801.21L8.00003 801.21L9.00003 801.21L9.00003 797.217L8.00003 797.217ZM8.00004 805.202L7.00004 805.202L7.00004 809.195L8.00004 809.195L9.00004 809.195L9.00004 805.202L8.00004 805.202ZM8.00004 813.187L7.00004 813.187L7.00004 817.179L8.00004 817.179L9.00004 817.179L9.00004 813.187L8.00004 813.187ZM8.00004 821.172L7.00004 821.172L7.00004 825.164L8.00004 825.164L9.00004 825.164L9.00004 821.172L8.00004 821.172ZM8.00004 829.156L7.00004 829.156L7.00004 833.149L8.00004 833.149L9.00004 833.149L9.00004 829.156L8.00004 829.156ZM8.00004 837.141L7.00004 837.141L7.00004 841.134L8.00004 841.134L9.00004 841.134L9.00004 837.141L8.00004 837.141ZM8.00004 845.126L7.00004 845.126L7.00004 849.118L8.00004 849.118L9.00004 849.118L9.00004 845.126L8.00004 845.126ZM8.00004 853.111L7.00004 853.111L7.00004 857.103L8.00004 857.103L9.00004 857.103L9.00004 853.111L8.00004 853.111ZM8.00004 861.095L7.00004 861.095L7.00004 865.088L8.00004 865.088L9.00004 865.088L9.00004 861.095L8.00004 861.095ZM8.00004 869.08L7.00004 869.08L7.00004 873.073L8.00004 873.073L9.00004 873.073L9.00004 869.08L8.00004 869.08ZM8.00004 877.065L7.00004 877.065L7.00004 881.057L8.00004 881.057L9.00004 881.057L9.00004 877.065L8.00004 877.065ZM8.00004 885.05L7.00004 885.05L7.00004 889.042L8.00004 889.042L9.00004 889.042L9.00004 885.05L8.00004 885.05ZM8.00004 893.034L7.00004 893.034L7.00004 897.027L8.00004 897.027L9.00004 897.027L9.00004 893.034L8.00004 893.034ZM8.00004 901.019L7.00004 901.019L7.00004 905.011L8.00004 905.011L9.00004 905.011L9.00004 901.019L8.00004 901.019ZM8.00004 909.004L7.00004 909.004L7.00004 912.996L8.00004 912.996L9.00004 912.996L9.00004 909.004L8.00004 909.004ZM8.00004 916.989L7.00004 916.989L7.00004 920.981L8.00004 920.981L9.00004 920.981L9.00004 916.989L8.00004 916.989ZM8.00004 924.973L7.00004 924.973L7.00004 928.966L8.00004 928.966L9.00004 928.966L9.00004 924.973L8.00004 924.973ZM8.00004 932.958L7.00004 932.958L7.00004 936.95L8.00004 936.95L9.00004 936.95L9.00004 932.958L8.00004 932.958ZM8.00004 940.943L7.00004 940.943L7.00004 944.935L8.00004 944.935L9.00004 944.935L9.00004 940.943L8.00004 940.943ZM8.00004 948.928L7.00004 948.928L7.00004 952.92L8.00004 952.92L9.00004 952.92L9.00004 948.928L8.00004 948.928ZM8.00004 956.912L7.00004 956.912L7.00004 960.905L8.00004 960.905L9.00004 960.905L9.00004 956.912L8.00004 956.912ZM8.00004 964.897L7.00004 964.897L7.00004 968.889L8.00004 968.889L9.00004 968.889L9.00004 964.897L8.00004 964.897ZM8.00004 972.882L7.00004 972.882L7.00004 976.874L8.00004 976.874L9.00004 976.874L9.00004 972.882L8.00004 972.882ZM8.00004 980.867L7.00004 980.867L7.00004 984.859L8.00004 984.859L9.00004 984.859L9.00004 980.867L8.00004 980.867ZM8.00004 988.851L7.00004 988.851L7.00004 992.844L8.00004 992.844L9.00004 992.844L9.00004 988.851L8.00004 988.851ZM8.00004 996.836L7.00004 996.836L7.00004 1000.83L8.00004 1000.83L9.00004 1000.83L9.00004 996.836L8.00004 996.836ZM8.00004 1004.82L7.00004 1004.82L7.00004 1008.81L8.00004 1008.81L9.00004 1008.81L9.00004 1004.82L8.00004 1004.82ZM8.00004 1012.81L7.00004 1012.81L7.00004 1016.8L8.00004 1016.8L9.00004 1016.8L9.00004 1012.81L8.00004 1012.81ZM8.00004 1020.79L7.00004 1020.79L7.00004 1024.78L8.00004 1024.78L9.00004 1024.78L9.00004 1020.79L8.00004 1020.79ZM8.00004 1028.77L7.00004 1028.77L7.00005 1032.77L8.00005 1032.77L9.00005 1032.77L9.00004 1028.77L8.00004 1028.77ZM8.00005 1036.76L7.00005 1036.76L7.00005 1040.75L8.00005 1040.75L9.00005 1040.75L9.00005 1036.76L8.00005 1036.76ZM8.00005 1044.74L7.00005 1044.74L7.00005 1046.74L8.00005 1046.74L9.00005 1046.74L9.00005 1044.74L8.00005 1044.74Z" fill="#FB878C"/>
</svg>
