<svg width="54" height="61" viewBox="0 0 54 61" fill="none" xmlns="http://www.w3.org/2000/svg">
<path d="M53.6323 0.956543H0.367676V54.2211H53.6323V0.956543Z" fill="white"/>
<path d="M15.1735 5.62769H5.03735V15.7634H15.1735V5.62769ZM13.5387 14.1288H6.67202V7.26244H13.5387V14.1288Z" fill="#1D2342"/>
<path d="M12.1069 8.60254H7.92041V12.7883H12.1069V8.60254Z" fill="#1D2342"/>
<path d="M21.9306 5.62744H18.552V9.00622H21.9306V5.62744Z" fill="#1D2342"/>
<path d="M8.41597 22.5208H5.03711V25.8991V29.2785H8.41597V25.8991V22.5208Z" fill="#1D2342"/>
<path d="M15.1731 22.5208H11.7944V25.8991H15.1731V22.5208Z" fill="#1D2342"/>
<path d="M11.7945 19.1426H8.41577V22.5209H11.7945V19.1426Z" fill="#1D2342"/>
<path d="M42.2041 22.5208V19.1424H38.8251H35.446V22.5208H38.8251V25.8991H42.2041V29.2785H38.8251H35.446V25.8991V22.5208H32.0671V19.1424H35.446V15.7631V12.3846H32.0671V9.00622H35.446V5.62744H32.0671H28.6884H25.3096V9.00622H28.6884V12.3846V15.7631H25.3096V19.1424H28.6884V22.5208V25.8991H25.3096V29.2785H28.6884V32.6567V36.0354H25.3096V39.4138H28.6884V42.7923V46.1713H25.3096V49.5499H28.6884H32.0671H35.446V46.1713H32.0671V42.7923H35.446V39.4138V36.0354H32.0671V32.6567H35.446H38.8251V36.0354H42.2041V32.6567H45.583V36.0354H48.9621V32.6567V29.2785H45.583V25.8991H48.9621V22.5208H45.583H42.2041Z" fill="#1D2342"/>
<path d="M38.8252 5.62744V15.7631H48.9622V5.62744H38.8252ZM47.3269 14.1285H40.4601V7.2622H47.3269V14.1285Z" fill="#1D2342"/>
<path d="M45.8952 8.60254H41.7085V12.7883H45.8952V8.60254Z" fill="#1D2342"/>
<path d="M5.03711 49.5499H15.1733V39.4138H5.03711V49.5499ZM6.67178 41.0486H13.5384V47.9156H6.67178V41.0486Z" fill="#1D2342"/>
<path d="M12.1069 42.3892H7.92041V46.5753H12.1069V42.3892Z" fill="#1D2342"/>
<path d="M25.3097 39.4139H21.9307V36.0355H25.3097V32.6568V29.2786H21.9307V25.8992H25.3097V22.5209H21.9307V19.1425V15.7633H25.3097V12.3847V9.00635H21.9307V12.3847H18.552V15.7633V19.1425H15.1731V22.5209H18.552V25.8992H15.1731V29.2786H18.552V32.6568H15.1731V29.2786H11.7945H8.41577V32.6568H11.7945V36.0355H15.1731H18.552V39.4139V42.7924H21.9307V46.1714H25.3097V42.7924V39.4139Z" fill="#1D2342"/>
<path d="M21.9306 46.1714H18.552V49.5499H21.9306V46.1714Z" fill="#1D2342"/>
<path d="M8.41597 32.6567H5.03711V36.0355H8.41597V32.6567Z" fill="#1D2342"/>
<path d="M38.8252 49.5499H48.9622V39.4138H38.8252V49.5499ZM40.4601 41.0486H47.3269V47.9156H40.4601V41.0486Z" fill="#1D2342"/>
<path d="M45.8952 42.3892H41.7085V46.5753H45.8952V42.3892Z" fill="#1D2342"/>
<path d="M17.0993 38.0623C17.0993 38.5081 16.7377 38.8695 16.2921 38.8695C15.8461 38.8695 15.4849 38.5081 15.4849 38.0623V34.6437C15.4849 34.1977 15.8461 33.8364 16.2921 33.8364C16.7376 33.8364 17.0993 34.1976 17.0993 34.6437V38.0623Z" fill="#22282A"/>
<path d="M17.1293 32.0649C17.1293 32.5107 16.7677 32.8723 16.3221 32.8723C15.8762 32.8723 15.5149 32.5107 15.5149 32.0649V24.0903C15.5149 23.6444 15.8761 23.2832 16.3221 23.2832C16.7677 23.2832 17.1293 23.6444 17.1293 24.0903V32.0649Z" fill="#22282A"/>
<path d="M16.8266 31.7444C16.8266 32.1067 16.5874 32.4003 16.2922 32.4003C15.9971 32.4003 15.7578 32.1067 15.7578 31.7444V24.4106C15.7578 24.0483 15.9971 23.7546 16.2922 23.7546C16.5874 23.7546 16.8266 24.0483 16.8266 24.4106V31.7444Z" fill="#343C40"/>
<path d="M16.796 37.7418C16.796 38.1041 16.5637 38.3976 16.2769 38.3976C15.9901 38.3976 15.7573 38.104 15.7573 37.7418V34.9638C15.7573 34.6016 15.99 34.3081 16.2769 34.3081C16.5638 34.3081 16.796 34.6017 16.796 34.9638V37.7418Z" fill="#343C40"/>
<path d="M38.5153 59.1376C38.5153 60.1422 37.701 60.9567 36.6963 60.9567H18.1408C17.136 60.9567 16.3218 60.1422 16.3218 59.1376V19.844C16.3218 18.8392 17.136 18.0249 18.1408 18.0249H36.6963C37.701 18.0249 38.5153 18.8393 38.5153 19.844V59.1376Z" fill="#22282A"/>
<path d="M36.6963 18.0249H18.1408C17.136 18.0249 16.3218 18.8393 16.3218 19.844V20.4807C16.3218 19.4761 17.136 18.6616 18.1408 18.6616H36.6963C37.701 18.6616 38.5153 19.4761 38.5153 20.4807V19.844C38.5153 18.8392 37.701 18.0249 36.6963 18.0249Z" fill="#343C40"/>
<path d="M18.1408 60.9567H36.6963C37.701 60.9567 38.5153 60.1421 38.5153 59.1376V58.501C38.5153 59.5055 37.701 60.32 36.6963 60.32H18.1408C17.136 60.32 16.3218 59.5055 16.3218 58.501V59.1376C16.3218 60.1421 17.136 60.9567 18.1408 60.9567Z" fill="#343C40"/>
<path d="M37.8477 57.9559C37.8477 58.9 37.0823 59.6654 36.1378 59.6654H18.6987C17.7547 59.6654 16.9893 58.9 16.9893 57.9559V21.026C16.9893 20.0817 17.7547 19.3162 18.6987 19.3162H36.1378C37.0823 19.3162 37.8477 20.0817 37.8477 21.026V57.9559Z" fill="#61B9D9"/>
<path d="M18.013 19.4602C17.4104 19.7245 16.9893 20.3256 16.9893 21.0259V57.9558C16.9893 58.8999 17.7547 59.6654 18.6987 59.6654H36.1378C37.0823 59.6654 37.8477 58.8999 37.8477 57.9558V55.1801C35.3095 51.0685 20.0164 22.7716 18.013 19.4602Z" fill="#4FB5D8"/>
<path d="M27.7214 19.0235V18.9934L27.4185 19.0084L27.1151 18.9934V19.0235L21.2183 19.316C21.2183 19.316 22.6132 19.4312 22.9463 19.6969C23.3254 19.9991 23.4766 20.3185 23.6436 20.7429C23.8664 21.3094 24.3115 21.2868 24.8786 21.2868H27.1151H27.7214H29.9583C30.5253 21.2868 30.9705 21.3094 31.1932 20.7429C31.3602 20.3185 31.5115 19.9991 31.8905 19.6969C32.2237 19.4312 33.6186 19.316 33.6186 19.316L27.7214 19.0235Z" fill="#22282A"/>
<path d="M28.2675 19.9991C28.2675 20.2166 28.091 20.3932 27.8731 20.3932H25.5086C25.2908 20.3932 25.1143 20.2166 25.1143 19.9991C25.1143 19.7813 25.2908 19.605 25.5086 19.605H27.8731C28.091 19.605 28.2675 19.7813 28.2675 19.9991Z" fill="black"/>
<path d="M29.723 19.9991C29.723 20.2166 29.5465 20.3932 29.3287 20.3932C29.1109 20.3932 28.9348 20.2166 28.9348 19.9991C28.9348 19.7813 29.1109 19.605 29.3287 19.605C29.5465 19.605 29.723 19.7813 29.723 19.9991Z" fill="black"/>
<path d="M34.1635 29.1553H20.7253V42.5933H34.1635V29.1553Z" fill="white"/>
<path d="M35.1331 40.1084V43.4193H31.6782V44.2457H35.8846V40.1084H35.1331Z" fill="white"/>
<path d="M23.21 28.1856H19.899V31.6405H19.0728V27.4341H23.21V28.1856Z" fill="white"/>
<path d="M24.4801 30.3701H21.9395V32.9103H24.4801V30.3701ZM24.0705 32.5008H22.3495V30.7797H24.0705V32.5008Z" fill="#1D2342"/>
<path d="M23.7118 31.1157H22.6624V32.165H23.7118V31.1157Z" fill="#1D2342"/>
<path d="M26.174 30.3701H25.3271V31.2168H26.174V30.3701Z" fill="#1D2342"/>
<path d="M22.7863 34.6042H21.9395V35.451V36.2979H22.7863V35.451V34.6042Z" fill="#1D2342"/>
<path d="M24.4802 34.6042H23.6333V35.451H24.4802V34.6042Z" fill="#1D2342"/>
<path d="M23.6333 33.7573H22.7864V34.6041H23.6333V33.7573Z" fill="#1D2342"/>
<path d="M31.2548 34.6041V33.7573H30.4079H29.561V34.6041H30.4079V35.4508H31.2548V36.2977H30.4079H29.561V35.4508V34.6041H28.7141V33.7573H29.561V32.9104V32.0637H28.7141V31.2168H29.561V30.3701H28.7141H27.8672H27.0208V31.2168H27.8672V32.0637V32.9104H27.0208V33.7573H27.8672V34.6041V35.4508H27.0208V36.2977H27.8672V37.1444V37.9913H27.0208V38.838H27.8672V39.6847V40.5316H27.0208V41.3783H27.8672H28.7141H29.561V40.5316H28.7141V39.6847H29.561V38.838V37.9913H28.7141V37.1444H29.561H30.4079V37.9913H31.2548V37.1444H32.1017V37.9913H32.9485V37.1444V36.2977H32.1017V35.4508H32.9485V34.6041H32.1017H31.2548Z" fill="#1D2342"/>
<path d="M30.408 30.3701V32.9103H32.9486V30.3701H30.408ZM32.539 32.5008H30.818V30.7797H32.539V32.5008Z" fill="#1D2342"/>
<path d="M32.1798 31.1157H31.1309V32.165H32.1798V31.1157Z" fill="#1D2342"/>
<path d="M21.9395 41.3785H24.4801V38.8381H21.9395V41.3785ZM22.3495 39.2478H24.0705V40.9691H22.3495V39.2478Z" fill="#1D2342"/>
<path d="M23.7118 39.5837H22.6624V40.6331H23.7118V39.5837Z" fill="#1D2342"/>
<path d="M27.0208 38.838H26.1739V37.9913H27.0208V37.1444V36.2977H26.1739V35.4508H27.0208V34.6041H26.1739V33.7573V32.9104H27.0208V32.0637V31.2168H26.1739V32.0637H25.3271V32.9104V33.7573H24.4802V34.6041H25.3271V35.4508H24.4802V36.2977H25.3271V37.1444H24.4802V36.2977H23.6333H22.7864V37.1444H23.6333V37.9913H24.4802H25.3271V38.838V39.6847H26.1739V40.5315H27.0208V39.6847V38.838Z" fill="#1D2342"/>
<path d="M26.174 40.5315H25.3271V41.3783H26.174V40.5315Z" fill="#1D2342"/>
<path d="M22.7863 37.1445H21.9395V37.9914H22.7863V37.1445Z" fill="#1D2342"/>
<path d="M30.408 41.3785H32.9486V38.8381H30.408V41.3785ZM30.818 39.2478H32.5391V40.9691H30.818V39.2478Z" fill="#1D2342"/>
<path d="M32.1798 39.5837H31.1309V40.6331H32.1798V39.5837Z" fill="#1D2342"/>
<path d="M33.7815 50.0965C33.7815 50.8335 33.1838 51.4311 32.4469 51.4311H23.6176C22.8806 51.4311 22.283 50.8335 22.283 50.0965V47.8716C22.283 47.1346 22.8806 46.5371 23.6176 46.5371H32.4469C33.1838 46.5371 33.7815 47.1346 33.7815 47.8716V50.0965Z" fill="#0472A4"/>
<path d="M32.447 46.5371H23.6177C23.1808 46.5371 22.794 46.748 22.5505 47.0728C22.7468 46.9591 22.9742 46.8929 23.2176 46.8929H32.0465C32.7839 46.8929 33.3815 47.4905 33.3815 48.2278V50.4522C33.3815 50.7524 33.2811 51.0284 33.1141 51.2514C33.5125 51.0206 33.7816 50.5903 33.7816 50.0965V47.8716C33.7816 47.1346 33.1839 46.5371 32.447 46.5371Z" fill="#A0BECE"/>
<path d="M25.4367 49.34L25.434 49.3861L25.4286 49.432L25.4203 49.4754L25.4069 49.535L25.3935 49.573L25.3691 49.6271L25.35 49.6624L25.3174 49.7111L25.2903 49.7436L25.2579 49.7761L25.2252 49.806L25.171 49.8411L25.1359 49.8655L25.0952 49.8872L25.0574 49.9062L24.995 49.9278L24.9138 49.955L24.8704 49.963L24.8028 49.9738L24.7621 49.9793L24.7024 49.9847L24.6645 49.9874L24.6023 49.9902L24.4721 49.9982H24.4126L24.3746 49.9956L24.3124 49.9902L24.2717 49.9847L24.2256 49.9765L24.1849 49.963L24.1254 49.9441L24.0876 49.9251L24.0469 49.9061L24.0089 49.8871L23.9737 49.8654L23.887 49.8059L23.8545 49.7787L23.8058 49.7408L23.7733 49.7137L23.7436 49.684L23.7219 49.6596L23.7192 49.6405L23.7327 49.6161L23.7436 49.6026L23.7707 49.5728L23.8465 49.5024L23.8709 49.4726L23.917 49.4021L23.9414 49.3724L23.9685 49.3425L23.9983 49.3263L24.028 49.3317L24.0578 49.3534L24.1446 49.413L24.1851 49.4347L24.2231 49.4536L24.2855 49.4835L24.3261 49.497L24.3694 49.5105L24.4128 49.5186L24.4751 49.5213L24.5185 49.524L24.6892 49.5132L24.7326 49.5078L24.7543 49.5023L24.7948 49.4861L24.8301 49.4644L24.8572 49.4374L24.8706 49.4183L24.8869 49.3778L24.8843 49.3317L24.8787 49.3101L24.8572 49.2722L24.8435 49.2559L24.8084 49.2287L24.7867 49.2206L24.746 49.2044L24.7001 49.1935L24.6538 49.1854L24.3965 49.161L24.3153 49.1447L24.2719 49.1339L24.2124 49.1123L24.1717 49.0988L24.1309 49.0798L24.039 49.0337L24.0036 49.0093L23.9631 48.9849L23.9278 48.9605L23.8817 48.9226L23.8573 48.8873L23.833 48.8467L23.8168 48.8061L23.7978 48.7492L23.7898 48.7086L23.7815 48.649L23.7761 48.5623L23.7788 48.519L23.7842 48.4539L23.7925 48.4133L23.8032 48.378L23.8168 48.3374L23.8439 48.2778L23.8626 48.2399L23.8845 48.2074L23.9114 48.1775L23.9548 48.1369L23.9902 48.1099L24.0253 48.0855L24.0633 48.0665L24.1147 48.0367L24.196 48.0042L24.2367 47.9906L24.2989 47.9798L24.3423 47.9718L24.4235 47.9609L24.4832 47.95L24.5264 47.9446L24.5671 47.9419H24.6105L24.6917 47.95L24.7325 47.9554L24.7512 47.9609L24.7946 47.9663L24.8868 47.9825L24.9329 47.9933L24.9761 48.0069L25.0224 48.0204L25.0656 48.0367L25.1063 48.0557L25.1468 48.072L25.1984 48.1018L25.2363 48.1208L25.2716 48.1452L25.296 48.1695V48.1967L25.2797 48.2264L25.2497 48.2806L25.2282 48.3131L25.1253 48.4486L25.0954 48.4865L25.0629 48.5136L25.0413 48.5217L25.0224 48.5191L24.9951 48.5055L24.9546 48.4811L24.9139 48.4648L24.8949 48.4568L24.8542 48.4432L24.8327 48.4377L24.7866 48.4269L24.7244 48.4134L24.681 48.4107L24.6105 48.4053H24.5401L24.494 48.408L24.4479 48.416L24.4045 48.4297L24.3884 48.4377L24.3557 48.4621L24.3423 48.4783L24.3233 48.5163L24.3179 48.5597L24.3259 48.5949L24.3476 48.6302L24.3776 48.6573L24.41 48.6735L24.4288 48.6816L24.4696 48.6897L24.5373 48.6979L24.6293 48.7033L24.6756 48.7114L24.7675 48.7331L24.8541 48.7602L24.9165 48.7737L24.9573 48.7846L25.0331 48.8116L25.0872 48.836L25.1253 48.855L25.1631 48.8767L25.1984 48.8983L25.277 48.9634L25.3067 48.9959L25.3338 49.0284L25.3663 49.0772L25.388 49.1124L25.407 49.153L25.4179 49.1937L25.4287 49.2533L25.4341 49.2939L25.4367 49.34Z" fill="white"/>
<path d="M27.4555 49.7002L27.4338 49.7219L27.3851 49.7652L27.3526 49.7896L27.3012 49.8275L27.2685 49.8493L27.2144 49.8791L27.1792 49.898L27.1168 49.9278L27.0763 49.9414L27.0302 49.9549L26.9841 49.963L26.9164 49.9765L26.8215 49.9874L26.7727 49.9902L26.7051 49.9956H26.5642L26.5181 49.9929L26.4719 49.9874L26.4259 49.9793L26.3798 49.9685L26.3393 49.955L26.2173 49.9224L26.1578 49.9007L26.1225 49.8845L26.071 49.8547L26.0386 49.8303L26.0032 49.8059L25.9654 49.7816L25.8949 49.722L25.8623 49.6894L25.8325 49.6542L25.8027 49.6136L25.7783 49.5757L25.7567 49.5377L25.7379 49.4998L25.7106 49.4429L25.6701 49.3291L25.6511 49.275L25.624 49.1937L25.6186 49.153L25.616 49.0907L25.6186 49.0501L25.6213 49.0067V48.9606L25.6267 48.8686L25.6294 48.8252L25.6374 48.7846L25.6484 48.725L25.6591 48.6844L25.6728 48.6438L25.6862 48.6059L25.7052 48.5516L25.7242 48.5137L25.7432 48.4731L25.7647 48.4325L25.7891 48.3918L25.8135 48.3539L25.8408 48.3188L25.8706 48.2808L25.903 48.2456L25.9355 48.2157L25.9708 48.186L26.0032 48.1589L26.09 48.0993L26.1251 48.0776L26.1631 48.0559L26.2444 48.018L26.2904 48.0018L26.3338 47.9882L26.4258 47.9666L26.4719 47.9584L26.518 47.953L26.6021 47.9476L26.6616 47.9421L26.7021 47.9448L26.7618 47.9476L26.8621 47.9611L26.9001 47.9692L26.9622 47.98L27.0571 48.0071L27.0949 48.0234L27.1546 48.0587L27.1924 48.0802L27.2629 48.129L27.3468 48.1886L27.3767 48.2103L27.3929 48.2238L27.4119 48.2427L27.4173 48.2644L27.4146 48.2861L27.3985 48.3078L27.3741 48.3376L27.3443 48.3673L27.3144 48.3945L27.2847 48.4189L27.2549 48.4486L27.2088 48.5028L27.179 48.5353L27.1654 48.5488L27.141 48.5706L27.122 48.5787L27.1032 48.5814L27.0842 48.5759L27.0544 48.5597L27.003 48.5218L26.9676 48.5028L26.9081 48.4757L26.8701 48.4621L26.8106 48.4459L26.7699 48.4377L26.7021 48.4324H26.6589L26.5992 48.4377L26.5558 48.4486L26.4963 48.4676L26.4558 48.4838L26.4205 48.4973L26.3663 48.5244L26.3283 48.5514L26.3095 48.5677L26.2768 48.603L26.2524 48.6409L26.2334 48.676L26.2146 48.714L26.1983 48.7547L26.1847 48.798L26.1766 48.8441L26.1712 48.8847L26.1659 48.966V49.0093L26.1685 49.0771L26.1712 49.1177L26.1847 49.18L26.1983 49.2206L26.2173 49.2667L26.239 49.3073L26.2797 49.3669L26.3095 49.3995L26.3609 49.4428L26.3961 49.4672L26.4502 49.4942L26.4909 49.5106L26.5505 49.5268L26.5939 49.5349L26.659 49.5376H26.7212L26.7592 49.5294L26.7807 49.524L26.8214 49.5105L26.8892 49.4861L26.9326 49.4671L26.9733 49.4482L27.0084 49.4292L27.0598 49.3968L27.095 49.3696L27.122 49.3506L27.1384 49.3452L27.1628 49.3506L27.1925 49.3696L27.2225 49.3968L27.2332 49.413L27.2603 49.4427L27.3037 49.497L27.3307 49.5294L27.4039 49.6135L27.4283 49.646L27.4417 49.6595L27.4553 49.6839V49.7002H27.4555Z" fill="white"/>
<path d="M29.8452 49.8708L29.8535 49.9087L29.8345 49.9384L29.8047 49.952L29.7694 49.9574H29.7315L29.6691 49.952L29.6286 49.9493H29.5067L29.3387 49.9602L29.3033 49.9493L29.2872 49.9276L29.2736 49.8978L29.1897 49.6703L29.1707 49.6433L29.1463 49.6378L29.1138 49.6351L28.9512 49.6243H28.9078L28.7047 49.6189L28.5422 49.6161H28.5015L28.461 49.6189H28.3362L28.3011 49.6243L28.2793 49.6378L28.263 49.6704L28.2008 49.8546L28.1844 49.8979L28.1547 49.9332L28.1142 49.9494L28.0708 49.9468L27.9135 49.9386H27.8703L27.7023 49.9494L27.667 49.9521L27.6345 49.9359L27.6128 49.9061L27.6155 49.8709L27.6211 49.8492L27.6372 49.8059L27.6752 49.7219L27.6913 49.6813L27.7591 49.5295L27.7754 49.4915L27.8459 49.3399L27.862 49.2993L27.9244 49.153L27.9405 49.1124L28.0137 48.9606L28.03 48.9227L28.1275 48.7005L28.2034 48.538L28.2224 48.4947L28.2819 48.3727L28.3009 48.3294L28.3523 48.2047L28.3687 48.1641L28.4174 48.053L28.4308 48.0233L28.4579 48.0069L28.4986 47.9989L28.6232 47.9934H28.8345L28.9593 47.9961L29.0052 48.0042L29.0352 48.0259L29.0486 48.0612L29.0866 48.1668L29.1027 48.2075L29.1706 48.3348L29.1869 48.3727L29.2464 48.5055L29.2627 48.5434L29.3115 48.6816L29.3276 48.7195L29.3874 48.8495L29.4037 48.8874L29.4632 49.0202L29.4793 49.0581L29.5337 49.1936L29.55 49.2315L29.6339 49.3995L29.6988 49.5268L29.7179 49.5648L29.791 49.7355L29.8452 49.8708ZM28.9404 49.1068L28.9297 49.0715L28.8699 48.8873L28.8565 48.8467L28.8021 48.6869L28.7887 48.6516L28.7614 48.6327L28.7263 48.6245L28.6965 48.6327L28.6694 48.6598L28.5963 48.844L28.5799 48.8846L28.5097 49.0662L28.5014 49.1068L28.5097 49.1393L28.5394 49.1529L28.5772 49.1583H28.748L28.8752 49.1665L28.9106 49.1556L28.9321 49.1339L28.9404 49.1068Z" fill="white"/>
<path d="M31.9813 48.4162L31.9786 48.4596V48.8606L31.9867 49.0177V49.061L31.9923 49.4186V49.4647L31.9896 49.4864L31.9867 49.5325L31.9787 49.6625L31.9813 49.8197L31.9787 49.8576L31.9679 49.8901L31.9462 49.9199L31.9192 49.9388L31.8948 49.947L31.8568 49.9497L31.7187 49.9551L31.6753 49.9578L31.6075 49.9605H31.5643L31.529 49.9523L31.4966 49.9388L31.4639 49.9144L31.4395 49.8792L31.399 49.8006L31.3746 49.7654L31.2688 49.6327L31.2419 49.6001L31.1361 49.4702L31.1117 49.4349L31.0168 49.294L30.9924 49.2615L30.8868 49.1314L30.8597 49.099L30.7595 48.9662L30.7351 48.9445L30.7161 48.9527L30.708 48.9851L30.7025 49.1206V49.164L30.7054 49.2994V49.3427L30.708 49.4944V49.5378L30.7 49.6895L30.7025 49.7329L30.7188 49.8412L30.7215 49.8845L30.7134 49.9198L30.6944 49.9387L30.6756 49.9441L30.643 49.9495L30.6213 49.9522L30.5752 49.955L30.4508 49.9522H30.4074L30.2962 49.9577H30.2528L30.2123 49.955L30.1826 49.9495L30.1608 49.936L30.1499 49.9171L30.1445 49.8899L30.1418 49.871V49.8304L30.1472 49.7409L30.1499 49.6976L30.1418 49.554V49.5107L30.1472 49.1801L30.1499 49.1368L30.1581 48.9932L30.1608 48.9499V48.7629L30.1499 48.6193V48.5759L30.1608 48.4324L30.1581 48.389L30.1472 48.2428L30.1445 48.1994V48.1371L30.1472 48.0965L30.1527 48.0559L30.1581 48.0261L30.1662 48.0071L30.1825 47.999L30.2123 47.9936L30.2935 47.9882L30.3747 47.9936H30.5781L30.6105 47.9962L30.624 48.0071L30.6403 48.0315L30.7542 48.1534L30.7813 48.186L30.8815 48.316L30.9086 48.3485L31.0088 48.4813L31.0359 48.5137L31.1334 48.6492L31.1578 48.6817L31.2608 48.8117L31.2878 48.8443L31.3853 48.9797L31.4071 48.9986L31.4287 49.0014L31.4477 48.9879V48.958L31.4287 48.8442L31.4261 48.8008L31.4341 48.6844V48.6411L31.4234 48.4758V48.4325L31.4341 48.2671L31.4314 48.2238L31.4234 48.1236V48.0558L31.4314 48.0206L31.4424 47.999L31.4612 47.9881L31.4936 47.9827H31.518L31.5643 47.98L31.686 47.9881H31.7294L31.8216 47.9827L31.8623 47.9854L31.9245 47.9881L31.9542 47.9935L31.9732 48.0017L31.9896 48.0206L31.995 48.0586L31.9976 48.083L32.0003 48.1289L31.9949 48.2129L31.9895 48.2563L31.9813 48.4162Z" fill="white"/>
</svg>
