<svg width="32" height="32" viewBox="0 0 32 32" fill="none" xmlns="http://www.w3.org/2000/svg">
<g clip-path="url(#clip0_6766_19407)">
<path d="M27.47 10.1515C27.3323 9.63903 27.0638 9.1718 26.6911 8.79637C26.3185 8.42094 25.8547 8.1504 25.346 8.0117C23.4835 7.5 15.9878 7.5 15.9878 7.5C15.9878 7.5 8.49177 7.51549 6.62933 8.02719C6.1206 8.1659 5.65681 8.43645 5.28415 8.8119C4.9115 9.18735 4.64298 9.6546 4.50533 10.1671C3.94199 13.5008 3.72346 18.5806 4.5208 21.7809C4.65846 22.2934 4.92699 22.7607 5.29964 23.1361C5.6723 23.5115 6.13608 23.7821 6.6448 23.9208C8.50724 24.4325 16.0031 24.4325 16.0031 24.4325C16.0031 24.4325 23.4989 24.4325 25.3612 23.9208C25.87 23.7821 26.3338 23.5116 26.7064 23.1361C27.0791 22.7607 27.3477 22.2935 27.4853 21.7809C28.0795 18.4425 28.2626 13.3659 27.47 10.1515Z" fill="#FF0000"/>
<path d="M13.6016 19.5946L19.8198 15.9663L13.6016 12.3379V19.5946Z" fill="white"/>
</g>
<defs>
<clipPath id="clip0_6766_19407">
<rect width="24" height="17" fill="white" transform="translate(4 7.5)"/>
</clipPath>
</defs>
</svg>
