<svg width="32" height="32" viewBox="0 0 32 32" fill="none" xmlns="http://www.w3.org/2000/svg">
<g clip-path="url(#clip0_6766_19412)">
<path d="M22.375 4H9.625C6.5184 4 4 6.5184 4 9.625V22.375C4 25.4816 6.5184 28 9.625 28H22.375C25.4816 28 28 25.4816 28 22.375V9.625C28 6.5184 25.4816 4 22.375 4Z" fill="url(#paint0_radial_6766_19412)"/>
<path d="M22.375 4H9.625C6.5184 4 4 6.5184 4 9.625V22.375C4 25.4816 6.5184 28 9.625 28H22.375C25.4816 28 28 25.4816 28 22.375V9.625C28 6.5184 25.4816 4 22.375 4Z" fill="url(#paint1_radial_6766_19412)"/>
<path d="M16.0008 6.625C13.4548 6.625 13.1352 6.63616 12.1353 6.68163C11.1372 6.72738 10.4559 6.88534 9.85984 7.11719C9.24316 7.35662 8.72013 7.67697 8.19906 8.19822C7.67753 8.71937 7.35719 9.24241 7.117 9.85881C6.8845 10.4551 6.72634 11.1366 6.68144 12.1342C6.63672 13.1342 6.625 13.4539 6.625 16.0001C6.625 18.5463 6.63625 18.8648 6.68163 19.8647C6.72756 20.8628 6.88553 21.5441 7.11719 22.1402C7.35681 22.7568 7.67716 23.2799 8.19841 23.8009C8.71938 24.3225 9.24241 24.6436 9.85862 24.883C10.4552 25.1148 11.1365 25.2728 12.1344 25.3186C13.1344 25.364 13.4538 25.3752 15.9997 25.3752C18.5461 25.3752 18.8646 25.364 19.8646 25.3186C20.8626 25.2728 21.5447 25.1148 22.1412 24.883C22.7576 24.6436 23.2799 24.3225 23.8007 23.8009C24.3223 23.2799 24.6425 22.7568 24.8828 22.1404C25.1133 21.5441 25.2715 20.8626 25.3184 19.8649C25.3633 18.865 25.375 18.5463 25.375 16.0001C25.375 13.4539 25.3633 13.1344 25.3184 12.1344C25.2715 11.1363 25.1133 10.4552 24.8828 9.85909C24.6425 9.24241 24.3223 8.71937 23.8007 8.19822C23.2793 7.67678 22.7578 7.35644 22.1406 7.11728C21.543 6.88534 20.8613 6.72728 19.8632 6.68163C18.8632 6.63616 18.5448 6.625 15.9979 6.625H16.0008ZM15.1598 8.31447C15.4095 8.31409 15.688 8.31447 16.0008 8.31447C18.5041 8.31447 18.8007 8.32347 19.7892 8.36838C20.7032 8.41019 21.1994 8.56291 21.5298 8.69125C21.9674 8.86112 22.2793 9.06428 22.6072 9.3925C22.9353 9.72062 23.1384 10.0331 23.3088 10.4706C23.4371 10.8006 23.59 11.2968 23.6316 12.2108C23.6765 13.1991 23.6863 13.4959 23.6863 15.9979C23.6863 18.4999 23.6765 18.7968 23.6316 19.7851C23.5898 20.6991 23.4371 21.1952 23.3088 21.5253C23.1389 21.9629 22.9353 22.2744 22.6072 22.6023C22.2791 22.9305 21.9676 23.1335 21.5298 23.3035C21.1997 23.4324 20.7032 23.5848 19.7892 23.6266C18.8009 23.6715 18.5041 23.6812 16.0008 23.6812C13.4975 23.6812 13.2008 23.6715 12.2126 23.6266C11.2985 23.5844 10.8024 23.4317 10.4717 23.3033C10.0342 23.1333 9.72166 22.9303 9.39353 22.6022C9.06541 22.274 8.86234 21.9623 8.692 21.5246C8.56366 21.1945 8.41075 20.6984 8.36913 19.7843C8.32422 18.796 8.31522 18.4992 8.31522 15.9956C8.31522 13.492 8.32422 13.1968 8.36913 12.2085C8.41094 11.2944 8.56366 10.7983 8.692 10.4678C8.86197 10.0303 9.06541 9.71781 9.39363 9.38969C9.72184 9.06156 10.0342 8.85841 10.4717 8.68816C10.8022 8.55925 11.2985 8.40691 12.2126 8.36491C13.0774 8.32581 13.4126 8.31409 15.1598 8.31212V8.31447ZM21.0052 9.87109C20.3841 9.87109 19.8802 10.3745 19.8802 10.9957C19.8802 11.6168 20.3841 12.1207 21.0052 12.1207C21.6263 12.1207 22.1302 11.6168 22.1302 10.9957C22.1302 10.3746 21.6263 9.87072 21.0052 9.87072V9.87109ZM16.0008 11.1856C13.3421 11.1856 11.1864 13.3413 11.1864 16.0001C11.1864 18.6589 13.3421 20.8136 16.0008 20.8136C18.6597 20.8136 20.8146 18.6589 20.8146 16.0001C20.8146 13.3413 18.6595 11.1856 16.0007 11.1856H16.0008ZM16.0008 12.875C17.7267 12.875 19.1259 14.2741 19.1259 16.0001C19.1259 17.7259 17.7267 19.1252 16.0008 19.1252C14.275 19.1252 12.8759 17.7259 12.8759 16.0001C12.8759 14.2741 14.2749 12.875 16.0008 12.875Z" fill="white"/>
</g>
<defs>
<radialGradient id="paint0_radial_6766_19412" cx="0" cy="0" r="1" gradientUnits="userSpaceOnUse" gradientTransform="translate(10.375 29.8485) rotate(-90) scale(23.7858 22.1227)">
<stop stop-color="#FFDD55"/>
<stop offset="0.1" stop-color="#FFDD55"/>
<stop offset="0.5" stop-color="#FF543E"/>
<stop offset="1" stop-color="#C837AB"/>
</radialGradient>
<radialGradient id="paint1_radial_6766_19412" cx="0" cy="0" r="1" gradientUnits="userSpaceOnUse" gradientTransform="translate(-0.0200937 5.72884) rotate(78.681) scale(10.6324 43.827)">
<stop stop-color="#3771C8"/>
<stop offset="0.128" stop-color="#3771C8"/>
<stop offset="1" stop-color="#6600FF" stop-opacity="0"/>
</radialGradient>
<clipPath id="clip0_6766_19412">
<rect width="24" height="24" fill="white" transform="translate(4 4)"/>
</clipPath>
</defs>
</svg>
