<svg width="165" height="151" viewBox="0 0 165 151" fill="none" xmlns="http://www.w3.org/2000/svg">
<circle cx="82" cy="75.7397" r="75" fill="#FFE6E7"/>
<path d="M82.2477 125.435C106.133 125.435 125.496 124.645 125.496 123.67C125.496 122.695 106.133 121.905 82.2477 121.905C58.3625 121.905 38.9998 122.695 38.9998 123.67C38.9998 124.645 58.3625 125.435 82.2477 125.435Z" fill="#D0D0D0"/>
<path d="M96.6528 123.706H54.273C52.4208 123.706 50.9192 122.204 50.9192 120.352V28.7889C50.9192 26.9367 52.4208 25.4351 54.273 25.4351H96.6528C98.505 25.4351 100.007 26.9367 100.007 28.7889V120.352C100.007 122.204 98.505 123.706 96.6528 123.706Z" fill="#E3E4F3"/>
<path d="M62.4098 28.3528L64.0577 31.9185C64.243 32.3198 64.6447 32.5765 65.0867 32.5765H87.1004C87.5423 32.5765 87.9441 32.3196 88.1294 31.9185L89.7773 28.3528C89.9626 27.9515 90.3643 27.6948 90.8063 27.6948H96.1194C97.0623 27.6948 97.8268 28.4593 97.8268 29.4022V117.595C97.8268 118.538 97.0623 119.302 96.1194 119.302H55.0658C54.1229 119.302 53.3584 118.538 53.3584 117.595V29.4022C53.3584 28.4593 54.1229 27.6948 55.0658 27.6948H61.3808C61.8227 27.6948 62.2242 27.9517 62.4098 28.3528Z" fill="white"/>
<path d="M81.6233 30.0487H70.777C70.4588 30.0487 70.2007 29.7906 70.2007 29.4723C70.2007 29.1541 70.4588 28.896 70.777 28.896H81.6233C81.9416 28.896 82.1997 29.1541 82.1997 29.4723C82.1997 29.7906 81.9416 30.0487 81.6233 30.0487Z" fill="white"/>
<path d="M60.1928 62.1015H90.4147C91.4736 62.1015 92.3321 61.2431 92.3321 60.1841V52.2978C92.3321 51.2388 91.4736 50.3804 90.4147 50.3804H60.1928C59.1338 50.3804 58.2754 51.2388 58.2754 52.2978V60.1841C58.2754 61.2431 59.1338 62.1015 60.1928 62.1015Z" fill="#D96C67"/>
<path d="M89.1555 48.3696H62.2673C60.7395 48.3696 59.501 47.131 59.501 45.6033C59.501 44.0755 60.7395 42.8369 62.2673 42.8369H89.1555C90.6833 42.8369 91.9216 44.0755 91.9216 45.6033C91.9216 47.131 90.6833 48.3696 89.1555 48.3696Z" stroke="#E3E4F3" stroke-width="0.237862" stroke-miterlimit="10"/>
<path d="M84.4744 48.3696H62.2673C60.7395 48.3696 59.501 47.131 59.501 45.6033C59.501 44.0755 60.7395 42.8369 62.2673 42.8369H84.4744V48.3696Z" fill="#E3E4F3"/>
<path d="M88.7458 44.6207C89.2322 45.1071 89.2322 45.8961 88.7458 46.3825C88.2594 46.869 87.4704 46.869 86.984 46.3825C86.4975 45.8961 86.4975 45.1073 86.984 44.6207C87.4706 44.1343 88.2594 44.1343 88.7458 44.6207Z" stroke="#E3E4F3" stroke-width="0.237862" stroke-miterlimit="10" stroke-linecap="round" stroke-linejoin="round"/>
<path d="M88.7458 46.3828L89.3234 46.9603" stroke="#E3E4F3" stroke-width="0.237862" stroke-miterlimit="10" stroke-linecap="round" stroke-linejoin="round"/>
<path d="M60.4655 79.5735H63.9126C64.7822 79.5735 65.4873 78.8684 65.4873 77.9988V74.5517C65.4873 73.6821 64.7822 72.9771 63.9126 72.9771H60.4655C59.5959 72.9771 58.8909 73.6821 58.8909 74.5517V77.9988C58.8909 78.8684 59.5959 79.5735 60.4655 79.5735Z" fill="#E3E4F3"/>
<path d="M69.3054 79.5735H72.7525C73.6221 79.5735 74.3271 78.8684 74.3271 77.9988V74.5517C74.3271 73.6821 73.6221 72.9771 72.7525 72.9771H69.3054C68.4357 72.9771 67.7307 73.6821 67.7307 74.5517V77.9988C67.7307 78.8684 68.4357 79.5735 69.3054 79.5735Z" fill="#E3E4F3"/>
<path d="M78.1452 79.5735H81.5923C82.4619 79.5735 83.167 78.8684 83.167 77.9988V74.5517C83.167 73.6821 82.4619 72.9771 81.5923 72.9771H78.1452C77.2756 72.9771 76.5706 73.6821 76.5706 74.5517V77.9988C76.5706 78.8684 77.2756 79.5735 78.1452 79.5735Z" fill="#E3E4F3"/>
<path d="M86.9851 79.5735H90.4322C91.3018 79.5735 92.0068 78.8684 92.0068 77.9988V74.5517C92.0068 73.6821 91.3018 72.9771 90.4322 72.9771H86.9851C86.1154 72.9771 85.4104 73.6821 85.4104 74.5517V77.9988C85.4104 78.8684 86.1152 79.5735 86.9851 79.5735Z" fill="#E3E4F3"/>
<path opacity="0.6" d="M83.541 87.6497H60.1858C59.4708 87.6497 58.8909 87.07 58.8909 86.3548V86.1982C58.8909 85.4832 59.4705 84.9033 60.1858 84.9033H83.541C84.256 84.9033 84.8357 85.483 84.8357 86.1982V86.3548C84.836 87.07 84.256 87.6497 83.541 87.6497Z" fill="#D96C67"/>
<path opacity="0.6" d="M90.395 113.542H60.4177C59.5745 113.542 58.8909 112.858 58.8909 112.015V92.2959C58.8909 91.4527 59.5745 90.769 60.4177 90.769H90.395C91.2383 90.769 91.9219 91.4527 91.9219 92.2959V112.015C91.9216 112.858 91.2383 113.542 90.395 113.542Z" fill="#D96C67"/>
<path d="M58.86 26.9086V37.6362C58.86 38.1257 59.3767 38.4426 59.8132 38.2209L62.9006 36.6517C63.0959 36.5525 63.3278 36.5573 63.5188 36.6645L66.1772 38.1569C66.6144 38.4024 67.1541 38.0863 67.1541 37.5851V26.9086C67.1541 26.0949 66.4942 25.4351 65.6805 25.4351H57.3867C58.2002 25.4351 58.86 26.0949 58.86 26.9086Z" fill="#D96C67"/>
<path d="M105.674 58.2009C105.674 58.2009 101.76 56.1905 101.496 55.9036C101.232 55.6167 99.8206 53.9267 99.4748 53.8387C99.1287 53.7507 98.5238 53.7721 98.256 53.9189C97.962 54.0799 97.0498 55.1303 97.0957 55.2814C97.2279 55.7164 97.9572 55.5206 98.1496 56.2085C98.3421 56.8967 98.3728 57.0599 98.8644 57.3876C99.3558 57.7154 99.7595 57.571 100.353 57.6583C100.946 57.7456 102.194 58.9604 104.374 60.2422L105.674 58.2009Z" fill="#EDBAA8"/>
<path d="M119.421 61.4997C119.421 61.4997 122.732 68.3649 118.804 66.8083C116.356 65.8383 110.605 65.0672 108.204 63.7696C106.115 62.6405 102.468 59.7172 102.468 59.7172C102.468 59.7172 102.286 56.9727 103.09 56.707L110.076 59.6722C110.076 59.6722 118.766 60.4198 119.421 61.4997Z" fill="#FB878C"/>
<path d="M97.4476 57.4562L99.0072 56.6046C99.0771 56.5666 99.1028 56.4791 99.0645 56.4091L95.0535 49.0625L93.2407 50.0522L97.2518 57.3989C97.2901 57.4686 97.3776 57.4942 97.4476 57.4562Z" fill="#A6ABB0"/>
<path d="M100.851 63.342L102.118 62.6505C102.61 62.3815 102.792 61.7643 102.523 61.2717L97.4194 51.9239C97.1503 51.4313 96.5331 51.25 96.0405 51.5191L94.7741 52.2105C94.2815 52.4796 94.1002 53.0968 94.369 53.5894L99.4726 62.9372C99.7416 63.4298 100.359 63.611 100.851 63.342Z" fill="#858A8F"/>
<path d="M81.2592 46.8122C83.8058 51.4765 89.6515 53.1934 94.316 50.6468C98.9805 48.1003 100.697 42.2545 98.1506 37.5903C95.604 32.9258 89.7583 31.2092 85.0938 33.7557C80.4293 36.302 78.7125 42.1477 81.2592 46.8122ZM82.4885 46.141C80.3126 42.1556 81.7794 37.1607 85.7648 34.985C89.7502 32.809 94.7451 34.2759 96.9208 38.2613C99.0968 42.2467 97.6299 47.2413 93.6445 49.4173C89.6591 51.5933 84.6645 50.1264 82.4885 46.141Z" fill="#858A8F"/>
<path opacity="0.14" d="M93.7668 49.3473C97.7145 47.1038 99.096 42.0847 96.8524 38.137C94.6088 34.1893 89.5898 32.8078 85.6421 35.0514C81.6944 37.295 80.3129 42.314 82.5565 46.2617C84.8001 50.2094 89.8191 51.5909 93.7668 49.3473Z" fill="white"/>
<path d="M97.8144 57.0274C97.6539 56.8252 97.3936 56.2498 97.3213 55.9102C97.249 55.5705 97.1729 55.1952 96.916 54.8151C96.6593 54.435 96.6287 54.1245 96.5704 54.0011C96.5121 53.8776 96.2164 54.0204 96.2183 54.3907C96.2203 54.7613 96.2852 54.87 96.3254 55.0453C96.3656 55.2204 96.3882 55.511 96.3425 55.5089C96.2968 55.5068 95.6775 55.2042 95.4853 55.0803C95.2931 54.9564 94.6684 54.1369 94.5597 53.9376C94.451 53.7383 94.275 53.395 94.275 53.395C94.275 53.395 94.1266 53.7892 94.1906 54.0817C94.2546 54.3743 94.2003 54.4811 94.2255 54.6224C94.2505 54.7639 94.1792 55.1167 94.2605 55.3698C94.3416 55.6228 94.4934 55.9989 94.4934 55.9989C94.4934 55.9989 94.4518 56.5878 94.6085 56.9247C94.7653 57.2615 95.4422 58.1332 95.8111 58.5019C96.1803 58.8706 96.5575 58.7369 97.087 59.1872C97.6165 59.6375 98.2842 60.3216 98.2842 60.3216L99.5839 61.538L101.061 60.0126C101.061 60.0126 98.7421 58.1014 98.473 57.7481C98.2038 57.3947 98.0694 57.3483 97.8144 57.0274Z" fill="#EDBAA8"/>
<path d="M112.189 50.5022C112.563 50.5022 112.867 49.9781 112.867 49.3317C112.867 48.6852 112.563 48.1611 112.189 48.1611C111.815 48.1611 111.511 48.6852 111.511 49.3317C111.511 49.9781 111.815 50.5022 112.189 50.5022Z" stroke="#222221" stroke-width="0.168835" stroke-miterlimit="10"/>
<path d="M111.573 115.879L111.206 122.016L108.922 122.532L108.556 115.826L111.573 115.879Z" fill="#EBB6A4"/>
<path d="M107.895 122.596C109.453 121.648 109.671 123.061 111.758 122.315C111.887 122.507 112.077 122.799 112.107 123.208C112.121 123.39 112.108 124.138 111.981 124.138C111.727 124.138 109.707 124.21 108.555 124.094C107.561 123.995 105.978 123.912 105.557 123.704C105.557 123.704 105.353 123.601 105.508 123.208C105.508 123.208 107.139 122.887 107.895 122.596Z" fill="white"/>
<path d="M111.819 121.718C111.573 121.03 110.449 121.052 109.758 121.471C109.224 121.795 109.015 121.768 108.876 121.691L108.865 121.479C108.757 121.432 108.452 121.55 108.133 121.796C106.989 122.677 105.627 122.364 105.509 123.208C105.509 123.208 106.843 123.401 107.96 123.482C108.807 123.543 109.428 123.526 109.807 123.523C110.452 123.517 111.801 123.533 112.112 123.528C112.112 123.528 112.235 122.88 111.819 121.718Z" fill="#594B45"/>
<path d="M120.286 115.879L119.92 122.016L117.636 122.532L117.269 115.826L120.286 115.879Z" fill="#EBB6A4"/>
<path d="M116.608 122.596C118.167 121.648 118.385 123.061 120.472 122.315C120.601 122.507 120.79 122.799 120.821 123.208C120.835 123.39 120.821 124.138 120.695 124.138C120.441 124.138 118.421 124.21 117.269 124.094C116.274 123.995 114.93 123.912 114.508 123.704C114.508 123.704 114.304 123.601 114.46 123.208C114.46 123.208 115.853 122.887 116.608 122.596Z" fill="white"/>
<path d="M120.532 121.718C120.286 121.03 119.162 121.052 118.472 121.471C117.937 121.795 117.729 121.768 117.59 121.691L117.578 121.479C117.471 121.432 117.166 121.55 116.846 121.796C115.702 122.677 114.578 122.364 114.46 123.208C114.46 123.208 115.557 123.401 116.673 123.482C117.521 123.543 118.141 123.526 118.52 123.523C119.165 123.517 120.515 123.533 120.825 123.528C120.825 123.528 120.949 122.88 120.532 121.718Z" fill="#594B45"/>
<path d="M113.934 77.579C113.638 79.0673 114.035 81.8893 113.979 82.728C113.428 90.9286 115.296 102.328 116.065 110.471C116.482 114.893 117.088 120.289 117.088 120.289C118.214 120.214 119.401 120.177 120.526 120.101C120.672 117.689 121.047 115.138 121.143 112.54C121.241 109.881 121.059 107.173 121.245 104.515C121.427 101.915 121.472 99.9098 121.662 97.4986C121.962 93.6887 122.021 89.661 122.118 87.0036C122.306 81.8782 120.801 76.9663 120.801 76.9663C117.37 77.0515 117.368 77.4496 113.934 77.579Z" fill="#594B45"/>
<path d="M108.819 76.4019C110.996 76.8345 115.151 77.2377 117.176 77.6192C117.389 81.9205 115.604 88.1297 115.152 90.0797C113.767 96.0464 112.515 108.191 112.466 111.07C112.39 115.58 112.098 119.98 112.098 119.98C110.972 120.056 109.58 119.907 108.351 119.907C107.091 112.57 107.149 104.493 107.149 96.9437C107.148 87.1285 108.819 76.4019 108.819 76.4019Z" fill="#594B45"/>
<path d="M114.38 83.7329C114.38 83.7329 111.782 83.5978 110.249 83.0303C110.249 83.0303 109.812 85.8347 109.885 86.4355C109.954 87.0016 111.961 88.0197 111.961 88.0197C111.961 88.0197 113.644 87.5009 113.928 86.763C114.212 86.0257 114.38 83.7329 114.38 83.7329Z" stroke="#4B3F3A" stroke-width="0.227753" stroke-miterlimit="10"/>
<path d="M118.133 84.0011C118.133 84.0011 120.292 84.1351 121.626 83.73C121.626 83.73 121.638 86.5577 121.503 87.1464C121.377 87.7011 119.595 88.5044 119.595 88.5044C119.595 88.5044 118.272 87.8162 118.13 87.0548C117.987 86.2934 118.133 84.0011 118.133 84.0011Z" stroke="#4B3F3A" stroke-width="0.227753" stroke-miterlimit="10"/>
<path d="M114.195 46.0376C113.548 46.3237 113.173 47.3018 113.173 47.3018C113.173 47.3018 112.795 48.4195 112.539 49.2735C112.282 50.1272 111.454 50.7161 111.514 50.9583C111.575 51.2004 112.08 51.2691 112.036 51.5905C111.992 51.9118 112.004 52.8571 111.917 53.496C111.83 54.1349 112.461 54.3143 113.051 54.4415C113.642 54.5688 114.404 54.8126 114.504 55.1071C114.604 55.4013 114.267 56.852 114.267 56.852L119.056 57.6127C119.056 57.6127 118.719 55.6049 118.919 54.3837C119.119 53.1623 119.365 51.6992 119.365 51.6992C119.365 51.6992 119.452 48.9983 117.942 47.7171C116.433 46.4355 114.195 46.0376 114.195 46.0376Z" fill="#EBB6A4"/>
<path d="M115.399 48.3682C115.268 47.7093 114.666 47.4812 114.299 47.4367C113.915 47.3901 113.498 47.3456 113.173 47.3016C112.538 47.215 112.417 46.6016 112.459 46.0373C112.509 45.3723 112.858 45.3287 112.972 45.3556C113.717 45.5295 113.908 45.7612 115.695 45.2231C117.106 44.7988 119.49 44.9337 120.106 46.9353C120.106 46.9353 121.712 47.8553 121.623 49.1995C121.533 50.5436 121.18 51.0258 120.421 51.8424C119.653 52.6682 118.868 54.8575 118.868 54.8575C118.868 54.8575 117.957 54.9253 117.216 54.6556C116.319 54.3295 116.694 53.3323 115.513 52.0484C115.513 52.0484 116.742 51.2149 116.57 50.3027C116.397 49.3905 115.447 49.9024 115.252 50.2967C115.058 50.6914 114.845 51.292 114.845 51.292L114.641 51.0834C114.641 51.0834 114.722 50.252 114.876 49.4683C115.03 48.685 115.459 48.6669 115.399 48.3682Z" fill="#583834"/>
<path d="M98.8297 58.0772L105.582 61.7581C105.582 61.7581 109.995 58.3436 111.628 57.4666C112.246 57.1348 114.246 56.4564 114.246 56.4564C116.81 56.3653 120.07 57.6127 120.07 57.6127C122.942 59.1476 123.466 63.7079 123.062 66.0294C122.658 68.351 122.617 74.7761 122.955 77.4628C123.294 80.1494 121.936 81.5274 121.936 81.5274C117.068 83.018 108.423 80.0464 108.423 80.0464C108.423 80.0464 106.755 78.4073 107.622 76.0223C107.909 75.2328 108.82 70.6568 109.424 66.6531C109.673 65.0033 109.795 64.4488 109.795 64.4488C108.995 65.0889 107.853 65.8456 106.719 66.4947C106.205 66.7887 105.336 66.3636 105.248 66.3144C101.818 64.381 97.4375 60.3383 97.4375 60.3383C97.4375 60.3383 98.0146 58.218 98.8297 58.0772Z" fill="#FB878C"/>
<path d="M116.084 86.4316C116.036 87.4402 115.652 89.3609 115.058 91.3311C114.427 93.4238 114.175 95.5075 113.868 97.2144" stroke="#4B3F3A" stroke-width="0.227753" stroke-miterlimit="10"/>
<path d="M116.201 50.5159C116.23 50.263 116.026 50.1871 115.816 50.2956C115.606 50.4041 115.773 50.3227 115.939 50.3836C116.048 50.4233 115.916 50.6924 115.781 50.8601C115.565 51.1293 115.332 51.3838 115.418 51.5137C115.528 51.6807 115.661 51.4357 115.862 51.1838C116.062 50.9321 116.177 50.7335 116.201 50.5159Z" fill="#D38576"/>
<path d="M112.793 48.5104C112.955 48.4062 113.533 48.6491 113.533 48.6491C113.533 48.6491 113.186 48.1981 112.966 48.1633C112.747 48.1288 112.793 48.5104 112.793 48.5104Z" fill="#432F36"/>
<path d="M112.71 49.3658C112.678 49.4797 112.598 49.5568 112.53 49.5383C112.463 49.5195 112.434 49.4119 112.465 49.2983C112.497 49.1843 112.577 49.1072 112.645 49.1258C112.712 49.1444 112.741 49.2519 112.71 49.3658Z" fill="#432F36"/>
<path d="M112.005 52.1086C112.35 52.1678 112.575 51.9873 112.575 51.9873C112.575 51.9873 112.595 52.1676 112.347 52.3983C112.218 52.518 111.992 52.4395 111.992 52.4395L112.005 52.1086Z" fill="#432F36"/>
<path d="M112.789 62.4883C112.789 62.4883 109.552 64.3148 107.809 65.7142" stroke="#FB878C" stroke-width="0.293974" stroke-miterlimit="10"/>
<path d="M115.311 50.1717L115.523 49.9814L111.879 48.27L111.628 48.6487L112.944 49.2486L113.429 49.3135L115.311 50.1717Z" fill="#222221"/>
<path d="M100.723 57.8007C100.086 57.2595 99.7363 57.3849 99.3736 57.1094C98.7949 56.6699 98.5087 56.1842 98.2437 55.9211C97.9785 55.658 97.8037 55.3871 98.0622 55.3238C98.321 55.2608 98.685 55.6461 99.1907 55.7862C99.5667 55.8904 99.7568 55.7351 100.077 55.9929C100.397 56.251 100.723 57.8007 100.723 57.8007Z" fill="#EDBAA8"/>
<rect x="109" y="87.7397" width="56" height="56" rx="28" fill="#FB878C"/>
<path d="M130.547 129.124C128.648 129.124 126.984 128.612 125.555 127.588C124.125 126.564 123.005 125.124 122.195 123.268C121.405 121.412 121.011 119.257 121.011 116.804C121.011 114.329 121.405 112.174 122.195 110.34C122.984 108.505 124.093 107.076 125.523 106.052C126.952 105.028 128.616 104.516 130.515 104.516C132.456 104.516 134.131 105.028 135.539 106.052C136.968 107.076 138.088 108.516 138.899 110.372C139.709 112.206 140.115 114.35 140.115 116.804C140.115 119.257 139.709 121.412 138.899 123.268C138.109 125.102 137 126.542 135.571 127.588C134.141 128.612 132.467 129.124 130.547 129.124ZM130.579 125.156C131.667 125.156 132.595 124.825 133.363 124.164C134.131 123.481 134.717 122.521 135.123 121.284C135.549 120.025 135.763 118.532 135.763 116.804C135.763 115.076 135.549 113.593 135.123 112.356C134.717 111.097 134.12 110.137 133.331 109.476C132.563 108.814 131.624 108.484 130.515 108.484C129.448 108.484 128.531 108.814 127.763 109.476C126.995 110.137 126.397 111.097 125.971 112.356C125.565 113.593 125.363 115.076 125.363 116.804C125.363 118.51 125.565 119.993 125.971 121.252C126.397 122.489 126.995 123.449 127.763 124.132C128.552 124.814 129.491 125.156 130.579 125.156ZM147.411 128.74V108.612H142.803V104.9H151.763V128.74H147.411Z" fill="white"/>
</svg>
