<svg width="165" height="151" viewBox="0 0 165 151" fill="none" xmlns="http://www.w3.org/2000/svg">
<circle cx="82" cy="75.7397" r="75" fill="#FFE6E7"/>
<g clip-path="url(#clip0_309_5346)">
<mask id="mask0_309_5346" style="mask-type:luminance" maskUnits="userSpaceOnUse" x="17" y="19" width="142" height="141">
<path d="M158.562 19.1172H17.9375V159.742H158.562V19.1172Z" fill="white"/>
</mask>
<g mask="url(#mask0_309_5346)">
<path d="M104.851 61.7744H111.952C112.418 61.7744 112.796 62.152 112.796 62.6182V110.043C112.796 110.509 112.418 110.887 111.952 110.887H104.851C104.384 110.887 104.007 110.509 104.007 110.043V62.6182C104.007 62.1519 104.384 61.7744 104.851 61.7744Z" fill="#D96C67" stroke="#D96C67" stroke-width="0.5625"/>
<path d="M110.009 61.7744V110.888H106.962V61.7744H110.009Z" fill="#358EB5" stroke="#D96C67" stroke-width="0.5625"/>
<path d="M71.7512 46.5869H94.6262C97.5769 46.5871 99.97 48.9795 99.97 51.9307V55.1182C99.97 58.0694 97.5769 60.4617 94.6262 60.4619H71.7512C68.8004 60.4619 66.4075 58.0695 66.4075 55.1182V51.9307C66.4075 48.9793 68.8004 46.5869 71.7512 46.5869Z" fill="#A73E3A" stroke="#D96C67" stroke-width="0.5625"/>
<path d="M63.667 61.0244H102.788C105.739 61.0246 108.132 63.4169 108.132 66.3682V120.368C108.132 123.319 105.739 125.712 102.788 125.712H63.667C60.7162 125.712 58.3232 123.32 58.3232 120.368V66.3682C58.3232 63.4168 60.7162 61.0244 63.667 61.0244Z" fill="#D96C67" stroke="#D96C67" stroke-width="0.5625"/>
<path d="M63.667 52.5869H102.788C105.739 52.5871 108.132 54.9794 108.132 57.9307V111.931C108.132 114.882 105.739 117.274 102.788 117.274H63.667C60.7162 117.274 58.3232 114.882 58.3232 111.931V57.9307C58.3232 54.9793 60.7162 52.5869 63.667 52.5869Z" fill="#E4676C" stroke="#D96C67" stroke-width="0.5625"/>
<path d="M102.507 52.5869V117.274H63.9482V52.5869H102.507Z" fill="#A73E3A" stroke="#D96C67" stroke-width="0.5625"/>
<path d="M96.2517 58.9624V78.2749H70.0476V58.9624H96.2517Z" fill="white" stroke="#D96C67" stroke-width="0.5625"/>
<path d="M71.8994 108.649H77.2881C77.5966 108.649 77.8467 108.9 77.8467 109.209V113.129C77.8467 113.438 77.5968 113.688 77.2881 113.688H71.8994C71.5907 113.688 71.3408 113.438 71.3408 113.129V109.209C71.3408 108.9 71.5909 108.649 71.8994 108.649Z" fill="#D96C67" stroke="#D96C67" stroke-width="0.5625"/>
<path d="M80.4558 108.649H85.8435C86.152 108.649 86.4021 108.9 86.4021 109.209V113.129C86.4021 113.438 86.1522 113.688 85.8435 113.688H80.4558C80.1468 113.688 79.8962 113.437 79.8962 113.129V109.209C79.8962 108.9 80.1471 108.649 80.4558 108.649Z" fill="#FFD53D" stroke="#D96C67" stroke-width="0.5625"/>
<path d="M89.0105 108.649H94.3982C94.7069 108.649 94.9578 108.9 94.9578 109.209V113.129C94.9578 113.437 94.7072 113.688 94.3982 113.688H89.0105C88.7015 113.688 88.4509 113.437 88.4509 113.129V109.209C88.4509 108.9 88.7018 108.649 89.0105 108.649Z" fill="#D96C67" stroke="#D96C67" stroke-width="0.5625"/>
<path d="M71.8994 100.962H77.2881C77.5966 100.962 77.8467 101.213 77.8467 101.521V105.441C77.8467 105.75 77.5968 106 77.2881 106H71.8994C71.5907 106 71.3408 105.75 71.3408 105.441V101.521C71.3408 101.213 71.5909 100.962 71.8994 100.962Z" fill="#86BBD3" stroke="#D96C67" stroke-width="0.5625"/>
<path d="M80.4558 100.962H85.8435C86.152 100.962 86.4021 101.213 86.4021 101.521V105.441C86.4021 105.75 86.1522 106 85.8435 106H80.4558C80.1468 106 79.8962 105.75 79.8962 105.441V101.521C79.8962 101.213 80.1471 100.962 80.4558 100.962Z" fill="#86BBD3" stroke="#D96C67" stroke-width="0.5625"/>
<path d="M89.0105 100.962H94.3982C94.7069 100.962 94.9578 101.213 94.9578 101.521V105.441C94.9578 105.75 94.7072 106 94.3982 106H89.0105C88.7015 106 88.4509 105.75 88.4509 105.441V101.521C88.4509 101.213 88.7018 100.962 89.0105 100.962Z" fill="#86BBD3" stroke="#D96C67" stroke-width="0.5625"/>
<path d="M71.8994 94.3999H77.2881C77.5966 94.3999 77.8467 94.6505 77.8467 94.9595V98.8794C77.8467 99.1881 77.5968 99.438 77.2881 99.438H71.8994C71.5907 99.438 71.3408 99.1881 71.3408 98.8794V94.9595C71.3408 94.6505 71.5909 94.3999 71.8994 94.3999Z" fill="#86BBD3" stroke="#D96C67" stroke-width="0.5625"/>
<path d="M80.4558 94.3999H85.8435C86.152 94.3999 86.4021 94.6505 86.4021 94.9595V98.8794C86.4021 99.1881 86.1522 99.438 85.8435 99.438H80.4558C80.1468 99.438 79.8962 99.1879 79.8962 98.8794V94.9595C79.8962 94.6507 80.1471 94.3999 80.4558 94.3999Z" fill="#86BBD3" stroke="#D96C67" stroke-width="0.5625"/>
<path d="M89.0105 94.3999H94.3982C94.7069 94.3999 94.9578 94.6507 94.9578 94.9595V98.8794C94.9578 99.1879 94.7072 99.438 94.3982 99.438H89.0105C88.7015 99.438 88.4509 99.1879 88.4509 98.8794V94.9595C88.4509 94.6507 88.7018 94.3999 89.0105 94.3999Z" fill="#86BBD3" stroke="#D96C67" stroke-width="0.5625"/>
<path d="M71.8994 87.8369H77.2881C77.5966 87.8369 77.8467 88.0875 77.8467 88.3965V92.3164C77.8467 92.6251 77.5968 92.875 77.2881 92.875H71.8994C71.5907 92.875 71.3408 92.6251 71.3408 92.3164V88.3965C71.3408 88.0875 71.5909 87.8369 71.8994 87.8369Z" fill="#86BBD3" stroke="#D96C67" stroke-width="0.5625"/>
<path d="M80.4558 87.8369H85.8435C86.152 87.8369 86.4021 88.0875 86.4021 88.3965V92.3164C86.4021 92.6251 86.1522 92.875 85.8435 92.875H80.4558C80.1468 92.875 79.8962 92.6249 79.8962 92.3164V88.3965C79.8962 88.0878 80.1471 87.8369 80.4558 87.8369Z" fill="#86BBD3" stroke="#D96C67" stroke-width="0.5625"/>
<path d="M89.0105 87.8369H94.3982C94.7069 87.8369 94.9578 88.0877 94.9578 88.3965V92.3164C94.9578 92.6249 94.7072 92.875 94.3982 92.875H89.0105C88.7015 92.875 88.4509 92.6249 88.4509 92.3164V88.3965C88.4509 88.0877 88.7018 87.8369 89.0105 87.8369Z" fill="#86BBD3" stroke="#D96C67" stroke-width="0.5625"/>
<path d="M67.2346 120.837H99.6721C99.9824 120.837 100.235 121.089 100.235 121.399C100.235 121.71 99.9825 121.962 99.6721 121.962H67.2346C66.9241 121.962 66.6721 121.71 66.6721 121.399C66.6721 121.089 66.9241 120.837 67.2346 120.837Z" fill="#286B88" stroke="#D96C67" stroke-width="0.5625"/>
<path d="M90.4946 32.0786L90.6821 32.2456L90.8696 32.0786L92.9146 30.2476V49.0249H73.3843V30.2476L75.4253 32.0776L75.6128 32.2466L75.8003 32.0776L78.1235 29.9956L80.4468 32.0776L80.6343 32.2466L80.8218 32.0776L83.144 29.9956L85.4673 32.0776L85.6548 32.2466L85.8423 32.0786L88.1675 29.9956L90.4946 32.0786Z" fill="white" stroke="#D96C67" stroke-width="0.5625"/>
<path d="M76.8596 68.2437L82.5864 73.4935L90.5784 63.7437" stroke="#D96C67" stroke-width="2.25" stroke-miterlimit="10" stroke-linecap="round"/>
</g>
<path d="M79.9021 67.4625C79.9021 67.91 79.5457 68.2725 79.1056 68.2725H43.7784C43.3388 68.2725 42.9819 67.91 42.9819 67.4625V46.9423C42.9819 46.4948 43.3388 46.1323 43.7784 46.1323H79.1056C79.5457 46.1323 79.9021 46.4948 79.9021 46.9423V67.4625Z" fill="#D96C67"/>
<path d="M54.1332 52.7483C54.1332 53.8669 53.2419 54.7733 52.142 54.7733H48.1595C47.0595 54.7733 46.1682 53.8669 46.1682 52.7483V51.5333C46.1682 50.4151 47.0595 49.5083 48.1595 49.5083H52.142C53.2419 49.5083 54.1332 50.4151 54.1332 51.5333V52.7483Z" fill="#FFD53D"/>
<path d="M52.6927 58.5532H46.1682V61.3882H52.6927V58.5532Z" fill="#86BBD3"/>
<path d="M63.293 62.7378H46.1682V65.5728H63.293V62.7378Z" fill="#86BBD3"/>
<path d="M60.434 58.5532H53.9099V61.3882H60.434V58.5532Z" fill="#86BBD3"/>
<path d="M68.1765 58.5532H61.6523V61.3882H68.1765V58.5532Z" fill="#86BBD3"/>
<path d="M75.9199 58.5532H69.3958V61.3882H75.9199V58.5532Z" fill="#86BBD3"/>
</g>
<rect x="109" y="87.7397" width="56" height="56" rx="28" fill="#FB878C"/>
<path d="M127.453 129.124C125.554 129.124 123.89 128.612 122.461 127.588C121.032 126.564 119.912 125.124 119.101 123.268C118.312 121.412 117.917 119.257 117.917 116.804C117.917 114.329 118.312 112.174 119.101 110.34C119.89 108.505 121 107.076 122.429 106.052C123.858 105.028 125.522 104.516 127.421 104.516C129.362 104.516 131.037 105.028 132.445 106.052C133.874 107.076 134.994 108.516 135.805 110.372C136.616 112.206 137.021 114.35 137.021 116.804C137.021 119.257 136.616 121.412 135.805 123.268C135.016 125.102 133.906 126.542 132.477 127.588C131.048 128.612 129.373 129.124 127.453 129.124ZM127.485 125.156C128.573 125.156 129.501 124.825 130.269 124.164C131.037 123.481 131.624 122.521 132.029 121.284C132.456 120.025 132.669 118.532 132.669 116.804C132.669 115.076 132.456 113.593 132.029 112.356C131.624 111.097 131.026 110.137 130.237 109.476C129.469 108.814 128.53 108.484 127.421 108.484C126.354 108.484 125.437 108.814 124.669 109.476C123.901 110.137 123.304 111.097 122.877 112.356C122.472 113.593 122.269 115.076 122.269 116.804C122.269 118.51 122.472 119.993 122.877 121.252C123.304 122.489 123.901 123.449 124.669 124.132C125.458 124.814 126.397 125.156 127.485 125.156ZM140.253 128.74V125.444L146.717 118.692C147.997 117.348 148.979 116.281 149.661 115.492C150.365 114.681 150.856 113.988 151.133 113.412C151.411 112.836 151.549 112.249 151.549 111.652C151.549 110.649 151.229 109.86 150.589 109.284C149.971 108.708 149.171 108.42 148.189 108.42C147.165 108.42 146.28 108.718 145.533 109.316C144.787 109.892 144.243 110.745 143.901 111.876L140.093 110.692C140.349 109.433 140.872 108.345 141.661 107.428C142.451 106.489 143.411 105.774 144.541 105.284C145.693 104.772 146.909 104.516 148.189 104.516C149.725 104.516 151.069 104.793 152.221 105.348C153.395 105.902 154.301 106.681 154.941 107.684C155.603 108.686 155.933 109.86 155.933 111.204C155.933 112.057 155.773 112.9 155.453 113.732C155.133 114.564 154.653 115.417 154.013 116.292C153.373 117.145 152.541 118.105 151.517 119.172L145.917 125.06H156.253V128.74H140.253Z" fill="white"/>
<defs>
<clipPath id="clip0_309_5346">
<rect width="100" height="100" fill="white" transform="translate(32 25.4351)"/>
</clipPath>
</defs>
</svg>
