<svg width="165" height="151" viewBox="0 0 165 151" fill="none" xmlns="http://www.w3.org/2000/svg">
<circle cx="82" cy="75.7397" r="75" fill="#FFE6E7"/>
<path d="M57.4548 107.824H78.299C79.89 107.824 80.8396 106.534 80.42 104.943L64.576 44.8808C64.1562 43.2898 62.5262 42 60.9352 42H40.0908C38.4998 42 37.5502 43.2898 37.9698 44.8808L53.814 104.943C54.2338 106.534 55.8638 107.824 57.4548 107.824Z" fill="#3B474E"/>
<path d="M57.6504 105.409H77.662C79.253 105.409 80.2026 104.119 79.783 102.528L64.576 44.8808C64.1562 43.2898 62.5262 42 60.9352 42H40.9236C39.3326 42 38.383 43.2898 38.8026 44.881L54.0096 102.528C54.4292 104.119 56.0594 105.409 57.6504 105.409Z" fill="#667A84"/>
<path d="M41.4264 43.1362H62.083C62.9926 43.1362 63.9246 43.8736 64.1646 44.7832L80.0602 105.041C80.3002 105.95 79.7572 106.688 78.8476 106.688H58.191C57.2814 106.688 56.3494 105.95 56.1094 105.041L40.2138 44.7832C39.9738 43.8736 40.5168 43.1362 41.4264 43.1362Z" fill="#FFE6E7"/>
<path d="M53.5065 43.6954C52.6999 43.7102 53.3017 45.4224 54.1085 45.4076C54.9151 45.3926 54.3135 43.6806 53.5065 43.6954Z" fill="#3B474E"/>
<path d="M52.3202 49.3336C52.1576 49.334 51.998 49.3094 51.8412 49.2596C51.6859 49.2079 51.5411 49.1359 51.4069 49.0436C51.2741 48.9494 51.1582 48.8387 51.0593 48.7115C50.9604 48.5843 50.8861 48.4454 50.8364 48.2949C50.7868 48.1444 50.7694 48.0054 50.7842 47.8779C50.7991 47.7504 50.843 47.6402 50.9161 47.5473C50.9885 47.4524 51.0855 47.3797 51.2072 47.3291C51.3281 47.2766 51.4709 47.2502 51.6355 47.2497C51.8102 47.2492 51.9793 47.2776 52.1427 47.3351C52.3054 47.3906 52.455 47.4742 52.5915 47.5858L52.4109 47.8152C52.3076 47.7364 52.2018 47.6778 52.0936 47.6394C51.9847 47.5992 51.8744 47.5792 51.7627 47.5796C51.6509 47.5799 51.554 47.5976 51.472 47.6326C51.3921 47.6676 51.328 47.717 51.28 47.7809C51.2339 47.8447 51.2059 47.9201 51.196 48.0071C51.1881 48.094 51.2013 48.1896 51.2357 48.2938C51.2701 48.398 51.3199 48.4934 51.3851 48.5802C51.4524 48.6669 51.5301 48.742 51.6181 48.8054C51.7082 48.8689 51.8047 48.9179 51.9076 48.9524C52.0125 48.9868 52.1209 49.0039 52.2326 49.0036C52.3444 49.0032 52.4416 48.9836 52.5244 48.9448C52.6065 48.904 52.6728 48.8429 52.7233 48.7617L53.0557 48.9925C52.9925 49.1027 52.8982 49.187 52.7731 49.2453C52.6479 49.3036 52.497 49.333 52.3202 49.3336ZM55.3891 49.3246C55.2225 49.3251 55.0605 49.2995 54.9031 49.2478C54.7457 49.1961 54.5999 49.1241 54.4657 49.0318C54.3309 48.9376 54.2143 48.8278 54.1161 48.7026C54.0171 48.5754 53.9428 48.4365 53.8932 48.286C53.8435 48.1355 53.8264 47.9975 53.8419 47.8719C53.8568 47.7444 53.9007 47.6342 53.9738 47.5413C54.0462 47.4464 54.1439 47.3727 54.2669 47.3202C54.3899 47.2677 54.5337 47.2412 54.6983 47.2408C54.8649 47.2403 55.0259 47.2659 55.1813 47.3176C55.3387 47.3693 55.4848 47.4422 55.6196 47.5365C55.7538 47.6288 55.8704 47.7385 55.9693 47.8657C56.0676 47.991 56.1415 48.1288 56.1912 48.2793C56.2409 48.4298 56.2583 48.5689 56.2434 48.6964C56.2286 48.8239 56.1846 48.9341 56.1115 49.027C56.0385 49.1199 55.9405 49.1926 55.8175 49.2452C55.6965 49.2977 55.5537 49.3241 55.3891 49.3246ZM55.2772 48.9947C55.3849 48.9944 55.4787 48.9767 55.5587 48.9417C55.6386 48.9067 55.7016 48.8573 55.7477 48.7934C55.7931 48.7276 55.8201 48.6522 55.8286 48.5672C55.8386 48.4803 55.8263 48.3847 55.792 48.2805C55.7576 48.1763 55.7071 48.0818 55.6404 47.997C55.5752 47.9103 55.4986 47.8352 55.4105 47.7717C55.3218 47.7063 55.226 47.6564 55.1231 47.6219C55.0202 47.5875 54.9149 47.5704 54.8072 47.5707C54.6995 47.571 54.6057 47.5887 54.5257 47.6237C54.4478 47.6587 54.3851 47.7091 54.3377 47.7749C54.2916 47.8387 54.2636 47.9141 54.2537 48.0011C54.2451 48.0861 54.258 48.1807 54.2924 48.2849C54.3262 48.3871 54.3757 48.4816 54.4409 48.5684C54.5082 48.6551 54.5861 48.7311 54.6749 48.7965C54.7629 48.86 54.8584 48.909 54.9613 48.9435C55.0642 48.9779 55.1695 48.995 55.2772 48.9947ZM57.7878 49.2887L57.1192 47.2627L58.0518 47.26C58.2835 47.2593 58.5006 47.3011 58.7034 47.3855C58.9062 47.4699 59.0811 47.5872 59.2283 47.7374C59.3756 47.8877 59.4829 48.065 59.5504 48.2696C59.6173 48.4722 59.6271 48.6498 59.5799 48.8025C59.532 48.9533 59.4347 49.0714 59.288 49.1568C59.1413 49.2422 58.9521 49.2853 58.7205 49.2859L57.7878 49.2887ZM58.079 48.9691L58.5971 48.9676C58.7576 48.9672 58.8862 48.9378 58.9829 48.8796C59.0817 48.8214 59.1454 48.7401 59.174 48.6357C59.2046 48.5313 59.197 48.4097 59.1511 48.2707C59.1047 48.1299 59.032 48.0084 58.9333 47.9063C58.8359 47.8023 58.7187 47.7215 58.5818 47.664C58.4468 47.6065 58.2991 47.5779 58.1386 47.5784L57.6205 47.5799L58.079 48.9691Z" fill="#00CFA1"/>
<path d="M132 107.667H32V108.825H132V107.667Z" fill="#3B474E"/>
<path d="M106.989 66.2915L105.589 70.0737L100.277 69.0115L100.033 69.9435L99.9583 70.2295L105.633 72.6987C106.76 73.1891 107.982 72.2347 107.78 71.0223L106.989 66.2915Z" fill="#FFC9B9"/>
<path d="M107.78 71.0223L106.989 66.2915L106.309 68.1275C106.678 69.3459 106.943 70.5675 106.697 71.8737C106.821 71.8555 106.946 71.8335 107.072 71.8045C106.946 71.8337 106.821 71.8555 106.697 71.8737C104.323 72.2213 102.247 70.7293 100.033 69.9437L99.9583 70.2297L105.633 72.6989C106.76 73.1891 107.982 72.2347 107.78 71.0223Z" fill="#FDA98F"/>
<path d="M98.0848 67.9448L97.0566 68.596L98.0848 69.9346L98.9324 70.3172L99.9584 70.2296L100.277 69.0116L98.0848 67.9448Z" fill="#FDA98F"/>
<path d="M100.033 69.9436L99.4319 69.677C99.0417 69.4706 98.7437 69.1246 98.5977 68.708L98.4809 68.375L97.3203 67.8366C97.2447 67.8016 97.2053 67.7172 97.2267 67.6366C97.2517 67.5434 97.3485 67.489 97.4411 67.5164L98.9793 67.7268C99.3549 67.7782 99.6859 67.9994 99.8771 68.3268L100.277 69.0118L100.033 69.9436Z" fill="#FFC9B9"/>
<path d="M102.487 53.0427C102.37 54.4075 103.267 55.7957 104.56 56.2489C105.207 56.4757 105.984 56.5241 106.41 57.0605C106.811 57.5651 106.725 58.2831 106.684 58.9263C106.644 59.5695 106.742 60.3397 107.313 60.6389C108.035 61.0169 108.919 60.3483 109.71 60.5437C110.491 60.7365 110.829 61.6661 110.867 62.4695C110.904 63.2727 110.781 64.1275 111.15 64.8417C111.511 65.5389 112.289 65.9471 113.068 66.0445C113.847 66.1419 114.633 65.9717 115.39 65.7619C116.314 65.5053 117.236 65.1803 118.016 64.6213C118.796 64.0623 119.426 63.2403 119.579 62.2927C119.731 61.3453 119.325 60.2853 118.484 59.8237C117.992 59.5535 117.352 59.4639 117.048 58.9919C116.726 58.4919 116.952 57.8355 117.174 57.2837C117.396 56.7319 117.593 56.0563 117.233 55.5831C116.578 54.7233 114.909 55.5083 114.255 54.6479C114.002 54.3141 114.017 53.8575 113.994 53.4391C113.878 51.4103 112.45 49.5175 110.531 48.8499C109.258 48.4073 107.821 48.5215 106.606 49.0889C105.986 49.3787 105.567 49.8931 104.995 50.2205C104.446 50.5345 103.906 50.6283 103.429 51.0979C102.906 51.6131 102.55 52.3069 102.487 53.0427Z" fill="#BF360C"/>
<path d="M118.484 59.8236C117.992 59.5534 117.353 59.4638 117.048 58.9918C116.726 58.4918 116.952 57.8354 117.174 57.2836C117.396 56.7318 117.593 56.0562 117.233 55.583C116.578 54.7232 114.909 55.5082 114.255 54.6478C114.002 54.314 114.018 53.8574 113.994 53.439C113.879 51.4212 112.465 49.5388 110.561 48.8618C111.817 49.6692 112.771 50.9896 113.108 52.439C113.222 52.9332 113.25 53.4402 113.239 53.9464C113.223 54.656 112.774 55.551 113.683 55.8822C114.323 56.115 115.02 56.03 115.511 56.6074C115.798 56.9454 115.792 57.3536 115.667 57.7578C115.544 58.1526 115.467 58.4942 115.61 58.8984C115.747 59.2886 116.023 59.6378 116.299 59.9402C116.552 60.2172 116.804 60.506 116.815 60.9014C116.827 61.2864 116.624 61.679 116.365 61.9528C115.874 62.4718 115.091 62.7218 114.402 62.8258C113.755 62.9234 113.111 62.8528 112.603 62.408C112.128 61.992 111.886 61.357 111.661 60.7852C111.534 60.4596 111.421 60.14 111.152 59.9006C110.92 59.6934 110.624 59.5846 110.327 59.5102C109.627 59.3352 108.815 59.4146 108.165 59.0834C107.584 58.7874 107.481 58.164 107.508 57.5722C107.534 57.0056 107.666 56.314 107.153 55.9162C106.881 55.705 106.534 55.6206 106.204 55.5494C105.86 55.4748 105.517 55.393 105.182 55.2846C104.451 55.0478 103.754 54.6814 103.289 54.0518C102.877 53.4944 102.752 52.8096 102.801 52.1282C102.806 52.0598 102.813 51.9904 102.822 51.9214C102.64 52.2698 102.52 52.6498 102.486 53.043C102.369 54.4078 103.267 55.796 104.56 56.2492C105.206 56.476 105.983 56.5244 106.41 57.0608C106.811 57.5652 106.724 58.2834 106.684 58.9266C106.643 59.5698 106.742 60.34 107.313 60.6392C108.034 61.0172 108.919 60.3486 109.71 60.544C110.491 60.7368 110.829 61.6664 110.866 62.4698C110.904 63.273 110.78 64.1278 111.15 64.842C111.51 65.5392 112.288 65.9474 113.067 66.0448C113.846 66.1422 114.633 65.972 115.389 65.7622C116.314 65.5056 117.236 65.1806 118.016 64.6216C118.796 64.0626 119.426 63.2406 119.578 62.293C119.731 61.3452 119.325 60.2852 118.484 59.8236Z" fill="#92360C"/>
<path d="M114.99 105.892L113.617 106.161L113.06 102.243L115.39 101.902L114.99 105.892Z" fill="#FFC9B9"/>
<path d="M108.814 76.8824L114.739 76.584L115.164 81.3236L114.419 89.8082L115.741 92.6084L115.39 101.902L113.06 102.243L111.27 91.539L108.814 76.8824Z" fill="#263238"/>
<path d="M115.113 105.528L115.778 107.544L109.062 107.643L109.123 107.197L113.322 105.292L113.888 105.735L115.113 105.528Z" fill="white"/>
<path d="M118.545 105.782L117.086 106.067L116.426 101.902L118.844 101.692L118.545 105.782Z" fill="#FFC9B9"/>
<path d="M117.894 76.6794C116.045 76.8284 114.2 77.036 112.364 77.3024L114.542 90.649L116.426 101.902L118.843 101.692L119.142 94.9208C119.242 92.8926 118.641 90.8918 117.44 89.254L118.907 84.3824C119.202 83.8826 119.714 80.8504 119.381 77.9082C119.296 77.1632 118.642 76.619 117.894 76.6794Z" fill="#37474F"/>
<path d="M118.675 105.395L119.382 107.537L112.243 107.643L112.307 107.169L116.771 105.144L117.374 105.615L118.675 105.395Z" fill="white"/>
<path d="M117.8 86.7019C117.248 88.2035 116.696 89.7049 116.145 91.2065C116.053 91.4549 116.44 91.5263 116.53 91.2801C117.082 89.7785 117.634 88.2771 118.185 86.7755C118.277 86.5271 117.89 86.4557 117.8 86.7019Z" fill="#263238"/>
<path d="M117.641 90.0295C117.531 90.0005 117.429 90.0573 117.38 90.1617L116.806 91.3723C116.759 91.4697 116.821 91.5967 116.918 91.6225C117.027 91.6515 117.129 91.5947 117.179 91.4903C117.37 91.0867 117.561 90.6831 117.753 90.2797C117.799 90.1823 117.738 90.0553 117.641 90.0295Z" fill="#263238"/>
<path d="M118.438 78.0906C115.94 80.0024 112.61 80.7406 109.538 80.0624C109.289 80.0074 109.167 80.3888 109.419 80.4444C112.638 81.1548 116.088 80.3914 118.706 78.3884C118.91 78.2318 118.642 77.9352 118.438 78.0906Z" fill="#CFD8DC"/>
<path d="M110.943 68.4262C110.779 67.9536 110.507 67.5244 110.133 67.1894C110.055 67.1198 109.933 67.0928 109.851 67.174C109.78 67.243 109.752 67.3818 109.835 67.4566C109.919 67.532 109.999 67.6118 110.073 67.6968C110.111 67.7392 110.146 67.783 110.181 67.8276C110.198 67.85 110.215 67.8726 110.231 67.8954C110.239 67.9056 110.246 67.916 110.253 67.926C110.255 67.9288 110.254 67.9274 110.255 67.9286C110.257 67.9316 110.257 67.9316 110.261 67.9376C110.321 68.0292 110.377 68.1238 110.427 68.2218C110.452 68.2722 110.476 68.3234 110.498 68.3752C110.509 68.4012 110.52 68.4272 110.53 68.4534C110.535 68.465 110.539 68.4768 110.544 68.4886C110.546 68.4944 110.547 68.4978 110.549 68.5008C110.55 68.5038 110.55 68.5062 110.552 68.5112C110.587 68.6098 110.677 68.6938 110.79 68.664C110.885 68.6394 110.98 68.5318 110.943 68.4262Z" fill="#CFD8DC"/>
<path d="M108.937 59.806C109.591 59.9768 111.552 58.3374 112.24 58.3546C112.929 58.3718 114.736 58.2648 115.256 59.9604C115.697 61.3976 114.864 63.185 114.418 64.6512C114.183 65.4258 113.893 66.1968 113.826 66.9902C113.726 68.2098 114.176 69.381 114.85 70.3436C115.524 71.3044 118.487 74.0726 119.561 77.9558C117.174 80.7452 112.14 81.5794 108.814 80.6256C108.61 77.9954 107.185 70.591 107.134 67.9042C107.13 67.7434 107.068 67.6342 106.969 67.5454C106.099 66.7662 105.632 65.631 105.924 64.4998C106.391 62.6964 107.19 61.7352 108.937 59.806Z" fill="white"/>
<path opacity="0.63" d="M106.969 67.5456C107.068 67.6342 107.13 67.7436 107.134 67.9044C107.152 68.8568 107.296 70.0108 107.481 71.2192C107.747 71.2942 108.021 71.3608 108.299 71.4216C108.701 71.2344 109.098 71.0356 109.484 70.8288C110.236 70.4254 110.944 69.9404 111.585 69.3758C112.242 68.7966 112.754 68.1338 113.23 67.4022C113.46 67.0498 113.686 66.6948 113.925 66.3494C114.047 65.7786 114.247 65.2158 114.418 64.6512L114.426 64.627C114.603 64.0388 113.884 63.5962 113.431 64.0114C111.495 65.7846 108.844 66.7578 106.081 66.33C106.277 66.7842 106.583 67.2 106.969 67.5456Z" fill="#CFD8DC"/>
<path d="M111.939 59.3695C111.741 59.8425 111.363 60.2347 110.886 60.4289C110.349 60.6469 109.736 60.6037 109.229 60.3287C109.115 60.2673 109.021 60.4439 109.134 60.5051C109.685 60.8037 110.363 60.8567 110.946 60.6195C111.47 60.4063 111.897 59.9855 112.115 59.4635C112.165 59.3457 111.989 59.2509 111.939 59.3695Z" fill="#CFD8DC"/>
<path d="M100.276 65.6526L97.9336 61.105L95.4995 62.359L97.8424 66.9066L100.276 65.6526Z" fill="#7CB342"/>
<path d="M99.8632 65.4477L97.8601 61.5596L95.9118 62.5633L97.9149 66.4515L99.8632 65.4477Z" stroke="#F2E0BE" stroke-width="0.2" stroke-miterlimit="10"/>
<path d="M97.2912 64.2791C97.1192 63.9453 97.2504 63.5353 97.5842 63.3633C97.918 63.1913 98.328 63.3225 98.5 63.6563C98.672 63.9901 98.5408 64.4001 98.207 64.5721C97.8732 64.7441 97.4632 64.6129 97.2912 64.2791Z" fill="#F2E0BE"/>
<path d="M100.582 64.7379L100.539 64.7179C100.539 64.7179 100.048 64.4871 99.6596 64.3045C99.4598 64.2107 99.2244 64.3255 99.1756 64.5407C99.1316 64.7353 99.075 64.9305 99.0674 64.9859C98.9898 65.5469 99.0094 66.1169 99.1396 66.6685C99.2102 66.9679 99.277 67.3659 99.5924 67.5029C99.6428 67.5247 100.23 67.7647 100.226 67.7785L100.329 67.4177L100.589 66.5093L100.582 64.7379Z" fill="#FFC9B9"/>
<path d="M104.686 66.9623L100.394 66.2563L100.226 67.7789L107.584 70.2295L107.814 68.6709L107.986 67.5051L104.686 66.9623Z" fill="#FFC9B9"/>
<path d="M107.986 67.5051L104.686 66.9623L100.394 66.2563L100.261 67.4607C102.695 68.1785 105.133 69.3077 107.705 69.4125L107.814 68.6709L107.986 67.5051Z" fill="#FFC9B9"/>
<path d="M108.466 69.4114C110.184 67.706 111.888 66.1552 113.231 64.066C112.623 63.6882 112.114 63.1138 111.505 62.7378L107.986 67.505L107.705 69.4124C107.957 69.4228 108.211 69.4216 108.466 69.4114Z" fill="#FFC9B9"/>
<path d="M111.721 62.4453L111.505 62.7381C112.114 63.1141 112.624 63.6885 113.231 64.0663C111.888 66.1555 110.184 67.7063 108.466 69.4117C108.211 69.4217 107.957 69.4231 107.705 69.4127C105.133 69.3079 103.022 68.5937 100.589 67.8759L100.227 67.7789L107.585 70.2295C109.984 71.0287 114.03 64.0023 114.03 64.0023L111.721 62.4453Z" fill="#FDA98F"/>
<path d="M114.182 63.8677C113.38 63.3355 112.578 62.8035 111.776 62.2715C111.686 62.2117 111.553 62.2651 111.505 62.3539C111.45 62.4569 111.497 62.5647 111.588 62.6245L113.994 64.2207C114.084 64.2805 114.217 64.2271 114.264 64.1383C114.319 64.0353 114.272 63.9277 114.182 63.8677Z" fill="#CFD8DC"/>
<path d="M106.677 52.8645C107.811 53.4235 109.394 54.3075 110.596 53.5057C110.812 53.3611 110.97 53.1877 111.08 52.9997C111.215 52.9881 111.353 53.0179 111.495 53.1183C111.873 53.3867 112.034 53.9259 111.884 54.3617C111.725 54.8261 111.352 54.9861 110.865 55.0509C110.956 56.3867 111.334 57.3915 111.736 58.7411C111.587 59.4297 111.338 59.8281 110.789 60.0881C110.241 60.3481 110.109 60.3397 109.539 60.1343C109.414 59.4601 109.263 58.5449 109.033 57.8993C108.606 58.1841 107.59 58.4953 107.13 58.4821C106.956 58.4771 105.115 55.6531 105.095 51.7603C105.554 52.2045 106.089 52.5745 106.677 52.8645Z" fill="#FFC9B9"/>
<path d="M108.043 58.3172C108.425 58.204 108.809 58.0482 109.033 57.8992C109.233 58.4608 109.373 59.2258 109.488 59.8592L109.434 57.4292L108.043 58.3172Z" fill="#FDA98F"/>
<path d="M110.678 53.6648C110.806 53.5034 110.968 53.3854 111.147 53.31C111.245 53.269 111.295 53.4406 111.2 53.483C111.04 53.5538 110.903 53.6644 110.793 53.8118C110.741 53.8816 110.697 53.9582 110.661 54.0402C110.629 54.1148 110.62 54.1752 110.56 54.2256C110.528 54.2526 110.475 54.2306 110.464 54.1878C110.418 54.0142 110.581 53.788 110.678 53.6648Z" fill="#FDA98F"/>
<path d="M107.61 54.1191C107.595 54.0433 107.573 53.9671 107.594 53.8907C107.624 53.7809 107.757 53.7397 107.843 53.8157C107.902 53.8679 107.926 53.9435 107.954 54.0151C107.981 54.0807 108 54.1433 108.014 54.2129C108.057 54.4407 107.757 54.5331 107.669 54.3169C107.642 54.2513 107.624 54.1887 107.61 54.1191Z" fill="#472C1F"/>
<path d="M105.682 54.3504C105.67 54.2742 105.65 54.1972 105.674 54.1216C105.708 54.0128 105.841 53.976 105.925 54.055C105.982 54.1092 106.004 54.1856 106.03 54.2582C106.054 54.3246 106.071 54.3878 106.082 54.4578C106.118 54.6868 105.816 54.7692 105.734 54.5502C105.709 54.4834 105.694 54.4204 105.682 54.3504Z" fill="#472C1F"/>
<path d="M107.112 56.7908C107.591 56.6226 108.044 56.3798 108.45 56.0752C108.142 56.4982 107.68 56.731 107.197 56.8898C107.17 56.8552 107.143 56.8218 107.112 56.7908Z" fill="white"/>
<path d="M108.45 56.0754C108.47 56.0602 108.491 56.0454 108.511 56.0298C108.518 56.1244 108.515 56.221 108.502 56.3164C108.475 56.5328 108.398 56.7428 108.259 56.9066C108.058 57.1426 107.765 57.298 107.456 57.326C107.404 57.2306 107.353 57.1316 107.296 57.0372C107.265 56.9862 107.232 56.937 107.197 56.89C107.68 56.731 108.142 56.4984 108.45 56.0754Z" fill="#B51C1C"/>
<path d="M106.986 52.6762C107.48 52.5348 107.982 52.579 108.445 52.8048C108.555 52.8586 108.466 53.0274 108.356 52.9734C107.94 52.7702 107.49 52.7304 107.044 52.8576C106.926 52.8914 106.868 52.71 106.986 52.6762Z" fill="#BF360C"/>
<path d="M105.299 53.3528C105.395 53.1604 105.559 53.0182 105.762 52.9482C105.878 52.908 105.936 53.0894 105.82 53.1296C105.663 53.184 105.542 53.2934 105.468 53.4418C105.414 53.5518 105.245 53.463 105.299 53.3528Z" fill="#BF360C"/>
<path d="M106.83 56.2305C106.718 56.1625 106.577 56.1761 106.451 56.1595C106.379 56.1499 106.274 56.1215 106.244 56.0481C106.224 56.0005 106.253 55.9449 106.271 55.9007C106.297 55.8343 106.324 55.7681 106.35 55.7015C106.403 55.5683 106.459 55.4367 106.496 55.2981C106.521 55.2047 106.387 55.1505 106.34 55.2347C106.259 55.3771 106.2 55.5309 106.137 55.6815C106.08 55.8191 105.989 55.9737 106.053 56.1243C106.103 56.2415 106.22 56.3129 106.34 56.3443C106.409 56.3625 106.483 56.3655 106.554 56.3711C106.625 56.3765 106.689 56.3917 106.758 56.4087C106.866 56.4355 106.924 56.2873 106.83 56.2305Z" fill="#472C1F"/>
<path d="M100.474 64.5813C99.7714 64.1053 98.9808 63.7653 98.153 63.5775C97.9016 63.5205 97.8106 63.9101 98.0618 63.9671C98.8586 64.1479 99.6096 64.4763 100.286 64.9345C100.376 64.9951 100.51 64.9403 100.557 64.8521C100.612 64.7481 100.564 64.6421 100.474 64.5813Z" fill="#FFC9B9"/>
<path d="M99.4906 64.7402C99.1126 64.4034 98.6344 64.1796 98.131 64.1182C98.0276 64.1056 97.912 64.1534 97.8906 64.2674C97.8724 64.3644 97.9288 64.4942 98.0398 64.5078C98.1518 64.5214 98.2624 64.5424 98.3712 64.572C98.4938 64.6054 98.5612 64.6296 98.6702 64.6788C98.886 64.7764 99.052 64.885 99.219 65.0338C99.2972 65.1034 99.4308 65.1062 99.5016 65.0228C99.5706 64.9414 99.574 64.8146 99.4906 64.7402Z" fill="#FFC9B9"/>
<path d="M99.3455 65.3034C99.0179 64.9908 98.6097 64.768 98.1705 64.659C98.0689 64.6338 97.9497 64.703 97.9301 64.8082C97.9099 64.916 97.9705 65.0216 98.0793 65.0486C98.1293 65.061 98.1787 65.0746 98.2279 65.0902C98.2509 65.0974 98.2739 65.105 98.2967 65.113C98.3081 65.117 98.3195 65.1212 98.3309 65.1252C98.3313 65.1254 98.3313 65.1254 98.3313 65.1254C98.3325 65.1258 98.3315 65.1256 98.3333 65.1262C98.4283 65.1664 98.5219 65.2074 98.6125 65.2572C98.6549 65.2806 98.6967 65.3052 98.7375 65.331C98.7579 65.344 98.7783 65.3572 98.7983 65.3706C98.8089 65.3778 98.8195 65.385 98.8299 65.3924C98.8321 65.394 98.8339 65.3954 98.8381 65.3984C98.9207 65.46 98.9993 65.526 99.0739 65.597C99.1497 65.6694 99.2873 65.6676 99.3565 65.586C99.4275 65.5024 99.4263 65.3806 99.3455 65.3034Z" fill="#FFC9B9"/>
<path d="M99.4656 66.1997C99.1298 65.7951 98.706 65.4957 98.2122 65.3149C98.1136 65.2789 97.99 65.3667 97.9718 65.4641C97.9498 65.5815 98.0154 65.6659 98.121 65.7045C98.127 65.7067 98.1282 65.7071 98.1304 65.7079C98.1314 65.7083 98.1306 65.7081 98.133 65.7091C98.1444 65.7137 98.1558 65.7181 98.1672 65.7227C98.1928 65.7331 98.2182 65.7439 98.2434 65.7551C98.2938 65.7775 98.3436 65.8017 98.3926 65.8273C98.4934 65.8801 98.5898 65.9399 98.6836 66.0043C98.6844 66.0049 98.684 66.0045 98.6846 66.0049C98.6858 66.0057 98.685 66.0053 98.6868 66.0067C98.699 66.0161 98.7116 66.0249 98.7238 66.0343C98.7458 66.0511 98.7676 66.0681 98.789 66.0855C98.832 66.1203 98.8738 66.1563 98.9146 66.1939C98.9552 66.2313 98.9948 66.2699 99.033 66.3099C99.0522 66.3299 99.071 66.3501 99.0894 66.3707C99.0976 66.3799 99.1058 66.3891 99.1138 66.3983C99.1154 66.4001 99.1538 66.4455 99.1286 66.4153C99.1952 66.4955 99.3088 66.5437 99.4048 66.4763C99.4842 66.4201 99.537 66.2857 99.4656 66.1997Z" fill="#FFC9B9"/>
<path d="M91.3569 69.7306L93.9073 69.8956L95.4391 68.7134H95.8597L94.9407 67.6442L93.7383 67.4414L91.3569 69.0908V69.7306Z" fill="#FDA98F"/>
<path d="M91.3572 69.0908L92.2354 68.8898C92.8222 68.7554 93.3366 68.4048 93.676 67.9076L93.9474 67.51L95.6662 67.21C95.7782 67.1904 95.86 67.0932 95.86 66.9796C95.86 66.848 95.7514 66.7422 95.6198 66.7458L93.5196 66.4806C93.0068 66.4158 92.4926 66.5906 92.1256 66.9544L91.3574 67.7156L91.3572 69.0908Z" fill="#FFC9B9"/>
<path d="M80.1473 104.869H77.5567L77.5405 103.93H80.1675L80.1473 104.869Z" fill="#FFC9B9"/>
<path d="M84.6431 106.826L80.2163 104.869H77.3553L76.8865 107.286H84.9025L84.6431 106.826Z" fill="#E4676C"/>
<path d="M76.8865 107.286L76.8123 107.667H85.1179L84.9025 107.286H76.8865Z" fill="white"/>
<path d="M67.6238 86.3667V75.9233L69.004 76.4531C69.8472 76.7769 70.2714 77.7203 69.9538 78.5657C69.7356 79.1465 69.9174 79.8019 70.4038 80.1871L80.9148 88.5147C81.3952 88.8953 81.6602 89.4861 81.6252 90.0981L80.8298 103.93H76.5826L76.1328 92.0705L67.6238 86.3667Z" fill="#263238"/>
<path d="M68.0061 76.584L68.0419 80.2146L74.7217 87.6954C75.2233 88.2572 75.4949 88.987 75.4825 89.74C75.4565 91.3222 74.4881 92.736 73.0221 93.3316L62.5681 97.5794L61.1301 93.0188L69.9329 89.6368L65.2081 87.705C61.5379 86.2044 59.1399 82.6332 59.1399 78.6682L68.0061 76.584Z" fill="#37474F"/>
<path d="M72.5897 89.8081C71.0879 89.6965 69.6223 89.2655 68.2929 88.5603C68.0649 88.4393 67.8833 88.7959 68.1107 88.9165C69.5071 89.6571 71.0369 90.0905 72.6121 90.2075C72.8681 90.2265 72.8433 89.8269 72.5897 89.8081Z" fill="#263238"/>
<path d="M71.1473 90.463L70.1449 89.8479C70.0557 89.7931 69.9229 89.8168 69.8693 89.9112C69.8161 90.0048 69.8375 90.1284 69.9327 90.1868L70.9351 90.8021C71.0243 90.8569 71.1571 90.833 71.2107 90.7386C71.2639 90.645 71.2427 90.5214 71.1473 90.463Z" fill="#263238"/>
<path d="M75.3726 65.1883C75.908 64.2731 76.4469 63.4097 77.3661 63.9673C78.7961 64.8347 80.117 65.4327 81.8092 66.0665L80.1291 69.7363C78.4439 69.2889 76.4843 69.0319 74.9525 68.1027C74.0375 67.5475 74.8256 66.1233 75.3726 65.1883Z" fill="#E4676C"/>
<path d="M83.6767 67.1243L81.8847 66.2915C81.4881 67.5033 80.9039 68.6105 80.0815 69.5617L83.4967 70.6279L91.3577 69.7307V67.7153L83.6767 67.1243Z" fill="#FFC9B9"/>
<path d="M83.1639 69.9514L91.3577 69.169V67.7154L83.6767 67.1244L82.0591 66.3726C82.0029 67.4448 81.7013 68.3944 81.1519 69.2198L83.1639 69.9514Z" fill="#FFC9B9"/>
<path d="M83.164 69.9512L81.1518 69.2194C81.7012 68.3938 82.003 67.4444 82.059 66.3722L81.8094 66.2562L81.7306 66.2222C81.4554 67.4162 80.9828 68.6008 80.106 69.569L83.4968 70.6276L91.3578 69.7304V69.1688L83.164 69.9512Z" fill="#FDA98F"/>
<path d="M81.6708 66.079C81.3008 67.3074 80.7378 68.4636 80.0002 69.5134C79.852 69.7242 80.189 69.9398 80.3368 69.7294C81.0932 68.6528 81.6734 67.4578 82.0528 66.1978C82.127 65.9518 81.7452 65.8316 81.6708 66.079Z" fill="#A73E3A"/>
<path d="M70.168 77.5971C70.2802 76.7965 70.5382 76.0211 70.8352 75.2719C72.0314 72.2545 73.7386 69.3253 75.9566 66.9459C76.6756 66.1747 77.4606 65.4715 78.3082 64.8531C76.0424 62.5203 72.3838 60.4681 68.8048 59.6959C67.3176 59.3751 65.8216 60.2003 65.29 61.6257L62.5678 64.9923C58.6932 69.7843 57.561 76.2345 59.5722 82.0597C64.1646 78.9357 69.1104 78.5245 70.165 78.8831C70.091 78.4617 70.1082 78.0227 70.168 77.5971Z" fill="#E4676C"/>
<path d="M65.8698 76.6213C64.2234 76.8051 62.6064 77.2097 61.085 77.9013C59.7102 71.7145 63.0606 66.1191 66.9494 61.4945C67.5048 60.8341 66.5512 59.9481 65.953 60.5701C65.6692 60.8651 65.4408 61.2211 65.29 61.6255L62.5678 64.9921C58.6932 69.7841 57.561 76.2343 59.5722 82.0595C59.9802 81.7821 60.3908 81.5269 60.8014 81.2909C60.8886 80.8145 61.0406 80.3495 61.285 79.9013C62.1424 78.0437 64.1228 77.7175 65.9862 77.2449C66.3688 77.1479 66.2622 76.5775 65.8698 76.6213Z" fill="#D31744"/>
<path d="M69.428 77.5124C68.178 77.4488 66.9364 77.6632 65.7754 78.1284C65.537 78.2238 65.7298 78.5746 65.9668 78.4798C67.0604 78.0416 68.2403 77.8524 69.4157 77.9122C69.6731 77.9252 69.6852 77.5254 69.428 77.5124Z" fill="#D31744"/>
<path d="M74.847 67.9888C72.7334 70.2874 71.174 73.0762 70.3326 76.0846C70.0932 76.9404 69.9152 77.8118 69.792 78.6916C69.7564 78.9462 70.1562 78.9616 70.1918 78.7082C70.6126 75.7006 71.7554 72.8064 73.4888 70.3138C73.984 69.6018 74.527 68.9248 75.114 68.2864C75.2872 68.0984 75.0212 67.7992 74.847 67.9888Z" fill="#A73E3A"/>
<path d="M62.0155 73.9297C62.0155 73.9297 63.3407 74.5203 64.2301 75.0013C64.5071 75.9959 63.7713 76.9385 62.9515 77.3633C62.2871 77.7075 61.4401 77.6679 60.8107 77.2633C60.1813 76.8587 59.7937 76.1045 59.8311 75.3573L62.0155 73.9297Z" fill="#FFC9B9"/>
<path d="M66.0036 77.6755C65.8234 76.5169 65.118 75.5205 64.1016 74.9421C63.6866 74.7061 63.3102 75.3443 63.7252 75.5803C64.5908 76.0729 65.1358 76.8885 65.2884 77.8695C65.3614 78.3395 66.0762 78.1431 66.0036 77.6755Z" fill="#FFC9B9"/>
<path d="M65.1588 78.241C64.9786 77.0824 64.2732 76.086 63.2568 75.5076C62.8418 75.2716 62.4654 75.9098 62.8804 76.1458C63.7462 76.6384 64.291 77.454 64.4436 78.435C64.5168 78.9048 65.2316 78.7084 65.1588 78.241Z" fill="#FFC9B9"/>
<path d="M64.0876 78.5398C63.9074 77.3814 63.202 76.3848 62.1858 75.8064C61.7708 75.5704 61.3944 76.2086 61.8094 76.4446C62.675 76.9372 63.22 77.7528 63.3726 78.7338C63.4454 79.2038 64.1602 79.0074 64.0876 78.5398Z" fill="#FFC9B9"/>
<path d="M62.9721 78.5354C62.7919 77.3768 62.0867 76.3804 61.0703 75.802C60.6553 75.566 60.2789 76.2042 60.6939 76.4402C61.5595 76.9328 62.1045 77.7484 62.2571 78.7294C62.3299 79.1992 63.0447 79.0028 62.9721 78.5354Z" fill="#FFC9B9"/>
<path d="M62.0156 73.9297L59.3134 66.1881L67.0694 63.4267L65.44 59.9609L55.4162 63.2603C54.7944 63.4649 54.4936 64.1689 54.7756 64.7597L59.8316 75.3571L62.0156 73.9297Z" fill="#FFC9B9"/>
<path d="M67.0693 63.4267L65.4399 59.9609L62.6359 60.8839C62.5551 61.9883 62.5185 63.0819 62.8275 64.0895C61.4209 64.8693 59.7365 65.4605 58.2297 65.8947C58.8353 66.3067 59.3101 66.7919 59.7135 67.3349L59.3133 66.1881L67.0693 63.4267Z" fill="#FDA98F"/>
<path d="M58.2297 65.8951C59.7365 65.4609 61.4207 64.8697 62.8275 64.0899C62.5185 63.0823 62.5551 61.9887 62.6359 60.8843L55.4159 63.2607C54.7941 63.4653 54.4933 64.1693 54.7753 64.7601L59.8313 75.3575L62.0157 73.9301L59.7137 67.3353C59.3103 66.7923 58.8353 66.3071 58.2297 65.8951Z" fill="#FFC9B9"/>
<path d="M61.5531 65.4156C63.3283 64.729 64.9977 64.2772 66.9329 63.8984C67.9931 63.6908 68.8721 62.6426 68.6207 61.479C68.3841 60.3836 69.2349 59.715 68.0803 59.6268C65.1565 59.4036 62.2129 60.5818 60.2983 61.2942C60.4133 62.6952 60.8445 64.1372 61.5531 65.4156Z" fill="#E4676C"/>
<path d="M60.2261 61.3757C60.3701 62.7969 60.8171 64.1669 61.5395 65.3993C61.6699 65.6219 62.0065 65.4057 61.8765 65.1837C61.1895 64.0119 60.7625 62.7059 60.6255 61.3545C60.5997 61.0997 60.1999 61.1187 60.2261 61.3757Z" fill="#A73E3A"/>
<path d="M76.8402 55.9401C77.5844 55.6033 77.9974 54.7873 77.9202 54.0249C77.843 53.2625 77.3334 52.5731 76.6624 52.1237C75.9916 51.6743 75.1732 51.4443 74.3522 51.3407C73.6604 51.2533 72.948 51.2513 72.2728 51.4153C71.93 51.4985 71.5746 51.6433 71.3998 51.9281C71.225 52.2129 71.3436 52.6581 71.6892 52.7305C71.4002 52.6839 71.0872 52.8327 70.9606 53.0773C70.834 53.3217 70.9048 53.6405 71.1254 53.8191C70.7918 53.7867 70.4466 53.9709 70.3102 54.2541C70.1738 54.5373 70.257 54.8977 70.5064 55.1049C70.1656 55.2173 70.026 55.6165 70.1024 55.9433C70.1788 56.2701 70.4118 56.5431 70.6238 56.8139C71.1604 57.4989 71.603 58.2467 71.9378 59.0337C72.4324 58.8573 72.8976 58.6113 73.3126 58.3067" fill="#3F2500"/>
<path d="M77.1528 54.0965C76.72 54.0125 76.287 54.0414 75.849 54.093C75.4766 54.137 74.337 54.3827 74.337 54.3827C74.0658 55.1753 73.933 55.7019 73.2936 56.2433C73.233 56.2947 73.1652 56.3481 73.0856 56.3503C72.979 56.3531 72.8618 56.2715 72.7604 56.2413C72.6168 56.1987 72.4768 56.1462 72.3372 56.0922C71.8992 55.9228 71.423 55.6851 70.9946 56.0045C70.6382 56.2701 70.5436 56.8097 70.7452 57.2059C70.9466 57.6021 71.3986 57.8402 71.843 57.837C72.0202 59.0992 71.985 59.5634 71.794 60.8236C72.0136 61.422 72.5786 62.1689 73.1026 62.3331C73.6266 62.4973 74.2192 62.5019 74.705 62.2459C74.732 61.6259 74.7912 61.0207 74.9166 60.4131C75.328 60.4823 75.7698 60.5033 76.181 60.4335C76.337 60.4071 76.5022 60.3645 76.6064 60.2455C76.6848 60.1561 76.717 60.0365 76.747 59.9215C77.2252 58.0839 77.3448 56.0335 77.1528 54.0965Z" fill="#FFC9B9"/>
<path d="M74.7051 62.2457C74.7321 61.6257 74.7913 61.0205 74.9167 60.4129C75.1467 60.4515 75.3863 60.4743 75.6249 60.4755C75.0895 60.3781 74.7175 60.1725 74.2805 60.0479C74.3541 60.8517 74.5889 62.3069 74.7051 62.2457Z" fill="#FDA98F"/>
<path d="M71.7546 56.5901C71.62 56.4613 71.46 56.3761 71.2896 56.3311C71.197 56.3067 71.1734 56.4667 71.2646 56.4929C71.4162 56.5363 71.5532 56.6183 71.6704 56.7365C71.7258 56.7925 71.7748 56.8555 71.817 56.9247C71.8554 56.9875 71.8714 57.0405 71.9314 57.0781C71.9636 57.0983 72.0078 57.0719 72.0124 57.0321C72.0314 56.8705 71.8572 56.6883 71.7546 56.5901Z" fill="#FDA98F"/>
<path d="M75.0478 55.9789C75.0518 55.9091 75.062 55.8379 75.0334 55.7723C74.9924 55.6777 74.8688 55.6573 74.8012 55.7363C74.7548 55.7905 74.7428 55.8613 74.726 55.9291C74.7108 55.9913 74.701 56.0497 74.6978 56.1137C74.6874 56.3233 74.9678 56.3683 75.02 56.1635C75.0362 56.1013 75.044 56.0431 75.0478 55.9789Z" fill="#472C1F"/>
<path d="M77.0481 55.8137C77.0343 55.7451 77.0263 55.6737 76.9821 55.6173C76.9187 55.5359 76.7939 55.5477 76.7483 55.6411C76.7171 55.7053 76.7233 55.7769 76.7243 55.8467C76.7253 55.9107 76.7305 55.9697 76.7435 56.0325C76.7863 56.2379 77.0689 56.2109 77.0679 55.9995C77.0679 55.9351 77.0607 55.8767 77.0481 55.8137Z" fill="#472C1F"/>
<path d="M74.8476 59.1644C75.1964 59.1942 75.5164 59.3144 75.8014 59.5168C75.877 59.5706 75.786 59.6824 75.7104 59.6288C75.4454 59.4406 75.149 59.3348 74.8254 59.307C74.733 59.299 74.7556 59.1566 74.8476 59.1644Z" fill="#FDA98F"/>
<path d="M76.5384 54.5025C76.786 54.3401 77.2354 54.5869 77.3604 54.8183C77.4042 54.8993 77.3106 55.0187 77.2212 54.9925C77.1014 54.9575 76.9978 54.8885 76.88 54.8473C76.7666 54.8075 76.6224 54.8069 76.5328 54.7215C76.472 54.6635 76.4588 54.5547 76.5384 54.5025Z" fill="#3F2500"/>
<path d="M74.3827 54.7675C74.6213 54.4823 75.1525 54.4045 75.5025 54.4291C75.6691 54.4409 75.6489 54.6867 75.4971 54.7113C75.3129 54.7413 75.1347 54.7631 74.9557 54.8205C74.8035 54.8693 74.6497 54.9473 74.4903 54.9633C74.3873 54.9737 74.3141 54.8497 74.3827 54.7675Z" fill="#3F2500"/>
<path d="M74.5662 57.5435C75.147 57.8757 75.7814 58.1139 76.4372 58.2457C76.3614 58.3489 76.3032 58.4643 76.2522 58.5835C75.6644 58.4671 75.1006 58.2457 74.627 57.8981C74.5952 57.7817 74.5742 57.6623 74.5662 57.5435Z" fill="#F3F3F3"/>
<path d="M76.2522 58.5835C76.1978 58.7107 76.1518 58.8425 76.1032 58.9703C75.715 58.9893 75.323 58.8473 75.0328 58.5889C74.8314 58.4097 74.6988 58.1621 74.627 57.8979C75.1006 58.2459 75.6644 58.4673 76.2522 58.5835Z" fill="#B51C1C"/>
<path d="M71.8085 60.6929C72.0465 62.0449 73.3801 62.7563 74.6423 62.2251C74.8543 62.1359 74.9467 62.4821 74.7375 62.5701C73.3019 63.1743 71.7335 62.3207 71.4637 60.7881C71.4237 60.5627 71.7685 60.4661 71.8085 60.6929Z" fill="#A73E3A"/>
<path d="M78.0532 50.867C77.5672 51.125 77.0852 51.393 76.6112 51.675C76.5852 51.651 76.5592 51.627 76.5332 51.601C75.5932 50.699 74.1972 50.301 72.9232 50.575C71.6512 50.847 70.5392 51.781 70.0512 52.989C69.6132 54.075 69.6292 55.469 70.2892 56.413C70.2652 56.433 70.2432 56.455 70.2192 56.477C70.0312 56.655 70.3052 56.947 70.4932 56.769C71.6712 55.657 72.9232 54.627 74.2392 53.691C75.1012 53.075 75.9892 52.501 76.9032 51.967C77.3452 51.707 77.7912 51.459 78.2452 51.219C78.4732 51.099 78.2812 50.747 78.0532 50.867Z" fill="#E4676C"/>
<path d="M76.7855 57.5628C76.6215 56.9776 76.4575 56.3924 76.2935 55.8072C76.2589 55.6836 76.0633 55.7256 76.0981 55.8498C76.2529 56.4024 76.4079 56.955 76.5627 57.5074C76.4171 57.537 76.2715 57.5668 76.1259 57.5964C75.9995 57.6222 76.0423 57.8176 76.1685 57.7918C76.3487 57.755 76.5289 57.7184 76.7091 57.6816C76.7597 57.6714 76.7999 57.6144 76.7855 57.5628Z" fill="#472C1F"/>
<path d="M75.9534 51.6353C74.1178 53.0461 72.2822 54.4569 70.4466 55.8675C70.2422 56.0247 70.5108 56.3213 70.7138 56.1653C72.5494 54.7545 74.385 53.3437 76.2206 51.9329C76.4252 51.7759 76.1564 51.4793 75.9534 51.6353Z" fill="#A73E3A"/>
<path d="M87.9575 71.2847H103.763L103.215 80.7355H88.5059L87.9575 71.2847Z" fill="#D31744"/>
<path d="M103.215 80.7358L103.763 83.454H87.9575L88.5059 80.7358H103.215Z" fill="#E4676C"/>
<path d="M98.0994 72.5753V70.5459C98.0994 69.3807 97.2364 68.3607 96.0762 68.2513C94.745 68.1259 93.6212 69.1743 93.6212 70.4801V72.5751C93.6212 72.6761 93.5394 72.7579 93.4384 72.7579C93.3374 72.7579 93.2556 72.6761 93.2556 72.5751V70.5555C93.2556 69.1547 94.33 67.9475 95.7292 67.8787C97.2248 67.8051 98.465 69.0005 98.465 70.4801V72.5751C98.465 72.6761 98.3832 72.7579 98.2822 72.7579C98.1812 72.7581 98.0994 72.6763 98.0994 72.5753Z" fill="#263238"/>
<path d="M96.8706 68.8568C96.805 68.7596 96.8306 68.6276 96.9278 68.562L97.7534 68.0046C97.8506 67.939 97.9826 67.9646 98.0484 68.0618C98.114 68.159 98.0884 68.291 97.9912 68.3566L97.1656 68.914C97.0684 68.9796 96.9364 68.954 96.8706 68.8568Z" fill="#FFC9B9"/>
<path d="M97.1387 69.2391C97.0731 69.1419 97.0987 69.0099 97.1959 68.9443L98.0215 68.3869C98.1187 68.3213 98.2507 68.3469 98.3163 68.4441C98.3819 68.5413 98.3563 68.6733 98.2591 68.7391L97.4335 69.2965C97.3363 69.3621 97.2043 69.3365 97.1387 69.2391Z" fill="#FFC9B9"/>
<path d="M97.4961 69.6586C97.4305 69.5614 97.4561 69.4294 97.5533 69.3638L98.3789 68.8064C98.4761 68.7408 98.6081 68.7664 98.6739 68.8636C98.7395 68.9608 98.7139 69.0928 98.6167 69.1586L97.7911 69.716C97.6939 69.7814 97.5617 69.7558 97.4961 69.6586Z" fill="#FFC9B9"/>
<path d="M97.7617 70.0153C97.6961 69.9181 97.7217 69.7861 97.8189 69.7205L98.5377 69.2351C98.6349 69.1695 98.7669 69.1951 98.8325 69.2923C98.8981 69.3895 98.8725 69.5215 98.7753 69.5871L98.0565 70.0725C97.9595 70.1381 97.8275 70.1125 97.7617 70.0153Z" fill="#FFC9B9"/>
<path d="M64.0644 100.675C62.8364 96.8868 61.6086 93.0986 60.3806 89.3104C60.223 88.8242 59.4438 89.0082 59.6032 89.4996C60.8312 93.2878 62.059 97.076 63.287 100.864C63.4446 101.35 64.2238 101.167 64.0644 100.675Z" fill="#00CFA1"/>
<path d="M59.8409 87.3108C59.6695 86.8348 59.4978 86.3588 59.3264 85.8826C59.2898 85.7812 59.2447 85.6974 59.1501 85.638C59.0659 85.5852 58.9402 85.5602 58.8432 85.5884C58.6534 85.6436 58.4731 85.861 58.5491 86.0718C58.7205 86.5478 58.892 87.0238 59.0634 87.5C59.1 87.6014 59.1452 87.6852 59.2398 87.7446C59.324 87.7974 59.4496 87.8224 59.5466 87.7942C59.7364 87.739 59.9167 87.5216 59.8409 87.3108Z" fill="#00CFA1"/>
<path d="M56.1547 75.4698C55.6743 73.8712 55.1941 72.2726 54.7137 70.6742C54.5663 70.1836 53.7875 70.3684 53.9363 70.8634C54.4167 72.462 54.8969 74.0606 55.3773 75.659C55.5245 76.1496 56.3035 75.9648 56.1547 75.4698Z" fill="#00CFA1"/>
<path d="M96.1458 68.7456C96.2666 68.6406 96.2794 68.4578 96.1744 68.337L95.2834 67.3116C95.1784 67.1908 94.9956 67.178 94.8748 67.283C94.754 67.388 94.7412 67.5708 94.8462 67.6916L95.7372 68.7168C95.842 68.8376 96.025 68.8504 96.1458 68.7456Z" fill="#FFC9B9"/>
<path d="M95.4107 69.1221C95.5315 69.0171 95.5443 68.8343 95.4393 68.7135L94.5483 67.6881C94.4433 67.5673 94.2605 67.5545 94.1397 67.6595C94.0189 67.7645 94.0061 67.9473 94.1111 68.0681L95.0021 69.0935C95.1071 69.2143 95.2901 69.2271 95.4107 69.1221Z" fill="#FFC9B9"/>
<path d="M94.7921 69.5481C94.9129 69.4431 94.9257 69.2603 94.8207 69.1395L93.9297 68.1143C93.8249 67.9935 93.6419 67.9807 93.5211 68.0857C93.4003 68.1907 93.3875 68.3735 93.4925 68.4943L94.3835 69.5197C94.4885 69.6403 94.6713 69.6531 94.7921 69.5481Z" fill="#FFC9B9"/>
<path d="M94.3163 69.9243C94.4371 69.8193 94.4499 69.6365 94.3449 69.5157L93.5693 68.6231C93.4643 68.5023 93.2815 68.4895 93.1607 68.5945C93.0399 68.6995 93.0271 68.8823 93.1321 69.0031L93.9077 69.8957C94.0125 70.0163 94.1955 70.0291 94.3163 69.9243Z" fill="#FFC9B9"/>
<rect x="109" y="87.7397" width="56" height="56" rx="28" fill="#FB878C"/>
<path d="M127.219 129.124C125.32 129.124 123.656 128.612 122.227 127.588C120.797 126.564 119.677 125.124 118.867 123.268C118.077 121.412 117.683 119.257 117.683 116.804C117.683 114.329 118.077 112.174 118.867 110.34C119.656 108.505 120.765 107.076 122.195 106.052C123.624 105.028 125.288 104.516 127.187 104.516C129.128 104.516 130.803 105.028 132.211 106.052C133.64 107.076 134.76 108.516 135.571 110.372C136.381 112.206 136.787 114.35 136.787 116.804C136.787 119.257 136.381 121.412 135.571 123.268C134.781 125.102 133.672 126.542 132.243 127.588C130.813 128.612 129.139 129.124 127.219 129.124ZM127.251 125.156C128.339 125.156 129.267 124.825 130.035 124.164C130.803 123.481 131.389 122.521 131.795 121.284C132.221 120.025 132.435 118.532 132.435 116.804C132.435 115.076 132.221 113.593 131.795 112.356C131.389 111.097 130.792 110.137 130.003 109.476C129.235 108.814 128.296 108.484 127.187 108.484C126.12 108.484 125.203 108.814 124.435 109.476C123.667 110.137 123.069 111.097 122.643 112.356C122.237 113.593 122.035 115.076 122.035 116.804C122.035 118.51 122.237 119.993 122.643 121.252C123.069 122.489 123.667 123.449 124.435 124.132C125.224 124.814 126.163 125.156 127.251 125.156ZM147.923 129.124C146.622 129.124 145.384 128.889 144.211 128.42C143.059 127.929 142.067 127.246 141.235 126.372C140.424 125.476 139.87 124.42 139.571 123.204L143.379 121.86C143.763 122.948 144.35 123.78 145.139 124.356C145.928 124.91 146.856 125.188 147.923 125.188C148.776 125.188 149.512 125.028 150.131 124.708C150.771 124.388 151.272 123.929 151.635 123.332C151.998 122.713 152.179 121.988 152.179 121.156C152.179 120.324 151.998 119.62 151.635 119.044C151.294 118.446 150.803 117.988 150.163 117.668C149.523 117.348 148.766 117.188 147.891 117.188C147.486 117.188 147.059 117.23 146.611 117.316C146.184 117.401 145.8 117.529 145.459 117.7L144.467 115.62L150.643 108.58H140.915V104.9H155.539V108.324L149.331 115.588L149.395 113.956C150.824 113.977 152.072 114.286 153.139 114.884C154.206 115.481 155.038 116.302 155.635 117.348C156.232 118.393 156.531 119.62 156.531 121.028C156.531 122.564 156.158 123.95 155.411 125.188C154.664 126.404 153.64 127.364 152.339 128.068C151.038 128.772 149.566 129.124 147.923 129.124Z" fill="white"/>
</svg>
