<svg width="106" height="106" viewBox="0 0 106 106" fill="none" xmlns="http://www.w3.org/2000/svg">
<rect width="150" height="35" transform="translate(24.9497 -25.5251) rotate(45)" fill="#0A3C77"/>
<path d="M28.8461 11.1954C28.3412 10.6905 27.9716 10.1493 27.7373 9.57184C27.5063 8.99766 27.4172 8.42019 27.47 7.83942C27.5294 7.25865 27.7373 6.71088 28.0937 6.19611L29.148 6.96332C28.8147 7.52759 28.7025 8.11826 28.8114 8.73533C28.9269 9.3524 29.2321 9.90842 29.7271 10.4034C30.0472 10.7235 30.3854 10.9627 30.7418 11.1211C31.1048 11.2795 31.4562 11.3405 31.7961 11.3042C32.136 11.2679 32.4346 11.1211 32.692 10.8637C32.8504 10.7053 32.9576 10.542 33.0137 10.3737C33.0764 10.2054 33.0995 10.0338 33.083 9.85892C33.0731 9.68403 33.0368 9.50914 32.9741 9.33425C32.9114 9.15936 32.8339 8.98942 32.7415 8.82442L31.4645 6.46834C31.3259 6.21096 31.2087 5.94532 31.113 5.67143C31.0206 5.39425 30.9695 5.11541 30.9596 4.83493C30.953 4.55114 31.0025 4.27066 31.1081 3.99347C31.217 3.71298 31.4034 3.44075 31.6674 3.17676C32.0898 2.75438 32.5584 2.5036 33.0731 2.4244C33.5945 2.3452 34.1225 2.4145 34.6571 2.63229C35.1916 2.85008 35.6932 3.19656 36.1618 3.67174C36.637 4.15351 36.9785 4.66664 37.1864 5.21111C37.4009 5.75558 37.4768 6.30665 37.4141 6.86432C37.3547 7.42529 37.1517 7.96482 36.8052 8.48289L35.7064 7.71073C35.9473 7.37085 36.0859 7.01117 36.1222 6.63169C36.1651 6.2522 36.1156 5.87932 35.9737 5.51304C35.8351 5.14346 35.6157 4.80523 35.3154 4.49834C35.0283 4.20466 34.7198 3.98852 34.3898 3.84993C34.0598 3.71133 33.7397 3.65854 33.4295 3.69153C33.1226 3.72123 32.8586 3.84663 32.6376 4.06772C32.4198 4.2855 32.3059 4.52474 32.296 4.78543C32.2894 5.04282 32.3373 5.30185 32.4396 5.56254C32.5485 5.82323 32.6656 6.06576 32.791 6.29015L33.7562 8.03741C33.8684 8.2354 33.9872 8.47299 34.1126 8.75018C34.2413 9.03066 34.332 9.3359 34.3848 9.66588C34.4409 9.99256 34.4178 10.3324 34.3155 10.6855C34.2165 11.0353 33.9954 11.3818 33.6523 11.725C33.3091 12.0682 32.9345 12.3041 32.5287 12.4328C32.1261 12.5648 31.712 12.5994 31.2863 12.5367C30.8639 12.4707 30.4448 12.3222 30.029 12.0913C29.61 11.8636 29.2156 11.5649 28.8461 11.1954ZM36.1111 18.1634L38.7889 15.4856C39.043 15.2315 39.2641 14.9642 39.4522 14.6838C39.6436 14.4066 39.7756 14.1195 39.8482 13.8225C39.9274 13.5255 39.9274 13.2285 39.8482 12.9316C39.7723 12.6379 39.5924 12.3491 39.3087 12.0653C39.0876 11.8443 38.8483 11.6809 38.5909 11.5753C38.3402 11.4697 38.0745 11.4285 37.794 11.4516C37.5136 11.4747 37.2215 11.5654 36.9179 11.7238C36.6209 11.8822 36.3174 12.1165 36.0072 12.4267L35.6062 11.6694C36.1243 11.1513 36.6605 10.7999 37.2149 10.6151C37.7759 10.4303 38.3237 10.4072 38.8582 10.5458C39.3994 10.6844 39.8993 10.983 40.358 11.4417C40.7045 11.7882 40.9454 12.1379 41.0807 12.491C41.216 12.8441 41.2737 13.1922 41.2539 13.5354C41.2374 13.8753 41.1632 14.2036 41.0312 14.5204C40.9025 14.8339 40.7408 15.1243 40.5461 15.3916C40.358 15.6589 40.1617 15.8948 39.9571 16.0994L37.0021 19.0544L36.1111 18.1634ZM32.2998 14.3521L39.4275 7.22449L40.2194 8.01645L36.2844 11.9515L36.3834 12.0505L33.1908 15.2431L32.2998 14.3521ZM40.0213 22.3706C39.4901 21.8394 39.1518 21.2603 39.0066 20.6333C38.8648 20.0096 38.9027 19.381 39.1205 18.7474C39.3383 18.1139 39.7227 17.5215 40.2738 16.9705C40.8348 16.4095 41.432 16.0234 42.0656 15.8122C42.6992 15.601 43.3261 15.5713 43.9465 15.7231C44.5702 15.8716 45.1427 16.2066 45.6641 16.7279C46.1986 17.2625 46.5385 17.8433 46.6837 18.4702C46.8322 19.0939 46.7959 19.7209 46.5748 20.3511C46.3603 20.9814 45.9775 21.5721 45.4265 22.1232C44.8688 22.6808 44.2732 23.0686 43.6396 23.2863C43.0093 23.5008 42.3807 23.5355 41.7538 23.3903C41.1301 23.2418 40.5526 22.9019 40.0213 22.3706ZM40.8579 21.5341C41.4122 22.0885 42.0095 22.3162 42.6497 22.2172C43.2898 22.1182 43.9036 21.775 44.491 21.1877C45.0948 20.5838 45.438 19.9667 45.5205 19.3364C45.6063 18.7029 45.3753 18.1122 44.8275 17.5644C44.4547 17.1916 44.0636 16.9688 43.6545 16.8962C43.2453 16.8236 42.8328 16.8764 42.417 17.0546C42.0012 17.2328 41.5987 17.5166 41.2093 17.906C40.6087 18.5065 40.2655 19.1269 40.1797 19.7671C40.0939 20.4072 40.32 20.9963 40.8579 21.5341ZM45.7491 28.0984C45.2475 27.5968 44.9488 27.0507 44.8531 26.46C44.7608 25.866 44.8383 25.2671 45.0858 24.6632C45.3399 24.0594 45.7326 23.4918 46.2638 22.9605C46.8017 22.4226 47.3709 22.0283 47.9715 21.7775C48.5754 21.53 49.171 21.4558 49.7583 21.5548C50.349 21.6571 50.8951 21.959 51.3967 22.4606C51.8917 22.9556 52.1936 23.505 52.3025 24.1089C52.418 24.7127 52.3586 25.3232 52.1243 25.9403C51.89 26.5573 51.5056 27.1332 50.971 27.6677C50.4365 28.2023 49.8606 28.5867 49.2436 28.821C48.6265 29.0553 48.0127 29.118 47.4023 29.0091C46.7984 28.9002 46.2473 28.5966 45.7491 28.0984ZM41.0616 27.8657L48.7832 20.1441L49.5703 20.9311L45.6352 24.8662L45.7342 24.9652L41.9476 28.7517L41.0616 27.8657ZM46.447 27.1826C46.8 27.5357 47.1812 27.7387 47.5904 27.7915C47.9995 27.8443 48.4137 27.7766 48.8327 27.5885C49.2551 27.3971 49.6561 27.1117 50.0355 26.7322C50.4117 26.356 50.6939 25.9584 50.8819 25.5393C51.0733 25.1236 51.1393 24.7078 51.0799 24.292C51.0238 23.8795 50.8143 23.4918 50.4513 23.1288C50.1048 22.7823 49.732 22.581 49.3327 22.5249C48.9367 22.4655 48.5308 22.5315 48.115 22.7229C47.7026 22.911 47.2983 23.2031 46.9023 23.599C46.513 23.9884 46.2193 24.391 46.0213 24.8068C45.8299 25.2225 45.7623 25.6334 45.8184 26.0393C45.8777 26.4418 46.0873 26.823 46.447 27.1826ZM55.3724 24.8425L56.2832 23.9317L57.1643 24.8128L56.2535 25.7236L55.3724 24.8425ZM49.0813 31.1336L54.427 25.7879L55.3081 26.669L49.9624 32.0147L49.0813 31.1336ZM51.5614 33.6137L57.1991 27.9759C57.3377 27.8373 57.4846 27.7037 57.6397 27.575C57.7981 27.443 57.968 27.3325 58.1495 27.2434C58.3343 27.151 58.5372 27.0998 58.7583 27.0899C59.0157 27.0767 59.245 27.1147 59.4463 27.2038C59.6509 27.2896 59.8341 27.4001 59.9957 27.5354C60.1607 27.674 60.3109 27.8109 60.4462 27.9462L61.1243 28.6243L60.3917 29.3569L59.7631 28.7283C59.5024 28.4676 59.2434 28.3373 58.986 28.3373C58.7319 28.334 58.4762 28.461 58.2188 28.7184L52.4424 34.4947L51.5614 33.6137ZM55.2737 28.0898L56.0013 27.3622L59.1939 30.5547L58.4663 31.2824L55.2737 28.0898ZM52.6088 39.4129L56.4547 37.6359L55.638 38.4823L59.0435 30.4043L59.9691 31.3299L57.1824 37.7794L56.8656 37.4627L63.2012 34.5621L64.0971 35.458L53.4651 40.2692L52.6088 39.4129ZM69.6882 37.4852L70.5841 38.3811L61.5558 43.6081L60.6599 42.7122L69.6882 37.4852ZM65.9317 47.984L73.0594 40.8564L75.8362 43.6332C76.2619 44.0589 76.5374 44.5093 76.6628 44.9845C76.7915 45.463 76.7915 45.9249 76.6628 46.3704C76.5407 46.8159 76.3146 47.2036 75.9847 47.5336C75.5986 47.9197 75.1614 48.1589 74.673 48.2513C74.1846 48.3437 73.7177 48.2761 73.2722 48.0484L73.5048 47.796C73.8414 48.3767 73.9734 48.9575 73.9008 49.5383C73.8282 50.119 73.5659 50.6355 73.1138 51.0875C72.698 51.5033 72.2526 51.7772 71.7774 51.9092C71.3055 52.0445 70.8254 52.0362 70.337 51.8844C69.8519 51.736 69.3916 51.4439 68.956 51.0083L65.9317 47.984ZM67.6641 48.0335L69.6292 49.9986C69.8932 50.2626 70.177 50.4507 70.4805 50.5629C70.7874 50.6718 71.0894 50.6965 71.3863 50.6371C71.6866 50.581 71.9622 50.4276 72.213 50.1768C72.4538 49.9359 72.6155 49.6653 72.698 49.365C72.7838 49.068 72.7855 48.7661 72.703 48.4592C72.6271 48.1523 72.4621 47.8718 72.208 47.6178L70.144 45.5537L67.6641 48.0335ZM70.9755 44.7222L72.8515 46.5981C73.0627 46.8093 73.297 46.9545 73.5543 47.0337C73.8183 47.1129 74.0823 47.1195 74.3463 47.0535C74.6136 46.9908 74.8578 46.8489 75.0789 46.6278C75.3857 46.3209 75.5326 45.9662 75.5194 45.5636C75.5062 45.161 75.3313 44.7915 74.9947 44.4549L73.1188 42.5789L70.9755 44.7222ZM71.7639 53.8162L79.04 46.5401L79.9211 47.4212L72.645 54.6973L71.7639 53.8162ZM75.1052 57.4545C74.7059 57.0552 74.4436 56.6477 74.3182 56.2319C74.1994 55.8162 74.1912 55.4185 74.2935 55.0391C74.3991 54.6629 74.5954 54.3312 74.8825 54.0442C75.163 53.7637 75.4583 53.5739 75.7685 53.4749C76.0853 53.3759 76.4087 53.3561 76.7386 53.4155C77.0719 53.4716 77.4135 53.5954 77.7632 53.7868C78.0866 53.9716 78.4298 54.1959 78.7928 54.4599C79.1624 54.7239 79.5303 54.9962 79.8966 55.2766C80.2629 55.5571 80.606 55.8178 80.9261 56.0587L80.4262 55.9251C80.9113 55.4598 81.167 55.0127 81.1934 54.5837C81.2231 54.158 80.9938 53.701 80.5054 53.2126C80.182 52.8892 79.824 52.6797 79.4313 52.584C79.0452 52.4883 78.6377 52.5559 78.2087 52.7869L77.6247 51.698C78.2219 51.3581 78.839 51.2393 79.4759 51.3416C80.1127 51.4439 80.7331 51.797 81.337 52.4008C81.822 52.8859 82.1504 53.3891 82.322 53.9105C82.5002 54.4319 82.4903 54.9434 82.2923 55.4449C82.2032 55.6858 82.0712 55.9135 81.8963 56.128C81.7247 56.3392 81.5333 56.5504 81.3221 56.7616L78.0157 60.068L77.2336 59.2859L78.5156 58.0039L78.58 58.3059C77.9464 58.5369 77.3376 58.5814 76.7535 58.4395C76.1727 58.3009 75.6233 57.9726 75.1052 57.4545ZM75.9764 56.8507C76.2932 57.1674 76.6232 57.3852 76.9663 57.504C77.3161 57.6228 77.6543 57.6608 77.981 57.6179C78.311 57.5717 78.608 57.4595 78.872 57.2813C79.0865 57.1658 79.296 57.0091 79.5006 56.8111C79.7118 56.6131 79.8718 56.4596 79.9807 56.3507L80.154 56.7913C79.8273 56.5438 79.5072 56.2996 79.1937 56.0587C78.8802 55.8178 78.5783 55.5951 78.2879 55.3905C78.0008 55.1826 77.7302 55.0077 77.4762 54.8658C77.2848 54.7668 77.0884 54.6893 76.8871 54.6332C76.6891 54.5804 76.4928 54.5721 76.2981 54.6084C76.11 54.6447 75.9318 54.747 75.7635 54.9153C75.6184 55.0605 75.5161 55.2354 75.4567 55.44C75.4006 55.6479 75.4088 55.8706 75.4814 56.1082C75.5573 56.3491 75.7223 56.5966 75.9764 56.8507ZM82.713 64.7653L85.3908 62.0875C85.6449 61.8334 85.866 61.5661 86.0541 61.2856C86.2455 61.0084 86.3775 60.7214 86.4501 60.4244C86.5292 60.1274 86.5292 59.8304 86.4501 59.5334C86.3742 59.2397 86.1943 58.951 85.9105 58.6672C85.6894 58.4461 85.4502 58.2828 85.1928 58.1772C84.942 58.0716 84.6764 58.0303 84.3959 58.0534C84.1154 58.0765 83.8234 58.1673 83.5198 58.3257C83.2228 58.4841 82.9192 58.7184 82.609 59.0285L82.2081 58.2712C82.7262 57.7532 83.2624 57.4017 83.8168 57.2169C84.3778 57.0322 84.9255 57.0091 85.4601 57.1476C86.0013 57.2862 86.5012 57.5849 86.9599 58.0435C87.3064 58.39 87.5472 58.7398 87.6825 59.0929C87.8178 59.446 87.8756 59.7941 87.8558 60.1373C87.8393 60.4772 87.765 60.8055 87.633 61.1223C87.5043 61.4358 87.3427 61.7262 87.148 61.9934C86.9599 62.2607 86.7635 62.4967 86.5589 62.7013L83.6039 65.6563L82.713 64.7653ZM78.9017 60.954L84.2474 55.6083L85.0394 56.4002L83.6089 57.8307L83.7079 57.9297L79.7926 61.845L78.9017 60.954ZM83.9009 65.9532L88.6477 65.2949L89.2911 60.652L90.3405 61.7013L89.8455 65.1266L93.2559 64.6167L94.3052 65.6661L89.6624 66.3096L89.009 71.0613L87.9547 70.007L88.4794 66.4927L84.9552 67.0075L83.9009 65.9532ZM91.3809 73.7302C90.8563 73.2056 90.5131 72.6314 90.3514 72.0077C90.1963 71.3841 90.2177 70.7554 90.4157 70.1219C90.617 69.485 90.9965 68.8877 91.5542 68.3301C92.1382 67.746 92.7504 67.3484 93.3905 67.1372C94.034 66.9227 94.6626 66.8913 95.2764 67.0431C95.8968 67.1949 96.466 67.5298 96.984 68.0479C97.5219 68.5858 97.8552 69.1666 97.9839 69.7902C98.1159 70.4172 98.0466 71.0541 97.776 71.7008C97.5087 72.3509 97.0451 72.9795 96.3851 73.5867L95.4942 72.6957L95.811 72.3789C96.4577 71.7124 96.8141 71.0887 96.8801 70.5079C96.9494 69.9239 96.73 69.3778 96.2218 68.8696C95.6773 68.3251 95.0883 68.0859 94.4547 68.1519C93.8212 68.2179 93.1777 68.5775 92.5243 69.2309C91.8941 69.8612 91.5476 70.4914 91.4849 71.1217C91.4222 71.752 91.6532 72.3295 92.1778 72.8541C92.5309 73.2072 92.9187 73.4332 93.341 73.5322C93.7634 73.6312 94.2006 73.6032 94.6527 73.4481L95.2071 74.5865C94.5273 74.8505 93.8476 74.9033 93.1678 74.7449C92.4946 74.5865 91.899 74.2483 91.3809 73.7302ZM91.9799 69.1814L92.6877 68.4736L96.6376 72.4235L95.9297 73.1313L91.9799 69.1814ZM94.6658 76.7181L100.012 71.3724L100.799 72.1594L99.5066 73.4513L99.5462 73.1543C99.7739 73.052 100.007 72.981 100.244 72.9414C100.485 72.9051 100.713 72.9051 100.927 72.9414C101.178 72.9678 101.421 73.0388 101.655 73.1543C101.889 73.2698 102.102 73.4133 102.293 73.5849C102.488 73.7532 102.646 73.9347 102.769 74.1294L101.942 74.956C101.807 74.7217 101.617 74.5056 101.373 74.3076C101.129 74.1096 100.843 73.9858 100.516 73.9363C100.223 73.8868 99.9406 73.9017 99.67 73.9809C99.4027 74.0634 99.1486 74.1888 98.9077 74.3571C98.6701 74.5221 98.4457 74.7102 98.2346 74.9213L95.5518 77.6041L94.6658 76.7181Z" fill="white"/>
</svg>
