<svg width="27" height="42" viewBox="0 0 27 42" fill="none" xmlns="http://www.w3.org/2000/svg">
<path d="M26.0479 10.6079H0.914062V41.4558H26.0479V10.6079Z" fill="#F76031"/>
<path d="M6.03801 13.8819C6.03801 14.2858 5.71065 14.6126 5.3068 14.6126C4.90353 14.6126 4.57617 14.2857 4.57617 13.8819C4.57617 13.4787 4.90353 13.1509 5.3068 13.1509C5.71065 13.1509 6.03801 13.4788 6.03801 13.8819Z" fill="white"/>
<path d="M22.3523 13.8819C22.3523 14.2858 22.0256 14.6126 21.6218 14.6126C21.218 14.6126 20.8911 14.2857 20.8911 13.8819C20.8911 13.4787 21.2181 13.1509 21.6218 13.1509C22.0256 13.1509 22.3523 13.4788 22.3523 13.8819Z" fill="white"/>
<path d="M5.6317 13.7895V8.44159C5.6317 4.19348 9.08718 0.73772 13.3351 0.73772H13.6268C17.8748 0.73772 21.331 4.19348 21.331 8.44159V13.7895H21.9137V8.44159C21.9137 3.87182 18.1963 0.155029 13.6267 0.155029H13.335C8.76551 0.155029 5.04834 3.87182 5.04834 8.44159V13.7895H5.6317Z" fill="#161D21"/>
</svg>
