<svg width="56" height="57" viewBox="0 0 56 57" fill="none" xmlns="http://www.w3.org/2000/svg">
<path d="M22.7597 48.5993H8.93388C4.55212 48.5993 1 45.0471 1 40.6654V40.6654M22.7597 48.5993L19.9649 55.7397M22.7597 48.5993H33.4399M19.9649 55.7397H36.634M19.9649 55.7397H17.1701H36.634M36.634 55.7397L33.4399 48.5993M36.634 55.7397H39.4288M33.4399 48.5993H47.0661C51.4479 48.5993 55 45.0471 55 40.6654V40.6654M1 40.6654V15.7397C1 11.3215 4.58172 7.73975 9 7.73975H47C51.4183 7.73975 55 11.3215 55 15.7398V40.6654M1 40.6654H55" stroke="#0A3C77" stroke-width="2"/>
<path d="M39.5 1.23975C40.0744 1.23975 40.6439 1.33874 41.1836 1.53174L41.4131 1.62061C42.0197 1.87188 42.5709 2.2403 43.0352 2.70459C43.4994 3.16888 43.8679 3.72003 44.1191 4.32666C44.3704 4.93323 44.5 5.58321 44.5 6.23975C44.5 6.89629 44.3704 7.54626 44.1191 8.15283C43.8679 8.75946 43.4994 9.31061 43.0352 9.7749C42.629 10.181 42.1567 10.5141 41.6387 10.7593L41.4131 10.8589C40.8065 11.1101 40.1565 11.2397 39.5 11.2397C38.2568 11.2397 37.0617 10.7763 36.1445 9.9458L35.9648 9.7749C35.0272 8.83722 34.5 7.56583 34.5 6.23975C34.5 4.99654 34.9634 3.80148 35.7939 2.88428L35.9648 2.70459C36.8439 1.82554 38.0162 1.30694 39.252 1.24561L39.5 1.23975Z" fill="#EDFFEA" stroke="#0A3C77"/>
<path d="M11 19.4256H23.0283M23.0283 19.4256L18.4576 15.6968M23.0283 19.4256L18.4576 22.9138" stroke="#0A3C77" stroke-width="1.5"/>
<path d="M11 30.2512H23.0283M23.0283 30.2512L18.4576 26.5225M23.0283 30.2512L18.4576 33.7395" stroke="#0A3C77" stroke-width="1.5"/>
<path d="M38.4741 32.4399C37.6121 32.4399 36.8118 32.2798 36.073 31.9597C35.3342 31.6272 34.7062 31.1778 34.189 30.6114C33.6719 30.045 33.2901 29.3924 33.0439 28.6536L34.8909 27.8778C35.2233 28.7274 35.7097 29.38 36.35 29.8356C36.9903 30.2912 37.7291 30.519 38.5664 30.519C39.0589 30.519 39.4899 30.4451 39.8593 30.2974C40.2287 30.1373 40.5119 29.9157 40.7089 29.6325C40.9183 29.3493 41.0229 29.023 41.0229 28.6536C41.0229 28.1487 40.8813 27.7485 40.5981 27.453C40.3149 27.1575 39.8963 26.9235 39.3422 26.7511L36.7564 25.9385C35.722 25.6183 34.934 25.1319 34.3922 24.4793C33.8504 23.8144 33.5795 23.0387 33.5795 22.1521C33.5795 21.3764 33.7704 20.6991 34.1521 20.1204C34.5338 19.5294 35.0571 19.0676 35.722 18.7352C36.3993 18.4027 37.1688 18.2365 38.0308 18.2365C38.8558 18.2365 39.6069 18.3842 40.2841 18.6798C40.9614 18.963 41.5401 19.357 42.0203 19.8618C42.5128 20.3667 42.8699 20.9516 43.0916 21.6165L41.2815 22.4107C41.0106 21.6842 40.5858 21.1239 40.0071 20.7299C39.4407 20.3359 38.7819 20.1389 38.0308 20.1389C37.5752 20.1389 37.175 20.2189 36.8302 20.379C36.4855 20.5268 36.2146 20.7484 36.0176 21.0439C35.8329 21.3271 35.7405 21.6596 35.7405 22.0413C35.7405 22.4846 35.8821 22.8786 36.1653 23.2234C36.4485 23.5681 36.8795 23.8267 37.4582 23.9991L39.8593 24.7564C40.9552 25.0888 41.7802 25.5691 42.3343 26.197C42.8884 26.8127 43.1654 27.5823 43.1654 28.5058C43.1654 29.2692 42.9623 29.9465 42.5559 30.5375C42.1619 31.1285 41.614 31.5964 40.9121 31.9412C40.2102 32.2737 39.3976 32.4399 38.4741 32.4399ZM37.6244 34.0653V16.6111H39.102V34.0653H37.6244Z" fill="#0A3C77"/>
</svg>
