<svg width="64" height="57" viewBox="0 0 64 57" fill="none" xmlns="http://www.w3.org/2000/svg">
<g clip-path="url(#clip0_118_2252)">
<path d="M62.7137 25.7158L59.0214 26.3041L59.6278 27.1068L56.7874 29.4988L48.1356 17.6379L12.5272 42.637L7.93546 37.4042L-0.457333 43.8882L0.626491 45.2888L7.70248 39.8237L12.241 44.9961L47.7269 20.0828L56.4757 32.0766L60.697 28.5219L61.294 29.312L62.7137 25.7158Z" fill="#0A3C77"/>
<path d="M21.1724 23.1594L18 29.5043H48.6667C47.9617 27.9181 46.3402 24.4284 45.4943 23.1594C44.6483 21.8905 43.7318 21.5732 43.3793 21.5732H24.3448C22.6529 21.5732 21.5249 22.6307 21.1724 23.1594Z" fill="#EFF3F6" stroke="#0A3C77" stroke-width="0.422989"/>
<path d="M20.1206 44.076L47.3339 33.4986L47.995 29.5566H20.1567L20.1206 44.076Z" fill="#EFF3F6"/>
<path d="M49.9888 29.5322V30.6465C49.9887 31.6548 49.0443 32.5293 47.8052 32.5293C46.6882 32.5293 45.8063 31.813 45.6499 30.9326H45.1294C44.973 31.8127 44.0918 32.5291 42.9751 32.5293C41.8581 32.5293 40.9762 31.813 40.8198 30.9326H40.2993C40.1429 31.8129 39.261 32.5293 38.144 32.5293C37.0271 32.5292 36.1451 31.813 35.9888 30.9326H35.4683C35.3118 31.8128 34.4308 32.5292 33.314 32.5293C32.197 32.5293 31.3151 31.813 31.1587 30.9326H30.6382C30.4818 31.8129 29.5999 32.5293 28.4829 32.5293C27.3661 32.5292 26.485 31.8129 26.3286 30.9326H25.8081C25.6517 31.8129 24.7697 32.5292 23.6528 32.5293C22.5751 32.5293 21.7125 31.8618 21.5142 31.0244H20.9995C20.8012 31.8618 19.9385 32.5293 18.8608 32.5293C17.6216 32.5292 16.6783 31.6549 16.6782 30.6465V29.5322H49.9888Z" fill="#EFF3F6" stroke="#0A3C77" stroke-width="0.528736"/>
<path d="M34.0859 38.6483L41.3518 35.8242H34.0859V38.6483Z" fill="#EFF3F6"/>
<path d="M23.4658 42.7763L30.4275 40.0704V36.0049H23.4658V42.7763Z" fill="#EFF3F6"/>
<path d="M47.0805 50.125H48.1379C48.722 50.125 49.1954 50.5984 49.1954 51.1824C49.1954 51.7665 48.722 52.2399 48.1379 52.2399H19.0575C18.4734 52.2399 18 51.7665 18 51.1824C18 50.5984 18.4734 50.125 19.0575 50.125H20.1149H22.7586V36.3778C22.7586 35.7938 23.2321 35.3204 23.8161 35.3204H30.1609C30.7449 35.3204 31.2184 35.7938 31.2184 36.3778V50.125H47.0805Z" fill="#EFF3F6"/>
<path d="M33.3333 36.3778V45.8951C33.3333 46.4791 33.8068 46.9525 34.3908 46.9525H44.4368C45.0208 46.9525 45.4943 46.4791 45.4943 45.8951V36.3778C45.4943 35.7938 45.0208 35.3204 44.4368 35.3204H34.3908C33.8068 35.3204 33.3333 35.7938 33.3333 36.3778Z" fill="#EFF3F6"/>
<path d="M20.1149 32.1479V50.125M20.1149 50.125H19.0575C18.4734 50.125 18 50.5984 18 51.1824V51.1824C18 51.7665 18.4734 52.2399 19.0575 52.2399H48.1379C48.722 52.2399 49.1954 51.7665 49.1954 51.1824V51.1824C49.1954 50.5984 48.722 50.125 48.1379 50.125H47.0805M20.1149 50.125H22.7586M47.0805 50.125V32.6767M47.0805 50.125H31.2184M22.7586 50.125V36.3778C22.7586 35.7938 23.2321 35.3204 23.8161 35.3204H30.1609C30.7449 35.3204 31.2184 35.7938 31.2184 36.3778V50.125M22.7586 50.125H31.2184M44.4368 35.3204H34.3908C33.8068 35.3204 33.3333 35.7938 33.3333 36.3778V45.8951C33.3333 46.4791 33.8068 46.9525 34.3908 46.9525H44.4368C45.0208 46.9525 45.4943 46.4791 45.4943 45.8951V36.3778C45.4943 35.7938 45.0208 35.3204 44.4368 35.3204Z" stroke="#0A3C77" stroke-width="0.422989"/>
<path d="M18.9149 18.069C21.9974 18.069 24.4963 15.5702 24.4963 12.4876C24.4963 9.40513 21.9974 6.90625 18.9149 6.90625C15.8324 6.90625 13.3335 9.40513 13.3335 12.4876C13.3335 15.5702 15.8324 18.069 18.9149 18.069Z" fill="#0A3C77"/>
<path d="M21.4375 10.3511H20.6946V9.58611C20.6946 8.61291 19.903 7.82129 18.9298 7.82129C17.9566 7.82129 17.165 8.61291 17.165 9.58611V10.3511H16.4904L15.5908 16.1905H22.2407L21.4375 10.3511ZM17.5503 9.58611C17.5503 8.82552 18.169 8.20679 18.9296 8.20679C19.6902 8.20679 20.3089 8.82552 20.3089 9.58611V10.3511H17.5503V9.58611ZM17.749 11.5076C17.5993 11.5076 17.478 11.3862 17.478 11.2366C17.478 11.0869 17.5995 10.9656 17.749 10.9656C17.8986 10.9656 18.02 11.087 18.02 11.2366C18.02 11.3862 17.8988 11.5076 17.749 11.5076ZM20.1584 11.5076C20.0086 11.5076 19.8874 11.3862 19.8874 11.2366C19.8874 11.0869 20.0088 10.9656 20.1584 10.9656C20.308 10.9656 20.4294 11.087 20.4294 11.2366C20.4294 11.3862 20.3082 11.5076 20.1584 11.5076Z" fill="white"/>
<path d="M49.5813 15.4024C52.6638 15.4024 55.1627 12.9036 55.1627 9.82109C55.1627 6.7386 52.6638 4.23975 49.5813 4.23975C46.4989 4.23975 44 6.7386 44 9.82109C44 12.9036 46.4989 15.4024 49.5813 15.4024Z" fill="#0A3C77"/>
<path d="M52.1926 8.69563C52.149 8.60435 52.1009 8.51587 52.0483 8.43022L52.8202 7.25284L52.5655 6.99822L52.3534 6.78607L52.0988 6.53145L50.8505 7.34976C50.7808 7.3162 50.7102 7.28546 50.6374 7.25754L50.2127 5.63428H49.791H49.4397H49.0179L48.5932 7.25754C48.5207 7.28546 48.4498 7.3162 48.3801 7.34976L47.1318 6.53145L46.8772 6.78607L46.6651 6.99822L46.4104 7.25284L47.1823 8.43022C47.1295 8.51587 47.0814 8.60435 47.038 8.69563L45.5215 9.13894V9.56065V9.91196V10.3337L46.8786 10.7437C46.9279 10.9079 46.9924 11.0652 47.0689 11.2156L46.4107 12.2195L46.6653 12.4742L46.8774 12.6863L47.1321 12.9409L48.071 12.3254C48.2346 12.4308 48.4094 12.519 48.5934 12.5896L49.0182 14.0064H49.4399H49.7912H50.2129L50.6377 12.5896C50.8217 12.519 50.9967 12.4308 51.1601 12.3254L52.0988 12.9409L52.3534 12.6863L52.5655 12.4742L52.8202 12.2195L52.1619 11.2156C52.2384 11.0652 52.3029 10.9079 52.352 10.7437L53.6422 10.3337V9.91196V9.56065V9.13894L52.1926 8.69563ZM49.4746 11.5162C48.595 11.5162 47.8819 10.803 47.8819 9.92346C47.8819 9.0439 48.595 8.33071 49.4746 8.33071C50.3542 8.33071 51.0674 9.0439 51.0674 9.92346C51.0674 10.803 50.3544 11.5162 49.4746 11.5162Z" fill="white"/>
<path d="M15.1628 31.8221C15.1628 34.9044 12.6646 37.4025 9.58043 37.4025C7.60077 37.4025 5.86014 36.3713 4.87128 34.8157C4.31998 33.9502 4 32.9228 4 31.8221C4 28.7379 6.49818 26.2397 9.58043 26.2397C11.4984 26.2397 13.1889 27.2055 14.1951 28.6782C14.8062 29.5726 15.1628 30.6559 15.1628 31.8221Z" fill="#0A3C77"/>
<path d="M12.8591 31.3772H12.5698C12.2805 29.9957 11.5308 27.939 9.63058 27.939C9.58547 27.939 9.53921 27.9401 9.49275 27.9426C7.4998 28.0442 6.81472 30.0584 6.57956 31.3772H6.13428H5.05713L5.30271 32.3029H5.83164L6.94619 35.3067H7.58885H11.4046H12.0472L13.1618 32.3029H13.6907L13.9363 31.3772H12.8591ZM9.51877 28.4588C11.0803 28.3796 11.7533 30.1208 12.0351 31.3772H7.11042C7.3373 30.2062 7.93756 28.5394 9.51877 28.4588ZM7.54143 34.8155L6.73376 32.407H7.5131L8.29243 34.8155H7.54143ZM9.70922 34.8155H9.12824L8.81655 32.3503H9.94998L9.70922 34.8155ZM11.4379 34.8155H10.6869L11.4662 32.407H12.2456L11.4379 34.8155Z" fill="white"/>
<path d="M56.9144 43.069C59.9969 43.069 62.4958 40.5702 62.4958 37.4876C62.4958 34.4051 59.9969 31.9062 56.9144 31.9062C53.8319 31.9062 51.333 34.4051 51.333 37.4876C51.333 40.5702 53.8319 43.069 56.9144 43.069Z" fill="#0A3C77"/>
<path d="M55.0366 39.4433L55.3639 38.9649C55.5709 39.116 55.8031 39.2503 56.0604 39.3677C56.3234 39.4796 56.6115 39.5356 56.9249 39.5356C57.2549 39.5356 57.5067 39.4685 57.6802 39.3342C57.8536 39.1943 57.9403 39.0181 57.9403 38.8055C57.9403 38.632 57.876 38.4866 57.7473 38.3691C57.6186 38.2516 57.4536 38.1509 57.2522 38.0669C57.0507 37.9774 56.8353 37.8907 56.6059 37.8068C56.3821 37.7229 56.1695 37.6249 55.9681 37.513C55.7667 37.4012 55.6017 37.2641 55.473 37.1018C55.3443 36.934 55.28 36.7298 55.28 36.4892C55.28 36.2262 55.3499 35.9996 55.4898 35.8094C55.6296 35.6136 55.8227 35.4653 56.0688 35.3646C56.3206 35.2583 56.6059 35.2052 56.9249 35.2052C57.2941 35.2052 57.5962 35.2667 57.8312 35.3898C58.0718 35.5129 58.2872 35.6667 58.4774 35.8514L58.1082 36.2542C57.9179 36.1031 57.7333 35.9857 57.5543 35.9017C57.3808 35.8178 57.1542 35.7758 56.8745 35.7758C56.5892 35.7758 56.3626 35.8402 56.1947 35.9689C56.0325 36.092 55.9513 36.2598 55.9513 36.4724C55.9513 36.6235 56.0157 36.7521 56.1444 36.8584C56.2731 36.9648 56.4381 37.0571 56.6395 37.1354C56.8409 37.2137 57.0535 37.2976 57.2773 37.3872C57.5067 37.4711 57.7221 37.5718 57.9235 37.6893C58.1305 37.8012 58.2984 37.9439 58.4271 38.1173C58.5558 38.2851 58.6201 38.4977 58.6201 38.7551C58.6201 39.0237 58.5446 39.2614 58.3935 39.4685C58.2424 39.6699 58.0326 39.8265 57.7641 39.9384C57.5011 40.0503 57.1934 40.1063 56.8409 40.1063C56.6171 40.1063 56.3933 40.0755 56.1695 40.0139C55.9458 39.9524 55.7359 39.8713 55.5401 39.7706C55.3499 39.6699 55.1821 39.5608 55.0366 39.4433ZM56.6395 35.4653V34.1142H57.1431V35.4653H56.6395ZM56.6395 39.8629H57.1431V41.3148H56.6395V39.8629Z" fill="white"/>
</g>
<defs>
<clipPath id="clip0_118_2252">
<rect width="64" height="56" fill="white" transform="translate(0 0.239746)"/>
</clipPath>
</defs>
</svg>
