<svg width="44" height="50" viewBox="0 0 44 50" fill="none" xmlns="http://www.w3.org/2000/svg">
<path d="M12.599 46.0251H1.65746C1.29435 46.0251 1 45.7307 1 45.3676V1.3972C1 1.0341 1.29435 0.739746 1.65746 0.739746H26.6658M26.6658 0.739746L34.6864 8.76031M26.6658 0.739746V8.10286C26.6658 8.46596 26.9602 8.76031 27.3233 8.76031H34.6864M34.6864 8.76031V21.3464M21.8535 9.50067H8.03342" stroke="#0A3C77" stroke-width="1.31491"/>
<path d="M24.9385 34.673V23.3208H28.7637M24.9385 34.673H28.7637V37.0175M24.9385 34.673H23.8279M28.7637 37.0175V48.7398M28.7637 37.0175H33.7611M28.7637 48.7398H14.9436V34.673H19.3858M28.7637 48.7398H43.0773V37.0175H38.7585M38.7585 37.0175V23.3208H34.193M38.7585 37.0175H33.7611M34.193 23.3208V28.8735H28.7637V23.3208M34.193 23.3208H28.7637M19.3858 34.673V39.8555H23.8279V34.673M19.3858 34.673H23.8279M33.7611 37.0175V42.2H37.2778" stroke="#0A3C77" stroke-width="1.31491"/>
</svg>
