<svg width="48" height="49" viewBox="0 0 48 49" fill="none" xmlns="http://www.w3.org/2000/svg">
<path d="M6 3.23975H3V42.2397C3 43.0354 3.31607 43.7985 3.87868 44.3611C4.44129 44.9237 5.20435 45.2397 6 45.2397H45V42.2397H6V3.23975Z" fill="#0A3C77"/>
<path d="M45 13.7397H34.5V16.7397H39.885L28.5 28.1247L22.065 21.6747C21.9256 21.5342 21.7597 21.4226 21.5769 21.3464C21.3941 21.2703 21.198 21.231 21 21.231C20.802 21.231 20.6059 21.2703 20.4231 21.3464C20.2403 21.4226 20.0744 21.5342 19.935 21.6747L9 32.6247L11.115 34.7397L21 24.8547L27.435 31.3047C27.5744 31.4453 27.7403 31.5569 27.9231 31.6331C28.1059 31.7092 28.302 31.7484 28.5 31.7484C28.698 31.7484 28.8941 31.7092 29.0769 31.6331C29.2597 31.5569 29.4256 31.4453 29.565 31.3047L42 18.8547V24.2397H45V13.7397Z" fill="#0A3C77"/>
</svg>
