<svg width="122" height="59" viewBox="0 0 122 59" fill="none" xmlns="http://www.w3.org/2000/svg">
<path d="M30.0332 26.5723V37.5318C30.0332 38.362 30.0743 39.137 30.1563 39.8565C30.2658 40.5484 30.4436 41.1435 30.6899 41.6416C30.9362 42.1397 31.2645 42.5272 31.6749 42.804C32.1127 43.0807 32.6736 43.2191 33.3576 43.2191C33.8501 43.2191 34.3289 43.0807 34.7941 42.804C35.2592 42.5272 35.697 42.1674 36.1074 41.7246C36.5452 41.2541 36.9419 40.7283 37.2976 40.1471C37.6806 39.5382 37.9953 38.9156 38.2416 38.279V35.29C38.2416 34.2384 38.2005 33.2282 38.1184 32.2596C38.0637 31.2909 37.9817 30.4191 37.8722 29.6442C37.7627 28.7586 37.6396 27.9283 37.5028 27.1535L41.9764 26.5723V36.3279C41.9764 37.3519 42.0037 38.3482 42.0584 39.3168C42.1405 40.2855 42.2363 41.1573 42.3457 41.9322C42.4278 42.8178 42.5372 43.6481 42.6741 44.423L38.2416 45.0457V40.8113C37.9679 41.2818 37.6259 41.7661 37.2155 42.2643C36.8325 42.7624 36.3537 43.2191 35.7791 43.6342C35.2319 44.0494 34.5889 44.3815 33.8501 44.6306C33.1387 44.9073 32.3042 45.0457 31.3466 45.0457C29.6229 45.0457 28.3642 44.5337 27.5707 43.5097C26.7773 42.458 26.3805 41.1296 26.3805 39.5244V35.29C26.3805 34.2384 26.3395 33.2282 26.2574 32.2596C26.2027 31.2909 26.1206 30.4191 26.0112 29.6442C25.9017 28.7586 25.7786 27.9283 25.6418 27.1535L30.0332 26.5723ZM59.4851 45.0457V34.0862C59.4851 33.2282 59.4303 32.4533 59.3209 31.7614C59.2388 31.0695 59.0747 30.4745 58.8284 29.9764C58.5821 29.4782 58.2402 29.0907 57.8023 28.814C57.3919 28.5372 56.8447 28.3988 56.1607 28.3988C55.6682 28.3988 55.1894 28.5372 54.7242 28.814C54.2591 29.0907 53.8076 29.4644 53.3699 29.9348C52.9595 30.3776 52.5627 30.9035 52.1797 31.5123C51.8239 32.0935 51.523 32.7024 51.2767 33.3389V36.3279C51.2767 37.3519 51.3178 38.3482 51.3999 39.3168C51.482 40.2855 51.564 41.1573 51.6461 41.9322C51.7556 42.8178 51.8787 43.6619 52.0155 44.4645L47.583 45.0457V35.29C47.583 34.2384 47.5419 33.2282 47.4599 32.2596C47.4052 31.2909 47.3231 30.433 47.2136 29.6858C47.1042 28.8001 46.9811 27.9699 46.8443 27.195L51.2767 26.5723V30.8066C51.5504 30.3361 51.8787 29.8518 52.2618 29.3536C52.6722 28.8555 53.151 28.3988 53.6982 27.9837C54.2728 27.5686 54.9294 27.2365 55.6682 26.9874C56.407 26.7106 57.2551 26.5723 58.2128 26.5723C59.9366 26.5723 61.1951 27.0843 61.9886 28.1082C62.7821 29.1323 63.1788 30.4606 63.1788 32.0935V36.3279C63.1788 37.3519 63.2061 38.3482 63.2609 39.3168C63.343 40.2855 63.4387 41.1573 63.5482 41.9322C63.6303 42.8178 63.7397 43.6619 63.8765 44.4645L59.4851 45.0457Z" fill="white"/>
<mask id="mask0_6917_13178" style="mask-type:luminance" maskUnits="userSpaceOnUse" x="25" y="25" width="40" height="21">
<path d="M64.5215 25.7676H25.4019V45.8875H64.5215V25.7676Z" fill="white"/>
<path d="M30.0332 26.5703V37.5298C30.0332 38.3601 30.0743 39.135 30.1563 39.8546C30.2658 40.5464 30.4436 41.1415 30.6899 41.6396C30.9362 42.1378 31.2645 42.5253 31.6749 42.802C32.1127 43.0788 32.6736 43.2171 33.3576 43.2171C33.8501 43.2171 34.3289 43.0788 34.7941 42.802C35.2592 42.5253 35.697 42.1655 36.1074 41.7226C36.5452 41.2522 36.9419 40.7264 37.2976 40.1452C37.6806 39.5363 37.9953 38.9136 38.2416 38.277V35.2881C38.2416 34.2364 38.2005 33.2263 38.1184 32.2576C38.0637 31.289 37.9817 30.4172 37.8722 29.6423C37.7627 28.7567 37.6396 27.9264 37.5028 27.1515L41.9764 26.5703V36.3259C41.9764 37.3499 42.0037 38.3462 42.0584 39.3149C42.1405 40.2835 42.2363 41.1553 42.3457 41.9302C42.4278 42.8158 42.5372 43.6461 42.6741 44.4211L38.2416 45.0437V40.8094C37.9679 41.2799 37.6259 41.7642 37.2155 42.2623C36.8325 42.7605 36.3537 43.2171 35.7791 43.6323C35.2319 44.0474 34.5889 44.3795 33.8501 44.6286C33.1387 44.9053 32.3042 45.0437 31.3466 45.0437C29.6229 45.0437 28.3642 44.5317 27.5707 43.5077C26.7773 42.4561 26.3805 41.1276 26.3805 39.5225V35.2881C26.3805 34.2364 26.3395 33.2263 26.2574 32.2576C26.2027 31.289 26.1206 30.4172 26.0112 29.6423C25.9017 28.7567 25.7786 27.9264 25.6418 27.1515L30.0332 26.5703ZM59.4851 45.0437V34.0842C59.4851 33.2263 59.4303 32.4514 59.3209 31.7594C59.2388 31.0676 59.0747 30.4726 58.8284 29.9744C58.5821 29.4762 58.2402 29.0888 57.8023 28.812C57.3919 28.5353 56.8447 28.3969 56.1607 28.3969C55.6682 28.3969 55.1894 28.5353 54.7242 28.812C54.2591 29.0888 53.8076 29.4624 53.3699 29.9329C52.9595 30.3757 52.5627 30.9015 52.1797 31.5104C51.8239 32.0916 51.523 32.7005 51.2767 33.337V36.3259C51.2767 37.3499 51.3178 38.3462 51.3999 39.3149C51.482 40.2835 51.564 41.1553 51.6461 41.9302C51.7556 42.8158 51.8787 43.66 52.0155 44.4626L47.583 45.0437V35.2881C47.583 34.2364 47.5419 33.2263 47.4599 32.2576C47.4052 31.289 47.3231 30.4311 47.2136 29.6838C47.1042 28.7982 46.9811 27.9679 46.8443 27.193L51.2767 26.5703V30.8047C51.5504 30.3341 51.8787 29.8499 52.2618 29.3517C52.6722 28.8535 53.151 28.3969 53.6982 27.9818C54.2728 27.5667 54.9294 27.2345 55.6682 26.9855C56.407 26.7087 57.2551 26.5703 58.2128 26.5703C59.9366 26.5703 61.1951 27.0823 61.9886 28.1063C62.7821 29.1303 63.1788 30.4587 63.1788 32.0916V36.3259C63.1788 37.3499 63.2061 38.3462 63.2609 39.3149C63.343 40.2835 63.4387 41.1553 63.5482 41.9302C63.6303 42.8158 63.7397 43.66 63.8765 44.4626L59.4851 45.0437Z" fill="black"/>
</mask>
<g mask="url(#mask0_6917_13178)">
<path d="M30.0332 26.5704H30.2233V26.3514L30.0085 26.3797L30.0332 26.5704ZM30.1563 39.8547L29.9674 39.8767L29.9687 39.885L30.1563 39.8547ZM31.6749 42.8021L31.5694 42.9621L31.5742 42.9651L31.6749 42.8021ZM37.2976 40.1452L37.1372 40.042L37.136 40.044L37.2976 40.1452ZM38.2415 38.2771L38.4186 38.3472L38.4316 38.3134V38.2771H38.2415ZM38.1184 32.2577L37.9286 32.2687L37.9291 32.2741L38.1184 32.2577ZM37.8722 29.6424L37.6835 29.6662L37.684 29.6695L37.8722 29.6424ZM37.5028 27.1516L37.4786 26.9609L37.2806 26.9866L37.3157 27.1854L37.5028 27.1516ZM41.9763 26.5704H42.1664V26.3519L41.9521 26.3797L41.9763 26.5704ZM42.0584 39.315L41.8686 39.326L41.8691 39.3314L42.0584 39.315ZM42.3457 41.9303L42.5352 41.9124L42.5339 41.9031L42.3457 41.9303ZM42.6741 44.4211L42.7002 44.6115L42.8958 44.584L42.8612 44.3873L42.6741 44.4211ZM38.2415 45.0438H38.0515V45.2646L38.2677 45.2343L38.2415 45.0438ZM38.2415 40.8095H38.4316V40.1034L38.0777 40.712L38.2415 40.8095ZM37.2155 42.2624L37.0694 42.1393L37.0654 42.1444L37.2155 42.2624ZM35.7791 43.6324L35.6685 43.4759L35.665 43.4786L35.7791 43.6324ZM33.8501 44.6287L33.7899 44.4461L33.7819 44.4492L33.8501 44.6287ZM27.5707 43.5078L27.4196 43.6245L27.4211 43.6264L27.5707 43.5078ZM26.2574 32.2577L26.0675 32.2687L26.068 32.2741L26.2574 32.2577ZM26.0112 29.6424L25.8225 29.6662L25.823 29.6695L26.0112 29.6424ZM25.6418 27.1516L25.6171 26.9609L25.4197 26.9871L25.4547 27.1854L25.6418 27.1516ZM30.0332 26.5704H29.8432V37.5299H30.0332H30.2233V26.5704H30.0332ZM30.0332 37.5299H29.8432C29.8432 38.3665 29.8843 39.1488 29.9674 39.8767L30.1563 39.8547L30.3452 39.8326C30.264 39.1213 30.2233 38.3538 30.2233 37.5299H30.0332ZM30.1563 39.8547L29.9687 39.885C30.0804 40.5915 30.2631 41.2062 30.5199 41.7257L30.6899 41.6398L30.8599 41.5537C30.6242 41.0769 30.4512 40.5016 30.344 39.8243L30.1563 39.8547ZM30.6899 41.6398L30.5199 41.7257C30.7792 42.2503 31.1284 42.6647 31.5694 42.9621L31.6749 42.8021L31.7803 42.6421C31.4005 42.386 31.0931 42.0255 30.8599 41.5537L30.6899 41.6398ZM31.6749 42.8021L31.5742 42.9651C32.0504 43.2663 32.6492 43.4095 33.3576 43.4095V43.2172V43.025C32.6979 43.025 32.1749 42.8915 31.7756 42.639L31.6749 42.8021ZM33.3576 43.2172V43.4095C33.8872 43.4095 34.3989 43.2602 34.8904 42.9678L34.7941 42.8021L34.6977 42.6364C34.2589 42.8975 33.813 43.025 33.3576 43.025V43.2172ZM34.7941 42.8021L34.8904 42.9678C35.3728 42.6808 35.8246 42.3089 36.2461 41.8542L36.1074 41.7227L35.969 41.591C35.5696 42.0219 35.1455 42.3699 34.6977 42.6364L34.7941 42.8021ZM36.1074 41.7227L36.2461 41.8542C36.6931 41.3738 37.0972 40.838 37.4592 40.2465L37.2976 40.1452L37.136 40.044C36.7866 40.6149 36.3976 41.1304 35.969 41.591L36.1074 41.7227ZM37.2976 40.1452L37.458 40.2485C37.8472 39.6297 38.1676 38.9959 38.4186 38.3472L38.2415 38.2771L38.0645 38.2071C37.823 38.8314 37.5141 39.4431 37.1372 40.042L37.2976 40.1452ZM38.2415 38.2771H38.4316V35.2882H38.2415H38.0515V38.2771H38.2415ZM38.2415 35.2882H38.4316C38.4316 34.2315 38.3904 33.2158 38.3078 32.2413L38.1184 32.2577L37.9291 32.2741C38.0106 33.2369 38.0515 34.2415 38.0515 35.2882H38.2415ZM38.1184 32.2577L38.3082 32.2468C38.2532 31.2739 38.1707 30.3966 38.0603 29.6152L37.8722 29.6424L37.684 29.6695C37.7925 30.438 37.8741 31.3042 37.9286 32.2687L38.1184 32.2577ZM37.8722 29.6424L38.0608 29.6185C37.951 28.73 37.8273 27.8964 37.6899 27.1178L37.5028 27.1516L37.3157 27.1854C37.4519 27.9566 37.5744 28.7835 37.6835 29.6662L37.8722 29.6424ZM37.5028 27.1516L37.527 27.3423L42.0005 26.7611L41.9763 26.5704L41.9521 26.3797L37.4786 26.9609L37.5028 27.1516ZM41.9763 26.5704H41.7862V36.326H41.9763H42.1664V26.5704H41.9763ZM41.9763 36.326H41.7862C41.7862 37.3535 41.8136 38.3534 41.8686 39.326L42.0584 39.315L42.2482 39.304C42.1937 38.3392 42.1664 37.3466 42.1664 36.326H41.9763ZM42.0584 39.315L41.8691 39.3314C41.9513 40.3029 42.0475 41.1783 42.1576 41.9575L42.3457 41.9303L42.5339 41.9031C42.425 41.1325 42.3296 40.2644 42.2478 39.2985L42.0584 39.315ZM42.3457 41.9303L42.1565 41.9483C42.239 42.8385 42.3491 43.6742 42.4869 44.4549L42.6741 44.4211L42.8612 44.3873C42.7254 43.6183 42.6168 42.7934 42.5352 41.9124L42.3457 41.9303ZM42.6741 44.4211L42.6479 44.2307L38.2154 44.8534L38.2415 45.0438L38.2677 45.2343L42.7002 44.6115L42.6741 44.4211ZM38.2415 45.0438H38.4316V40.8095H38.2415H38.0515V45.0438H38.2415ZM38.2415 40.8095L38.0777 40.712C37.8102 41.172 37.4744 41.6477 37.0694 42.1393L37.2155 42.2624L37.3615 42.3855C37.7774 41.8807 38.1256 41.3879 38.4054 40.9069L38.2415 40.8095ZM37.2155 42.2624L37.0654 42.1444C36.6951 42.6261 36.2301 43.0702 35.6685 43.4759L35.7791 43.6324L35.8895 43.7888C36.4771 43.3643 36.9698 42.895 37.3655 42.3804L37.2155 42.2624ZM35.7791 43.6324L35.665 43.4786C35.1362 43.8797 34.5119 44.2026 33.7899 44.4461L33.8501 44.6287L33.9102 44.8111C34.6657 44.5563 35.3275 44.2153 35.8931 43.7862L35.7791 43.6324ZM33.8501 44.6287L33.7819 44.4492C33.0971 44.7157 32.2866 44.8516 31.3466 44.8516V45.0438V45.2361C32.3218 45.2361 33.1804 45.0952 33.9183 44.8081L33.8501 44.6287ZM31.3466 45.0438V44.8516C29.6599 44.8516 28.4664 44.3521 27.7203 43.3893L27.5707 43.5078L27.4211 43.6264C28.262 44.7116 29.5857 45.2361 31.3466 45.2361V45.0438ZM27.5707 43.5078L27.7218 43.3912C26.9587 42.3797 26.5706 41.0948 26.5706 39.5225H26.3805H26.1905C26.1905 41.1606 26.5959 42.5326 27.4196 43.6245L27.5707 43.5078ZM26.3805 39.5225H26.5706V35.2882H26.3805H26.1905V39.5225H26.3805ZM26.3805 35.2882H26.5706C26.5706 34.2315 26.5293 33.2158 26.4468 32.2413L26.2574 32.2577L26.068 32.2741C26.1496 33.2369 26.1905 34.2415 26.1905 35.2882H26.3805ZM26.2574 32.2577L26.4472 32.2468C26.3922 31.2739 26.3097 30.3966 26.1993 29.6152L26.0112 29.6424L25.823 29.6695C25.9315 30.438 26.013 31.3042 26.0675 32.2687L26.2574 32.2577ZM26.0112 29.6424L26.1997 29.6185C26.0899 28.73 25.9664 27.8964 25.8289 27.1178L25.6418 27.1516L25.4547 27.1854C25.5908 27.9566 25.7135 28.7835 25.8225 29.6662L26.0112 29.6424ZM25.6418 27.1516L25.6665 27.3422L30.0579 26.761L30.0332 26.5704L30.0085 26.3797L25.6171 26.9609L25.6418 27.1516ZM59.4851 45.0438H59.295V45.2629L59.5097 45.2345L59.4851 45.0438ZM59.3209 31.7595L59.132 31.7825L59.1332 31.7899L59.3209 31.7595ZM57.8023 28.8121L57.6968 28.9722L57.7016 28.9751L57.8023 28.8121ZM52.1797 31.5104L52.0193 31.4072L52.0181 31.4093L52.1797 31.5104ZM51.2767 33.3371L51.0998 33.267L51.0867 33.3008V33.3371H51.2767ZM51.6461 41.9303L51.4571 41.9508L51.4575 41.9542L51.6461 41.9303ZM52.0155 44.4627L52.04 44.6533L52.2365 44.6275L52.2028 44.43L52.0155 44.4627ZM47.583 45.0438H47.3929V45.2626L47.6074 45.2345L47.583 45.0438ZM47.4598 32.2577L47.27 32.2687L47.2705 32.2741L47.4598 32.2577ZM47.2136 29.6839L47.025 29.7078L47.0256 29.7121L47.2136 29.6839ZM46.8443 27.1931L46.8181 27.0026L46.6224 27.0301L46.6572 27.2269L46.8443 27.1931ZM51.2767 26.5704H51.4668V26.3496L51.2506 26.38L51.2767 26.5704ZM51.2767 30.8048H51.0867V31.5108L51.4406 30.9022L51.2767 30.8048ZM52.2617 29.3518L52.1156 29.2286L52.1117 29.2337L52.2617 29.3518ZM53.6982 27.9819L53.5877 27.8253L53.5842 27.828L53.6982 27.9819ZM55.6682 26.9855L55.7283 27.168L55.7342 27.1658L55.6682 26.9855ZM63.2609 39.315L63.0711 39.326L63.0715 39.3314L63.2609 39.315ZM63.5482 41.9303L63.7376 41.9124L63.7363 41.9031L63.5482 41.9303ZM63.8765 44.4627L63.9011 44.6533L64.0975 44.6273L64.0638 44.43L63.8765 44.4627ZM59.4851 45.0438H59.6751V34.0843H59.4851H59.295V45.0438H59.4851ZM59.4851 34.0843H59.6751C59.6751 33.2184 59.6199 32.4331 59.5086 31.7291L59.3209 31.7595L59.1332 31.7899C59.2407 32.4698 59.295 33.2344 59.295 34.0843H59.4851ZM59.3209 31.7595L59.5096 31.7367C59.4255 31.0281 59.2565 30.4107 58.9984 29.8885L58.8284 29.9745L58.6584 30.0605C58.8928 30.5346 59.0518 31.1072 59.132 31.7825L59.3209 31.7595ZM58.8284 29.9745L58.9984 29.8885C58.7376 29.3609 58.3725 28.9458 57.9031 28.6491L57.8023 28.8121L57.7016 28.9751C58.1077 29.2319 58.4267 29.5917 58.6584 30.0605L58.8284 29.9745ZM57.8023 28.8121L57.9078 28.6521C57.4562 28.3477 56.8682 28.2047 56.1607 28.2047V28.3969V28.5892C56.8212 28.5892 57.3276 28.7232 57.6968 28.9722L57.8023 28.8121ZM56.1607 28.3969V28.2047C55.6311 28.2047 55.1193 28.354 54.6279 28.6464L54.7242 28.8121L54.8206 28.9778C55.2594 28.7167 55.7053 28.5892 56.1607 28.5892V28.3969ZM54.7242 28.8121L54.6279 28.6464C54.1446 28.9339 53.6794 29.3198 53.2314 29.8012L53.3699 29.933L53.5083 30.0648C53.9359 29.6052 54.3735 29.2438 54.8206 28.9778L54.7242 28.8121ZM53.3699 29.933L53.2314 29.8012C52.8116 30.2542 52.4075 30.7901 52.0193 31.4072L52.1797 31.5104L52.34 31.6137C52.7178 31.0131 53.1072 30.4973 53.5083 30.0648L53.3699 29.933ZM52.1797 31.5104L52.0181 31.4093C51.6563 32.0004 51.3502 32.6197 51.0998 33.267L51.2767 33.3371L51.4538 33.4071C51.6958 32.7814 51.9916 32.183 52.3412 31.6116L52.1797 31.5104ZM51.2767 33.3371H51.0867V36.326H51.2767H51.4668V33.3371H51.2767ZM51.2767 36.326H51.0867C51.0867 37.3552 51.1279 38.357 51.2105 39.3314L51.3998 39.315L51.5892 39.2985C51.5077 38.3357 51.4668 37.3448 51.4668 36.326H51.2767ZM51.3998 39.315L51.2105 39.3314C51.2926 40.3011 51.3748 41.1742 51.4571 41.9508L51.6461 41.9303L51.8351 41.9098C51.7532 41.1366 51.6712 40.2662 51.5892 39.2985L51.3998 39.315ZM51.6461 41.9303L51.4575 41.9542C51.5673 42.8425 51.6909 43.6895 51.8282 44.4953L52.0155 44.4627L52.2028 44.43C52.0665 43.6306 51.9438 42.7894 51.8347 41.9065L51.6461 41.9303ZM52.0155 44.4627L51.9911 44.272L47.5586 44.8532L47.583 45.0438L47.6074 45.2345L52.04 44.6533L52.0155 44.4627ZM47.583 45.0438H47.7731V35.2882H47.583H47.3929V45.0438H47.583ZM47.583 35.2882H47.7731C47.7731 34.2315 47.7318 33.2158 47.6493 32.2413L47.4598 32.2577L47.2705 32.2741C47.3521 33.2369 47.3929 34.2415 47.3929 35.2882H47.583ZM47.4598 32.2577L47.6496 32.2468C47.5946 31.2739 47.5121 30.41 47.4016 29.6557L47.2136 29.6839L47.0256 29.7121C47.134 30.4523 47.2156 31.3043 47.27 32.2687L47.4598 32.2577ZM47.2136 29.6839L47.4022 29.66C47.2924 28.7715 47.1688 27.9379 47.0314 27.1593L46.8443 27.1931L46.6572 27.2269C46.7933 27.9981 46.9159 28.825 47.025 29.7078L47.2136 29.6839ZM46.8443 27.1931L46.8704 27.3835L51.3029 26.7608L51.2767 26.5704L51.2506 26.38L46.8181 27.0026L46.8443 27.1931ZM51.2767 26.5704H51.0867V30.8048H51.2767H51.4668V26.5704H51.2767ZM51.2767 30.8048L51.4406 30.9022C51.7094 30.4399 52.033 29.9624 52.4118 29.4698L52.2617 29.3518L52.1117 29.2337C51.7243 29.7375 51.3912 30.2287 51.1129 30.7073L51.2767 30.8048ZM52.2617 29.3518L52.4077 29.4748C52.8081 28.9889 53.276 28.5424 53.8123 28.1357L53.6982 27.9819L53.5842 27.828C53.0259 28.2515 52.536 28.7183 52.1156 29.2286L52.2617 29.3518ZM53.6982 27.9819L53.8087 28.1383C54.3663 27.7354 55.0057 27.4117 55.7283 27.168L55.6682 26.9855L55.608 26.8031C54.8532 27.0576 54.1792 27.398 53.5877 27.8253L53.6982 27.9819ZM55.6682 26.9855L55.7342 27.1658C56.4478 26.8985 57.273 26.7627 58.2128 26.7627V26.5704V26.3781C57.2373 26.3781 56.366 26.5191 55.6022 26.8053L55.6682 26.9855ZM58.2128 26.5704V26.7627C59.8995 26.7627 61.0929 27.2622 61.839 28.225L61.9886 28.1063L62.1382 27.9878C61.2973 26.9026 59.9736 26.3781 58.2128 26.3781V26.5704ZM61.9886 28.1063L61.839 28.225C62.6002 29.2072 62.9887 30.4906 62.9887 32.0916H63.1788H63.3688C63.3688 30.427 62.964 29.0535 62.1382 27.9878L61.9886 28.1063ZM63.1788 32.0916H62.9887V36.326H63.1788H63.3688V32.0916H63.1788ZM63.1788 36.326H62.9887C62.9887 37.3535 63.0161 38.3534 63.0711 39.326L63.2609 39.315L63.4507 39.304C63.3962 38.3392 63.3688 37.3466 63.3688 36.326H63.1788ZM63.2609 39.315L63.0715 39.3314C63.1538 40.3029 63.25 41.1783 63.36 41.9575L63.5482 41.9303L63.7363 41.9031C63.6275 41.1325 63.5321 40.2644 63.4503 39.2985L63.2609 39.315ZM63.5482 41.9303L63.3589 41.9483C63.4414 42.8384 63.5515 43.6874 63.6892 44.4953L63.8765 44.4627L64.0638 44.43C63.9279 43.6327 63.8192 42.7935 63.7376 41.9124L63.5482 41.9303ZM63.8765 44.4627L63.8519 44.272L59.4604 44.8532L59.4851 45.0438L59.5097 45.2345L63.9011 44.6533L63.8765 44.4627Z" fill="white"/>
</g>
<path d="M94.3909 24.0608H100.403V25.8103H94.3909V38.7236C94.3909 40.3621 94.5832 41.5007 94.9677 42.1393C95.3516 42.7503 95.9696 43.0558 96.8209 43.0558C97.6716 43.0558 98.8247 42.8475 100.28 42.4309V43.9722C98.3579 44.4999 96.7931 44.7637 95.585 44.7637C92.236 44.7637 90.5611 42.7226 90.5611 38.6403V25.8103H87.0192V24.0608H90.5611V19.7703L94.3909 17.5625V24.0608ZM113.726 44.762V41.773C113.014 42.9354 112.262 43.7241 111.469 44.1393C110.675 44.5544 109.663 44.762 108.431 44.762C107.748 44.762 107.078 44.6928 106.42 44.5544C105.764 44.4437 105.176 44.2223 104.656 43.8902C104.163 43.5581 103.766 43.1291 103.465 42.6032C103.165 42.0497 103.014 41.3579 103.014 40.5276C103.014 39.4759 103.246 38.6041 103.712 37.9123C104.205 37.1927 104.82 36.6115 105.559 36.1687C106.325 35.6982 107.159 35.3246 108.062 35.0479C108.965 34.7711 109.827 34.5497 110.648 34.3836C110.949 34.3006 111.277 34.2176 111.633 34.1346C111.989 34.0515 112.317 33.9408 112.618 33.8024C112.946 33.6641 113.22 33.498 113.439 33.3043C113.658 33.0829 113.767 32.82 113.767 32.5155C113.767 31.7406 113.74 31.0349 113.685 30.3984C113.63 29.7618 113.493 29.2221 113.274 28.7794C113.083 28.3088 112.796 27.9491 112.412 27.7C112.03 27.4232 111.51 27.2849 110.853 27.2849C110.251 27.2849 109.581 27.4786 108.842 27.8661C108.13 28.2258 107.447 28.6548 106.79 29.1529C106.161 29.6235 105.614 30.0801 105.148 30.5229C104.683 30.938 104.409 31.1871 104.327 31.2701L103.794 27.3679C103.904 27.3402 104.191 27.271 104.656 27.1603C105.121 27.0496 105.696 26.9389 106.379 26.8282C107.064 26.6898 107.816 26.5653 108.637 26.4546C109.458 26.3439 110.265 26.2885 111.058 26.2885C113.247 26.2885 114.848 26.7314 115.86 27.617C116.9 28.4749 117.42 29.9832 117.42 32.1419V36.0026C117.42 37.0543 117.461 38.0645 117.543 39.0332C117.625 40.0018 117.721 40.8597 117.83 41.607C117.94 42.5203 118.063 43.3644 118.199 44.1393L113.726 44.762ZM109.786 43.0184C110.36 43.0184 110.88 42.88 111.346 42.6032C111.838 42.3265 112.262 41.9806 112.618 41.5655C112.973 41.1226 113.247 40.6244 113.439 40.0709C113.63 39.5174 113.726 38.9639 113.726 38.4104V34.1761C113.48 34.5359 113.014 34.8403 112.331 35.0894C111.674 35.3108 111.058 35.5045 110.484 35.6706C109.526 35.975 108.719 36.4732 108.062 37.165C107.433 37.8569 107.118 38.7426 107.118 39.8219C107.118 40.6798 107.324 41.4271 107.734 42.0636C108.172 42.7002 108.856 43.0184 109.786 43.0184Z" fill="white"/>
<mask id="mask1_6917_13178" style="mask-type:luminance" maskUnits="userSpaceOnUse" x="86" y="16" width="33" height="30">
<path d="M118.685 16.7676H86.1956V45.6062H118.685V16.7676Z" fill="white"/>
<path d="M94.3909 24.0627H100.403V25.8123H94.3909V38.7255C94.3909 40.364 94.5832 41.5026 94.9677 42.1413C95.3516 42.7523 95.9696 43.0578 96.8209 43.0578C97.6716 43.0578 98.8247 42.8494 100.28 42.4329V43.9742C98.3579 44.5018 96.7931 44.7656 95.585 44.7656C92.236 44.7656 90.5611 42.7245 90.5611 38.6422V25.8123H87.0192V24.0627H90.5611V19.7722L94.3909 17.5645V24.0627ZM113.726 44.7639V41.775C113.014 42.9373 112.262 43.7261 111.469 44.1412C110.675 44.5564 109.663 44.7639 108.431 44.7639C107.748 44.7639 107.078 44.6947 106.42 44.5564C105.764 44.4456 105.176 44.2242 104.656 43.8921C104.163 43.56 103.766 43.1311 103.465 42.6052C103.165 42.0517 103.014 41.3598 103.014 40.5296C103.014 39.4779 103.246 38.6061 103.712 37.9142C104.205 37.1947 104.82 36.6135 105.559 36.1706C106.325 35.7002 107.159 35.3265 108.062 35.0498C108.965 34.773 109.827 34.5517 110.648 34.3856C110.949 34.3026 111.277 34.2195 111.633 34.1365C111.989 34.0535 112.317 33.9428 112.618 33.8044C112.946 33.666 113.22 33.5 113.439 33.3062C113.658 33.0848 113.767 32.8219 113.767 32.5175C113.767 31.7426 113.74 31.0368 113.685 30.4003C113.63 29.7638 113.493 29.2241 113.274 28.7813C113.083 28.3108 112.796 27.951 112.412 27.702C112.03 27.4252 111.51 27.2868 110.853 27.2868C110.251 27.2868 109.581 27.4806 108.842 27.868C108.13 28.2278 107.447 28.6568 106.79 29.1549C106.161 29.6254 105.614 30.0821 105.148 30.5248C104.683 30.94 104.409 31.1891 104.327 31.2721L103.794 27.3698C103.904 27.3421 104.191 27.273 104.656 27.1623C105.121 27.0515 105.696 26.9409 106.379 26.8302C107.064 26.6918 107.816 26.5673 108.637 26.4565C109.458 26.3459 110.265 26.2905 111.058 26.2905C113.247 26.2905 114.848 26.7333 115.86 27.6189C116.9 28.4768 117.42 29.9852 117.42 32.1439V36.0046C117.42 37.0562 117.461 38.0664 117.543 39.0351C117.625 40.0038 117.721 40.8617 117.83 41.6089C117.94 42.5222 118.063 43.3663 118.199 44.1412L113.726 44.7639ZM109.786 43.0203C110.36 43.0203 110.88 42.882 111.346 42.6052C111.838 42.3285 112.262 41.9825 112.618 41.5674C112.973 41.1246 113.247 40.6264 113.439 40.0729C113.63 39.5194 113.726 38.9659 113.726 38.4124V34.178C113.48 34.5378 113.014 34.8423 112.331 35.0913C111.674 35.3127 111.058 35.5065 110.484 35.6725C109.526 35.9769 108.719 36.4751 108.062 37.167C107.433 37.8589 107.118 38.7445 107.118 39.8238C107.118 40.6818 107.324 41.4291 107.734 42.0656C108.172 42.7021 108.856 43.0203 109.786 43.0203Z" fill="black"/>
</mask>
<g mask="url(#mask1_6917_13178)">
<path d="M94.3909 24.0615H94.2006V24.2538H94.3909V24.0615ZM100.403 24.0615H100.594V23.8693H100.403V24.0615ZM100.403 25.8111V26.0033H100.594V25.8111H100.403ZM94.3909 25.8111V25.6188H94.2006V25.8111H94.3909ZM94.9677 42.1401L94.8053 42.2401L94.8073 42.2433L94.9677 42.1401ZM100.28 42.4317H100.47V42.1775L100.228 42.2467L100.28 42.4317ZM100.28 43.973L100.33 44.1585L100.47 44.12V43.973H100.28ZM90.5611 25.8111H90.7508V25.6188H90.5611V25.8111ZM87.0192 25.8111H86.8295V26.0033H87.0192V25.8111ZM87.0192 24.0615V23.8693H86.8295V24.0615H87.0192ZM90.5611 24.0615V24.2538H90.7508V24.0615H90.5611ZM90.5611 19.771L90.467 19.604L90.3708 19.6593V19.771H90.5611ZM94.3909 17.5633H94.5812V17.2324L94.2967 17.3962L94.3909 17.5633ZM94.3909 24.0615V24.2538H100.403V24.0615V23.8693H94.3909V24.0615ZM100.403 24.0615H100.214V25.8111H100.403H100.594V24.0615H100.403ZM100.403 25.8111V25.6188H94.3909V25.8111V26.0033H100.403V25.8111ZM94.3909 25.8111H94.2006V38.7243H94.3909H94.5812V25.8111H94.3909ZM94.3909 38.7243H94.2006C94.2006 40.3652 94.3909 41.552 94.8053 42.2401L94.9677 42.1401L95.1302 42.0402C94.7754 41.4509 94.5812 40.3604 94.5812 38.7243H94.3909ZM94.9677 42.1401L94.8073 42.2433C95.2336 42.9209 95.9192 43.2488 96.8209 43.2488V43.0566V42.8643C96.0206 42.8643 95.4703 42.5813 95.1282 42.0369L94.9677 42.1401ZM96.8209 43.0566V43.2488C97.6981 43.2488 98.8704 43.035 100.332 42.6167L100.28 42.4317L100.228 42.2467C98.7789 42.6615 97.6458 42.8643 96.8209 42.8643V43.0566ZM100.28 42.4317H100.09V43.973H100.28H100.47V42.4317H100.28ZM100.28 43.973L100.23 43.7875C98.3154 44.3131 96.7692 44.5722 95.585 44.5722V44.7644V44.9567C96.8176 44.9567 98.401 44.6882 100.33 44.1585L100.28 43.973ZM95.585 44.7644V44.5722C93.95 44.5722 92.7552 44.0757 91.9635 43.1108C91.1658 42.1391 90.7508 40.6603 90.7508 38.641H90.5611H90.3708C90.3708 40.704 90.7932 42.287 91.6711 43.3564C92.5536 44.4326 93.8711 44.9567 95.585 44.9567V44.7644ZM90.5611 38.641H90.7508V25.8111H90.5611H90.3708V38.641H90.5611ZM90.5611 25.8111V25.6188H87.0192V25.8111V26.0033H90.5611V25.8111ZM87.0192 25.8111H87.2095V24.0615H87.0192H86.8295V25.8111H87.0192ZM87.0192 24.0615V24.2538H90.5611V24.0615V23.8693H87.0192V24.0615ZM90.5611 24.0615H90.7508V19.771H90.5611H90.3708V24.0615H90.5611ZM90.5611 19.771L90.6553 19.938L94.485 17.7303L94.3909 17.5633L94.2967 17.3962L90.467 19.604L90.5611 19.771ZM94.3909 17.5633H94.2006V24.0615H94.3909H94.5812V17.5633H94.3909ZM113.726 44.7627H113.536V44.9833L113.752 44.9532L113.726 44.7627ZM113.726 41.7738H113.916V41.098L113.564 41.6726L113.726 41.7738ZM106.42 44.5552L106.46 44.3668L106.452 44.3655L106.42 44.5552ZM104.656 43.8909L104.55 44.051L104.554 44.0535L104.656 43.8909ZM103.465 42.604L103.299 42.6967L103.301 42.7004L103.465 42.604ZM103.712 37.913L103.555 37.8036L103.555 37.8049L103.712 37.913ZM105.559 36.1694L105.655 36.3349L105.657 36.3338L105.559 36.1694ZM110.648 34.3844L110.685 34.5729L110.692 34.5717L110.698 34.5699L110.648 34.3844ZM112.618 33.8032L112.545 33.6257L112.539 33.6282L112.618 33.8032ZM113.439 33.305L113.564 33.4498L113.569 33.4455L113.573 33.441L113.439 33.305ZM113.274 28.7801L113.099 28.8533L113.101 28.8598L113.105 28.8661L113.274 28.7801ZM112.412 27.7008L112.302 27.8574L112.31 27.8625L112.412 27.7008ZM108.842 27.8668L108.927 28.0388L108.929 28.0375L108.842 27.8668ZM106.79 29.1537L106.903 29.3083L106.904 29.3075L106.79 29.1537ZM105.148 30.5237L105.274 30.6679L105.279 30.6637L105.148 30.5237ZM104.327 31.2709L104.139 31.2973L104.191 31.6803L104.462 31.4069L104.327 31.2709ZM103.794 27.3686L103.748 27.1821L103.582 27.224L103.606 27.395L103.794 27.3686ZM106.379 26.829L106.41 27.019L106.416 27.0175L106.379 26.829ZM115.86 27.6177L115.736 27.7632L115.74 27.7667L115.86 27.6177ZM117.83 41.6077L118.019 41.5846L118.018 41.5796L117.83 41.6077ZM118.199 44.14L118.225 44.3305L118.422 44.3032L118.386 44.1062L118.199 44.14ZM111.346 42.604L111.253 42.4359L111.249 42.4383L111.346 42.604ZM112.618 41.5662L112.762 41.6922L112.765 41.6874L112.618 41.5662ZM113.726 34.1768H113.916V33.5614L113.569 34.0674L113.726 34.1768ZM112.331 35.0901L112.391 35.2726L112.395 35.271L112.331 35.0901ZM110.484 35.6713L110.431 35.4864L110.427 35.4879L110.484 35.6713ZM108.062 37.1658L107.925 37.0326L107.922 37.0356L108.062 37.1658ZM107.734 42.0644L107.575 42.1694L107.578 42.1742L107.734 42.0644ZM113.726 44.7627H113.916V41.7738H113.726H113.536V44.7627H113.726ZM113.726 41.7738L113.564 41.6726C112.863 42.8194 112.133 43.5763 111.381 43.9693L111.469 44.14L111.556 44.3108C112.392 43.8735 113.167 43.0529 113.888 41.875L113.726 41.7738ZM111.469 44.14L111.381 43.9693C110.623 44.366 109.644 44.5705 108.431 44.5705V44.7627V44.955C109.683 44.955 110.728 44.7444 111.556 44.3108L111.469 44.14ZM108.431 44.7627V44.5705C107.76 44.5705 107.103 44.5024 106.46 44.3668L106.42 44.5552L106.382 44.7434C107.052 44.8845 107.735 44.955 108.431 44.955V44.7627ZM106.42 44.5552L106.452 44.3655C105.818 44.2587 105.254 44.0457 104.758 43.7284L104.656 43.8909L104.554 44.0535C105.097 44.4004 105.71 44.6302 106.389 44.7448L106.42 44.5552ZM104.656 43.8909L104.762 43.731C104.293 43.4155 103.917 43.0084 103.63 42.5077L103.465 42.604L103.301 42.7004C103.616 43.2513 104.034 43.7023 104.55 44.051L104.656 43.8909ZM103.465 42.604L103.632 42.5114C103.351 41.9938 103.204 41.3361 103.204 40.5284H103.014H102.824C102.824 41.3812 102.979 42.1072 103.299 42.6967L103.465 42.604ZM103.014 40.5284H103.204C103.204 39.5053 103.43 38.6738 103.869 38.0211L103.712 37.913L103.555 37.8049C103.063 38.536 102.824 39.4481 102.824 40.5284H103.014ZM103.712 37.913L103.868 38.0225C104.345 37.3255 104.941 36.7635 105.655 36.3349L105.559 36.1694L105.462 36.0041C104.699 36.4611 104.063 37.0614 103.555 37.8036L103.712 37.913ZM105.559 36.1694L105.657 36.3338C106.409 35.8721 107.229 35.5049 108.117 35.2326L108.062 35.0486L108.007 34.8646C107.089 35.1458 106.241 35.5259 105.46 36.0051L105.559 36.1694ZM108.062 35.0486L108.117 35.2326C109.015 34.9574 109.871 34.7376 110.685 34.5729L110.648 34.3844L110.611 34.1959C109.783 34.3633 108.916 34.5863 108.007 34.8646L108.062 35.0486ZM110.648 34.3844L110.698 34.5699C110.996 34.4876 111.322 34.4052 111.676 34.3226L111.633 34.1353L111.59 33.948C111.232 34.0315 110.901 34.1151 110.598 34.1989L110.648 34.3844ZM111.633 34.1353L111.676 34.3226C112.042 34.2371 112.383 34.1224 112.696 33.9782L112.618 33.8032L112.539 33.6282C112.251 33.7607 111.935 33.8675 111.59 33.948L111.633 34.1353ZM112.618 33.8032L112.691 33.9807C113.034 33.836 113.327 33.6598 113.564 33.4498L113.439 33.305L113.313 33.1604C113.113 33.3377 112.858 33.4936 112.545 33.6257L112.618 33.8032ZM113.439 33.305L113.573 33.441C113.827 33.1847 113.957 32.8733 113.957 32.5163H113.767H113.577C113.577 32.7682 113.489 32.9826 113.304 33.1691L113.439 33.305ZM113.767 32.5163H113.957C113.957 31.737 113.929 31.0256 113.874 30.3825L113.685 30.3991L113.496 30.4157C113.55 31.0458 113.577 31.7458 113.577 32.5163H113.767ZM113.685 30.3991L113.874 30.3825C113.818 29.7284 113.677 29.1639 113.445 28.6941L113.274 28.7801L113.105 28.8661C113.31 29.2819 113.442 29.7967 113.496 30.4157L113.685 30.3991ZM113.274 28.7801L113.45 28.7069C113.246 28.204 112.935 27.8116 112.515 27.539L112.412 27.7008L112.31 27.8625C112.657 28.0881 112.92 28.4152 113.099 28.8533L113.274 28.7801ZM112.412 27.7008L112.523 27.5443C112.097 27.2367 111.534 27.0933 110.853 27.0933V27.2856V27.4779C111.485 27.4779 111.962 27.6114 112.302 27.8574L112.412 27.7008ZM110.853 27.2856V27.0933C110.211 27.0933 109.51 27.2996 108.754 27.6961L108.842 27.8668L108.929 28.0375C109.651 27.659 110.291 27.4779 110.853 27.4779V27.2856ZM108.842 27.8668L108.757 27.6949C108.035 28.06 107.341 28.495 106.676 28.9999L106.79 29.1537L106.904 29.3075C107.552 28.8161 108.226 28.3932 108.927 28.0388L108.842 27.8668ZM106.79 29.1537L106.677 28.9991C106.043 29.4731 105.49 29.9346 105.018 30.3837L105.148 30.5237L105.279 30.6637C105.737 30.2271 106.279 29.7753 106.903 29.3083L106.79 29.1537ZM105.148 30.5237L105.023 30.3795C104.56 30.7924 104.28 31.0466 104.193 31.135L104.327 31.2709L104.462 31.4069C104.539 31.3292 104.807 31.0853 105.274 30.6679L105.148 30.5237ZM104.327 31.2709L104.516 31.2446L103.982 27.3423L103.794 27.3686L103.606 27.395L104.139 31.2973L104.327 31.2709ZM103.794 27.3686L103.84 27.5552C103.948 27.5279 104.234 27.4591 104.699 27.3482L104.656 27.1611L104.612 26.974C104.148 27.0845 103.859 27.154 103.748 27.1821L103.794 27.3686ZM104.656 27.1611L104.699 27.3482C105.159 27.2389 105.728 27.1292 106.41 27.019L106.379 26.829L106.35 26.6391C105.663 26.7503 105.083 26.8618 104.612 26.974L104.656 27.1611ZM106.379 26.829L106.416 27.0175C107.096 26.8801 107.845 26.7562 108.662 26.6459L108.637 26.4553L108.612 26.2648C107.788 26.3759 107.031 26.5011 106.342 26.6404L106.379 26.829ZM108.637 26.4553L108.662 26.6459C109.475 26.5363 110.273 26.4816 111.058 26.4816V26.2893V26.0971C110.256 26.0971 109.441 26.153 108.612 26.2648L108.637 26.4553ZM111.058 26.2893V26.4816C113.229 26.4816 114.774 26.9218 115.736 27.7632L115.86 27.6177L115.984 27.4723C114.921 26.5424 113.266 26.0971 111.058 26.0971V26.2893ZM115.86 27.6177L115.74 27.7667C116.715 28.571 117.229 30.0077 117.229 32.1427H117.42H117.61C117.61 29.9602 117.085 28.3803 115.98 27.4688L115.86 27.6177ZM117.42 32.1427H117.229V36.0034H117.42H117.61V32.1427H117.42ZM117.42 36.0034H117.229C117.229 37.0602 117.271 38.0758 117.353 39.0503L117.543 39.0339L117.732 39.0175C117.65 38.0547 117.61 37.05 117.61 36.0034H117.42ZM117.543 39.0339L117.353 39.0503C117.436 40.0218 117.532 40.8838 117.642 41.6359L117.83 41.6077L118.018 41.5796C117.91 40.8371 117.814 39.9832 117.732 39.0175L117.543 39.0339ZM117.83 41.6077L117.641 41.6309C117.751 42.5471 117.875 43.3948 118.012 44.1738L118.199 44.14L118.386 44.1062C118.25 43.3354 118.128 42.4949 118.019 41.5846L117.83 41.6077ZM118.199 44.14L118.174 43.9496L113.7 44.5723L113.726 44.7627L113.752 44.9532L118.225 44.3305L118.199 44.14ZM109.786 43.0191V43.2114C110.392 43.2114 110.946 43.065 111.442 42.7697L111.346 42.604L111.249 42.4383C110.815 42.6966 110.329 42.8269 109.786 42.8269V43.0191ZM111.346 42.604L111.438 42.7721C111.949 42.4848 112.391 42.1249 112.762 41.6922L112.618 41.5662L112.474 41.4403C112.134 41.8378 111.727 42.1696 111.253 42.4359L111.346 42.604ZM112.618 41.5662L112.765 41.6874C113.135 41.2269 113.42 40.7091 113.618 40.1352L113.439 40.0717L113.259 40.0082C113.075 40.5414 112.812 41.0199 112.47 41.445L112.618 41.5662ZM113.439 40.0717L113.618 40.1352C113.816 39.5625 113.916 38.9876 113.916 38.4112H113.726H113.536C113.536 38.9418 113.444 39.4739 113.259 40.0082L113.439 40.0717ZM113.726 38.4112H113.916V34.1768H113.726H113.536V38.4112H113.726ZM113.726 34.1768L113.569 34.0674C113.357 34.3786 112.936 34.6654 112.266 34.9092L112.331 35.0901L112.395 35.271C113.093 35.0167 113.603 34.6947 113.882 34.2863L113.726 34.1768ZM112.331 35.0901L112.271 34.9077C111.616 35.1284 111.003 35.3212 110.431 35.4864L110.484 35.6713L110.536 35.8562C111.114 35.6892 111.732 35.4948 112.391 35.2726L112.331 35.0901ZM110.484 35.6713L110.427 35.4879C109.441 35.8015 108.605 36.3161 107.925 37.0326L108.062 37.1658L108.199 37.2989C108.833 36.6317 109.612 36.1501 110.541 35.8547L110.484 35.6713ZM108.062 37.1658L107.922 37.0356C107.256 37.7682 106.928 38.7027 106.928 39.8226H107.118H107.308C107.308 38.7839 107.61 37.9471 108.202 37.296L108.062 37.1658ZM107.118 39.8226H106.928C106.928 40.7129 107.142 41.4977 107.575 42.1694L107.734 42.0644L107.893 41.9594C107.505 41.358 107.308 40.6483 107.308 39.8226H107.118ZM107.734 42.0644L107.578 42.1742C108.059 42.8737 108.809 43.2114 109.786 43.2114V43.0191V42.8269C108.903 42.8269 108.284 42.5281 107.89 41.9546L107.734 42.0644Z" fill="white"/>
</g>
<path d="M76.7625 35.6634C80.4471 35.6634 85.2329 36.5471 85.2329 41.0425C85.2329 44.1163 82.2704 46.268 78.3956 46.268C74.2549 46.268 70.0386 44.4621 68.3677 42.8868L69.849 39.0061C71.8998 41.6573 75.5465 45.3843 79.6494 45.3843C81.7387 45.3843 82.6119 43.8089 82.6119 42.272C82.6119 39.4672 79.1933 38.8909 76.4582 38.8909C73.3432 38.8909 70.2289 38.4298 70.2289 35.356C70.2289 34.0112 71.0643 32.7433 72.6981 31.9748C71.0643 30.9758 70.3429 29.4389 70.3429 27.5562C70.3429 24.7514 72.6218 22.6766 75.3191 22.1771C75.7746 20.0639 76.8003 18.9112 78.4334 18.9112C81.5862 18.8728 85.0811 19.8718 85.0811 19.8718L83.9798 22.984C83.5998 22.5229 81.2447 19.7565 78.4719 19.7565C77.1802 19.7565 76.5722 20.6786 76.2686 22.0235C80.1427 21.8313 83.5998 23.5987 83.562 27.5178C83.562 31.2064 80.1427 32.9354 76.6863 32.9354C75.8508 32.8969 75.1288 32.8202 74.3689 32.628C73.6476 32.4743 72.9255 32.5896 72.3559 33.0507C71.9382 33.358 71.5961 33.7422 71.5961 34.2033C71.5961 35.7018 75.3569 35.6634 76.7625 35.6634ZM76.4967 22.9456C74.483 22.9456 73.7231 24.8282 73.7231 26.6341C73.7231 29.0931 74.3689 31.9748 77.0662 31.9748C79.0792 31.9748 80.0293 30.3227 80.0293 28.171C80.0293 25.5583 79.2695 22.9456 76.4967 22.9456Z" fill="white"/>
<path d="M94.0925 12.9258H93.4062C93.086 12.9258 92.8261 13.1886 92.8261 13.5127V14.2065C92.8261 14.3524 92.9428 14.4705 93.0873 14.4705H93.7729C94.0932 14.4705 94.3531 14.2077 94.3531 13.8836V13.1898C94.3531 13.044 94.2364 12.9258 94.0925 12.9258Z" fill="white"/>
<path d="M98.9009 12.7422H98.2147C97.8944 12.7422 97.6345 13.005 97.6345 13.3291V14.0228C97.6345 14.1688 97.7518 14.2869 97.8957 14.2869H98.5813C98.9022 14.2869 99.1621 14.0241 99.1621 13.7V13.0062C99.1621 12.8605 99.0448 12.7422 98.9009 12.7422Z" fill="white"/>
<path d="M98.2969 16.7578H97.3932C96.9708 16.7578 96.6287 17.1041 96.6287 17.5314V18.4457C96.6287 18.638 96.7825 18.7937 96.9721 18.7937H97.8765C98.2989 18.7937 98.641 18.4474 98.641 18.0201V17.1058C98.641 16.9135 98.4872 16.7578 98.2969 16.7578Z" fill="white"/>
<path d="M96.6963 14.1328H95.4531C94.8729 14.1328 94.4021 14.6088 94.4021 15.1962V16.4531C94.4021 16.7173 94.6136 16.9316 94.8749 16.9316H96.1181C96.6982 16.9316 97.169 16.4556 97.169 15.8682V14.6113C97.169 14.347 96.9575 14.1328 96.6963 14.1328Z" fill="white"/>
<path d="M5.96539 25.5073C11.2138 24.7677 14.3316 26.8779 16.0398 29.3721C17.6289 31.6924 15.7759 34.3906 13.5519 36.0955C8.10844 40.2685 8.03782 46.7319 15.5042 45.008C15.5846 44.9895 15.6498 45.0867 15.5927 45.1469L12.9489 47.9365C12.9362 47.9497 12.918 47.9587 12.9 47.9613C1.22972 49.6913 6.28079 37.9016 12.9054 33.7701C14.3383 32.8763 15.3737 31.056 14.2916 29.7515C12.0332 27.0286 8.51634 26.7849 6.50615 27.1304C6.31718 27.1629 6.17187 27.311 6.12941 27.5001L4.44793 34.9889C4.38858 35.2533 4.51748 35.524 4.75876 35.6419L5.09913 35.8082C5.19225 35.8536 5.27152 35.9268 5.31154 36.0232C5.57698 36.663 5.15581 36.9664 4.85289 37.0957C4.76785 37.132 4.67305 37.1325 4.58367 37.1092L4.5282 37.0947C3.31877 36.7786 2.5794 35.5445 2.86225 34.3137L4.53812 27.022C4.56029 26.9255 4.55253 26.8243 4.52113 26.7306C4.0237 25.2447 5.03191 25.2561 5.71165 25.4821C5.79266 25.509 5.88094 25.5192 5.96539 25.5073Z" fill="white"/>
<path d="M8.40826 28.475C8.75994 28.5033 9.21691 28.6896 9.65432 28.9007C10.4152 29.268 11.0398 29.9844 11.0228 30.837C10.9827 32.8474 9.46641 34.107 8.21625 34.6851C7.61845 34.9614 7.06301 35.3789 6.78904 35.9833L6.46564 36.6968C6.30811 37.0443 5.90444 37.2001 5.55804 37.0472L5.86141 36.0957C6.45996 34.2182 9.39792 33.5757 9.57535 31.6111C9.66281 30.6432 8.9194 29.3745 8.32644 28.6734C8.2557 28.5897 8.29966 28.4663 8.40826 28.475Z" fill="white"/>
<path d="M6.79559 30.9825C6.66636 32.3668 7.26005 31.5787 7.62684 31.4854C7.99364 31.3921 8.12373 30.325 8.0315 29.9539C7.9392 29.5829 7.65953 30.0484 7.29274 30.1418C6.92594 30.2351 6.70336 30.6115 6.79559 30.9825Z" fill="white"/>
<path d="M14.1408 22.6097C16.3488 24.3173 15.9896 26.394 15.3485 27.3925C15.3023 27.4644 15.2083 27.4119 15.229 27.3287C15.8288 24.9081 14.0766 23.4951 13.1567 23.1907C10.7042 22.6549 9.73645 21.8618 9.53111 21.4949C9.51778 21.471 9.52083 21.4415 9.53581 21.4187C10.7584 19.5616 11.7894 18.8288 12.2603 18.6108C12.3264 18.5802 12.3736 18.6524 12.332 18.7126C10.6597 21.128 12.9689 21.9628 14.1308 22.6032C14.1344 22.6051 14.1377 22.6073 14.1408 22.6097Z" fill="white"/>
<path d="M11.013 24.8564C13.0772 24.7747 14.2565 25.8248 14.6399 26.7184C14.677 26.8049 14.8729 26.8 14.8731 26.7057C14.8776 25.0392 13.0528 23.9681 11.8888 23.798C9.44182 23.2426 8.96847 22.8175 8.6526 20.9826C8.63947 20.9064 8.53981 20.8905 8.50931 20.9615C8.06282 21.9994 7.75477 23.654 7.73408 24.2604C7.73302 24.2928 7.75198 24.3217 7.78182 24.3333C8.40986 24.5791 9.96058 24.898 11.013 24.8564Z" fill="white"/>
<path d="M46.4131 56.6348L116.364 56.635" stroke="#1ABC00"/>
<path d="M118.915 52.2669C118.866 52.229 118.802 52.2125 118.738 52.2209C118.707 52.2248 118.675 52.2347 118.647 52.25L117.565 52.8485C117.508 52.8802 117.464 52.9323 117.445 52.9932C117.425 53.054 117.43 53.1187 117.459 53.1731C117.489 53.2274 117.54 53.2669 117.601 53.2829C117.662 53.2989 117.729 53.29 117.787 53.2582L118.347 52.9482L117.757 54.7625L116.679 54.4803C116.649 54.4722 116.617 54.4702 116.585 54.4744C116.552 54.4786 116.521 54.4889 116.493 54.5047C116.464 54.5205 116.439 54.5415 116.418 54.5665C116.397 54.5914 116.382 54.6199 116.372 54.6503L115.805 56.6594C115.795 56.6897 115.553 56.9129 115.556 56.944C115.559 56.975 115.629 56.9166 115.644 56.9437C115.622 56.8456 115.781 56.8659 115.805 56.8848C115.83 56.9037 115.844 56.6977 115.874 56.7055C115.905 56.7136 116.001 56.9612 116.033 56.957C116.033 56.957 115.936 56.8957 115.874 56.7055C115.903 56.6897 116.012 56.982 116.033 56.957C116.053 56.9321 116.315 56.957 116.364 56.957L116.761 54.9996L117.838 55.2818C117.869 55.2899 117.9 55.2919 117.933 55.2877C117.965 55.2835 117.996 55.2732 118.024 55.2574C118.053 55.2416 118.078 55.2206 118.099 55.1956C118.12 55.1706 118.136 55.1422 118.145 55.1118L118.808 53.0683L119.095 53.5989C119.124 53.6532 119.175 53.6927 119.237 53.7087C119.298 53.7247 119.365 53.7158 119.423 53.684C119.48 53.6523 119.523 53.6003 119.543 53.5394C119.563 53.4785 119.557 53.4138 119.528 53.3595L118.974 52.3352C118.959 52.3086 118.939 52.2854 118.915 52.2669Z" fill="#1ABC00"/>
<path opacity="0.83" d="M48.1739 51.9426C48.1776 51.8474 48.1501 51.7738 48.0913 51.7221C48.0333 51.6702 47.9455 51.6443 47.828 51.6443C47.7481 51.6443 47.6789 51.6557 47.62 51.6786C47.5613 51.7007 47.5142 51.7316 47.4788 51.7712C47.4441 51.8101 47.4227 51.8551 47.4144 51.9061C47.4061 51.948 47.4087 51.9846 47.4223 52.0158C47.4366 52.0471 47.4589 52.0742 47.489 52.097C47.5199 52.1191 47.5564 52.1385 47.5986 52.1553C47.6408 52.1713 47.6856 52.185 47.7331 52.1965L47.932 52.2468C48.0292 52.2696 48.1166 52.3001 48.1942 52.3382C48.2725 52.3763 48.3381 52.4232 48.3908 52.4788C48.4443 52.5344 48.482 52.6 48.5039 52.6755C48.5257 52.7509 48.5287 52.8374 48.5129 52.935C48.4888 53.0782 48.4327 53.2025 48.3445 53.3077C48.2564 53.4121 48.1407 53.4932 47.9976 53.5511C47.8544 53.6083 47.6886 53.6369 47.5003 53.6369C47.3134 53.6369 47.1556 53.6079 47.0267 53.55C46.8979 53.4921 46.8041 53.4063 46.7453 53.2928C46.6873 53.1785 46.67 53.0371 46.6933 52.8686H47.1669C47.1586 52.9472 47.1699 53.0127 47.2007 53.0653C47.2324 53.1171 47.2795 53.1563 47.342 53.183C47.4046 53.2089 47.478 53.2219 47.5624 53.2219C47.646 53.2219 47.7203 53.2097 47.7851 53.1853C47.8506 53.1609 47.9038 53.127 47.9444 53.0836C47.9851 53.0401 48.01 52.9902 48.019 52.9338C48.0281 52.8812 48.0201 52.837 47.9953 52.8012C47.9704 52.7653 47.9305 52.7349 47.8755 52.7098C47.8212 52.6839 47.7538 52.661 47.6732 52.6411L47.4313 52.5772C47.2445 52.5291 47.1032 52.454 47.0075 52.352C46.9118 52.2498 46.8775 52.1123 46.9047 51.9392C46.9288 51.7975 46.9872 51.6736 47.0799 51.5677C47.1733 51.461 47.2908 51.3783 47.4325 51.3197C47.5749 51.2602 47.7304 51.2305 47.8993 51.2305C48.071 51.2305 48.2161 51.2606 48.3343 51.3208C48.4526 51.3802 48.5389 51.4633 48.5931 51.57C48.6474 51.6767 48.664 51.8009 48.6429 51.9426H48.1739ZM49.5018 51.6706L49.5696 51.2625H51.4706L51.4028 51.6706H50.6941L50.3777 53.6037H49.894L50.2104 51.6706H49.5018ZM52.0565 53.6037H51.5321L52.7155 51.2625H53.3461L53.7598 53.6037H53.2354L52.9539 51.7975H52.9359L52.0565 53.6037ZM52.1763 52.6835H53.415L53.3495 53.0698H52.1108L52.1763 52.6835ZM54.5793 53.6037L54.9637 51.2625H55.8769C56.0516 51.2625 56.1955 51.2937 56.3086 51.3562C56.4223 51.4187 56.5022 51.5075 56.5482 51.6226C56.5949 51.7369 56.6058 51.8718 56.5809 52.0273C56.5553 52.1827 56.4999 52.3161 56.4148 52.4274C56.3304 52.5387 56.2204 52.6244 56.0848 52.6846C55.9499 52.744 55.7936 52.7737 55.6158 52.7737H55.0044L55.0721 52.376H55.6034C55.6968 52.376 55.7766 52.3629 55.8429 52.3371C55.9092 52.3112 55.9616 52.2723 56.0001 52.2204C56.0392 52.1687 56.0648 52.1043 56.0769 52.0273C56.0897 51.9487 56.0852 51.8832 56.0633 51.8306C56.0415 51.7773 56.0019 51.7369 55.9446 51.7095C55.8874 51.6813 55.812 51.6671 55.7186 51.6671H55.3886L55.0687 53.6037H54.5793ZM56.0034 52.5383L56.4046 53.6037H55.8644L55.4756 52.5383H56.0034ZM57.456 51.6706L57.5238 51.2625H59.4247L59.3569 51.6706H58.6483L58.3318 53.6037H57.8482L58.1646 51.6706H57.456ZM62.6991 51.9426C62.7029 51.8474 62.6754 51.7738 62.6166 51.7221C62.5586 51.6702 62.4708 51.6443 62.3533 51.6443C62.2734 51.6443 62.2041 51.6557 62.1453 51.6786C62.0865 51.7007 62.0394 51.7316 62.004 51.7712C61.9694 51.8101 61.9479 51.8551 61.9396 51.9061C61.9313 51.948 61.934 51.9846 61.9476 52.0158C61.9619 52.0471 61.9841 52.0742 62.0142 52.097C62.0451 52.1191 62.0817 52.1385 62.1239 52.1553C62.166 52.1713 62.2108 52.185 62.2583 52.1965L62.4572 52.2468C62.5544 52.2696 62.6418 52.3001 62.7195 52.3382C62.7978 52.3763 62.8633 52.4232 62.9161 52.4788C62.9696 52.5344 63.0073 52.6 63.0291 52.6755C63.051 52.7509 63.054 52.8374 63.0382 52.935C63.0141 53.0782 62.9579 53.2025 62.8698 53.3077C62.7816 53.4121 62.666 53.4932 62.5228 53.5511C62.3797 53.6083 62.2139 53.6369 62.0255 53.6369C61.8387 53.6369 61.6808 53.6079 61.552 53.55C61.4231 53.4921 61.3293 53.4063 61.2706 53.2928C61.2126 53.1785 61.1952 53.0371 61.2185 52.8686H61.6921C61.6839 52.9472 61.6951 53.0127 61.726 53.0653C61.7577 53.1171 61.8047 53.1563 61.8673 53.183C61.9298 53.2089 62.0033 53.2219 62.0877 53.2219C62.1713 53.2219 62.2455 53.2097 62.3103 53.1853C62.3759 53.1609 62.429 53.127 62.4697 53.0836C62.5103 53.0401 62.5352 52.9902 62.5443 52.9338C62.5533 52.8812 62.5454 52.837 62.5206 52.8012C62.4957 52.7653 62.4558 52.7349 62.4007 52.7098C62.3465 52.6839 62.2791 52.661 62.1984 52.6411L61.9566 52.5772C61.7697 52.5291 61.6284 52.454 61.5328 52.352C61.4371 52.2498 61.4028 52.1123 61.4299 51.9392C61.454 51.7975 61.5124 51.6736 61.6051 51.5677C61.6985 51.461 61.8161 51.3783 61.9577 51.3197C62.1001 51.2602 62.2557 51.2305 62.4245 51.2305C62.5963 51.2305 62.7413 51.2606 62.8596 51.3208C62.9779 51.3802 63.0642 51.4633 63.1184 51.57C63.1727 51.6767 63.1892 51.8009 63.1681 51.9426H62.6991ZM63.7988 53.6037L64.183 51.2625H65.7427L65.6748 51.6706H64.6046L64.5141 52.2285H65.5042L65.4364 52.6366H64.4464L64.3559 53.1956H65.4307L65.363 53.6037H63.7988ZM66.2885 53.6037L66.673 51.2625H67.1623L66.8454 53.1956H67.838L67.7703 53.6037H66.2885ZM68.6356 53.6037L69.0195 51.2625H69.5088L69.1926 53.1956H70.1851L70.1168 53.6037H68.6356ZM71.856 51.2625L71.4714 53.6037H70.9821L71.3667 51.2625H71.856ZM74.7356 51.2625L74.351 53.6037H73.9287L73.1655 52.1302H73.1476L72.9043 53.6037H72.415L72.7995 51.2625H73.2292L73.9883 52.7349H74.0076L74.2483 51.2625H74.7356ZM77.0914 52.0192C77.0854 51.9636 77.0722 51.9145 77.0529 51.8718C77.0337 51.8284 77.0079 51.7917 76.9747 51.762C76.9415 51.7316 76.9011 51.7083 76.854 51.6923C76.8063 51.6763 76.7513 51.6683 76.6889 51.6683C76.5709 51.6683 76.4602 51.6981 76.3567 51.7575C76.254 51.8169 76.1671 51.9034 76.0942 52.017C76.0219 52.1298 75.9728 52.2677 75.9463 52.4308C75.9191 52.5939 75.9191 52.7326 75.9463 52.8469C75.9742 52.9612 76.0265 53.0485 76.1035 53.1087C76.181 53.1682 76.2812 53.1979 76.4032 53.1979C76.5139 53.1979 76.6133 53.1781 76.7015 53.1384C76.7897 53.0981 76.8613 53.0413 76.917 52.9681C76.974 52.8949 77.0098 52.8085 77.0258 52.7086L77.1232 52.7234H76.5271L76.5881 52.3508H77.5569L77.5071 52.6457C77.4746 52.8515 77.4037 53.0283 77.2936 53.1761C77.1836 53.324 77.0463 53.4376 76.8819 53.5168C76.7188 53.5961 76.5391 53.6357 76.3441 53.6357C76.1273 53.6357 75.9443 53.5873 75.7958 53.4905C75.6486 53.393 75.5432 53.2547 75.4809 53.0755C75.4192 52.8957 75.4079 52.6823 75.4477 52.4354C75.4789 52.2456 75.5339 52.0764 75.6128 51.9278C75.693 51.7785 75.7905 51.6519 75.9059 51.5483C76.0212 51.4446 76.1485 51.3657 76.2891 51.3116C76.4297 51.2576 76.5762 51.2305 76.7287 51.2305C76.8593 51.2305 76.978 51.2499 77.0848 51.2887C77.1915 51.3269 77.283 51.381 77.3593 51.4511C77.4362 51.5212 77.4939 51.6047 77.533 51.7015C77.5734 51.7975 77.5913 51.9034 77.5887 52.0192H77.0914ZM78.8272 53.2836L78.7921 53.4094C78.7656 53.51 78.7311 53.6102 78.6873 53.71C78.6442 53.8098 78.6011 53.9006 78.5581 53.9821C78.5156 54.0644 78.4811 54.1288 78.4566 54.1753H78.1443C78.1609 54.1318 78.1854 54.0697 78.2179 53.989C78.2511 53.909 78.2849 53.8186 78.3187 53.718C78.3532 53.6174 78.381 53.5153 78.4009 53.4117L78.4294 53.2836H78.8272ZM82.4587 51.9426C82.4627 51.8474 82.4355 51.7738 82.3765 51.7221C82.3182 51.6702 82.2306 51.6443 82.1133 51.6443C82.0331 51.6443 81.9641 51.6557 81.9051 51.6786C81.8467 51.7007 81.7997 51.7316 81.7639 51.7712C81.7294 51.8101 81.7075 51.8551 81.6996 51.9061C81.6909 51.948 81.6936 51.9846 81.7075 52.0158C81.7214 52.0471 81.744 52.0742 81.7738 52.097C81.805 52.1191 81.8414 52.1385 81.8839 52.1553C81.9256 52.1713 81.9707 52.185 82.0185 52.1965L82.2174 52.2468C82.3142 52.2696 82.4017 52.3001 82.4793 52.3382C82.5575 52.3763 82.6232 52.4232 82.6762 52.4788C82.7293 52.5344 82.767 52.6 82.7889 52.6755C82.8108 52.7509 82.8141 52.8374 82.7982 52.935C82.7737 53.0782 82.718 53.2025 82.6298 53.3077C82.5416 53.4121 82.4256 53.4932 82.283 53.5511C82.1398 53.6083 81.974 53.6369 81.7857 53.6369C81.5988 53.6369 81.441 53.6079 81.3117 53.55C81.183 53.4921 81.0895 53.4063 81.0305 53.2928C80.9722 53.1785 80.9549 53.0371 80.9782 52.8686H81.4522C81.4436 52.9472 81.4549 53.0127 81.486 53.0653C81.5179 53.1171 81.5649 53.1563 81.6273 53.183C81.6896 53.2089 81.7632 53.2219 81.8474 53.2219C81.931 53.2219 82.0052 53.2097 82.0702 53.1853C82.1358 53.1609 82.1889 53.127 82.2293 53.0836C82.2704 53.0401 82.295 52.9902 82.3042 52.9338C82.3135 52.8812 82.3056 52.837 82.2804 52.8012C82.2558 52.7653 82.2154 52.7349 82.1604 52.7098C82.1067 52.6839 82.039 52.661 81.9581 52.6411L81.7168 52.5772C81.5298 52.5291 81.3886 52.454 81.2924 52.352C81.197 52.2498 81.1625 52.1123 81.1897 51.9392C81.2142 51.7975 81.2725 51.6736 81.3647 51.5677C81.4582 51.461 81.5762 51.3783 81.7175 51.3197C81.86 51.2602 82.0158 51.2305 82.1842 51.2305C82.356 51.2305 82.5012 51.2606 82.6192 51.3208C82.7379 51.3802 82.8241 51.4633 82.8784 51.57C82.9328 51.6767 82.9494 51.8009 82.9282 51.9426H82.4587ZM83.7868 51.6706L83.8544 51.2625H85.7561L85.6878 51.6706H84.979L84.6627 53.6037H84.1793L84.4956 51.6706H83.7868ZM86.3415 53.6037H85.817L87.0006 51.2625H87.6311L88.0449 53.6037H87.5204L87.2393 51.7975H87.2207L86.3415 53.6037ZM86.4615 52.6835H87.7001L87.6344 53.0698H86.3959L86.4615 52.6835ZM88.8644 53.6037L89.249 51.2625H90.162C90.337 51.2625 90.4809 51.2937 90.5936 51.3562C90.7077 51.4187 90.7872 51.5075 90.8336 51.6226C90.88 51.7369 90.8907 51.8718 90.8661 52.0273C90.8403 52.1827 90.7852 52.3161 90.6997 52.4274C90.6155 52.5387 90.5054 52.6244 90.3702 52.6846C90.2349 52.744 90.0784 52.7737 89.9007 52.7737H89.2894L89.357 52.376H89.8888C89.9816 52.376 90.0619 52.3629 90.1282 52.3371C90.1945 52.3112 90.2468 52.2723 90.2853 52.2204C90.3244 52.1687 90.3503 52.1043 90.3622 52.0273C90.3748 51.9487 90.3702 51.8832 90.3483 51.8306C90.3264 51.7773 90.2873 51.7369 90.2296 51.7095C90.1726 51.6813 90.097 51.6671 90.0035 51.6671H89.674L89.3537 53.6037H88.8644ZM90.2886 52.5383L90.6898 53.6037H90.1494L89.7608 52.5383H90.2886ZM91.7413 51.6706L91.809 51.2625H93.7099L93.6423 51.6706H92.9335L92.6172 53.6037H92.1332L92.4495 51.6706H91.7413ZM97.2519 52.0192C97.2459 51.9636 97.2333 51.9145 97.2134 51.8718C97.1949 51.8284 97.169 51.7917 97.1359 51.762C97.1027 51.7316 97.0623 51.7083 97.0145 51.6923C96.9675 51.6763 96.9124 51.6683 96.8501 51.6683C96.7314 51.6683 96.6207 51.6981 96.5172 51.7575C96.4151 51.8169 96.3276 51.9034 96.2553 52.017C96.1831 52.1298 96.1333 52.2677 96.1075 52.4308C96.0803 52.5939 96.0803 52.7326 96.1075 52.8469C96.1353 52.9612 96.1877 53.0485 96.2646 53.1087C96.3422 53.1682 96.4417 53.1979 96.5637 53.1979C96.6744 53.1979 96.7738 53.1781 96.862 53.1384C96.9502 53.0981 97.0225 53.0413 97.0782 52.9681C97.1345 52.8949 97.171 52.8085 97.1863 52.7086L97.2837 52.7234H96.6883L96.7493 52.3508H97.718L97.6683 52.6457C97.6358 52.8515 97.5642 53.0283 97.4541 53.1761C97.3447 53.324 97.2075 53.4376 97.043 53.5168C96.8793 53.5961 96.7002 53.6357 96.5053 53.6357C96.2878 53.6357 96.1055 53.5873 95.957 53.4905C95.8091 53.393 95.7044 53.2547 95.6414 53.0755C95.5797 52.8957 95.5691 52.6823 95.6089 52.4354C95.64 52.2456 95.6944 52.0764 95.774 51.9278C95.8535 51.7785 95.951 51.6519 96.0664 51.5483C96.1817 51.4446 96.3097 51.3657 96.4496 51.3116C96.5908 51.2576 96.7374 51.2305 96.8892 51.2305C97.0205 51.2305 97.1392 51.2499 97.2453 51.2887C97.352 51.3269 97.4442 51.381 97.5198 51.4511C97.5967 51.5212 97.655 51.6047 97.6941 51.7015C97.7339 51.7975 97.7525 51.9034 97.7492 52.0192H97.2519ZM98.4195 53.6037L98.8041 51.2625H99.7171C99.8921 51.2625 100.036 51.2937 100.149 51.3562C100.263 51.4187 100.342 51.5075 100.388 51.6226C100.435 51.7369 100.446 51.8718 100.421 52.0273C100.395 52.1827 100.34 52.3161 100.255 52.4274C100.171 52.5387 100.061 52.6244 99.9253 52.6846C99.79 52.744 99.6335 52.7737 99.4558 52.7737H98.8445L98.9122 52.376H99.4433C99.5367 52.376 99.617 52.3629 99.6833 52.3371C99.7496 52.3112 99.802 52.2723 99.8404 52.2204C99.8795 52.1687 99.9047 52.1043 99.9173 52.0273C99.9299 51.9487 99.9253 51.8832 99.9034 51.8306C99.8815 51.7773 99.8424 51.7369 99.7847 51.7095C99.7277 51.6813 99.6521 51.6671 99.5586 51.6671H99.2291L98.9088 53.6037H98.4195ZM99.8437 52.5383L100.245 53.6037H99.7045L99.3159 52.5383H99.8437ZM103.382 52.4651C103.34 52.715 103.258 52.9273 103.137 53.1019C103.016 53.2764 102.869 53.409 102.695 53.4997C102.522 53.5904 102.335 53.6357 102.135 53.6357C101.924 53.6357 101.743 53.5873 101.591 53.4905C101.44 53.3938 101.33 53.2539 101.262 53.071C101.194 52.8873 101.182 52.666 101.224 52.4068C101.265 52.1561 101.346 51.9434 101.467 51.7689C101.588 51.5936 101.736 51.4602 101.911 51.3688C102.085 51.2766 102.274 51.2305 102.475 51.2305C102.684 51.2305 102.864 51.2792 103.015 51.3768C103.168 51.4743 103.277 51.6154 103.344 51.7998C103.412 51.9834 103.425 52.2052 103.382 52.4651ZM102.895 52.4068C102.922 52.246 102.921 52.1111 102.892 52.0021C102.864 51.8923 102.813 51.8093 102.739 51.7529C102.664 51.6965 102.57 51.6683 102.455 51.6683C102.332 51.6683 102.219 51.6995 102.115 51.762C102.013 51.8245 101.926 51.9152 101.855 52.0341C101.786 52.1522 101.737 52.2959 101.71 52.4651C101.682 52.6267 101.684 52.7616 101.712 52.8698C101.741 52.978 101.794 53.06 101.869 53.1156C101.945 53.1704 102.04 53.1979 102.153 53.1979C102.276 53.1979 102.388 53.1674 102.49 53.1064C102.592 53.0447 102.678 52.9551 102.749 52.8378C102.819 52.7197 102.867 52.576 102.895 52.4068ZM104.532 53.6037L104.254 51.2625H104.789L104.907 52.8892H104.926L105.614 51.2625H106.072L106.228 52.8926H106.248L106.897 51.2625H107.432L106.385 53.6037H105.908L105.72 52.073H105.702L105.01 53.6037H104.532ZM108.724 51.2625L108.339 53.6037H107.85L108.235 51.2625H108.724ZM111.603 51.2625L111.219 53.6037H110.797L110.033 52.1302H110.015L109.772 53.6037H109.283L109.667 51.2625H110.097L110.856 52.7349H110.875L111.116 51.2625H111.603ZM113.959 52.0192C113.953 51.9636 113.94 51.9145 113.921 51.8718C113.902 51.8284 113.876 51.7917 113.843 51.762C113.809 51.7316 113.77 51.7083 113.722 51.6923C113.674 51.6763 113.619 51.6683 113.557 51.6683C113.439 51.6683 113.328 51.6981 113.225 51.7575C113.122 51.8169 113.035 51.9034 112.962 52.017C112.89 52.1298 112.841 52.2677 112.814 52.4308C112.787 52.5939 112.787 52.7326 112.814 52.8469C112.842 52.9612 112.894 53.0485 112.971 53.1087C113.049 53.1682 113.149 53.1979 113.271 53.1979C113.382 53.1979 113.481 53.1781 113.569 53.1384C113.658 53.0981 113.729 53.0413 113.785 52.9681C113.842 52.8949 113.878 52.8085 113.894 52.7086L113.991 52.7234H113.395L113.456 52.3508H114.425L114.375 52.6457C114.343 52.8515 114.272 53.0283 114.161 53.1761C114.051 53.324 113.914 53.4376 113.75 53.5168C113.587 53.5961 113.408 53.6357 113.212 53.6357C112.995 53.6357 112.812 53.5873 112.664 53.4905C112.516 53.393 112.411 53.2547 112.349 53.0755C112.287 52.8957 112.276 52.6823 112.316 52.4354C112.347 52.2456 112.402 52.0764 112.481 51.9278C112.561 51.7785 112.658 51.6519 112.774 51.5483C112.889 51.4446 113.016 51.3657 113.157 51.3116C113.298 51.2576 113.444 51.2305 113.597 51.2305C113.727 51.2305 113.846 51.2499 113.953 51.2887C114.059 51.3269 114.151 51.381 114.227 51.4511C114.304 51.5212 114.362 51.6047 114.401 51.7015C114.441 51.7975 114.459 51.9034 114.457 52.0192H113.959Z" fill="white"/>
<path d="M22.8808 15.2298H21.8047C21.1164 15.2298 20.5268 15.4784 20.0143 15.9967L20.0105 16.0014L20.006 16.0059C19.5014 16.4893 19.2561 17.065 19.2561 17.7605V45.2355C19.2561 45.7906 19.2866 46.1969 19.3397 46.4694C19.3767 46.6345 19.5152 46.8929 19.8402 47.2514L19.9522 47.3654C20.2308 47.627 20.6394 47.869 21.2038 48.0773L23.6306 48.9222C28.716 50.6743 32.6842 51.9204 35.5402 52.6639L36.1792 52.827L36.1825 52.8276L36.8022 52.9822C39.5665 53.6558 41.9712 54.0205 44.0205 54.0865C41.6839 56.6593 37.7744 56.9854 35.0791 56.8752C32.6896 56.2398 30.1579 55.261 27.4859 53.943L27.4833 53.9411C23.5558 51.9706 21.1359 50.7869 20.2079 50.3801L20.2027 50.3782C16.8676 48.8648 14.1734 48.1162 12.1006 48.0858L11.6428 48.0786V46.6704H12.7189C13.4148 46.6704 13.9868 46.432 14.4626 45.9507L14.4711 45.9422C14.976 45.4583 15.2411 44.8615 15.2681 44.1227V17.7782L15.2604 17.6478C15.2078 17.0037 14.9481 16.463 14.4711 16.0059L14.462 15.9974L14.4536 15.9882C13.9756 15.478 13.4065 15.2298 12.7189 15.2298H11.6428V13.8145H22.8808V15.2298ZM52.8492 52.3554C52.8181 52.3551 52.7868 52.3549 52.7553 52.3547L52.8311 52.326L52.8492 52.3554ZM19.3753 47.4282C19.4111 47.471 19.4495 47.5139 19.4892 47.5579C19.448 47.5122 19.4086 47.4673 19.3714 47.423L19.3753 47.4282ZM18.9162 46.6784C18.9195 46.6884 18.9235 46.6983 18.9272 46.7085C18.9207 46.6904 18.9152 46.6725 18.9097 46.6548L18.9162 46.6784ZM15.5479 45.1281C15.5562 45.1047 15.5653 45.0816 15.5731 45.058L15.577 45.0442C15.5679 45.0725 15.5578 45.1003 15.5479 45.1281ZM15.7208 44.3133C15.7124 44.4133 15.7009 44.5114 15.6845 44.6074L15.7072 44.4548C15.713 44.4082 15.7168 44.3609 15.7208 44.3133ZM15.6845 17.3099C15.7016 17.4071 15.7143 17.5061 15.7227 17.6073L15.7072 17.4566C15.7008 17.407 15.6931 17.3579 15.6845 17.3092V17.3099ZM15.5563 16.8279C15.5793 16.8923 15.6012 16.9573 15.6197 17.0237L15.5776 16.8855C15.5712 16.866 15.5632 16.8471 15.5563 16.8279ZM14.7903 15.6654C14.8648 15.7367 14.935 15.81 15.0007 15.8854L14.8991 15.7734C14.8641 15.7367 14.8275 15.701 14.7903 15.6654ZM14.2237 15.1879C14.3042 15.2397 14.3829 15.2962 14.4594 15.3575L14.3435 15.2691C14.2651 15.2125 14.1844 15.161 14.102 15.1139L14.2237 15.1879ZM21.5042 14.7746C21.4841 14.7765 21.4641 14.7789 21.444 14.7811C21.467 14.7785 21.4901 14.7761 21.5133 14.774L21.5042 14.7746Z" fill="white"/>
</svg>
