<svg width="56" height="61" viewBox="0 0 56 61" fill="none" xmlns="http://www.w3.org/2000/svg">
<path d="M43.8195 16.6899C43.8195 25.427 36.7368 32.5102 27.9997 32.5102C19.2626 32.5102 12.1799 25.4275 12.1799 16.6899C12.1799 7.95378 19.2621 0.870117 27.9997 0.870117C36.7368 0.870117 43.8195 7.95378 43.8195 16.6899Z" fill="#52B3D9"/>
<path d="M55.0412 60.8701H0.95874C0.95874 49.3283 8.19331 39.475 18.377 35.5894L22.4596 42.6597L28.0002 52.2566L33.5403 42.6597L37.6224 35.5894C47.8061 39.475 55.0412 49.3283 55.0412 60.8701Z" fill="#52B3D9"/>
<path d="M20.6776 33.8931C18.1812 34.7356 15.9474 36.0031 14.0288 37.5809L18.7922 41.7738L25.2569 47.4652L20.6776 33.8931Z" fill="#2C3E50"/>
<path d="M35.3847 33.8931C37.8812 34.7356 40.1154 36.0031 42.0335 37.5809L37.2702 41.7738L30.8054 47.4652L35.3847 33.8931Z" fill="#2C3E50"/>
<path d="M30.8589 50.1734L29.3138 37.9949C29.2881 37.7925 29.1535 37.6154 28.9759 37.5205C29.0887 37.472 29.1916 37.3893 29.247 37.2968L30.0119 36.0036C30.1 35.8542 30.0856 35.6197 29.9802 35.4811L28.9586 34.1458C28.8532 34.0083 28.6251 33.896 28.4515 33.896H28.3154C28.1423 33.896 27.8588 33.896 27.6851 33.896H27.5486C27.3754 33.896 27.1474 34.0083 27.042 34.1458L26.0198 35.4811C25.9145 35.6192 25.9011 35.8542 25.9887 36.0036L26.754 37.2968C26.809 37.3898 26.9123 37.472 27.0247 37.5205C26.847 37.6154 26.7125 37.7925 26.6868 37.9949L25.1417 50.1734C25.1036 50.4737 25.1991 50.9333 25.3539 51.195L27.7183 55.1698C27.8731 55.43 28.1274 55.43 28.2823 55.1698L30.6462 51.195C30.8015 50.9333 30.897 50.4737 30.8589 50.1734Z" fill="#0B1014"/>
</svg>
