<svg width="106" height="107" viewBox="0 0 106 107" fill="none" xmlns="http://www.w3.org/2000/svg">
<rect width="150" height="35" transform="translate(24.9497 -24.0251) rotate(45)" fill="#0A3C77"/>
<path d="M52.6619 36.214L59.7895 29.0863L62.6059 31.9027C62.6752 31.972 62.7544 32.0578 62.8435 32.1601C62.9359 32.2591 63.0184 32.3614 63.091 32.467C63.4177 32.9125 63.6091 33.3679 63.6652 33.8331C63.7246 34.3017 63.6635 34.7587 63.482 35.2042C63.3039 35.6464 63.025 36.0572 62.6455 36.4367C62.0945 36.9878 61.4724 37.3227 60.7795 37.4415C60.0898 37.557 59.4167 37.3887 58.76 36.9366L58.369 36.6545L56.1762 34.4618L53.543 37.095L52.6619 36.214ZM56.9038 40.4559L58.3987 36.1496L59.5371 36.7535L57.9136 41.4657L56.9038 40.4559ZM57.0127 33.6253L58.9184 35.5309C58.9811 35.5936 59.0553 35.6612 59.1411 35.7338C59.2302 35.8097 59.3193 35.8757 59.4084 35.9318C59.6889 36.1067 59.9694 36.1958 60.2499 36.1991C60.5369 36.2024 60.8075 36.143 61.0616 36.0209C61.319 35.8955 61.5467 35.7338 61.7447 35.5359C61.9427 35.3379 62.1027 35.1118 62.2248 34.8577C62.3502 34.6004 62.4113 34.3281 62.408 34.041C62.408 33.7572 62.3189 33.4768 62.1407 33.1996C62.0879 33.1072 62.0219 33.0181 61.9427 32.9323C61.8701 32.8465 61.8024 32.7722 61.7397 32.7095L59.8341 30.8039L57.0127 33.6253ZM64.9979 35.9677L65.9087 35.057L66.7897 35.938L65.879 36.8488L64.9979 35.9677ZM58.7068 42.2588L64.0525 36.9131L64.9336 37.7942L59.5878 43.1399L58.7068 42.2588ZM60.3157 48.9165C60.0352 48.636 59.8042 48.3192 59.6227 47.9661C59.4412 47.6131 59.3257 47.2369 59.2762 46.8376C59.2267 46.4449 59.2597 46.0423 59.3752 45.6299L60.6077 46.011C60.479 46.4037 60.4757 46.7798 60.5978 47.1395C60.7232 47.5025 60.9146 47.8127 61.172 48.0701C61.5119 48.41 61.8567 48.6294 62.2065 48.7284C62.553 48.8307 62.9011 48.8125 63.2509 48.674C63.604 48.5387 63.9603 48.2879 64.32 47.9216L65.7802 46.4614L65.8841 46.5654L69.7944 42.6551L70.5765 43.4371L65.1961 48.8175C65.0509 48.9627 64.9057 49.098 64.7606 49.2234C64.6187 49.3521 64.4685 49.4692 64.3101 49.5748C63.8613 49.885 63.4126 50.0599 62.9638 50.0995C62.5117 50.1424 62.0646 50.0615 61.6224 49.8569C61.1769 49.6557 60.7414 49.3422 60.3157 48.9165ZM62.6272 46.4763C62.1289 45.978 61.8254 45.4269 61.7165 44.823C61.6109 44.2159 61.6736 43.6021 61.9045 42.9817C62.1388 42.3647 62.5233 41.7889 63.0578 41.2543C63.5924 40.7197 64.1682 40.3353 64.7853 40.101C65.4057 39.87 66.0161 39.8106 66.6167 39.9228C67.2206 40.0317 67.77 40.3336 68.265 40.8286C68.7698 41.3335 69.0718 41.8796 69.1708 42.467C69.2698 43.0543 69.1939 43.6483 68.9431 44.2489C68.6956 44.8527 68.3029 45.4236 67.765 45.9615C67.2338 46.4928 66.6646 46.8838 66.0574 47.1346C65.4568 47.3854 64.8595 47.4646 64.2656 47.3722C63.6749 47.2765 63.1288 46.9778 62.6272 46.4763ZM63.5429 45.7784C63.9026 46.138 64.2837 46.3476 64.6863 46.407C65.0922 46.4631 65.5014 46.3938 65.9138 46.1991C66.3329 46.0044 66.7372 45.7124 67.1265 45.323C67.5225 44.927 67.8145 44.5228 68.0026 44.1103C68.1973 43.6978 68.265 43.2936 68.2056 42.8976C68.1495 42.4983 67.9465 42.1238 67.5968 41.774C67.2338 41.411 66.8444 41.1998 66.4286 41.1404C66.0161 41.0843 65.6004 41.1503 65.1813 41.3384C64.7655 41.5298 64.3695 41.8136 63.9933 42.1898C63.6139 42.5693 63.3284 42.9702 63.137 43.3926C62.9489 43.8117 62.8813 44.2258 62.9341 44.635C62.9902 45.0474 63.1931 45.4286 63.5429 45.7784ZM68.3453 52.1943C67.814 51.663 67.4757 51.0839 67.3306 50.4569C67.1887 49.8333 67.2266 49.2047 67.4444 48.5711C67.6622 47.9375 68.0466 47.3452 68.5977 46.7941C69.1587 46.2332 69.7559 45.8471 70.3895 45.6359C71.0231 45.4247 71.65 45.395 72.2704 45.5468C72.8941 45.6953 73.4666 46.0302 73.988 46.5516C74.5225 47.0862 74.8624 47.6669 75.0076 48.2939C75.1561 48.9176 75.1198 49.5445 74.8987 50.1748C74.6842 50.8051 74.3014 51.3957 73.7504 51.9468C73.1927 52.5045 72.5971 52.8922 71.9635 53.11C71.3332 53.3245 70.7046 53.3591 70.0777 53.214C69.454 53.0655 68.8765 52.7256 68.3453 52.1943ZM69.1818 51.3578C69.7361 51.9122 70.3334 52.1399 70.9736 52.0409C71.6137 51.9419 72.2275 51.5987 72.8149 51.0113C73.4187 50.4074 73.7619 49.7904 73.8444 49.1601C73.9302 48.5265 73.6992 47.9359 73.1515 47.3881C72.7786 47.0152 72.3875 46.7925 71.9784 46.7199C71.5692 46.6473 71.1567 46.7001 70.7409 46.8783C70.3251 47.0565 69.9226 47.3403 69.5332 47.7296C68.9326 48.3302 68.5894 48.9506 68.5036 49.5907C68.4178 50.2309 68.6439 50.8199 69.1818 51.3578Z" fill="white"/>
</svg>
