<svg width="12" height="13" viewBox="0 0 12 13" fill="none" xmlns="http://www.w3.org/2000/svg">
<path d="M6.00008 0.907227C7.585 0.907227 7.78275 0.91306 8.40458 0.942227C9.02583 0.971393 9.44875 1.06881 9.82091 1.21348C10.2059 1.36164 10.5302 1.56231 10.8546 1.88606C11.1512 2.17767 11.3807 2.5304 11.5272 2.91973C11.6712 3.29131 11.7692 3.71481 11.7984 4.33606C11.8258 4.95789 11.8334 5.15564 11.8334 6.74056C11.8334 8.32548 11.8276 8.52323 11.7984 9.14506C11.7692 9.76631 11.6712 10.1892 11.5272 10.5614C11.3811 10.9509 11.1516 11.3038 10.8546 11.5951C10.5629 11.8916 10.2102 12.1211 9.82091 12.2676C9.44933 12.4117 9.02583 12.5097 8.40458 12.5389C7.78275 12.5663 7.585 12.5739 6.00008 12.5739C4.41516 12.5739 4.21741 12.5681 3.59558 12.5389C2.97433 12.5097 2.55141 12.4117 2.17925 12.2676C1.78977 12.1215 1.43697 11.8919 1.14558 11.5951C0.848902 11.3035 0.619375 10.9507 0.472998 10.5614C0.328331 10.1898 0.230915 9.76631 0.201748 9.14506C0.174331 8.52323 0.166748 8.32548 0.166748 6.74056C0.166748 5.15564 0.172581 4.95789 0.201748 4.33606C0.230915 3.71423 0.328331 3.29189 0.472998 2.91973C0.618969 2.53016 0.84855 2.17733 1.14558 1.88606C1.43706 1.58928 1.78983 1.35974 2.17925 1.21348C2.55141 1.06881 2.97375 0.971393 3.59558 0.942227C4.21741 0.91481 4.41516 0.907227 6.00008 0.907227ZM6.00008 3.82389C5.22653 3.82389 4.48467 4.13118 3.93769 4.67816C3.39071 5.22515 3.08341 5.96701 3.08341 6.74056C3.08341 7.51411 3.39071 8.25597 3.93769 8.80295C4.48467 9.34994 5.22653 9.65723 6.00008 9.65723C6.77363 9.65723 7.51549 9.34994 8.06248 8.80295C8.60946 8.25597 8.91675 7.51411 8.91675 6.74056C8.91675 5.96701 8.60946 5.22515 8.06248 4.67816C7.51549 4.13118 6.77363 3.82389 6.00008 3.82389ZM9.79175 3.67806C9.79175 3.48467 9.71493 3.29921 9.57818 3.16246C9.44143 3.02572 9.25597 2.94889 9.06258 2.94889C8.86919 2.94889 8.68373 3.02572 8.54698 3.16246C8.41024 3.29921 8.33341 3.48467 8.33341 3.67806C8.33341 3.87145 8.41024 4.05691 8.54698 4.19366C8.68373 4.3304 8.86919 4.40723 9.06258 4.40723C9.25597 4.40723 9.44143 4.3304 9.57818 4.19366C9.71493 4.05691 9.79175 3.87145 9.79175 3.67806ZM6.00008 4.99056C6.46421 4.99056 6.90933 5.17493 7.23752 5.50312C7.56571 5.83131 7.75008 6.27643 7.75008 6.74056C7.75008 7.20469 7.56571 7.64981 7.23752 7.978C6.90933 8.30619 6.46421 8.49056 6.00008 8.49056C5.53595 8.49056 5.09083 8.30619 4.76264 7.978C4.43446 7.64981 4.25008 7.20469 4.25008 6.74056C4.25008 6.27643 4.43446 5.83131 4.76264 5.50312C5.09083 5.17493 5.53595 4.99056 6.00008 4.99056Z" fill="white"/>
</svg>
