<svg width="14" height="14" viewBox="0 0 14 14" fill="none" xmlns="http://www.w3.org/2000/svg">
<path d="M7.00008 1.16669C8.585 1.16669 8.78275 1.17252 9.40458 1.20169C10.0258 1.23085 10.4487 1.32827 10.8209 1.47294C11.2059 1.6211 11.5302 1.82177 11.8546 2.14552C12.1512 2.43713 12.3807 2.78986 12.5272 3.17919C12.6712 3.55077 12.7692 3.97427 12.7984 4.59552C12.8258 5.21735 12.8334 5.4151 12.8334 7.00002C12.8334 8.58494 12.8276 8.78269 12.7984 9.40452C12.7692 10.0258 12.6712 10.4487 12.5272 10.8209C12.3811 11.2104 12.1516 11.5632 11.8546 11.8545C11.5629 12.151 11.2102 12.3805 10.8209 12.5271C10.4493 12.6712 10.0258 12.7692 9.40458 12.7984C8.78275 12.8258 8.585 12.8334 7.00008 12.8334C5.41516 12.8334 5.21741 12.8275 4.59558 12.7984C3.97433 12.7692 3.55141 12.6712 3.17925 12.5271C2.78977 12.381 2.43697 12.1514 2.14558 11.8545C1.8489 11.563 1.61937 11.2102 1.473 10.8209C1.32833 10.4493 1.23091 10.0258 1.20175 9.40452C1.17433 8.78269 1.16675 8.58494 1.16675 7.00002C1.16675 5.4151 1.17258 5.21735 1.20175 4.59552C1.23091 3.97369 1.32833 3.55135 1.473 3.17919C1.61897 2.78962 1.84855 2.43679 2.14558 2.14552C2.43706 1.84874 2.78983 1.6192 3.17925 1.47294C3.55141 1.32827 3.97375 1.23085 4.59558 1.20169C5.21741 1.17427 5.41516 1.16669 7.00008 1.16669ZM7.00008 4.08335C6.22653 4.08335 5.48467 4.39064 4.93769 4.93763C4.39071 5.48461 4.08341 6.22647 4.08341 7.00002C4.08341 7.77357 4.39071 8.51543 4.93769 9.06241C5.48467 9.6094 6.22653 9.91669 7.00008 9.91669C7.77363 9.91669 8.51549 9.6094 9.06248 9.06241C9.60946 8.51543 9.91675 7.77357 9.91675 7.00002C9.91675 6.22647 9.60946 5.48461 9.06248 4.93763C8.51549 4.39064 7.77363 4.08335 7.00008 4.08335ZM10.7917 3.93752C10.7917 3.74413 10.7149 3.55867 10.5782 3.42192C10.4414 3.28518 10.256 3.20835 10.0626 3.20835C9.86919 3.20835 9.68373 3.28518 9.54698 3.42192C9.41024 3.55867 9.33341 3.74413 9.33341 3.93752C9.33341 4.13091 9.41024 4.31637 9.54698 4.45312C9.68373 4.58986 9.86919 4.66669 10.0626 4.66669C10.256 4.66669 10.4414 4.58986 10.5782 4.45312C10.7149 4.31637 10.7917 4.13091 10.7917 3.93752ZM7.00008 5.25002C7.46421 5.25002 7.90933 5.43439 8.23752 5.76258C8.56571 6.09077 8.75008 6.53589 8.75008 7.00002C8.75008 7.46415 8.56571 7.90927 8.23752 8.23746C7.90933 8.56565 7.46421 8.75002 7.00008 8.75002C6.53595 8.75002 6.09083 8.56565 5.76264 8.23746C5.43446 7.90927 5.25008 7.46415 5.25008 7.00002C5.25008 6.53589 5.43446 6.09077 5.76264 5.76258C6.09083 5.43439 6.53595 5.25002 7.00008 5.25002Z" fill="#13297E"/>
</svg>
