<svg width="40" height="40" viewBox="0 0 40 40" fill="none" xmlns="http://www.w3.org/2000/svg">
<path d="M26.9834 3.33399L13.0167 3.33399C6.95004 3.33399 3.33337 6.95065 3.33337 13.0173L3.33337 26.9673C3.33337 33.0506 6.95003 36.6673 13.0167 36.6673L26.9667 36.6673C33.0334 36.6673 36.65 33.0507 36.65 26.984L36.65 13.0173C36.6667 6.95066 33.05 3.33399 26.9834 3.33399ZM22.9834 25.0007C23.4667 25.484 23.4667 26.284 22.9834 26.7673C22.7334 27.0173 22.4167 27.134 22.1 27.134C21.7834 27.134 21.4667 27.0173 21.2167 26.7673L15.3334 20.884C14.85 20.4007 14.85 19.6007 15.3334 19.1173L21.2167 13.234C21.7 12.7507 22.5 12.7507 22.9834 13.234C23.4667 13.7173 23.4667 14.5173 22.9834 15.0007L17.9834 20.0007L22.9834 25.0007Z" fill="#172E6C"/>
</svg>
