<svg width="20" height="20" viewBox="0 0 14 14" fill="none" xmlns="http://www.w3.org/2000/svg">
<path d="M3.61516 2.97482C3.61499 3.2995 3.48586 3.61081 3.25616 3.84028C3.02647 4.06975 2.71502 4.19857 2.39034 4.19841C2.06566 4.19825 1.75434 4.06911 1.52488 3.83941C1.29541 3.60972 1.16659 3.29827 1.16675 2.97359C1.16691 2.64891 1.29604 2.3376 1.52574 2.10813C1.75544 1.87866 2.06689 1.74984 2.39156 1.75C2.71624 1.75016 3.02756 1.8793 3.25703 2.10899C3.4865 2.33869 3.61532 2.65014 3.61516 2.97482ZM3.65188 5.10493H1.20347V12.7685H3.65188V5.10493ZM7.52037 5.10493H5.0842V12.7685H7.49588V8.74694C7.49588 6.50665 10.4156 6.29853 10.4156 8.74694V12.7685H12.8334V7.91448C12.8334 4.13781 8.51197 4.27859 7.49588 6.13326L7.52037 5.10493Z" fill="#13297E"/>
</svg>
