<svg width="14" height="15" viewBox="0 0 14 15" fill="none" xmlns="http://www.w3.org/2000/svg">
<path d="M3.61516 3.71505C3.61499 4.03973 3.48586 4.35105 3.25616 4.58051C3.02647 4.80998 2.71502 4.93881 2.39034 4.93864C2.06566 4.93848 1.75434 4.80935 1.52488 4.57965C1.29541 4.34995 1.16659 4.03851 1.16675 3.71383C1.16691 3.38915 1.29604 3.07783 1.52574 2.84836C1.75544 2.61889 2.06689 2.49007 2.39156 2.49023C2.71624 2.4904 3.02756 2.61953 3.25703 2.84923C3.4865 3.07893 3.61532 3.39037 3.61516 3.71505ZM3.65188 5.84517H1.20347V13.5087H3.65188V5.84517ZM7.52037 5.84517H5.0842V13.5087H7.49588V9.48717C7.49588 7.24688 10.4156 7.03877 10.4156 9.48717V13.5087H12.8334V8.65472C12.8334 4.87804 8.51197 5.01883 7.49588 6.8735L7.52037 5.84517Z" fill="white"/>
</svg>
