<svg width="14" height="18" viewBox="0 0 14 18" fill="currentColor" xmlns="http://www.w3.org/2000/svg">
<path d="M7.12731 9.15926C7.5944 9.15926 7.9944 8.9928 8.32731 8.65989C8.65965 8.32755 8.82582 7.92783 8.82582 7.46074C8.82582 6.99365 8.65965 6.59365 8.32731 6.26074C7.9944 5.9284 7.5944 5.76223 7.12731 5.76223C6.66022 5.76223 6.2605 5.9284 5.92816 6.26074C5.59525 6.59365 5.42879 6.99365 5.42879 7.46074C5.42879 7.92783 5.59525 8.32755 5.92816 8.65989C6.2605 8.9928 6.66022 9.15926 7.12731 9.15926ZM7.12731 15.4013C8.85413 13.816 10.1351 12.3757 10.9702 11.0803C11.8053 9.78544 12.2228 8.63555 12.2228 7.63059C12.2228 6.08778 11.7308 4.82437 10.7468 3.84036C9.7634 2.85692 8.55689 2.3652 7.12731 2.3652C5.69772 2.3652 4.49093 2.85692 3.50693 3.84036C2.52349 4.82437 2.03177 6.08778 2.03177 7.63059C2.03177 8.63555 2.44932 9.78544 3.28442 11.0803C4.11952 12.3757 5.40049 13.816 7.12731 15.4013ZM7.12731 17.3334C7.01407 17.3334 6.90084 17.3121 6.7876 17.2697C6.67437 17.2272 6.57529 17.1706 6.49036 17.0998C4.42384 15.2739 2.88102 13.5791 1.86191 12.0153C0.842806 10.451 0.333252 8.98941 0.333252 7.63059C0.333252 5.50745 1.01634 3.81602 2.38251 2.55628C3.74811 1.29655 5.32971 0.666687 7.12731 0.666687C8.9249 0.666687 10.5065 1.29655 11.8721 2.55628C13.2383 3.81602 13.9214 5.50745 13.9214 7.63059C13.9214 8.98941 13.4118 10.451 12.3927 12.0153C11.3736 13.5791 9.83078 15.2739 7.76425 17.0998C7.67932 17.1706 7.58024 17.2272 7.46701 17.2697C7.35378 17.3121 7.24054 17.3334 7.12731 17.3334Z" fill="currentColor"/>
</svg>
