<svg width="115" height="55" viewBox="0 0 115 55" fill="none" xmlns="http://www.w3.org/2000/svg">
<path d="M28.31 25.0469V35.3776C28.31 36.1602 28.3487 36.8906 28.4261 37.5689C28.5293 38.2211 28.6969 38.782 28.929 39.2515C29.1611 39.7211 29.4706 40.0864 29.8575 40.3472C30.2701 40.6081 30.7989 40.7386 31.4436 40.7386C31.9079 40.7386 32.3593 40.6081 32.7977 40.3472C33.2361 40.0864 33.6488 39.7472 34.0357 39.3298C34.4483 38.8863 34.8223 38.3907 35.1576 37.8428C35.5186 37.2689 35.8153 36.682 36.0474 36.0819V33.2644C36.0474 32.2731 36.0087 31.3209 35.9313 30.4079C35.8798 29.4948 35.8024 28.673 35.6992 27.9426C35.596 27.1078 35.4799 26.3252 35.351 25.5947L39.5679 25.0469V34.2427C39.5679 35.208 39.5936 36.1471 39.6453 37.0602C39.7226 37.9733 39.8129 38.795 39.9161 39.5255C39.9934 40.3603 40.0966 41.1429 40.2256 41.8734L36.0474 42.4603V38.469C35.7894 38.9124 35.4671 39.3689 35.0802 39.8385C34.7191 40.3081 34.2678 40.7386 33.7262 41.1299C33.2104 41.5212 32.6043 41.8343 31.9079 42.0691C31.2373 42.3299 30.4507 42.4603 29.548 42.4603C27.9232 42.4603 26.7367 41.9777 25.9888 41.0125C25.2409 40.0212 24.8669 38.7689 24.8669 37.2559V33.2644C24.8669 32.2731 24.8282 31.3209 24.7509 30.4079C24.6992 29.4948 24.6219 28.673 24.5187 27.9426C24.4156 27.1078 24.2995 26.3252 24.1706 25.5947L28.31 25.0469ZM56.072 42.4603V32.1297C56.072 31.3209 56.0204 30.5905 55.9173 29.9383C55.8399 29.2861 55.6851 28.7252 55.453 28.2557C55.2209 27.7861 54.8985 27.4209 54.4858 27.1599C54.0989 26.8991 53.5831 26.7686 52.9384 26.7686C52.4741 26.7686 52.0228 26.8991 51.5843 27.1599C51.1459 27.4209 50.7203 27.773 50.3077 28.2165C49.9208 28.6339 49.5468 29.1296 49.1858 29.7035C48.8504 30.2513 48.5668 30.8253 48.3346 31.4253V34.2427C48.3346 35.208 48.3733 36.1471 48.4507 37.0602C48.5281 37.9733 48.6054 38.795 48.6828 39.5255C48.786 40.3603 48.9021 41.156 49.031 41.9125L44.8528 42.4603V33.2644C44.8528 32.2731 44.8141 31.3209 44.7367 30.4079C44.6852 29.4948 44.6078 28.6861 44.5046 27.9817C44.4015 27.1469 44.2854 26.3643 44.1565 25.6339L48.3346 25.0469V29.0383C48.5926 28.5948 48.9021 28.1383 49.2631 27.6687C49.65 27.1991 50.1013 26.7686 50.6172 26.3774C51.1588 25.986 51.7778 25.673 52.4741 25.4382C53.1705 25.1773 53.97 25.0469 54.8727 25.0469C56.4976 25.0469 57.6839 25.5295 58.4319 26.4947C59.1798 27.46 59.5538 28.7121 59.5538 30.2513V34.2427C59.5538 35.208 59.5796 36.1471 59.6312 37.0602C59.7086 37.9733 59.7988 38.795 59.902 39.5255C59.9794 40.3603 60.0825 41.156 60.2114 41.9125L56.072 42.4603Z" fill="#172E6C"/>
<mask id="mask0_6538_4306" style="mask-type:luminance" maskUnits="userSpaceOnUse" x="23" y="24" width="38" height="20">
<path d="M60.8194 24.2891H23.9444V43.2546H60.8194V24.2891Z" fill="white"/>
<path d="M28.31 25.0469V35.3776C28.31 36.1602 28.3487 36.8906 28.4261 37.5689C28.5293 38.2211 28.6969 38.782 28.929 39.2515C29.1611 39.7211 29.4706 40.0864 29.8575 40.3472C30.2701 40.6081 30.7989 40.7386 31.4436 40.7386C31.9079 40.7386 32.3593 40.6081 32.7977 40.3472C33.2361 40.0864 33.6488 39.7472 34.0357 39.3298C34.4483 38.8863 34.8223 38.3907 35.1576 37.8428C35.5186 37.2689 35.8153 36.682 36.0474 36.0819V33.2644C36.0474 32.2731 36.0087 31.3209 35.9313 30.4079C35.8798 29.4948 35.8024 28.673 35.6992 27.9426C35.596 27.1078 35.4799 26.3252 35.351 25.5947L39.5679 25.0469V34.2427C39.5679 35.208 39.5936 36.1471 39.6453 37.0602C39.7226 37.9733 39.8129 38.795 39.9161 39.5255C39.9934 40.3603 40.0966 41.1429 40.2256 41.8734L36.0474 42.4603V38.469C35.7894 38.9124 35.4671 39.3689 35.0802 39.8385C34.7191 40.3081 34.2678 40.7386 33.7262 41.1299C33.2104 41.5212 32.6043 41.8343 31.9079 42.0691C31.2373 42.3299 30.4507 42.4603 29.548 42.4603C27.9232 42.4603 26.7367 41.9777 25.9888 41.0125C25.2409 40.0212 24.8669 38.7689 24.8669 37.2559V33.2644C24.8669 32.2731 24.8282 31.3209 24.7509 30.4079C24.6992 29.4948 24.6219 28.673 24.5187 27.9426C24.4156 27.1078 24.2995 26.3252 24.1706 25.5947L28.31 25.0469ZM56.072 42.4603V32.1297C56.072 31.3209 56.0204 30.5905 55.9173 29.9383C55.8399 29.2861 55.6851 28.7252 55.453 28.2557C55.2209 27.7861 54.8985 27.4209 54.4858 27.1599C54.0989 26.8991 53.5831 26.7686 52.9384 26.7686C52.4741 26.7686 52.0228 26.8991 51.5843 27.1599C51.1459 27.4209 50.7203 27.773 50.3077 28.2165C49.9208 28.6339 49.5468 29.1296 49.1858 29.7035C48.8504 30.2513 48.5668 30.8253 48.3346 31.4253V34.2427C48.3346 35.208 48.3733 36.1471 48.4507 37.0602C48.5281 37.9733 48.6054 38.795 48.6828 39.5255C48.786 40.3603 48.9021 41.156 49.031 41.9125L44.8528 42.4603V33.2644C44.8528 32.2731 44.8141 31.3209 44.7367 30.4079C44.6852 29.4948 44.6078 28.6861 44.5046 27.9817C44.4015 27.1469 44.2854 26.3643 44.1565 25.6339L48.3346 25.0469V29.0383C48.5926 28.5948 48.9021 28.1383 49.2631 27.6687C49.65 27.1991 50.1013 26.7686 50.6172 26.3774C51.1588 25.986 51.7778 25.673 52.4741 25.4382C53.1705 25.1773 53.97 25.0469 54.8727 25.0469C56.4976 25.0469 57.6839 25.5295 58.4319 26.4947C59.1798 27.46 59.5538 28.7121 59.5538 30.2513V34.2427C59.5538 35.208 59.5796 36.1471 59.6312 37.0602C59.7086 37.9733 59.7988 38.795 59.902 39.5255C59.9794 40.3603 60.0825 41.156 60.2114 41.9125L56.072 42.4603Z" fill="black"/>
</mask>
<g mask="url(#mask0_6538_4306)">
<path d="M28.31 25.046H28.4892V24.8395L28.2867 24.8663L28.31 25.046ZM28.4261 37.5681L28.2479 37.5889L28.2492 37.5967L28.4261 37.5681ZM29.8575 40.3464L29.7581 40.4972L29.7626 40.5001L29.8575 40.3464ZM35.1576 37.842L35.0064 37.7447L35.0052 37.7466L35.1576 37.842ZM36.0474 36.081L36.2142 36.1471L36.2266 36.1152V36.081H36.0474ZM35.9313 30.407L35.7524 30.4174L35.7528 30.4225L35.9313 30.407ZM35.6992 27.9417L35.5214 27.9642L35.5218 27.9673L35.6992 27.9417ZM35.351 25.5939L35.3282 25.4141L35.1416 25.4383L35.1746 25.6257L35.351 25.5939ZM39.5679 25.046H39.747V24.84L39.5451 24.8663L39.5679 25.046ZM39.6452 37.0593L39.4663 37.0697L39.4667 37.0748L39.6452 37.0593ZM39.9161 39.5246L40.0946 39.5077L40.0934 39.499L39.9161 39.5246ZM40.2256 41.8725L40.2502 42.052L40.4346 42.0261L40.4019 41.8407L40.2256 41.8725ZM36.0474 42.4594H35.8682V42.6676L36.072 42.639L36.0474 42.4594ZM36.0474 38.4681H36.2266V37.8025L35.8929 38.3762L36.0474 38.4681ZM35.0802 39.8377L34.9425 39.7216L34.9387 39.7264L35.0802 39.8377ZM33.7262 41.129L33.622 40.9815L33.6187 40.9841L33.7262 41.129ZM31.9079 42.0682L31.8512 41.896L31.8436 41.899L31.9079 42.0682ZM25.9888 41.0116L25.8464 41.1216L25.8478 41.1234L25.9888 41.0116ZM24.7509 30.407L24.5719 30.4174L24.5723 30.4225L24.7509 30.407ZM24.5187 27.9417L24.3409 27.9642L24.3414 27.9673L24.5187 27.9417ZM24.1706 25.5939L24.1473 25.4141L23.9612 25.4388L23.9942 25.6257L24.1706 25.5939ZM28.31 25.046H28.1309V35.3767H28.31H28.4892V25.046H28.31ZM28.31 35.3767H28.1309C28.1309 36.1653 28.1696 36.9027 28.2479 37.5889L28.4261 37.5681L28.6041 37.5473C28.5276 36.8768 28.4892 36.1533 28.4892 35.3767H28.31ZM28.4261 37.5681L28.2492 37.5967C28.3545 38.2626 28.5267 38.842 28.7687 39.3318L28.929 39.2507L29.0892 39.1696C28.8671 38.7202 28.704 38.1779 28.603 37.5394L28.4261 37.5681ZM28.929 39.2507L28.7687 39.3318C29.0132 39.8262 29.3423 40.2169 29.7581 40.4972L29.8575 40.3464L29.9569 40.1956C29.5989 39.9542 29.3091 39.6144 29.0892 39.1696L28.929 39.2507ZM29.8575 40.3464L29.7626 40.5001C30.2115 40.7839 30.7759 40.9189 31.4436 40.9189V40.7377V40.5564C30.8218 40.5564 30.3288 40.4306 29.9524 40.1927L29.8575 40.3464ZM31.4436 40.7377V40.9189C31.9429 40.9189 32.4252 40.7782 32.8885 40.5026L32.7977 40.3464L32.7069 40.1902C32.2932 40.4363 31.8729 40.5564 31.4436 40.5564V40.7377ZM32.7977 40.3464L32.8885 40.5026C33.3432 40.232 33.7691 39.8815 34.1664 39.4529L34.0357 39.3289L33.9052 39.2048C33.5287 39.611 33.129 39.939 32.7069 40.1902L32.7977 40.3464ZM34.0357 39.3289L34.1664 39.4529C34.5877 39.0001 34.9687 38.495 35.3099 37.9374L35.1576 37.842L35.0052 37.7466C34.6759 38.2847 34.3092 38.7706 33.9052 39.2048L34.0357 39.3289ZM35.1576 37.842L35.3087 37.9393C35.6757 37.356 35.9776 36.7586 36.2142 36.1471L36.0474 36.081L35.8805 36.015C35.6529 36.6035 35.3616 37.1801 35.0064 37.7447L35.1576 37.842ZM36.0474 36.081H36.2266V33.2636H36.0474H35.8682V36.081H36.0474ZM36.0474 33.2636H36.2266C36.2266 32.2675 36.1877 31.3101 36.1098 30.3915L35.9313 30.407L35.7528 30.4225C35.8297 31.33 35.8682 32.277 35.8682 33.2636H36.0474ZM35.9313 30.407L36.1102 30.3967C36.0584 29.4796 35.9806 28.6527 35.8766 27.9161L35.6992 27.9417L35.5218 27.9673C35.6241 28.6917 35.701 29.5082 35.7524 30.4174L35.9313 30.407ZM35.6992 27.9417L35.877 27.9192C35.7735 27.0817 35.6569 26.2959 35.5274 25.562L35.351 25.5939L35.1746 25.6257C35.303 26.3527 35.4185 27.1322 35.5214 27.9642L35.6992 27.9417ZM35.351 25.5939L35.3738 25.7736L39.5907 25.2257L39.5679 25.046L39.5451 24.8663L35.3282 25.4141L35.351 25.5939ZM39.5679 25.046H39.3887V34.2419H39.5679H39.747V25.046H39.5679ZM39.5679 34.2419H39.3887C39.3887 35.2104 39.4145 36.153 39.4663 37.0697L39.6452 37.0593L39.8241 37.049C39.7727 36.1396 39.747 35.2039 39.747 34.2419H39.5679ZM39.6452 37.0593L39.4667 37.0748C39.5443 37.9905 39.6349 38.8157 39.7387 39.5503L39.9161 39.5246L40.0934 39.499C39.9908 38.7726 39.9009 37.9543 39.8237 37.0438L39.6452 37.0593ZM39.9161 39.5246L39.7377 39.5415C39.8154 40.3807 39.9192 41.1684 40.0492 41.9044L40.2256 41.8725L40.4019 41.8407C40.2739 41.1157 40.1716 40.3382 40.0946 39.5077L39.9161 39.5246ZM40.2256 41.8725L40.2009 41.693L36.0227 42.28L36.0474 42.4594L36.072 42.639L40.2502 42.052L40.2256 41.8725ZM36.0474 42.4594H36.2266V38.4681H36.0474H35.8682V42.4594H36.0474ZM36.0474 38.4681L35.8929 38.3762C35.6408 38.8098 35.3242 39.2582 34.9425 39.7216L35.0802 39.8377L35.2178 39.9537C35.6098 39.4779 35.9381 39.0134 36.2018 38.5599L36.0474 38.4681ZM35.0802 39.8377L34.9387 39.7264C34.5896 40.1805 34.1514 40.5991 33.622 40.9815L33.7262 41.129L33.8303 41.2765C34.3842 40.8763 34.8486 40.434 35.2216 39.9489L35.0802 39.8377ZM33.7262 41.129L33.6187 40.9841C33.1202 41.3622 32.5317 41.6666 31.8512 41.896L31.9079 42.0682L31.9646 42.2401C32.6767 42 33.3005 41.6785 33.8337 41.274L33.7262 41.129ZM31.9079 42.0682L31.8436 41.899C31.1981 42.1502 30.4341 42.2783 29.548 42.2783V42.4594V42.6407C30.4672 42.6407 31.2766 42.5079 31.9722 42.2373L31.9079 42.0682ZM29.548 42.4594V42.2783C27.9581 42.2783 26.8331 41.8074 26.1298 40.8999L25.9888 41.0116L25.8478 41.1234C26.6404 42.1463 27.8882 42.6407 29.548 42.6407V42.4594ZM25.9888 41.0116L26.1312 40.9017C25.4119 39.9482 25.0461 38.7371 25.0461 37.255H24.8669H24.6877C24.6877 38.7991 25.0699 40.0924 25.8464 41.1216L25.9888 41.0116ZM24.8669 37.255H25.0461V33.2636H24.8669H24.6877V37.255H24.8669ZM24.8669 33.2636H25.0461C25.0461 32.2675 25.0072 31.3101 24.9294 30.3915L24.7509 30.407L24.5723 30.4225C24.6492 31.33 24.6877 32.277 24.6877 33.2636H24.8669ZM24.7509 30.407L24.9297 30.3967C24.8779 29.4796 24.8001 28.6527 24.6961 27.9161L24.5187 27.9417L24.3414 27.9673C24.4437 28.6917 24.5205 29.5082 24.5719 30.4174L24.7509 30.407ZM24.5187 27.9417L24.6965 27.9192C24.593 27.0817 24.4765 26.2959 24.3469 25.562L24.1706 25.5939L23.9942 25.6257C24.1225 26.3527 24.2381 27.1322 24.3409 27.9642L24.5187 27.9417ZM24.1706 25.5939L24.1938 25.7735L28.3332 25.2257L28.31 25.046L28.2867 24.8663L24.1473 25.4141L24.1706 25.5939ZM56.072 42.4594H55.8928V42.666L56.0952 42.6392L56.072 42.4594ZM55.9172 29.9374L55.7392 29.959L55.7403 29.966L55.9172 29.9374ZM54.4858 27.1591L54.3864 27.31L54.3909 27.3128L54.4858 27.1591ZM49.1857 29.7026L49.0346 29.6053L49.0334 29.6073L49.1857 29.7026ZM48.3346 31.4244L48.1678 31.3584L48.1555 31.3902V31.4244H48.3346ZM48.6828 39.5246L48.5046 39.5439L48.5051 39.5471L48.6828 39.5246ZM49.031 41.9117L49.0541 42.0914L49.2393 42.0671L49.2076 41.8809L49.031 41.9117ZM44.8528 42.4594H44.6737V42.6657L44.8759 42.6392L44.8528 42.4594ZM44.7367 30.407L44.5578 30.4174L44.5582 30.4225L44.7367 30.407ZM44.5046 27.9809L44.3268 28.0034L44.3274 28.0074L44.5046 27.9809ZM44.1565 25.633L44.1318 25.4534L43.9474 25.4794L43.9801 25.6648L44.1565 25.633ZM48.3346 25.046H48.5138V24.8379L48.31 24.8665L48.3346 25.046ZM48.3346 29.0374H48.1555V29.7029L48.4891 29.1293L48.3346 29.0374ZM49.2631 27.6678L49.1254 27.5517L49.1217 27.5565L49.2631 27.6678ZM50.6172 26.3765L50.513 26.2289L50.5097 26.2315L50.6172 26.3765ZM52.4741 25.4373L52.5308 25.6093L52.5364 25.6073L52.4741 25.4373ZM59.6312 37.0593L59.4522 37.0697L59.4526 37.0748L59.6312 37.0593ZM59.902 39.5246L60.0806 39.5077L60.0793 39.499L59.902 39.5246ZM60.2114 41.9117L60.2347 42.0913L60.4197 42.0669L60.388 41.8809L60.2114 41.9117ZM56.072 42.4594H56.2511V32.1288H56.072H55.8928V42.4594H56.072ZM56.072 32.1288H56.2511C56.2511 31.3125 56.1991 30.5723 56.0942 29.9088L55.9172 29.9374L55.7403 29.966C55.8417 30.6069 55.8928 31.3276 55.8928 32.1288H56.072ZM55.9172 29.9374L56.0951 29.9158C56.0159 29.2479 55.8566 28.666 55.6132 28.1737L55.453 28.2548L55.2927 28.3358C55.5137 28.7827 55.6636 29.3225 55.7392 29.959L55.9172 29.9374ZM55.453 28.2548L55.6132 28.1737C55.3674 27.6764 55.0233 27.2851 54.5808 27.0054L54.4858 27.1591L54.3909 27.3128C54.7737 27.5548 55.0744 27.894 55.2927 28.3358L55.453 28.2548ZM54.4858 27.1591L54.5852 27.0083C54.1596 26.7213 53.6053 26.5866 52.9384 26.5866V26.7678V26.949C53.561 26.949 54.0383 27.0753 54.3864 27.31L54.4858 27.1591ZM52.9384 26.7678V26.5866C52.4392 26.5866 51.9567 26.7272 51.4935 27.0029L51.5843 27.1591L51.6752 27.3153C52.0888 27.0692 52.5091 26.949 52.9384 26.949V26.7678ZM51.5843 27.1591L51.4935 27.0029C51.038 27.2739 50.5994 27.6376 50.1772 28.0914L50.3077 28.2156L50.4381 28.3399C50.8412 27.9066 51.2537 27.566 51.6752 27.3153L51.5843 27.1591ZM50.3077 28.2156L50.1772 28.0914C49.7814 28.5185 49.4006 29.0236 49.0346 29.6053L49.1857 29.7026L49.3369 29.8C49.6931 29.2338 50.0601 28.7476 50.4381 28.3399L50.3077 28.2156ZM49.1857 29.7026L49.0334 29.6073C48.6924 30.1644 48.4039 30.7482 48.1678 31.3584L48.3346 31.4244L48.5015 31.4905C48.7297 30.9007 49.0085 30.3366 49.3381 29.798L49.1857 29.7026ZM48.3346 31.4244H48.1555V34.2419H48.3346H48.5138V31.4244H48.3346ZM48.3346 34.2419H48.1555C48.1555 35.212 48.1944 36.1563 48.2722 37.0748L48.4507 37.0593L48.6292 37.0438C48.5523 36.1362 48.5138 35.2022 48.5138 34.2419H48.3346ZM48.4507 37.0593L48.2722 37.0748C48.3496 37.9889 48.4271 38.8119 48.5046 39.5439L48.6828 39.5246L48.861 39.5053C48.7837 38.7764 48.7065 37.956 48.6292 37.0438L48.4507 37.0593ZM48.6828 39.5246L48.5051 39.5471C48.6085 40.3844 48.725 41.1829 48.8544 41.9424L49.031 41.9117L49.2076 41.8809C49.0791 41.1273 48.9634 40.3344 48.8606 39.5022L48.6828 39.5246ZM49.031 41.9117L49.008 41.7319L44.8298 42.2798L44.8528 42.4594L44.8759 42.6392L49.0541 42.0914L49.031 41.9117ZM44.8528 42.4594H45.032V33.2636H44.8528H44.6737V42.4594H44.8528ZM44.8528 33.2636H45.032C45.032 32.2675 44.9931 31.3101 44.9153 30.3915L44.7367 30.407L44.5582 30.4225C44.6352 31.33 44.6737 32.277 44.6737 33.2636H44.8528ZM44.7367 30.407L44.9156 30.3967C44.8638 29.4796 44.786 28.6653 44.6819 27.9543L44.5046 27.9809L44.3274 28.0074C44.4296 28.7051 44.5065 29.5083 44.5578 30.4174L44.7367 30.407ZM44.5046 27.9809L44.6824 27.9584C44.5789 27.1208 44.4624 26.3351 44.3329 25.6011L44.1565 25.633L43.9801 25.6648C44.1084 26.3918 44.224 27.1713 44.3268 28.0034L44.5046 27.9809ZM44.1565 25.633L44.1811 25.8125L48.3593 25.2255L48.3346 25.046L48.31 24.8665L44.1318 25.4534L44.1565 25.633ZM48.3346 25.046H48.1555V29.0374H48.3346H48.5138V25.046H48.3346ZM48.3346 29.0374L48.4891 29.1293C48.7425 28.6935 49.0475 28.2434 49.4046 27.7791L49.2631 27.6678L49.1217 27.5565C48.7566 28.0314 48.4426 28.4944 48.1802 28.9455L48.3346 29.0374ZM49.2631 27.6678L49.4007 27.7838C49.7781 27.3257 50.2192 26.9049 50.7247 26.5215L50.6172 26.3765L50.5097 26.2315C49.9834 26.6307 49.5217 27.0706 49.1254 27.5517L49.2631 27.6678ZM50.6172 26.3765L50.7213 26.5239C51.2469 26.1442 51.8497 25.839 52.5308 25.6093L52.4741 25.4373L52.4174 25.2654C51.7059 25.5053 51.0706 25.8261 50.513 26.2289L50.6172 26.3765ZM52.4741 25.4373L52.5364 25.6073C53.209 25.3553 53.9868 25.2273 54.8727 25.2273V25.046V24.8648C53.9532 24.8648 53.1319 24.9976 52.4119 25.2674L52.4741 25.4373ZM54.8727 25.046V25.2273C56.4626 25.2273 57.5876 25.6981 58.2909 26.6057L58.4319 26.4938L58.5729 26.3821C57.7802 25.3591 56.5325 24.8648 54.8727 24.8648V25.046ZM58.4319 26.4938L58.2909 26.6057C59.0084 27.5316 59.3746 28.7413 59.3746 30.2505H59.5538H59.7329C59.7329 28.6813 59.3513 27.3866 58.5729 26.3821L58.4319 26.4938ZM59.5538 30.2505H59.3746V34.2419H59.5538H59.7329V30.2505H59.5538ZM59.5538 34.2419H59.3746C59.3746 35.2104 59.4004 36.153 59.4522 37.0697L59.6312 37.0593L59.8101 37.049C59.7587 36.1396 59.7329 35.2039 59.7329 34.2419H59.5538ZM59.6312 37.0593L59.4526 37.0748C59.5302 37.9905 59.6209 38.8157 59.7246 39.5503L59.902 39.5246L60.0793 39.499C59.9767 38.7726 59.8868 37.9543 59.8097 37.0438L59.6312 37.0593ZM59.902 39.5246L59.7236 39.5415C59.8014 40.3806 59.9051 41.1809 60.0349 41.9424L60.2114 41.9117L60.388 41.8809C60.2599 41.1293 60.1575 40.3383 60.0806 39.5077L59.902 39.5246ZM60.2114 41.9117L60.1882 41.7319L56.0487 42.2798L56.072 42.4594L56.0952 42.6392L60.2347 42.0913L60.2114 41.9117Z" fill="#172E6C"/>
</g>
<path d="M88.975 22.6801H94.6425V24.3293H88.975V36.5016C88.975 38.0461 89.1562 39.1194 89.5187 39.7214C89.8806 40.2973 90.4631 40.5853 91.2656 40.5853C92.0675 40.5853 93.1544 40.3889 94.5262 39.9963V41.4491C92.7144 41.9465 91.2394 42.1951 90.1006 42.1951C86.9437 42.1951 85.365 40.2711 85.365 36.4231V24.3293H82.0262V22.6801H85.365V18.6358L88.975 16.5547V22.6801ZM107.201 42.1935V39.3761C106.53 40.4717 105.821 41.2152 105.073 41.6066C104.325 41.9979 103.371 42.1935 102.21 42.1935C101.566 42.1935 100.934 42.1283 100.314 41.9979C99.6956 41.8935 99.1412 41.6848 98.6512 41.3718C98.1869 41.0587 97.8125 40.6544 97.5287 40.1587C97.2456 39.6369 97.1037 38.9848 97.1037 38.2021C97.1037 37.2108 97.3225 36.389 97.7612 35.7369C98.2256 35.0586 98.8056 34.5107 99.5019 34.0933C100.224 33.6498 101.011 33.2976 101.862 33.0368C102.713 32.7759 103.526 32.5672 104.299 32.4107C104.583 32.3324 104.892 32.2542 105.227 32.1759C105.563 32.0976 105.872 31.9933 106.156 31.8628C106.466 31.7324 106.724 31.5759 106.93 31.3932C107.136 31.1846 107.239 30.9367 107.239 30.6497C107.239 29.9193 107.214 29.2541 107.162 28.6541C107.111 28.0541 106.981 27.5453 106.775 27.128C106.594 26.6844 106.324 26.3453 105.962 26.1105C105.602 25.8496 105.112 25.7192 104.492 25.7192C103.925 25.7192 103.293 25.9018 102.597 26.2671C101.926 26.6062 101.282 27.0106 100.662 27.4801C100.069 27.9236 99.5537 28.3541 99.115 28.7715C98.6769 29.1628 98.4187 29.3976 98.3412 29.4758L97.8387 25.7975C97.9419 25.7714 98.2125 25.7062 98.6512 25.6018C99.0894 25.4974 99.6312 25.3931 100.276 25.2887C100.921 25.1583 101.63 25.0409 102.404 24.9366C103.177 24.8323 103.938 24.78 104.686 24.78C106.749 24.78 108.258 25.1975 109.212 26.0323C110.192 26.841 110.682 28.2627 110.682 30.2976V33.9368C110.682 34.9281 110.721 35.8803 110.799 36.7934C110.876 37.7065 110.966 38.5152 111.069 39.2196C111.172 40.0805 111.289 40.8761 111.417 41.6066L107.201 42.1935ZM103.487 40.55C104.028 40.55 104.518 40.4196 104.957 40.1587C105.421 39.8978 105.821 39.5717 106.156 39.1804C106.491 38.763 106.749 38.2934 106.93 37.7717C107.111 37.2499 107.201 36.7282 107.201 36.2064V32.215C106.969 32.5542 106.53 32.8411 105.886 33.0759C105.266 33.2846 104.686 33.4673 104.144 33.6238C103.242 33.9107 102.481 34.3803 101.862 35.0325C101.269 35.6847 100.972 36.5195 100.972 37.5369C100.972 38.3456 101.166 39.05 101.552 39.65C101.965 40.25 102.61 40.55 103.487 40.55Z" fill="#172E6C"/>
<mask id="mask1_6538_4306" style="mask-type:luminance" maskUnits="userSpaceOnUse" x="81" y="15" width="31" height="28">
<path d="M111.875 15.8047H81.25V42.9886H111.875V15.8047Z" fill="white"/>
<path d="M88.975 22.6801H94.6425V24.3293H88.975V36.5016C88.975 38.0461 89.1562 39.1194 89.5187 39.7214C89.8806 40.2973 90.4631 40.5853 91.2656 40.5853C92.0675 40.5853 93.1544 40.3889 94.5262 39.9963V41.4491C92.7144 41.9465 91.2394 42.1951 90.1006 42.1951C86.9437 42.1951 85.365 40.2711 85.365 36.4231V24.3293H82.0262V22.6801H85.365V18.6358L88.975 16.5547V22.6801ZM107.201 42.1935V39.3761C106.53 40.4717 105.821 41.2152 105.073 41.6066C104.325 41.9979 103.371 42.1935 102.21 42.1935C101.566 42.1935 100.934 42.1283 100.314 41.9979C99.6956 41.8935 99.1412 41.6848 98.6512 41.3718C98.1869 41.0587 97.8125 40.6544 97.5287 40.1587C97.2456 39.6369 97.1037 38.9848 97.1037 38.2021C97.1037 37.2108 97.3225 36.389 97.7612 35.7369C98.2256 35.0586 98.8056 34.5107 99.5019 34.0933C100.224 33.6498 101.011 33.2976 101.862 33.0368C102.713 32.7759 103.526 32.5672 104.299 32.4107C104.583 32.3324 104.892 32.2542 105.227 32.1759C105.563 32.0976 105.872 31.9933 106.156 31.8628C106.466 31.7324 106.724 31.5759 106.93 31.3932C107.136 31.1846 107.239 30.9367 107.239 30.6497C107.239 29.9193 107.214 29.2541 107.162 28.6541C107.111 28.0541 106.981 27.5453 106.775 27.128C106.594 26.6844 106.324 26.3453 105.962 26.1105C105.602 25.8496 105.112 25.7192 104.492 25.7192C103.925 25.7192 103.293 25.9018 102.597 26.2671C101.926 26.6062 101.282 27.0106 100.662 27.4801C100.069 27.9236 99.5537 28.3541 99.115 28.7715C98.6769 29.1628 98.4187 29.3976 98.3412 29.4758L97.8387 25.7975C97.9419 25.7714 98.2125 25.7062 98.6512 25.6018C99.0894 25.4974 99.6312 25.3931 100.276 25.2887C100.921 25.1583 101.63 25.0409 102.404 24.9366C103.177 24.8323 103.938 24.78 104.686 24.78C106.749 24.78 108.258 25.1975 109.212 26.0323C110.192 26.841 110.682 28.2627 110.682 30.2976V33.9368C110.682 34.9281 110.721 35.8803 110.799 36.7934C110.876 37.7065 110.966 38.5152 111.069 39.2196C111.172 40.0805 111.289 40.8761 111.417 41.6066L107.201 42.1935ZM103.487 40.55C104.028 40.55 104.518 40.4196 104.957 40.1587C105.421 39.8978 105.821 39.5717 106.156 39.1804C106.491 38.763 106.749 38.2934 106.93 37.7717C107.111 37.2499 107.201 36.7282 107.201 36.2064V32.215C106.969 32.5542 106.53 32.8411 105.886 33.0759C105.266 33.2846 104.686 33.4673 104.144 33.6238C103.242 33.9107 102.481 34.3803 101.862 35.0325C101.269 35.6847 100.972 36.5195 100.972 37.5369C100.972 38.3456 101.166 39.05 101.552 39.65C101.965 40.25 102.61 40.55 103.487 40.55Z" fill="black"/>
</mask>
<g mask="url(#mask1_6538_4306)">
<path d="M88.975 22.6795H88.7956V22.8607H88.975V22.6795ZM94.6425 22.6795H94.8219V22.4982H94.6425V22.6795ZM94.6425 24.3286V24.5098H94.8219V24.3286H94.6425ZM88.975 24.3286V24.1474H88.7956V24.3286H88.975ZM89.5188 39.7207L89.3656 39.815L89.3675 39.818L89.5188 39.7207ZM94.5263 39.9956H94.7056V39.756L94.4775 39.8213L94.5263 39.9956ZM94.5263 41.4484L94.5731 41.6234L94.7056 41.5871V41.4484H94.5263ZM85.365 24.3286H85.5438V24.1474H85.365V24.3286ZM82.0263 24.3286H81.8475V24.5098H82.0263V24.3286ZM82.0263 22.6795V22.4982H81.8475V22.6795H82.0263ZM85.365 22.6795V22.8607H85.5438V22.6795H85.365ZM85.365 18.6351L85.2763 18.4777L85.1856 18.5298V18.6351H85.365ZM88.975 16.554H89.1544V16.2422L88.8863 16.3966L88.975 16.554ZM88.975 22.6795V22.8607H94.6425V22.6795V22.4982H88.975V22.6795ZM94.6425 22.6795H94.4638V24.3286H94.6425H94.8219V22.6795H94.6425ZM94.6425 24.3286V24.1474H88.975V24.3286V24.5098H94.6425V24.3286ZM88.975 24.3286H88.7956V36.501H88.975H89.1544V24.3286H88.975ZM88.975 36.501H88.7956C88.7956 38.0477 88.975 39.1664 89.3656 39.815L89.5188 39.7207L89.6719 39.6265C89.3375 39.071 89.1544 38.0432 89.1544 36.501H88.975ZM89.5188 39.7207L89.3675 39.818C89.7694 40.4567 90.4156 40.7658 91.2656 40.7658V40.5846V40.4034C90.5113 40.4034 89.9925 40.1366 89.67 39.6234L89.5188 39.7207ZM91.2656 40.5846V40.7658C92.0925 40.7658 93.1975 40.5643 94.575 40.17L94.5263 39.9956L94.4775 39.8213C93.1113 40.2123 92.0431 40.4034 91.2656 40.4034V40.5846ZM94.5263 39.9956H94.3469V41.4484H94.5263H94.7056V39.9956H94.5263ZM94.5263 41.4484L94.4794 41.2736C92.6744 41.7691 91.2169 42.0133 90.1006 42.0133V42.1945V42.3757C91.2625 42.3757 92.755 42.1226 94.5731 41.6234L94.5263 41.4484ZM90.1006 42.1945V42.0133C88.5594 42.0133 87.4331 41.5453 86.6869 40.6358C85.935 39.7198 85.5438 38.3259 85.5438 36.4224H85.365H85.1856C85.1856 38.367 85.5838 39.8592 86.4113 40.8672C87.2431 41.8817 88.485 42.3757 90.1006 42.3757V42.1945ZM85.365 36.4224H85.5438V24.3286H85.365H85.1856V36.4224H85.365ZM85.365 24.3286V24.1474H82.0263V24.3286V24.5098H85.365V24.3286ZM82.0263 24.3286H82.2056V22.6795H82.0263H81.8475V24.3286H82.0263ZM82.0263 22.6795V22.8607H85.365V22.6795V22.4982H82.0263V22.6795ZM85.365 22.6795H85.5438V18.6351H85.365H85.1856V22.6795H85.365ZM85.365 18.6351L85.4538 18.7925L89.0638 16.7115L88.975 16.554L88.8863 16.3966L85.2763 18.4777L85.365 18.6351ZM88.975 16.554H88.7956V22.6795H88.975H89.1544V16.554H88.975ZM107.201 42.1929H107.021V42.4008L107.225 42.3724L107.201 42.1929ZM107.201 39.3754H107.38V38.7384L107.048 39.28L107.201 39.3754ZM100.314 41.9972L100.351 41.8197L100.344 41.8185L100.314 41.9972ZM98.6513 41.3711L98.5513 41.522L98.555 41.5244L98.6513 41.3711ZM97.5288 40.158L97.3719 40.2454L97.3738 40.2489L97.5288 40.158ZM97.7613 35.7362L97.6138 35.633L97.6131 35.6343L97.7613 35.7362ZM99.5019 34.0927L99.5931 34.2486L99.595 34.2476L99.5019 34.0927ZM104.299 32.41L104.334 32.5877L104.341 32.5865L104.346 32.5849L104.299 32.41ZM106.156 31.8622L106.088 31.6948L106.082 31.6972L106.156 31.8622ZM106.93 31.3926L107.048 31.529L107.053 31.525L107.057 31.5207L106.93 31.3926ZM106.775 27.1273L106.609 27.1963L106.612 27.2024L106.615 27.2084L106.775 27.1273ZM105.963 26.1099L105.859 26.2575L105.866 26.2623L105.963 26.1099ZM102.597 26.2664L102.677 26.4285L102.679 26.4273L102.597 26.2664ZM100.663 27.4794L100.769 27.6252L100.77 27.6245L100.663 27.4794ZM99.115 28.7708L99.2338 28.9068L99.2381 28.9028L99.115 28.7708ZM98.3413 29.4752L98.1638 29.5L98.2131 29.8611L98.4681 29.6033L98.3413 29.4752ZM97.8388 25.7968L97.795 25.621L97.6388 25.6605L97.6613 25.8217L97.8388 25.7968ZM100.276 25.2881L100.304 25.4672L100.311 25.4658L100.276 25.2881ZM109.213 26.0316L109.095 26.1687L109.099 26.172L109.213 26.0316ZM111.069 39.2189L111.248 39.1971L111.247 39.1924L111.069 39.2189ZM111.418 41.6059L111.442 41.7854L111.627 41.7597L111.594 41.574L111.418 41.6059ZM104.957 40.158L104.87 39.9996L104.866 40.0019L104.957 40.158ZM106.156 39.1798L106.292 39.2985L106.295 39.294L106.156 39.1798ZM107.201 32.2144H107.38V31.6342L107.053 32.1112L107.201 32.2144ZM105.886 33.0753L105.942 33.2472L105.946 33.2458L105.886 33.0753ZM104.144 33.6231L104.095 33.4488L104.091 33.4502L104.144 33.6231ZM101.862 35.0318L101.733 34.9063L101.73 34.9091L101.862 35.0318ZM101.553 39.6494L101.403 39.7484L101.406 39.7529L101.553 39.6494ZM107.201 42.1929H107.38V39.3754H107.201H107.021V42.1929H107.201ZM107.201 39.3754L107.048 39.28C106.387 40.3611 105.699 41.0745 104.991 41.445L105.073 41.6059L105.155 41.7669C105.943 41.3547 106.674 40.5811 107.353 39.4708L107.201 39.3754ZM105.073 41.6059L104.991 41.445C104.276 41.8189 103.353 42.0116 102.21 42.0116V42.1929V42.3741C103.389 42.3741 104.374 42.1756 105.155 41.7669L105.073 41.6059ZM102.21 42.1929V42.0116C101.578 42.0116 100.958 41.9475 100.351 41.8197L100.314 41.9972L100.278 42.1746C100.909 42.3076 101.553 42.3741 102.21 42.3741V42.1929ZM100.314 41.9972L100.344 41.8185C99.7463 41.7177 99.215 41.517 98.7469 41.2179L98.6513 41.3711L98.555 41.5244C99.0669 41.8513 99.6444 42.068 100.285 42.176L100.314 41.9972ZM98.6513 41.3711L98.7506 41.2203C98.3094 40.923 97.9544 40.5392 97.6844 40.0672L97.5288 40.158L97.3738 40.2489C97.6713 40.7682 98.0644 41.1933 98.5513 41.522L98.6513 41.3711ZM97.5288 40.158L97.6863 40.0707C97.4206 39.5828 97.2825 38.9629 97.2825 38.2015H97.1038H96.9244C96.9244 39.0054 97.07 39.6898 97.3719 40.2454L97.5288 40.158ZM97.1038 38.2015H97.2825C97.2825 37.2371 97.4956 36.4534 97.9094 35.8381L97.7613 35.7362L97.6131 35.6343C97.15 36.3234 96.9244 37.1832 96.9244 38.2015H97.1038ZM97.7613 35.7362L97.9088 35.8394C98.3581 35.1824 98.9194 34.6526 99.5931 34.2486L99.5019 34.0927L99.4106 33.9368C98.6919 34.3676 98.0925 34.9335 97.6138 35.633L97.7613 35.7362ZM99.5019 34.0927L99.595 34.2476C100.304 33.8124 101.076 33.4663 101.914 33.2096L101.862 33.0362L101.81 32.8627C100.945 33.1278 100.145 33.486 99.4094 33.9378L99.5019 34.0927ZM101.862 33.0362L101.914 33.2096C102.76 32.9502 103.567 32.743 104.334 32.5877L104.299 32.41L104.264 32.2323C103.484 32.3901 102.666 32.6003 101.81 32.8627L101.862 33.0362ZM104.299 32.41L104.346 32.5849C104.628 32.5073 104.934 32.4296 105.268 32.3518L105.228 32.1752L105.188 31.9987C104.85 32.0774 104.538 32.1562 104.252 32.2352L104.299 32.41ZM105.228 32.1752L105.268 32.3518C105.614 32.2711 105.934 32.1631 106.23 32.0272L106.156 31.8622L106.082 31.6972C105.81 31.8222 105.513 31.9228 105.188 31.9987L105.228 32.1752ZM106.156 31.8622L106.225 32.0295C106.549 31.8931 106.824 31.727 107.048 31.529L106.93 31.3926L106.812 31.2562C106.623 31.4234 106.383 31.5703 106.088 31.6948L106.156 31.8622ZM106.93 31.3926L107.057 31.5207C107.296 31.2792 107.419 30.9857 107.419 30.6491H107.239H107.06C107.06 30.8865 106.977 31.0886 106.803 31.2645L106.93 31.3926ZM107.239 30.6491H107.419C107.419 29.9145 107.393 29.2439 107.341 28.6377L107.162 28.6534L106.984 28.6691C107.034 29.263 107.06 29.9228 107.06 30.6491H107.239ZM107.162 28.6534L107.341 28.6377C107.288 28.0212 107.154 27.4891 106.936 27.0463L106.775 27.1273L106.615 27.2084C106.809 27.6003 106.933 28.0855 106.984 28.6691L107.162 28.6534ZM106.775 27.1273L106.941 27.0583C106.748 26.5843 106.455 26.2143 106.059 25.9574L105.963 26.1099L105.866 26.2623C106.193 26.475 106.441 26.7833 106.609 27.1963L106.775 27.1273ZM105.963 26.1099L106.067 25.9624C105.666 25.6724 105.134 25.5373 104.493 25.5373V25.7186V25.8998C105.089 25.8998 105.538 26.0257 105.859 26.2575L105.963 26.1099ZM104.493 25.7186V25.5373C103.888 25.5373 103.227 25.7318 102.514 26.1055L102.597 26.2664L102.679 26.4273C103.359 26.0706 103.963 25.8998 104.493 25.8998V25.7186ZM102.597 26.2664L102.517 26.1043C101.836 26.4485 101.183 26.8586 100.555 27.3345L100.663 27.4794L100.77 27.6245C101.381 27.1612 102.016 26.7626 102.677 26.4285L102.597 26.2664ZM100.663 27.4794L100.556 27.3337C99.9588 27.7806 99.4369 28.2156 98.9925 28.6389L99.115 28.7708L99.2381 28.9028C99.67 28.4913 100.181 28.0654 100.769 27.6252L100.663 27.4794ZM99.115 28.7708L98.9969 28.635C98.5606 29.0241 98.2969 29.2637 98.215 29.347L98.3413 29.4752L98.4681 29.6033C98.5406 29.5301 98.7931 29.3002 99.2338 28.9068L99.115 28.7708ZM98.3413 29.4752L98.5188 29.4503L98.0163 25.772L97.8388 25.7968L97.6613 25.8217L98.1638 29.5L98.3413 29.4752ZM97.8388 25.7968L97.8819 25.9726C97.9838 25.9469 98.2531 25.882 98.6919 25.7775L98.6513 25.6012L98.61 25.4248C98.1719 25.529 97.9 25.5945 97.795 25.621L97.8388 25.7968ZM98.6513 25.6012L98.6919 25.7775C99.125 25.6746 99.6619 25.5711 100.304 25.4672L100.276 25.2881L100.248 25.1091C99.6 25.214 99.0538 25.3191 98.61 25.4248L98.6513 25.6012ZM100.276 25.2881L100.311 25.4658C100.951 25.3363 101.657 25.2195 102.428 25.1156L102.404 24.9359L102.38 24.7563C101.603 24.8611 100.89 24.9791 100.241 25.1104L100.276 25.2881ZM102.404 24.9359L102.428 25.1156C103.194 25.0122 103.946 24.9606 104.686 24.9606V24.7794V24.5982C103.93 24.5982 103.161 24.6509 102.38 24.7563L102.404 24.9359ZM104.686 24.7794V24.9606C106.732 24.9606 108.189 25.3757 109.095 26.1687L109.213 26.0316L109.329 25.8946C108.328 25.018 106.767 24.5982 104.686 24.5982V24.7794ZM109.213 26.0316L109.099 26.172C110.018 26.9302 110.503 28.2845 110.503 30.297H110.683H110.862C110.862 28.2397 110.367 26.7505 109.326 25.8912L109.213 26.0316ZM110.683 30.297H110.503V33.9361H110.683H110.862V30.297H110.683ZM110.683 33.9361H110.503C110.503 34.9323 110.543 35.8896 110.62 36.8082L110.799 36.7928L110.977 36.7773C110.9 35.8697 110.862 34.9227 110.862 33.9361H110.683ZM110.799 36.7928L110.62 36.8082C110.698 37.724 110.788 38.5365 110.892 39.2455L111.069 39.2189L111.247 39.1924C111.144 38.4925 111.054 37.6876 110.977 36.7773L110.799 36.7928ZM111.069 39.2189L110.891 39.2407C110.995 40.1044 111.111 40.9035 111.241 41.6378L111.418 41.6059L111.594 41.574C111.466 40.8474 111.35 40.0552 111.248 39.1971L111.069 39.2189ZM111.418 41.6059L111.393 41.4264L107.176 42.0134L107.201 42.1929L107.225 42.3724L111.442 41.7854L111.418 41.6059ZM103.487 40.5493V40.7306C104.058 40.7306 104.58 40.5926 105.048 40.3142L104.957 40.158L104.866 40.0019C104.457 40.2453 103.999 40.3682 103.487 40.3682V40.5493ZM104.957 40.158L105.044 40.3164C105.526 40.0457 105.942 39.7064 106.292 39.2985L106.156 39.1798L106.021 39.0611C105.7 39.4358 105.316 39.7486 104.87 39.9996L104.957 40.158ZM106.156 39.1798L106.295 39.294C106.644 38.86 106.912 38.3718 107.099 37.8309L106.93 37.771L106.761 37.7112C106.587 38.2137 106.339 38.6648 106.017 39.0655L106.156 39.1798ZM106.93 37.771L107.099 37.8309C107.286 37.2911 107.38 36.7491 107.38 36.2058H107.201H107.021C107.021 36.706 106.935 37.2075 106.761 37.7112L106.93 37.771ZM107.201 36.2058H107.38V32.2144H107.201H107.021V36.2058H107.201ZM107.201 32.2144L107.053 32.1112C106.853 32.4046 106.456 32.6749 105.824 32.9047L105.886 33.0753L105.946 33.2458C106.604 33.0061 107.084 32.7025 107.348 32.3175L107.201 32.2144ZM105.886 33.0753L105.829 32.9033C105.212 33.1113 104.634 33.2931 104.095 33.4488L104.144 33.6231L104.194 33.7974C104.738 33.64 105.321 33.4567 105.942 33.2472L105.886 33.0753ZM104.144 33.6231L104.091 33.4502C103.161 33.7458 102.374 34.2309 101.733 34.9063L101.862 35.0318L101.991 35.1573C102.588 34.5284 103.323 34.0744 104.198 33.796L104.144 33.6231ZM101.862 35.0318L101.73 34.9091C101.102 35.5997 100.793 36.4806 100.793 37.5362H100.972H101.151C101.151 36.5571 101.436 35.7683 101.994 35.1545L101.862 35.0318ZM100.972 37.5362H100.793C100.793 38.3755 100.994 39.1152 101.403 39.7484L101.553 39.6494L101.703 39.5504C101.337 38.9835 101.151 38.3145 101.151 37.5362H100.972ZM101.553 39.6494L101.406 39.7529C101.859 40.4123 102.566 40.7306 103.487 40.7306V40.5493V40.3682C102.654 40.3682 102.071 40.0865 101.699 39.5459L101.553 39.6494Z" fill="#172E6C"/>
</g>
<path d="M72.3581 33.6162C75.8313 33.6162 80.3425 34.4492 80.3425 38.6867C80.3425 41.5841 77.55 43.6123 73.8975 43.6123C69.9944 43.6123 66.02 41.9101 64.445 40.4251L65.8413 36.7671C67.7744 39.2662 71.2119 42.7793 75.0794 42.7793C77.0488 42.7793 77.8719 41.2944 77.8719 39.8457C77.8719 37.2017 74.6494 36.6585 72.0713 36.6585C69.135 36.6585 66.1994 36.2239 66.1994 33.3265C66.1994 32.0588 66.9869 30.8637 68.5269 30.1393C66.9869 29.1976 66.3069 27.7489 66.3069 25.9742C66.3069 23.3303 68.455 21.3746 70.9975 20.9037C71.4269 18.9118 72.3938 17.8252 73.9331 17.8252C76.905 17.789 80.1994 18.7307 80.1994 18.7307L79.1613 21.6643C78.8031 21.2297 76.5831 18.622 73.9694 18.622C72.7519 18.622 72.1788 19.4912 71.8925 20.7589C75.5444 20.5778 78.8031 22.2438 78.7675 25.938C78.7675 29.4149 75.5444 31.0447 72.2863 31.0447C71.4988 31.0085 70.8181 30.9361 70.1019 30.755C69.4219 30.6101 68.7413 30.7188 68.2044 31.1534C67.8106 31.4431 67.4881 31.8053 67.4881 32.2399C67.4881 33.6524 71.0331 33.6162 72.3581 33.6162ZM72.1075 21.6281C70.2094 21.6281 69.4931 23.4027 69.4931 25.105C69.4931 27.4229 70.1019 30.1393 72.6444 30.1393C74.5419 30.1393 75.4375 28.5819 75.4375 26.5537C75.4375 24.0909 74.7213 21.6281 72.1075 21.6281Z" fill="#172E6C"/>
<path d="M88.6938 12.1836H88.0469C87.745 12.1836 87.5 12.4313 87.5 12.7368V13.3908C87.5 13.5283 87.61 13.6397 87.7462 13.6397H88.3925C88.6944 13.6397 88.9394 13.3919 88.9394 13.0865V12.4325C88.9394 12.295 88.8294 12.1836 88.6938 12.1836Z" fill="#172E6C"/>
<path d="M93.2263 12.0117H92.5794C92.2775 12.0117 92.0325 12.2594 92.0325 12.5649V13.2189C92.0325 13.3564 92.1431 13.4678 92.2787 13.4678H92.925C93.2275 13.4678 93.4725 13.2201 93.4725 12.9145V12.2606C93.4725 12.1232 93.3619 12.0117 93.2263 12.0117Z" fill="#172E6C"/>
<path d="M92.6569 15.7969H91.805C91.4069 15.7969 91.0844 16.1233 91.0844 16.526V17.388C91.0844 17.5692 91.2294 17.716 91.4081 17.716H92.2606C92.6588 17.716 92.9813 17.3895 92.9813 16.9868V16.1249C92.9813 15.9437 92.8363 15.7969 92.6569 15.7969Z" fill="#172E6C"/>
<path d="M91.1481 13.3223H89.9763C89.4294 13.3223 88.9856 13.7709 88.9856 14.3246V15.5094C88.9856 15.7584 89.185 15.9604 89.4312 15.9604H90.6031C91.15 15.9604 91.5938 15.5118 91.5938 14.9581V13.7733C91.5938 13.5241 91.3944 13.3223 91.1481 13.3223Z" fill="#172E6C"/>
<path d="M5.62312 24.0436C10.5704 23.3464 13.5093 25.3355 15.1195 27.6867C16.6174 29.8739 14.8708 32.4172 12.7743 34.0243C7.6432 37.9579 7.57664 44.0504 14.6146 42.4254C14.6904 42.408 14.7519 42.4997 14.6981 42.5564L12.2059 45.1859C12.194 45.1984 12.1768 45.2069 12.1598 45.2093C1.15916 46.84 5.92042 35.7267 12.1649 31.8323C13.5156 30.9899 14.4916 29.274 13.4716 28.0443C11.3428 25.4776 8.0277 25.2479 6.13285 25.5736C5.95472 25.6042 5.81775 25.7439 5.77773 25.9221L4.19272 32.9812C4.13678 33.2304 4.25828 33.4856 4.48572 33.5967L4.80656 33.7534C4.89434 33.7963 4.96906 33.8653 5.00678 33.9562C5.25699 34.5592 4.85999 34.8452 4.57445 34.9671C4.49429 35.0014 4.40493 35.0018 4.32068 34.9798L4.26839 34.9662C3.12835 34.6682 2.43141 33.5049 2.69803 32.3448L4.27774 25.4714C4.29863 25.3805 4.29132 25.2851 4.26172 25.1967C3.79284 23.7961 4.7432 23.8069 5.38393 24.0198C5.4603 24.0453 5.54351 24.0548 5.62312 24.0436Z" fill="#172E6C"/>
<path d="M7.92582 26.8403C8.25732 26.8669 8.68807 27.0425 9.10038 27.2415C9.81757 27.5878 10.4064 28.263 10.3903 29.0667C10.3525 30.9618 8.92325 32.149 7.74482 32.694C7.18132 32.9545 6.65775 33.348 6.3995 33.9177L6.09465 34.5903C5.94617 34.9178 5.56566 35.0647 5.23914 34.9206L5.5251 34.0236C6.0893 32.2538 8.85869 31.6482 9.02594 29.7964C9.10838 28.884 8.40763 27.6881 7.84869 27.0272C7.782 26.9483 7.82344 26.832 7.92582 26.8403Z" fill="#172E6C"/>
<path d="M6.40569 29.2045C6.28388 30.5093 6.8435 29.7664 7.18925 29.6785C7.535 29.5905 7.65763 28.5846 7.57069 28.2349C7.48369 27.8852 7.22006 28.324 6.87431 28.412C6.52856 28.4999 6.31875 28.8547 6.40569 29.2045Z" fill="#172E6C"/>
<path d="M13.3295 21.3115C15.4108 22.9211 15.0722 24.8787 14.4679 25.8198C14.4243 25.8876 14.3358 25.8381 14.3552 25.7597C14.9206 23.478 13.269 22.1461 12.4018 21.8592C10.0901 21.3541 9.17783 20.6064 8.98426 20.2606C8.9717 20.2381 8.97458 20.2103 8.9887 20.1888C10.1411 18.4382 11.113 17.7475 11.5569 17.542C11.6191 17.5132 11.6637 17.5813 11.6245 17.638C10.0481 19.9148 12.2248 20.7017 13.3201 21.3053C13.3234 21.3072 13.3265 21.3092 13.3295 21.3115Z" fill="#172E6C"/>
<path d="M10.3811 23.4311C12.3269 23.3541 13.4385 24.3439 13.7999 25.1863C13.8349 25.2678 14.0196 25.2632 14.0198 25.1743C14.024 23.6034 12.3039 22.5938 11.2067 22.4334C8.90007 21.9099 8.45389 21.5092 8.15614 19.7795C8.14376 19.7078 8.04982 19.6928 8.02107 19.7597C7.6002 20.738 7.30982 22.2977 7.29032 22.8693C7.28932 22.8998 7.3072 22.927 7.33532 22.938C7.92732 23.1697 9.38907 23.4703 10.3811 23.4311Z" fill="#172E6C"/>
<path d="M43.75 53.3848L109.688 53.385" stroke="#1ABC00"/>
<path d="M112.092 49.2681C112.046 49.2323 111.986 49.2167 111.925 49.2247C111.896 49.2284 111.866 49.2377 111.839 49.2521L110.819 49.8163C110.766 49.8462 110.724 49.8952 110.706 49.9526C110.687 50.01 110.692 50.071 110.72 50.1222C110.747 50.1735 110.796 50.2106 110.854 50.2258C110.911 50.2408 110.974 50.2325 111.029 50.2025L111.557 49.9103L111 51.6205L109.984 51.3545C109.956 51.3468 109.926 51.3449 109.896 51.3489C109.865 51.3528 109.836 51.3625 109.809 51.3774C109.782 51.3923 109.758 51.4121 109.739 51.4357C109.719 51.4592 109.704 51.4861 109.695 51.5147L109.161 53.4085C109.151 53.4371 108.923 53.6475 108.926 53.6768C108.928 53.7061 108.995 53.651 109.009 53.6765C108.987 53.584 109.137 53.6032 109.161 53.621C109.184 53.6388 109.197 53.4446 109.226 53.452C109.254 53.4596 109.345 53.693 109.375 53.689C109.375 53.689 109.284 53.6313 109.226 53.452C109.252 53.4371 109.356 53.7126 109.375 53.689C109.394 53.6655 109.641 53.689 109.687 53.689L110.061 51.844L111.077 52.11C111.106 52.1176 111.136 52.1195 111.166 52.1155C111.196 52.1116 111.226 52.1019 111.252 52.087C111.279 52.072 111.303 52.0523 111.323 52.0287C111.342 52.0052 111.357 51.9784 111.366 51.9497L111.991 50.0235L112.262 50.5236C112.289 50.5748 112.337 50.6121 112.396 50.6271C112.453 50.6422 112.516 50.6338 112.571 50.6039C112.624 50.574 112.665 50.5249 112.684 50.4676C112.702 50.4102 112.697 50.3492 112.67 50.298L112.147 49.3324C112.134 49.3074 112.115 49.2855 112.092 49.2681Z" fill="#1ABC00"/>
<path opacity="0.83" d="M45.4098 48.9623C45.4133 48.8726 45.3874 48.8032 45.332 48.7544C45.2773 48.7055 45.1945 48.6811 45.0838 48.6811C45.0085 48.6811 44.9432 48.6919 44.8877 48.7134C44.8324 48.7342 44.788 48.7634 44.7546 48.8007C44.7219 48.8373 44.7017 48.8798 44.6939 48.9279C44.686 48.9674 44.6886 49.0018 44.7013 49.0313C44.7148 49.0608 44.7358 49.0863 44.7642 49.1079C44.7933 49.1287 44.8277 49.147 44.8675 49.1628C44.9073 49.1779 44.9495 49.1908 44.9943 49.2016L45.1818 49.249C45.2734 49.2705 45.3558 49.2993 45.4289 49.3352C45.5028 49.3711 45.5646 49.4153 45.6143 49.4678C45.6647 49.5202 45.7002 49.582 45.7209 49.6531C45.7414 49.7242 45.7443 49.8057 45.7294 49.8977C45.7067 50.0327 45.6537 50.1499 45.5706 50.249C45.4875 50.3474 45.3785 50.4239 45.2436 50.4785C45.1086 50.5324 44.9524 50.5594 44.7749 50.5594C44.5987 50.5594 44.4499 50.532 44.3284 50.4774C44.207 50.4229 44.1186 50.342 44.0632 50.235C44.0085 50.1273 43.9922 49.994 44.0142 49.8352H44.4605C44.4527 49.9092 44.4634 49.971 44.4925 50.0205C44.5224 50.0694 44.5667 50.1064 44.6257 50.1316C44.6846 50.156 44.7539 50.1682 44.8334 50.1682C44.9122 50.1682 44.9822 50.1567 45.0433 50.1337C45.1051 50.1107 45.1552 50.0788 45.1935 50.0378C45.2319 49.9968 45.2553 49.9498 45.2638 49.8966C45.2724 49.8471 45.2649 49.8054 45.2414 49.7717C45.218 49.7378 45.1804 49.7091 45.1286 49.6854C45.0774 49.661 45.0138 49.6395 44.9378 49.6207L44.7099 49.5604C44.5337 49.5152 44.4005 49.4444 44.3104 49.3482C44.2202 49.2519 44.1878 49.1222 44.2134 48.9591C44.2361 48.8255 44.2912 48.7088 44.3785 48.6089C44.4666 48.5084 44.5774 48.4304 44.7109 48.3751C44.8452 48.319 44.9918 48.291 45.1509 48.291C45.3128 48.291 45.4495 48.3194 45.561 48.3762C45.6725 48.4322 45.7539 48.5105 45.805 48.6111C45.8562 48.7117 45.8718 48.8287 45.8519 48.9623H45.4098ZM46.6615 48.7059L46.7254 48.3212H48.5174L48.4534 48.7059H47.7854L47.4872 50.5281H47.0312L47.3295 48.7059H46.6615ZM49.0697 50.5281H48.5754L49.6908 48.3212H50.2852L50.6752 50.5281H50.1809L49.9155 48.8255H49.8985L49.0697 50.5281ZM49.1826 49.6606H50.3502L50.2884 50.0248H49.1208L49.1826 49.6606ZM51.4477 50.5281L51.81 48.3212H52.6708C52.8355 48.3212 52.9712 48.3506 53.0777 48.4096C53.185 48.4685 53.2602 48.5522 53.3036 48.6606C53.3476 48.7684 53.3579 48.8956 53.3345 49.0421C53.3104 49.1887 53.2581 49.3144 53.1779 49.4193C53.0984 49.5242 52.9946 49.6049 52.8668 49.6617C52.7397 49.7177 52.5923 49.7457 52.4247 49.7457H51.8484L51.9122 49.3708H52.413C52.501 49.3708 52.5763 49.3585 52.6388 49.3341C52.7013 49.3097 52.7507 49.273 52.7869 49.2242C52.8239 49.1754 52.848 49.1147 52.8594 49.0421C52.8714 48.9681 52.8672 48.9063 52.8465 48.8568C52.826 48.8065 52.7887 48.7684 52.7347 48.7425C52.6807 48.716 52.6097 48.7026 52.5216 48.7026H52.2106L51.909 50.5281H51.4477ZM52.7901 49.5238L53.1683 50.5281H52.659L52.2926 49.5238H52.7901ZM54.1593 48.7059L54.2232 48.3212H56.0151L55.9512 48.7059H55.2832L54.9849 50.5281H54.529L54.8272 48.7059H54.1593ZM59.1016 48.9623C59.1052 48.8726 59.0792 48.8032 59.0239 48.7544C58.9692 48.7055 58.8864 48.6811 58.7756 48.6811C58.7004 48.6811 58.635 48.6919 58.5796 48.7134C58.5242 48.7342 58.4798 48.7634 58.4464 48.8007C58.4137 48.8373 58.3935 48.8798 58.3857 48.9279C58.3779 48.9674 58.3804 49.0018 58.3932 49.0313C58.4067 49.0608 58.4276 49.0863 58.456 49.1079C58.4851 49.1287 58.5196 49.147 58.5594 49.1628C58.5991 49.1779 58.6414 49.1908 58.6861 49.2016L58.8736 49.249C58.9652 49.2705 59.0476 49.2993 59.1208 49.3352C59.1947 49.3711 59.2564 49.4153 59.3062 49.4678C59.3566 49.5202 59.3921 49.582 59.4127 49.6531C59.4333 49.7242 59.4361 49.8057 59.4212 49.8977C59.3985 50.0327 59.3455 50.1499 59.2625 50.249C59.1794 50.3474 59.0704 50.4239 58.9354 50.4785C58.8005 50.5324 58.6442 50.5594 58.4667 50.5594C58.2905 50.5594 58.1417 50.532 58.0203 50.4774C57.8989 50.4229 57.8104 50.342 57.755 50.235C57.7004 50.1273 57.684 49.994 57.706 49.8352H58.1524C58.1446 49.9092 58.1552 49.971 58.1844 50.0205C58.2142 50.0694 58.2585 50.1064 58.3175 50.1316C58.3765 50.156 58.4457 50.1682 58.5252 50.1682C58.6041 50.1682 58.674 50.1567 58.7351 50.1337C58.7969 50.1107 58.847 50.0788 58.8854 50.0378C58.9237 49.9968 58.9471 49.9498 58.9557 49.8966C58.9642 49.8471 58.9567 49.8054 58.9333 49.7717C58.9099 49.7378 58.8722 49.7091 58.8204 49.6854C58.7692 49.661 58.7057 49.6395 58.6297 49.6207L58.4017 49.5604C58.2256 49.5152 58.0924 49.4444 58.0022 49.3482C57.912 49.2519 57.8797 49.1222 57.9052 48.9591C57.928 48.8255 57.983 48.7088 58.0704 48.6089C58.1584 48.5084 58.2692 48.4304 58.4027 48.3751C58.537 48.319 58.6837 48.291 58.8427 48.291C59.0047 48.291 59.1414 48.3194 59.2529 48.3762C59.3644 48.4322 59.4457 48.5105 59.4969 48.6111C59.548 48.7117 59.5636 48.8287 59.5437 48.9623H59.1016ZM60.1382 50.5281L60.5004 48.3212H61.9705L61.9066 48.7059H60.8977L60.8125 49.2318H61.7457L61.6819 49.6164H60.7486L60.6634 50.1434H61.6765L61.6126 50.5281H60.1382ZM62.485 50.5281L62.8475 48.3212H63.3087L63.01 50.1434H63.9456L63.8819 50.5281H62.485ZM64.6975 50.5281L65.0594 48.3212H65.5206L65.2225 50.1434H66.1581L66.0937 50.5281H64.6975ZM67.7331 48.3212L67.3706 50.5281H66.9094L67.2719 48.3212H67.7331ZM70.4475 48.3212L70.085 50.5281H69.6869L68.9675 49.1391H68.9506L68.7212 50.5281H68.26L68.6225 48.3212H69.0275L69.7431 49.7091H69.7612L69.9881 48.3212H70.4475ZM72.6681 49.0345C72.6625 48.9821 72.65 48.9358 72.6319 48.8956C72.6137 48.8546 72.5894 48.8201 72.5581 48.7921C72.5269 48.7634 72.4887 48.7414 72.4444 48.7263C72.3994 48.7113 72.3475 48.7038 72.2887 48.7038C72.1775 48.7038 72.0731 48.7318 71.9756 48.7878C71.8787 48.8438 71.7969 48.9253 71.7281 49.0324C71.66 49.1387 71.6137 49.2687 71.5887 49.4225C71.5631 49.5762 71.5631 49.707 71.5887 49.8147C71.615 49.9225 71.6644 50.0047 71.7369 50.0615C71.81 50.1175 71.9044 50.1455 72.0194 50.1455C72.1237 50.1455 72.2175 50.1269 72.3006 50.0895C72.3837 50.0515 72.4512 49.9979 72.5037 49.9289C72.5575 49.86 72.5912 49.7785 72.6062 49.6843L72.6981 49.6983H72.1362L72.1937 49.3471H73.1069L73.06 49.625C73.0294 49.8191 72.9625 49.9857 72.8587 50.125C72.755 50.2644 72.6256 50.3715 72.4706 50.4462C72.3169 50.5209 72.1475 50.5583 71.9637 50.5583C71.7594 50.5583 71.5869 50.5126 71.4469 50.4214C71.3081 50.3294 71.2087 50.1991 71.15 50.0302C71.0919 49.8607 71.0812 49.6596 71.1187 49.4268C71.1481 49.2479 71.2 49.0884 71.2744 48.9484C71.35 48.8076 71.4419 48.6883 71.5506 48.5906C71.6594 48.4929 71.7794 48.4185 71.9119 48.3675C72.0444 48.3166 72.1825 48.291 72.3262 48.291C72.4494 48.291 72.5612 48.3093 72.6619 48.346C72.7625 48.3819 72.8487 48.4329 72.9206 48.499C72.9931 48.5651 73.0475 48.6438 73.0844 48.735C73.1225 48.8255 73.1394 48.9253 73.1369 49.0345H72.6681ZM74.3044 50.2264L74.2712 50.3449C74.2462 50.4397 74.2137 50.5342 74.1725 50.6283C74.1319 50.7224 74.0912 50.8079 74.0506 50.8848C74.0106 50.9624 73.9781 51.0231 73.955 51.0669H73.6606C73.6762 51.0259 73.6994 50.9674 73.73 50.8913C73.7612 50.8158 73.7931 50.7307 73.825 50.6358C73.8575 50.541 73.8837 50.4447 73.9025 50.3471L73.9294 50.2264H74.3044ZM77.7275 48.9623C77.7312 48.8726 77.7056 48.8032 77.65 48.7544C77.595 48.7055 77.5125 48.6811 77.4019 48.6811C77.3262 48.6811 77.2612 48.6919 77.2056 48.7134C77.1506 48.7342 77.1062 48.7634 77.0725 48.8007C77.04 48.8373 77.0194 48.8798 77.0119 48.9279C77.0037 48.9674 77.0062 49.0018 77.0194 49.0313C77.0325 49.0608 77.0537 49.0863 77.0819 49.1079C77.1112 49.1287 77.1456 49.147 77.1856 49.1628C77.225 49.1779 77.2675 49.1908 77.3125 49.2016L77.5 49.249C77.5912 49.2705 77.6737 49.2993 77.7469 49.3352C77.8206 49.3711 77.8825 49.4153 77.9325 49.4678C77.9825 49.5202 78.0181 49.582 78.0387 49.6531C78.0594 49.7242 78.0625 49.8057 78.0475 49.8977C78.0244 50.0327 77.9719 50.1499 77.8887 50.249C77.8056 50.3474 77.6962 50.4239 77.5619 50.4785C77.4269 50.5324 77.2706 50.5594 77.0931 50.5594C76.9169 50.5594 76.7681 50.532 76.6462 50.4774C76.525 50.4229 76.4369 50.342 76.3812 50.235C76.3262 50.1273 76.31 49.994 76.3319 49.8352H76.7787C76.7706 49.9092 76.7812 49.971 76.8106 50.0205C76.8406 50.0694 76.885 50.1064 76.9437 50.1316C77.0025 50.156 77.0719 50.1682 77.1512 50.1682C77.23 50.1682 77.3 50.1567 77.3612 50.1337C77.4231 50.1107 77.4731 50.0788 77.5112 50.0378C77.55 49.9968 77.5731 49.9498 77.5819 49.8966C77.5906 49.8471 77.5831 49.8054 77.5594 49.7717C77.5362 49.7378 77.4981 49.7091 77.4462 49.6854C77.3956 49.661 77.3319 49.6395 77.2556 49.6207L77.0281 49.5604C76.8519 49.5152 76.7187 49.4444 76.6281 49.3482C76.5381 49.2519 76.5056 49.1222 76.5312 48.9591C76.5544 48.8255 76.6094 48.7088 76.6962 48.6089C76.7844 48.5084 76.8956 48.4304 77.0287 48.3751C77.1631 48.319 77.31 48.291 77.4687 48.291C77.6306 48.291 77.7675 48.3194 77.8787 48.3762C77.9906 48.4322 78.0719 48.5105 78.1231 48.6111C78.1744 48.7117 78.19 48.8287 78.17 48.9623H77.7275ZM78.9794 48.7059L79.0431 48.3212H80.8356L80.7712 48.7059H80.1031L79.805 50.5281H79.3494L79.6475 48.7059H78.9794ZM81.3875 50.5281H80.8931L82.0087 48.3212H82.6031L82.9931 50.5281H82.4987L82.2337 48.8255H82.2162L81.3875 50.5281ZM81.5006 49.6606H82.6681L82.6062 50.0248H81.4387L81.5006 49.6606ZM83.7656 50.5281L84.1281 48.3212H84.9887C85.1537 48.3212 85.2894 48.3506 85.3956 48.4096C85.5031 48.4685 85.5781 48.5522 85.6219 48.6606C85.6656 48.7684 85.6756 48.8956 85.6525 49.0421C85.6281 49.1887 85.5762 49.3144 85.4956 49.4193C85.4162 49.5242 85.3125 49.6049 85.185 49.6617C85.0575 49.7177 84.91 49.7457 84.7425 49.7457H84.1662L84.23 49.3708H84.7312C84.8187 49.3708 84.8944 49.3585 84.9569 49.3341C85.0194 49.3097 85.0687 49.273 85.105 49.2242C85.1419 49.1754 85.1662 49.1147 85.1775 49.0421C85.1894 48.9681 85.185 48.9063 85.1644 48.8568C85.1437 48.8065 85.1069 48.7684 85.0525 48.7425C84.9987 48.716 84.9275 48.7026 84.8394 48.7026H84.5287L84.2269 50.5281H83.7656ZM85.1081 49.5238L85.4862 50.5281H84.9769L84.6106 49.5238H85.1081ZM86.4775 48.7059L86.5412 48.3212H88.3331L88.2694 48.7059H87.6012L87.3031 50.5281H86.8469L87.145 48.7059H86.4775ZM91.6719 49.0345C91.6662 48.9821 91.6544 48.9358 91.6356 48.8956C91.6181 48.8546 91.5937 48.8201 91.5625 48.7921C91.5312 48.7634 91.4931 48.7414 91.4481 48.7263C91.4037 48.7113 91.3519 48.7038 91.2931 48.7038C91.1812 48.7038 91.0769 48.7318 90.9794 48.7878C90.8831 48.8438 90.8006 48.9253 90.7325 49.0324C90.6644 49.1387 90.6175 49.2687 90.5931 49.4225C90.5675 49.5762 90.5675 49.707 90.5931 49.8147C90.6194 49.9225 90.6687 50.0047 90.7412 50.0615C90.8144 50.1175 90.9081 50.1455 91.0231 50.1455C91.1275 50.1455 91.2212 50.1269 91.3044 50.0895C91.3875 50.0515 91.4556 49.9979 91.5081 49.9289C91.5612 49.86 91.5956 49.7785 91.61 49.6843L91.7019 49.6983H91.1406L91.1981 49.3471H92.1112L92.0644 49.625C92.0337 49.8191 91.9662 49.9857 91.8625 50.125C91.7594 50.2644 91.63 50.3715 91.475 50.4462C91.3206 50.5209 91.1519 50.5583 90.9681 50.5583C90.7631 50.5583 90.5912 50.5126 90.4512 50.4214C90.3119 50.3294 90.2131 50.1991 90.1537 50.0302C90.0956 49.8607 90.0856 49.6596 90.1231 49.4268C90.1525 49.2479 90.2037 49.0884 90.2787 48.9484C90.3537 48.8076 90.4456 48.6883 90.5544 48.5906C90.6631 48.4929 90.7837 48.4185 90.9156 48.3675C91.0487 48.3166 91.1869 48.291 91.33 48.291C91.4537 48.291 91.5656 48.3093 91.6656 48.346C91.7662 48.3819 91.8531 48.4329 91.9244 48.499C91.9969 48.5651 92.0519 48.6438 92.0887 48.735C92.1262 48.8255 92.1437 48.9253 92.1406 49.0345H91.6719ZM92.7725 50.5281L93.135 48.3212H93.9956C94.1606 48.3212 94.2962 48.3506 94.4025 48.4096C94.51 48.4685 94.585 48.5522 94.6281 48.6606C94.6725 48.7684 94.6825 48.8956 94.6594 49.0421C94.635 49.1887 94.5831 49.3144 94.5025 49.4193C94.4231 49.5242 94.3194 49.6049 94.1919 49.6617C94.0644 49.7177 93.9169 49.7457 93.7494 49.7457H93.1731L93.2369 49.3708H93.7375C93.8256 49.3708 93.9012 49.3585 93.9637 49.3341C94.0262 49.3097 94.0756 49.273 94.1119 49.2242C94.1487 49.1754 94.1725 49.1147 94.1844 49.0421C94.1962 48.9681 94.1919 48.9063 94.1712 48.8568C94.1506 48.8065 94.1137 48.7684 94.0594 48.7425C94.0056 48.716 93.9344 48.7026 93.8462 48.7026H93.5356L93.2337 50.5281H92.7725ZM94.115 49.5238L94.4931 50.5281H93.9837L93.6175 49.5238H94.115ZM97.4506 49.4548C97.4106 49.6904 97.3337 49.8905 97.2194 50.0551C97.1056 50.2196 96.9669 50.3445 96.8031 50.43C96.6394 50.5155 96.4637 50.5583 96.2744 50.5583C96.0762 50.5583 95.9056 50.5126 95.7619 50.4214C95.6194 50.3302 95.5162 50.1984 95.4519 50.0259C95.3881 49.8528 95.3762 49.6441 95.4156 49.3999C95.4544 49.1635 95.5306 48.9631 95.645 48.7986C95.7594 48.6333 95.8987 48.5076 96.0637 48.4214C96.2281 48.3345 96.4056 48.291 96.595 48.291C96.7919 48.291 96.9619 48.337 97.1044 48.429C97.2481 48.5209 97.3512 48.6538 97.4144 48.8277C97.4781 49.0008 97.4906 49.2098 97.4506 49.4548ZM96.9912 49.3999C97.0162 49.2483 97.0156 49.1211 96.9881 49.0184C96.9619 48.9149 96.9137 48.8367 96.8437 48.7835C96.7731 48.7303 96.6844 48.7038 96.5769 48.7038C96.4606 48.7038 96.3537 48.7332 96.2562 48.7921C96.16 48.851 96.0781 48.9365 96.0112 49.0486C95.9456 49.1599 95.8994 49.2953 95.8737 49.4548C95.8481 49.6071 95.8494 49.7343 95.8762 49.8363C95.9037 49.9383 95.9531 50.0155 96.0244 50.068C96.0956 50.1197 96.185 50.1455 96.2919 50.1455C96.4075 50.1455 96.5131 50.1168 96.6094 50.0594C96.7056 50.0011 96.7869 49.9167 96.8531 49.8061C96.9194 49.6948 96.965 49.5594 96.9912 49.3999ZM98.5344 50.5281L98.2725 48.3212H98.7762L98.8875 49.8546H98.9056L99.5544 48.3212H99.9856L100.132 49.8578H100.152L100.763 48.3212H101.267L100.281 50.5281H99.8312L99.6544 49.0852H99.6375L98.9844 50.5281H98.5344ZM102.486 48.3212L102.123 50.5281H101.662L102.024 48.3212H102.486ZM105.2 48.3212L104.837 50.5281H104.439L103.72 49.1391H103.703L103.474 50.5281H103.012L103.375 48.3212H103.78L104.496 49.7091H104.514L104.741 48.3212H105.2ZM107.421 49.0345C107.415 48.9821 107.402 48.9358 107.384 48.8956C107.367 48.8546 107.342 48.8201 107.311 48.7921C107.279 48.7634 107.242 48.7414 107.197 48.7263C107.152 48.7113 107.1 48.7038 107.041 48.7038C106.93 48.7038 106.826 48.7318 106.728 48.7878C106.631 48.8438 106.549 48.9253 106.481 49.0324C106.412 49.1387 106.366 49.2687 106.341 49.4225C106.316 49.5762 106.316 49.707 106.341 49.8147C106.367 49.9225 106.417 50.0047 106.489 50.0615C106.562 50.1175 106.657 50.1455 106.772 50.1455C106.876 50.1455 106.97 50.1269 107.053 50.0895C107.136 50.0515 107.204 49.9979 107.256 49.9289C107.31 49.86 107.344 49.7785 107.359 49.6843L107.451 49.6983H106.889L106.946 49.3471H107.859L107.812 49.625C107.782 49.8191 107.715 49.9857 107.611 50.125C107.507 50.2644 107.378 50.3715 107.224 50.4462C107.069 50.5209 106.901 50.5583 106.716 50.5583C106.512 50.5583 106.339 50.5126 106.199 50.4214C106.061 50.3294 105.961 50.1991 105.902 50.0302C105.844 49.8607 105.834 49.6596 105.871 49.4268C105.901 49.2479 105.952 49.0884 106.027 48.9484C106.102 48.8076 106.194 48.6883 106.303 48.5906C106.412 48.4929 106.532 48.4185 106.664 48.3675C106.797 48.3166 106.935 48.291 107.079 48.291C107.202 48.291 107.314 48.3093 107.414 48.346C107.515 48.3819 107.601 48.4329 107.673 48.499C107.746 48.5651 107.8 48.6438 107.837 48.735C107.875 48.8255 107.892 48.9253 107.889 49.0345H107.421Z" fill="#172E6C"/>
<path d="M21.568 14.3576H20.5536C19.9048 14.3576 19.349 14.5919 18.8659 15.0805L18.8623 15.0849L18.8581 15.0892C18.3825 15.5448 18.1513 16.0875 18.1513 16.7431V42.6416C18.1513 43.1649 18.18 43.5479 18.23 43.8047C18.2649 43.9604 18.3955 44.2039 18.7018 44.5419L18.8074 44.6493C19.07 44.8959 19.4551 45.124 19.9872 45.3204L22.2748 46.1168C27.0684 47.7684 30.8089 48.943 33.501 49.6438L34.1034 49.7975L34.1064 49.7981L34.6906 49.9439C37.2963 50.5788 39.563 50.9225 41.4948 50.9848C39.2922 53.41 35.607 53.7174 33.0664 53.6135C30.8139 53.0145 28.4275 52.0919 25.9088 50.8495L25.9064 50.8477C22.2043 48.9903 19.9232 47.8745 19.0484 47.4911L19.0436 47.4892C15.8998 46.0627 13.3602 45.3571 11.4063 45.3284L10.9748 45.3216V43.9943H11.9891C12.6451 43.9943 13.1843 43.7694 13.6328 43.3158L13.6408 43.3078C14.1168 42.8516 14.3666 42.2891 14.3921 41.5927V16.7598L14.3848 16.6369C14.3352 16.0297 14.0904 15.52 13.6408 15.0892L13.6322 15.0811L13.6243 15.0725C13.1738 14.5915 12.6373 14.3576 11.9891 14.3576H10.9748V13.0234H21.568V14.3576ZM49.8169 49.353C49.7875 49.3528 49.7581 49.3525 49.7284 49.3524L49.7998 49.3253L49.8169 49.353ZM18.2636 44.7086C18.2974 44.7489 18.3336 44.7893 18.371 44.8308C18.3321 44.7877 18.295 44.7453 18.2599 44.7036L18.2636 44.7086ZM17.8308 44.0017C17.8339 44.0112 17.8377 44.0206 17.8412 44.0301C17.8351 44.0131 17.8299 43.9961 17.8247 43.9795L17.8308 44.0017ZM14.6558 42.5404C14.6636 42.5184 14.6722 42.4966 14.6796 42.4743L14.6833 42.4613C14.6746 42.4879 14.6651 42.5142 14.6558 42.5404ZM14.8188 41.7724C14.8109 41.8666 14.8 41.9591 14.7846 42.0496L14.8059 41.9057C14.8114 41.8618 14.815 41.8172 14.8188 41.7724ZM14.7846 16.3183C14.8007 16.4099 14.8127 16.5033 14.8206 16.5986L14.8059 16.4566C14.7999 16.4099 14.7926 16.3636 14.7846 16.3177V16.3183ZM14.6637 15.864C14.6854 15.9247 14.7061 15.9859 14.7235 16.0486L14.6838 15.9183C14.6778 15.8999 14.6702 15.8821 14.6637 15.864ZM13.9416 14.7681C14.0119 14.8354 14.0781 14.9045 14.14 14.9756L14.0442 14.87C14.0112 14.8354 13.9768 14.8018 13.9416 14.7681ZM13.4076 14.3181C13.4834 14.367 13.5576 14.4202 13.6298 14.478L13.5205 14.3946C13.4466 14.3413 13.3705 14.2927 13.2929 14.2483L13.4076 14.3181ZM20.2704 13.9285C20.2514 13.9303 20.2325 13.9325 20.2136 13.9347C20.2353 13.9321 20.2571 13.9299 20.2789 13.9279L20.2704 13.9285Z" fill="#172E6C"/>
</svg>
