<svg width="72" height="61" viewBox="0 0 72 61" fill="none" xmlns="http://www.w3.org/2000/svg">
<mask id="mask0_269_3775" style="mask-type:luminance" maskUnits="userSpaceOnUse" x="7" y="0" width="61" height="61">
<path d="M37.3545 60.7832C53.923 60.7832 67.3545 47.3518 67.3545 30.7832C67.3545 14.2147 53.923 0.783203 37.3545 0.783203C20.7859 0.783203 7.35449 14.2147 7.35449 30.7832C7.35449 47.3518 20.7859 60.7832 37.3545 60.7832Z" fill="white"/>
</mask>
<g mask="url(#mask0_269_3775)">
<path d="M60.7586 58.1905C60.2758 59.4771 59.215 60.2473 57.9225 60.2473C57.6201 60.2473 57.3114 60.2074 57.0027 60.1249C56.266 59.9295 55.4287 59.6298 54.8054 58.8873L54.5488 58.5817L54.3226 58.9086C52.9077 60.9286 50.7712 61.6684 48.6718 62.1694C47.8132 62.3743 46.9297 62.5271 46.178 62.6522C43.2287 63.135 40.2765 63.3794 37.4038 63.3794C36.1081 63.3794 34.7999 63.3304 33.5164 63.2298C30.8241 63.0249 27.9391 62.7193 25.0813 61.9124C22.8777 61.2891 21.4352 60.3598 20.4052 58.905L20.1759 58.5809L19.9193 58.8865C19.3082 59.629 18.4645 59.9287 17.7188 60.1241C17.4101 60.2066 17.1014 60.2465 16.8049 60.2465C15.5089 60.2465 14.4485 59.4763 13.9657 58.1838C13.6112 57.2304 13.5776 56.2494 13.8528 55.0023C14.3052 52.9578 14.623 50.8521 14.9285 48.8166L15.0568 47.9761C15.2404 46.7689 15.4114 45.5372 15.5764 44.3486C15.8057 42.6953 16.041 40.9867 16.3189 39.3152C16.4717 38.3741 16.8598 37.4203 17.202 36.5798C18.2474 34.0158 20.1909 32.2523 22.9811 31.3384C24.2618 30.9196 25.6001 30.5805 26.8961 30.2567C27.5135 30.1008 28.1309 29.9449 28.7452 29.7799C29.0598 29.6942 29.3749 29.6026 29.7049 29.5079L30.5485 29.2635L30.3713 28.9303C30.3437 28.8813 30.3286 28.8446 30.3133 28.8174C30.2856 28.7594 30.2584 28.7045 30.2063 28.6492C29.005 27.3962 28.2624 25.7824 27.9387 23.7106C27.8625 23.2246 27.6363 22.9862 27.1531 22.8824C25.8298 22.5981 24.9467 21.4122 24.8547 19.7893C24.7813 18.5422 25.0107 17.8087 25.6186 17.3291L25.7655 17.213L25.7287 17.0299C25.6952 16.8495 25.6585 16.6785 25.6218 16.5103C25.5456 16.1618 25.4749 15.8349 25.4445 15.5112C25.411 15.1721 25.4078 14.8357 25.4046 14.4753C25.4046 14.2459 25.4015 14.017 25.3924 13.7876C25.3648 13.1946 25.0715 12.7639 24.5215 12.5101C23.837 12.1923 23.3814 11.7462 23.1339 11.141C22.978 10.7561 22.9748 10.4012 23.1307 10.1387C23.2804 9.89117 23.5618 9.7384 23.9467 9.69537C25.3707 9.54259 26.7311 9.01675 28.1033 8.08785L28.3753 7.90152C30.0499 6.77089 31.7798 5.60038 33.644 4.73859C34.891 4.16696 36.0552 3.82469 37.2013 3.69639C37.5222 3.66284 37.8432 3.64429 38.1578 3.64429C39.8632 3.64429 41.5224 4.17605 43.0936 5.22417C43.2555 5.33431 43.4328 5.45037 43.5062 5.57275C43.8058 6.06188 44.1907 6.29992 44.6767 6.29992C44.8693 6.29992 45.0833 6.26321 45.3336 6.18978C45.6087 6.10728 45.9297 6.06464 46.287 6.06464C46.5191 6.06464 46.7666 6.0828 47.0204 6.11951C48.7898 6.36703 49.8687 7.51622 50.0582 9.35587C50.1621 10.389 50.0519 11.477 49.9422 12.308C49.8443 13.0659 49.6761 13.8298 49.5174 14.5728C49.4317 14.9672 49.3461 15.3584 49.2699 15.7524C49.0559 16.8494 49.0681 16.9288 49.5632 17.898C50.046 18.8423 50.0551 19.9974 49.5936 21.0092C49.1443 21.9993 48.3343 22.7051 47.3718 22.9436C47.1211 23.0079 46.9072 23.2704 46.846 23.4907C46.7725 23.7414 46.7236 23.998 46.6778 24.2424C46.6533 24.377 46.6257 24.5112 46.5984 24.6427C46.2684 26.1464 45.6084 27.4483 44.6396 28.5118C44.5875 28.5699 44.5389 28.6311 44.4746 28.7167L44.0897 29.2027L44.5113 29.3373C44.6396 29.3799 44.7588 29.4198 44.878 29.4597C45.1287 29.5422 45.3671 29.6215 45.6115 29.6859C46.2013 29.8387 46.7942 29.9824 47.3872 30.1261C48.6493 30.4348 49.9544 30.7526 51.2011 31.156C52.2769 31.5074 53.4047 32.0545 54.4619 32.7391C56.3292 33.9494 57.5487 35.8349 58.1906 38.5028C58.5269 39.8904 58.7377 41.3388 58.9394 42.7418C59.0156 43.2582 59.0891 43.775 59.1716 44.2913C59.3488 45.4129 59.517 46.5376 59.6852 47.6623C60.0428 50.0554 60.4155 52.5306 60.8647 54.9514C61.055 55.9778 61.1743 57.0812 60.7586 58.1905Z" fill="#FBE497"/>
<path d="M38.4334 62.8806C38.208 62.8806 38.0387 62.8202 37.9151 62.6966C37.737 62.5182 37.7149 62.2635 37.7153 62.0614C37.7276 55.7972 37.7299 49.5325 37.7319 43.2682L37.7335 37.7339L38.0292 37.7248C41.4621 37.6151 44.886 34.0325 45.0751 30.3528L45.094 29.9893L45.4485 30.0706C45.7478 30.1389 46.0478 30.2028 46.347 30.2664C47.0118 30.4077 47.6995 30.5542 48.3651 30.7504C49.7066 31.1459 51.0938 31.5549 52.4246 32.0997C54.6728 33.0207 56.3036 34.7242 57.2712 37.1623C57.9826 38.955 58.238 40.8491 58.4855 42.6808L58.54 43.0815C58.666 44.0069 58.784 44.9334 58.902 45.8599C59.3086 49.0473 59.7283 52.3437 60.4819 55.5216C60.705 56.4612 60.6268 57.3399 60.2427 58.208C59.8021 59.2041 58.9565 59.7753 57.923 59.7753C57.7193 59.7753 57.5085 59.7528 57.2961 59.7086C55.4 59.3134 54.4956 58.2906 54.4482 56.49C54.3424 52.4373 53.8679 48.9092 52.9982 45.7044C52.1573 42.6066 53.0092 39.7611 53.8454 37.6285C53.9066 37.4726 53.9709 37.3174 54.0349 37.1627C54.1241 36.9467 54.2137 36.7316 54.2942 36.5125C54.4119 36.1951 54.3724 36.1785 54.3009 36.1485C54.265 36.1331 54.2433 36.1311 54.2338 36.1311C54.2133 36.1311 54.1521 36.1576 54.0349 36.4024C52.3125 40.0126 51.8826 42.9516 52.6405 45.931C53.4174 48.985 53.8537 52.3907 53.9745 56.3435C53.9812 56.5764 54.0218 56.8121 54.0653 57.0616C54.1075 57.3064 54.1513 57.5594 54.1628 57.8196C54.177 58.135 54.0767 58.4903 53.901 58.7461C53.1577 59.8294 52.0555 60.5988 50.4326 61.1673C48.7808 61.746 46.9511 62.1341 44.8382 62.3532C43.4834 62.4933 42.1048 62.5983 40.7713 62.7002C40.0366 62.7562 39.3027 62.8123 38.5688 62.8743C38.5199 62.8786 38.4753 62.8806 38.4334 62.8806Z" fill="#218AE1"/>
<path d="M36.2731 62.8782C33.0123 62.7862 28.727 62.5158 24.4923 61.2296C22.8753 60.7385 21.6835 59.9446 20.8489 58.8022C20.6109 58.4761 20.3961 58.0703 20.6133 57.5306C20.708 57.2949 20.7269 57.0071 20.7325 56.7825C20.8276 52.8478 21.3179 49.0067 22.1888 45.3657C22.7194 43.1474 22.4683 40.8139 21.3977 38.0221C21.2244 37.5697 21.0143 37.0829 20.7554 36.5334L20.7202 36.4584C20.6721 36.3526 20.571 36.1331 20.5086 36.1331C20.4976 36.1331 20.4727 36.1359 20.4297 36.154C20.3381 36.1927 20.3164 36.2018 20.4364 36.5326C20.4518 36.5752 20.4672 36.6175 20.481 36.6581C20.6275 37.0987 20.7775 37.5381 20.9275 37.9775C21.2145 38.8195 21.5118 39.6904 21.7806 40.5565C22.25 42.0681 22.2227 43.7305 21.6957 45.7885C20.8375 49.1381 20.3653 52.7045 20.2911 56.3893C20.2497 58.4481 19.0472 59.6142 16.814 59.7619C16.7824 59.7638 16.7504 59.765 16.7184 59.765C16.159 59.765 15.5523 59.4575 15.1997 59.1527C14.2645 58.3462 13.8847 57.1982 14.1579 56.0032C14.8788 52.8478 15.3213 49.5886 15.7489 46.4363L15.846 45.7182C16.1274 43.6429 16.4188 41.4973 16.7832 39.3975C16.9434 38.4765 17.3003 37.5914 17.6157 36.8109C18.6153 34.3349 20.4972 32.6224 23.2085 31.7207C24.5756 31.2663 25.9948 30.8751 27.3674 30.4969C27.9931 30.3248 28.622 30.1515 29.254 29.9703L29.6232 29.8645L29.6433 30.2478C29.8604 34.3475 33.6123 37.6321 36.6955 37.7225L36.992 37.7315L36.9928 41.2296C36.9956 48.1729 36.9983 55.1158 37.005 62.059C37.0054 62.2324 37.0054 62.4116 36.9202 62.5718C36.8112 62.7756 36.6071 62.8786 36.3126 62.8786L36.2731 62.8782Z" fill="#218AE1"/>
<path d="M26.9045 17.135C26.8105 17.1093 26.7181 17.0845 26.6254 17.0623C26.5476 17.0446 26.4686 17.0296 26.3739 17.0118L25.9689 16.9333C25.9689 16.9333 25.9381 16.1453 25.9266 15.8729C25.9014 15.274 25.8757 14.6771 25.8638 14.079C25.8437 13.0609 25.4817 12.4518 24.6902 12.104C24.006 11.8036 23.5876 11.2884 23.4794 10.6129L23.4399 10.3678L23.6721 10.279C23.706 10.2659 23.7368 10.2521 23.7656 10.2391C23.8458 10.2032 23.9366 10.1617 24.0475 10.1518C25.8927 9.98722 27.396 9.10648 29.0307 8.05915C30.3958 7.18433 32.2039 6.0541 34.0834 5.06835C35.4039 4.37552 36.7079 4.02417 37.9593 4.02417C38.3414 4.02417 38.724 4.05733 39.0963 4.12247C40.1795 4.31196 41.2154 4.71068 42.2694 5.13743C42.9935 5.43035 43.5813 5.9929 43.9693 6.76469C44.0325 6.88983 44.0803 6.88983 44.119 6.88983C44.2054 6.88983 44.327 6.84483 44.4107 6.81088C45.0684 6.54322 45.6755 6.41295 46.2665 6.41295C46.4935 6.41295 46.7213 6.43308 46.9436 6.47177C48.5128 6.74732 49.3821 7.61858 49.6012 9.1353C49.7259 10.0018 49.7192 10.9505 49.5802 11.9556C49.463 12.8051 49.283 13.6551 49.1089 14.4766C48.9995 14.9922 48.8866 15.5259 48.7907 16.0505C48.7311 16.3782 48.5913 17.1449 47.7205 17.1449C47.677 17.1449 47.6308 17.1429 47.5827 17.1393L47.302 17.116C47.302 17.116 47.3008 16.5365 47.2996 16.3845C47.2965 16.028 47.2937 15.6593 47.3064 15.2894C47.3139 15.0608 47.2961 15.0032 47.2886 14.9894C47.2582 14.9598 47.0884 14.9089 46.9392 14.8639C46.5535 14.7474 46.1508 14.4505 45.8627 14.0692C45.6641 13.8063 45.5461 13.5043 45.4316 13.2121C45.3822 13.0858 45.3325 12.9587 45.276 12.8371C45.0684 12.3874 44.796 12.1593 44.4656 12.1593C44.2828 12.1593 44.0755 12.2252 43.8501 12.3551C40.5159 14.2725 36.9451 15.2045 32.9338 15.2045C31.6023 15.2045 30.2052 15.0968 28.7816 14.8844C28.5601 14.8512 28.3367 14.7948 28.1168 14.717C27.9854 14.67 27.8689 14.6467 27.7706 14.6467C27.6166 14.6467 27.559 14.7071 27.5401 14.7269C27.4512 14.8196 27.4086 15.0091 27.4204 15.2602C27.4402 15.6901 27.4504 16.1208 27.4611 16.5511L27.4654 16.7173C27.4678 16.805 27.441 16.8768 27.4232 16.9238L27.4102 16.9609L27.3265 17.2463L26.9045 17.135Z" fill="#2247B1"/>
<path d="M44.3348 29.6336C44.1836 29.4805 44.0312 29.4485 43.9302 29.4485C43.8307 29.4485 43.7336 29.4797 43.6495 29.5385C43.5445 29.6119 43.4288 29.6775 43.3064 29.7469C42.9124 29.97 42.4655 30.2226 42.2524 30.8278L42.2385 30.8673C41.8931 31.8487 41.5354 32.8633 40.9634 33.6848C40.1297 34.8818 38.7902 35.5959 37.3797 35.5959C36.536 35.5959 35.7023 35.3389 34.9672 34.8525C33.854 34.1155 33.1169 33.0243 32.6483 31.4184C32.3953 30.5503 31.989 30.011 31.3349 29.6743L31.3073 29.6534C31.158 29.5503 30.9891 29.4963 30.8181 29.4963C30.3831 29.4963 30.042 29.8401 30.0239 30.2957C30.0124 30.5827 30.0061 30.9155 30.072 31.2364C30.6934 34.2548 33.4505 37.4624 37.3362 37.462C37.8566 37.462 38.3875 37.4028 38.9145 37.2855C40.7163 36.8852 42.2303 35.8122 43.4146 34.0965C44.2247 32.9233 44.6605 31.823 44.7106 30.8152C44.7157 30.3265 44.572 29.8737 44.3348 29.6336Z" fill="#218AE1"/>
<path opacity="0.21" d="M33.291 31.2505C34.6577 31.4408 36.0197 31.7787 37.3817 31.7776C38.7389 31.7764 40.0957 31.4353 41.4293 31.2466C41.1628 33.0495 39.3693 34.8493 37.5111 35.0147C36.6257 35.0936 35.8602 34.6511 35.148 34.1644C34.2973 33.5836 33.4726 32.2438 33.291 31.2505Z" fill="#9B409E"/>
<path d="M27.3659 22.2603C26.78 22.0589 26.2707 21.8189 25.9905 21.2978C25.5258 20.4348 25.3628 19.5134 25.6146 18.5447C25.6348 18.4673 25.6636 18.3907 25.6983 18.3189C25.8653 17.973 26.1053 17.5719 26.5017 17.7089C26.7843 17.8064 26.9632 18.2162 27.174 18.4973C27.2143 18.551 27.1902 18.6536 27.1941 18.7342C27.2498 19.8877 27.3062 21.0408 27.3659 22.2603Z" fill="#FBE497"/>
<path d="M47.3599 22.2326C47.4234 20.9626 47.4807 19.7293 47.5529 18.4968C47.5608 18.3607 47.6405 18.2213 47.7112 18.0969C48.0179 17.5577 48.5023 17.515 48.8501 18.0294C49.0151 18.2734 49.1178 18.5801 49.1746 18.8731C49.4482 20.2875 48.7964 21.6795 47.6627 22.1513C47.5786 22.1864 47.4854 22.1994 47.3599 22.2326Z" fill="#FBE497"/>
<path opacity="0.21" d="M33.2969 23.6582C36.0386 24.4288 38.6883 24.4264 41.4099 23.6653C41.0664 24.8461 40.6693 25.9416 39.7068 26.6707C37.6643 28.2182 37.0535 28.2103 35.0126 26.6672C34.0564 25.9447 33.6747 24.8461 33.2969 23.6582Z" fill="#9B409E"/>
<path opacity="0.21" d="M40.8684 23.4311C39.4409 23.4647 38.1496 24.1496 36.6878 24.15C35.4711 24.1504 34.3539 23.5969 33.14 23.7264C33.1036 23.7303 33.078 23.7584 33.0867 23.7963C33.7613 26.7385 39.4816 25.722 41.1495 24.4698C41.5581 24.1626 41.4728 23.4169 40.8684 23.4311Z" fill="#9B409E"/>
<path opacity="0.21" d="M49.2888 8.0235C48.7448 7.2004 47.5869 6.62482 46.6217 6.54428C46.1582 6.50559 45.058 6.57586 44.5124 6.96116C44.3707 6.65877 43.8954 6.56757 43.7469 6.88536C43.739 6.89089 43.728 6.89089 43.7205 6.89761C43.3001 7.2908 43.0036 7.62991 42.7312 8.14785C42.4671 8.6504 42.2788 9.22361 41.8812 9.64009C41.4304 10.1126 40.9058 10.1162 40.329 10.3199C39.903 10.4699 39.5308 10.7206 39.1917 11.0123C39.1206 11.04 39.0476 11.0676 38.9777 11.0944C38.9264 11.1142 38.9461 11.1951 39.001 11.1785C39.0448 11.1651 39.0878 11.1537 39.1313 11.1406C39.1522 11.1785 39.1964 11.2042 39.2406 11.1773C39.335 11.1193 39.4309 11.0727 39.528 11.0321C40.3953 10.8138 41.2425 10.7561 42.0842 11.2188C42.3727 11.3775 42.6345 11.5468 42.9029 11.6977C40.1731 12.987 37.3998 14.1974 34.3478 14.4772C31.4008 14.7477 27.6722 14.165 25.1839 12.4596C25.0813 12.3893 24.9861 12.5219 25.0292 12.6147C25.4002 13.4137 26.0086 14.0023 26.7472 14.4394C26.4875 14.7966 26.6059 15.2107 26.6971 15.6079C26.7685 15.9182 26.7693 16.2881 26.3426 16.2285C26.2715 16.2186 26.1941 16.2873 26.2411 16.3607C26.5281 16.8123 27.2008 16.7804 27.562 16.4345C27.7069 16.296 27.8013 16.1088 27.8561 15.9115C27.8344 16.6544 27.8123 17.4025 27.8032 18.1502C27.5237 17.5241 26.737 16.8956 26.1586 17.4862C26.082 17.5648 26.0532 17.7073 26.1179 17.8028C26.5972 18.513 26.5747 19.0219 26.6525 19.8548C26.7295 20.6787 26.9525 21.4762 27.2383 22.2491C27.2699 22.3348 27.3871 22.3392 27.4175 22.2491C27.581 21.764 27.7389 21.2164 27.8486 20.6543C28.0192 23.7382 28.7231 26.6994 31.07 29.115C32.396 30.4802 34.2874 30.9543 36.1148 31.1765C36.3011 31.1991 36.4973 31.2239 36.6991 31.248C35.5068 31.3202 34.1678 31.4035 33.1607 30.916C33.0316 30.8536 32.8812 30.9831 32.9582 31.1185C33.7821 32.5669 34.9534 32.6905 36.5368 32.6972C37.8368 32.7027 39.2757 32.6775 40.4352 32.0782C40.3732 32.2282 40.3104 32.3755 40.235 32.5022C39.7337 33.3458 39.0136 34.0777 38.0701 34.4117C36.0173 35.1385 34.4488 33.8472 33.5582 32.081C33.5073 31.9799 33.3285 32.0518 33.3723 32.1595C34.139 34.0264 35.1326 35.9336 37.4728 35.7314C39.5312 35.5538 41.6112 33.7457 41.5717 31.5958C41.5698 31.4865 41.5109 31.3589 41.4205 31.276C41.4853 31.038 41.3222 30.7522 41.0435 30.7609C40.9444 30.764 40.8481 30.779 40.7498 30.7861C40.9748 30.6337 41.1805 30.4494 41.3542 30.2165C41.4644 30.0688 41.2828 29.916 41.141 29.9393C39.2959 30.2409 37.4752 30.1663 35.6225 29.8746C33.1603 29.4869 31.7099 28.3792 30.4577 26.2482C29.3251 24.3209 28.7677 22.5283 28.7219 20.2666C28.695 18.9335 28.9275 17.1345 28.1108 16.0563C28.1163 16.0634 28.1258 16.0587 28.1333 16.0627C28.1388 16.065 28.1388 16.0654 28.1447 16.0658C28.1834 16.0769 28.2276 16.0631 28.2118 16.0137C28.2043 15.9908 28.1968 15.9675 28.1897 15.9446C28.1885 15.9 28.1731 15.8534 28.1475 15.812C28.1309 15.7607 28.1147 15.7093 28.0981 15.658C28.0689 15.5664 27.9647 15.5546 27.9055 15.6039C27.9067 15.5743 27.9122 15.5439 27.9114 15.5147C27.9059 15.3225 27.8459 15.1361 27.8328 14.9455C27.8352 14.9458 27.8376 14.9466 27.8399 14.9474C29.7116 15.6189 32.023 15.6233 33.7011 15.4709C37.3461 15.1405 40.8971 13.861 44.0928 12.094C44.1646 12.0932 44.2372 12.0964 44.3071 12.0786C44.7895 12.6964 45.024 13.4572 45.6126 13.994C45.8503 14.2108 46.264 14.3557 46.4811 14.5759C46.6466 14.7441 46.7721 14.9107 46.8751 15.0781C46.6 14.9253 46.1685 15.0595 46.1337 15.4784C45.9628 17.5375 46.039 19.6219 46.039 21.687C46.039 23.784 46.0516 26.0563 44.4757 27.6437C44.4038 27.716 44.5116 27.8214 44.5866 27.7547C45.8392 26.6378 46.3813 25.2293 46.5873 23.5851C46.6758 22.8784 46.7539 22.1619 46.823 21.4407C46.9264 21.7881 47.0855 22.1043 47.3102 22.3589C47.3899 22.4489 47.5699 22.4071 47.5916 22.2847C47.8143 21.0281 47.4436 19.2623 48.6169 18.3658C49.1514 17.9572 48.6808 17.0567 48.0721 17.4333C47.6137 17.7168 47.2573 18.1925 47.0192 18.7495C47.0768 17.6753 47.112 16.6035 47.1029 15.5495C47.26 15.973 47.3204 16.4184 47.4302 16.9276C47.4527 17.0314 47.6327 17.0397 47.6485 16.9276C47.7397 16.277 48.0409 15.2814 47.7535 14.6588C47.4073 13.9088 46.4302 13.7292 45.9399 13.0825C45.5554 12.5756 45.2285 11.8856 44.8744 11.3562C44.1086 10.2113 44.6198 8.60144 44.5554 7.23316C44.9222 7.19171 45.5815 7.16842 45.6742 7.16723C46.0958 7.16013 46.5175 7.22093 46.9308 7.29949C47.7709 7.45976 48.3358 7.82769 49.0432 8.27063C49.192 8.363 49.3886 8.1743 49.2888 8.0235Z" fill="#9B409E"/>
<path opacity="0.21" d="M45.544 30.2906C45.4429 29.8422 44.6841 29.9298 44.7288 30.4008C44.7426 30.5488 44.7323 30.7 44.7295 30.8504C44.7319 30.6313 44.7224 30.4122 44.6952 30.1943C44.6455 29.7948 44.0253 29.7711 44.0505 30.1943C44.242 33.3734 39.8004 37.1747 36.6884 36.6319C33.2728 36.0366 31.8745 32.6115 30.2852 29.9827C30.2366 29.9026 30.0846 29.9286 30.0957 30.034C30.5051 33.8843 33.3968 37.9406 37.6268 37.8778C38.2782 37.8683 38.9347 37.7301 39.573 37.4972C38.3042 38.0811 36.9841 38.3085 35.8412 37.9777C32.3621 36.9714 30.1719 33.5783 29.2876 30.2547C29.2608 30.1548 29.0851 30.1394 29.0693 30.2547C28.4554 34.7382 32.1556 39.1612 36.6414 39.6547C41.1557 40.1521 46.555 34.7847 45.544 30.2906Z" fill="#9B409E"/>
<path opacity="0.21" d="M57.9237 58.6043C55.3707 59.0962 54.79 48.5171 54.6581 47.0521C54.3384 43.5042 54.529 39.9647 54.5488 36.4121C54.5902 36.2791 54.6313 36.1465 54.6739 36.0118C54.758 35.7462 54.394 35.6297 54.2495 35.833C52.8951 37.7378 52.8872 40.3622 52.6957 42.6069C52.4257 45.7702 52.0945 48.8163 50.8959 51.7893C49.7618 54.6033 48.0595 57.2633 45.4923 58.9588C43.5421 60.247 41.3787 61.0582 39.2158 61.8813C38.8092 61.9054 38.4014 61.9342 37.9979 61.9465C37.6529 61.9567 37.5491 62.3183 37.6778 62.5465C37.6734 62.5939 37.6963 62.6353 37.7508 62.6369C37.8124 62.691 37.8913 62.7301 37.9979 62.7305C42.3882 62.736 47.2873 62.6468 51.3681 60.7862C51.9985 60.4988 52.5931 60.1542 53.1288 59.7132C53.4951 59.4116 54.2641 58.1835 54.7296 58.1953C54.8279 58.1977 55.0407 58.3434 55.2775 58.5222C55.9486 59.8325 56.9076 60.4921 58.2952 59.4858C58.7361 59.1649 58.4764 58.4977 57.9237 58.6043Z" fill="#9B409E"/>
<path opacity="0.2" d="M43.4833 5.87487C35.9976 0.69347 30.9816 9.1353 23.835 10.3311C23.6609 10.3603 23.6771 10.6268 23.835 10.667C26.6269 11.3776 29.0152 10.7104 31.5378 9.46139C35.0411 7.72675 39.1578 3.75415 43.0526 6.61151C43.4924 6.93444 43.9357 6.18792 43.4833 5.87487Z" fill="white"/>
<path opacity="0.2" d="M47.659 8.18328C47.2978 8.1142 46.8028 8.28158 46.7372 8.70675C46.5785 9.73434 46.9828 10.199 47.4557 11.0797C48.1608 12.392 48.3325 14.0761 48.4332 15.5324C48.4577 15.8865 48.9949 15.8948 48.9906 15.5324C48.9827 14.8944 49.0798 14.2249 49.1505 13.5609C49.717 11.4516 50.2515 8.67951 47.659 8.18328Z" fill="white"/>
<path opacity="0.2" d="M28.3659 30.7264C28.5444 30.4935 28.2957 30.203 28.0458 30.2038C28.0363 30.1998 28.0312 30.1919 28.0205 30.1887C27.5511 30.0573 27.0577 30.2428 26.5946 30.4521C26.2914 30.5433 25.987 30.6289 25.6839 30.7189C21.7045 31.3431 18.2167 33.9604 17.4007 38.117C16.773 41.3135 16.2886 44.538 15.6479 47.7336C15.1576 50.1777 14.7009 52.5945 14.4372 55.0575C14.2789 55.2963 14.2745 55.5592 14.3732 55.7776C14.3381 56.1696 14.2923 56.5592 14.269 56.9548C14.2465 57.0096 14.2188 57.0602 14.1991 57.1178C14.1553 57.2457 14.3373 57.3057 14.406 57.205C15.3641 55.8064 17.1907 55.3508 17.8958 53.7555C18.797 51.7169 18.2961 49.5038 18.5112 47.3823C18.6245 46.2655 19.2802 45.3318 19.6217 44.2845C19.9079 43.4065 20.0402 42.4729 20.0931 41.5527C20.1736 40.1516 20.2332 38.3566 19.7887 36.8995C21.2884 35.9236 22.1952 35.9789 22.4996 37.0815C22.9343 37.8296 22.9149 38.794 22.9883 39.6266C23.0791 40.6538 23.132 41.6845 23.5098 42.6581C24.0424 44.0303 25.1892 45.8755 26.7872 44.7022C28.1986 43.6659 28.3881 41.6328 28.1397 40.0486C27.8279 38.0597 26.8413 36.0381 26.7533 34.0323C26.8484 33.641 26.8607 33.1981 27.0028 32.8361C27.3107 32.0501 27.8579 31.3889 28.3659 30.7264Z" fill="white"/>
<path d="M45.8632 14.0686C45.6646 13.8057 45.5454 13.5033 45.4321 13.2127C45.38 13.0844 45.3314 12.9589 45.2761 12.8369C45.0685 12.3876 44.7965 12.1583 44.4665 12.1583C44.4357 12.1583 44.4021 12.1614 44.3686 12.1646C44.4787 12.3114 44.5734 12.4642 44.6619 12.617C44.8514 12.7362 44.9429 12.9806 45.0195 13.1732C45.0408 13.2344 45.0653 13.2924 45.0898 13.3505V13.3536C45.2367 13.583 45.4017 13.8029 45.6125 13.9924C45.7254 14.0962 45.8813 14.185 46.0341 14.2703C45.9729 14.2064 45.9149 14.1388 45.8632 14.0686ZM54.301 36.1494C54.2643 36.134 54.243 36.1313 54.2339 36.1313C54.2126 36.1313 54.1514 36.1557 54.0354 36.4033C53.6809 37.1458 53.3812 37.8612 53.1369 38.5548C52.9505 39.4501 52.8649 40.3853 52.7946 41.2929C53.0086 39.9329 53.4302 38.6922 53.8459 37.6286C53.9071 37.4727 53.971 37.3168 54.0354 37.1608C54.1238 36.9469 54.2126 36.7301 54.2951 36.513C54.4112 36.1952 54.3713 36.1771 54.301 36.1494ZM60.8657 54.9509C60.4165 52.5305 60.0438 50.0549 59.6861 47.6618C59.518 46.5371 59.3498 45.4124 59.1725 44.2908C59.09 43.7745 59.0166 43.2577 58.9404 42.7413C58.7387 41.3387 58.5279 39.8899 58.1915 38.5023C57.5496 35.8344 56.3302 33.9486 54.4629 32.7386C53.4053 32.0541 52.2778 31.5069 51.2021 31.1555C49.955 30.7521 48.6503 30.4343 47.3882 30.1256C46.7952 29.9819 46.2023 29.8382 45.6125 29.6854C45.3681 29.6211 45.1297 29.5417 44.879 29.4592C44.7598 29.4193 44.6406 29.3799 44.5123 29.3368L44.0906 29.2022L44.4755 28.7162C44.5399 28.6306 44.5884 28.5694 44.6405 28.5114C45.6093 27.4478 46.2694 26.1459 46.5994 24.6422C46.627 24.5107 46.6543 24.3765 46.6788 24.2419C46.7246 23.9975 46.7735 23.7405 46.8469 23.4902C46.9081 23.2703 47.1221 23.0074 47.3728 22.9431C48.3356 22.7046 49.1453 21.9988 49.5946 21.0087C50.0561 19.9969 50.047 18.8418 49.5642 17.8975C49.0691 16.9287 49.0569 16.8494 49.2708 15.7519C49.3474 15.3575 49.4327 14.9663 49.5184 14.5723C49.6775 13.8297 49.8452 13.0655 49.9431 12.3075C50.0533 11.4761 50.163 10.3881 50.0592 9.35538C49.8697 7.51574 48.7908 6.36655 47.0214 6.11903C46.7676 6.08231 46.5201 6.06415 46.2879 6.06415C45.9303 6.06415 45.6093 6.10679 45.3346 6.1893C45.0839 6.26272 44.8699 6.29944 44.6777 6.29944C44.1917 6.29944 43.8068 6.061 43.5072 5.57227C43.4337 5.44989 43.2565 5.33382 43.0946 5.22368C41.5238 4.17556 39.8642 3.6438 38.1588 3.6438C37.8441 3.6438 37.5232 3.66196 37.2022 3.69591C36.0562 3.82421 34.8916 4.16648 33.6449 4.73811C31.7808 5.5999 30.0509 6.7704 28.3763 7.90103L28.1043 8.08736C26.7321 9.01627 25.3721 9.54211 23.9477 9.69488C23.5628 9.73752 23.2813 9.8903 23.1317 10.1382C22.9758 10.4011 22.9789 10.7556 23.1349 11.1405C23.3824 11.7457 23.838 12.1918 24.5225 12.5096C25.0728 12.7635 25.3661 13.1942 25.3934 13.7871C25.4025 14.0165 25.4056 14.2454 25.4056 14.4748C25.4088 14.8352 25.4119 15.1716 25.4455 15.5107C25.4759 15.8348 25.5462 16.1617 25.6227 16.5099C25.6595 16.678 25.6962 16.849 25.7297 17.0294L25.7664 17.2126L25.6196 17.3286C25.0112 17.8083 24.7823 18.5418 24.8557 19.7888C24.9473 21.4118 25.8308 22.5977 27.1541 22.8819C27.6369 22.9857 27.8631 23.2242 27.9397 23.7101C28.2638 25.7823 29.0063 27.3957 30.2072 28.6487C30.2594 28.7036 30.2866 28.7589 30.3142 28.8169C30.3296 28.8445 30.3446 28.8813 30.3723 28.9298L30.5495 29.263L29.7059 29.5074C29.3759 29.6021 29.0612 29.6937 28.7462 29.7794C28.1319 29.9444 27.5145 30.1003 26.8971 30.2563C25.6014 30.5804 24.2628 30.9195 22.9821 31.3379C20.1919 32.2518 18.248 34.0153 17.203 36.5793C16.8608 37.4198 16.4727 38.3732 16.3199 39.3147C16.042 40.9866 15.8063 42.6948 15.5773 44.3481C15.4123 45.5371 15.241 46.7684 15.0578 47.9756L14.9295 48.8161C14.624 50.8516 14.3062 52.9573 13.8538 55.0018C13.5786 56.2489 13.6122 57.2299 13.9667 58.1833C14.4495 59.4762 15.5102 60.246 16.8059 60.246C17.1024 60.246 17.4111 60.2061 17.7198 60.1236C18.4655 59.9282 19.3091 59.6286 19.9202 58.886L20.1768 58.5804L20.4062 58.9045C21.4362 60.3593 22.8787 61.2882 25.0823 61.9119C27.9397 62.7188 30.8247 63.0244 33.5174 63.2293C34.8008 63.33 36.1091 63.3789 37.4048 63.3789C40.2775 63.3789 43.2296 63.1345 46.179 62.6517C46.9306 62.5266 47.8141 62.3738 48.6728 62.1689C50.7726 61.6676 52.9087 60.9282 54.3236 58.9081L54.5498 58.5812L54.8064 58.8868C55.4297 59.6294 56.2674 59.929 57.0037 60.1244C57.3124 60.2069 57.6211 60.2468 57.9235 60.2468C59.2164 60.2468 60.2767 59.4766 60.7595 58.19C61.1744 57.0811 61.0552 55.9777 60.8657 54.9509ZM41.2637 30.3245C40.4875 30.6423 39.6407 30.8531 38.7422 30.9479C38.2196 31.0028 37.7123 31.0304 37.2295 31.0304C35.2521 31.0304 33.5683 30.5721 32.0797 29.6278C30.0016 28.3077 28.7667 26.3579 28.4154 23.8274C28.1832 22.1709 28.0455 20.5267 27.9112 18.5646C27.8591 17.8493 27.8745 17.1407 27.8868 16.4558C27.8899 16.1652 27.8958 15.881 27.8958 15.6031V15.279L28.22 15.2971C28.7549 15.3307 29.2926 15.3765 29.8397 15.4223C29.8855 15.4254 29.9281 15.4282 29.9743 15.4345C30.454 15.4744 30.9399 15.5138 31.4291 15.5446C31.4413 15.5415 31.4504 15.5446 31.4626 15.5446C31.9332 15.5723 32.4038 15.5904 32.8684 15.5904C33.067 15.5904 33.2656 15.5873 33.4645 15.5813C37.5109 15.4317 40.9064 14.5088 43.8431 12.7607C44.0448 12.6415 44.2221 12.5436 44.4053 12.5436C44.5059 12.5436 44.5916 12.5712 44.6619 12.617C44.8514 12.7362 44.9429 12.9806 45.0195 13.1732C45.0408 13.2344 45.0653 13.2924 45.0898 13.3505V13.3536C45.4076 14.1511 45.7653 14.729 46.4072 15.0681C46.4652 15.1049 46.5264 15.1325 46.5903 15.1597C46.8197 15.2576 46.9294 15.5723 46.9204 15.7586C46.8805 16.4676 46.856 17.1766 46.8288 17.8888C46.7553 19.9211 46.6792 22.0236 46.2848 24.0867C46.0404 25.3642 45.5544 26.5103 44.8668 27.4822C43.9773 28.7506 42.7425 29.7253 41.2637 30.3245ZM37.5382 35.318C37.4588 35.3271 37.3822 35.3303 37.3061 35.3303C36.432 35.3303 35.6677 34.8901 34.9773 34.4164C34.5861 34.1507 34.198 33.735 33.8648 33.2549C33.8617 33.2549 33.8617 33.2549 33.8617 33.2518C33.4337 32.6407 33.1037 31.9254 32.9908 31.3052L32.9572 31.1157L32.9541 31.1094L32.9387 31.0205V31.0142L32.9142 30.8891L33.0425 30.9072L33.1953 30.9286L33.3327 30.9467C33.7543 31.0047 34.1791 31.0782 34.592 31.1484C34.8916 31.2005 35.194 31.2523 35.4996 31.2981C36.1261 31.396 36.7589 31.4694 37.3823 31.4694C38.3021 31.4694 39.2464 31.3044 40.1571 31.1453C40.5574 31.0719 40.9699 31.0016 41.3766 30.9467C41.3797 30.9436 41.3829 30.9436 41.3856 30.9436L41.7923 30.8855L41.7311 31.289C41.6944 31.5306 41.6363 31.7718 41.5507 32.0102C40.9577 33.7014 39.2432 35.1684 37.5382 35.318ZM49.4753 18.8149C49.7777 20.3767 49.0628 21.8985 47.779 22.4334C47.6996 22.467 47.6231 22.4855 47.5437 22.5037C47.5133 22.51 47.4766 22.5191 47.4367 22.5282L47.0333 22.632L47.0637 22.0114L47.1004 21.3178C47.1462 20.3613 47.192 19.4197 47.2472 18.4786C47.2536 18.3748 47.284 18.2769 47.3207 18.1884C47.3238 18.1793 47.3297 18.1703 47.3361 18.1608C47.3665 18.0814 47.4095 18.0112 47.4462 17.9468C47.6416 17.5982 47.9136 17.3969 48.2133 17.3661C48.2409 17.3598 48.2681 17.3598 48.2958 17.3598C48.4087 17.3598 48.5188 17.3843 48.6258 17.4332C48.6258 17.4332 48.6258 17.4332 48.6289 17.4332C48.8062 17.5126 48.9681 17.6563 49.1027 17.858C49.3194 18.1762 49.4236 18.5552 49.4753 18.8149ZM23.4799 10.6123L23.44 10.368L23.6722 10.2791C23.7057 10.2669 23.7365 10.2515 23.7638 10.2393C23.8463 10.2026 23.9351 10.1627 24.048 10.1505C25.8908 9.9886 27.3945 9.10509 29.0296 8.06013C30.3956 7.18294 32.202 6.05547 34.0843 5.06814C35.4044 4.37452 36.7064 4.02278 37.9594 4.02278C38.3415 4.02278 38.7233 4.05634 39.0964 4.12384C39.4295 4.18188 39.7564 4.25846 40.0805 4.35321H40.0837C40.814 4.55809 41.5293 4.83917 42.2534 5.13249C42.2597 5.13565 42.2624 5.13565 42.2688 5.13881C42.5376 5.24579 42.7851 5.38949 43.0113 5.56674C43.0145 5.5699 43.0172 5.57305 43.0236 5.57582C43.2652 5.76847 43.4791 6.00059 43.6686 6.26667C43.7693 6.40405 43.8581 6.55407 43.9406 6.71277C43.9497 6.73093 43.9592 6.74632 43.9682 6.76488C44.0326 6.89002 44.0812 6.89002 44.1179 6.89002C44.2035 6.89002 44.3164 6.84738 44.4021 6.81383C44.4053 6.81383 44.4084 6.81067 44.4112 6.81067C45.0681 6.54459 45.6764 6.41353 46.2662 6.41353C46.4924 6.41353 46.7218 6.43485 46.9417 6.47156C48.0297 6.66105 48.7813 7.1407 49.2124 7.91998C49.2523 7.98709 49.2858 8.0546 49.3162 8.12487C49.4509 8.42134 49.5456 8.76046 49.6005 9.13667C49.7256 10.0016 49.7197 10.9518 49.5792 11.9573C49.4631 12.8069 49.2827 13.6564 49.1086 14.4787C49.075 14.6347 49.0415 14.7906 49.0079 14.9493C48.9499 15.2245 48.895 15.4992 48.8429 15.7776C48.8244 15.8691 48.8062 15.9607 48.7908 16.0527C48.7296 16.3796 48.5922 17.147 47.721 17.147C47.6752 17.147 47.6294 17.1439 47.5836 17.1407L47.3025 17.1162C47.3025 17.1162 47.2994 16.5387 47.2994 16.3859V16.2758C47.2962 15.9516 47.293 15.6248 47.3057 15.2916C47.3147 15.0622 47.2966 15.0042 47.2903 14.992C47.2567 14.9616 47.0885 14.9094 46.9389 14.8637C46.8319 14.8301 46.725 14.7843 46.618 14.7263C46.4103 14.6161 46.2086 14.4574 46.0341 14.2707C45.9729 14.2064 45.9149 14.1392 45.8628 14.069C45.6642 13.8061 45.545 13.5037 45.4317 13.2131C45.3796 13.0848 45.331 12.9593 45.2757 12.8373C45.0681 12.388 44.7961 12.1587 44.4661 12.1587C44.4353 12.1587 44.4017 12.1618 44.3682 12.165C44.2095 12.1831 44.035 12.2475 43.8486 12.3545C41.9569 13.4425 39.9917 14.2127 37.9105 14.6742C36.3211 15.0318 34.6678 15.2059 32.932 15.2059C31.6024 15.2059 30.2029 15.0989 28.7817 14.885C28.5587 14.8514 28.3356 14.7961 28.1153 14.7168C27.9839 14.671 27.8678 14.6465 27.7699 14.6465C27.614 14.6465 27.5591 14.7077 27.5378 14.7259C27.449 14.8206 27.4063 15.0101 27.4186 15.2608C27.4399 15.6796 27.449 16.1013 27.4584 16.5197V16.5533L27.4648 16.7183C27.4679 16.8067 27.4403 16.877 27.4221 16.9232L27.4099 16.9631L27.3242 17.2473L26.9054 17.1344C26.8106 17.1099 26.719 17.0854 26.6243 17.0641C26.5477 17.046 26.4684 17.0306 26.3736 17.012L25.967 16.9327C25.967 16.9327 25.9366 16.1471 25.9271 15.8723C25.8995 15.2734 25.875 14.6773 25.8628 14.0784C25.8596 13.9655 25.8537 13.8554 25.8414 13.7516C25.7893 13.2565 25.6397 12.8744 25.374 12.5811C25.1968 12.3825 24.9706 12.2266 24.6895 12.1042C24.0054 11.8042 23.5865 11.2878 23.4799 10.6123ZM27.2662 22.5495C26.661 22.3418 26.0558 22.0635 25.7199 21.4433C25.194 20.4655 25.0598 19.4659 25.3196 18.4667C25.3409 18.3752 25.3776 18.2804 25.4234 18.1857C25.5335 17.9535 25.7933 17.4218 26.282 17.3788C26.3033 17.3756 26.3247 17.3756 26.3464 17.3756C26.4289 17.3756 26.5145 17.391 26.6002 17.4214C26.9058 17.5252 27.0953 17.8217 27.2634 18.0814C27.3124 18.1608 27.3641 18.2433 27.4162 18.3136C27.5109 18.4387 27.5046 18.5856 27.5019 18.6712C27.4987 18.6866 27.4987 18.7048 27.4987 18.7202L27.6361 21.5318L27.6941 22.6963L27.2662 22.5495ZM30.0229 30.2938C30.041 29.8386 30.3833 29.4963 30.8176 29.4963C30.9889 29.4963 31.1567 29.5484 31.3067 29.6522C31.3158 29.6586 31.3249 29.6676 31.3343 29.6736C31.9885 30.0127 32.3947 30.5508 32.6485 31.4185C33.1132 33.0106 33.8403 34.0958 34.9406 34.8321C34.9497 34.8384 34.9591 34.8443 34.9682 34.8506C35.7017 35.3397 36.5359 35.5963 37.3795 35.5963C38.1588 35.5963 38.9167 35.3792 39.58 34.9821C40.118 34.6611 40.5914 34.2182 40.9644 33.6833C41.5361 32.8641 41.8937 31.8496 42.2388 30.8654L42.251 30.8255C42.465 30.2203 42.9142 29.9696 43.3054 29.7466C43.4306 29.6763 43.5439 29.612 43.6509 29.5389C43.7334 29.4778 43.8313 29.4474 43.9319 29.4474C44.0326 29.4474 44.1854 29.4809 44.3354 29.6337C44.4179 29.7162 44.4882 29.8232 44.543 29.9483C44.656 30.1899 44.7144 30.4986 44.7112 30.8255C44.6591 31.8219 44.2252 32.9222 43.4156 34.0954C42.2297 35.8099 40.7169 36.8857 38.914 37.286C38.3885 37.402 37.8568 37.4601 37.3369 37.4601C35.393 37.4601 33.7338 36.6595 32.4807 35.4795C31.2277 34.2999 30.3841 32.7441 30.0726 31.2345C30.0047 30.9143 30.0138 30.5812 30.0229 30.2938ZM36.826 62.7015C36.7036 62.8207 36.5386 62.8787 36.3124 62.8787H36.2725C33.0117 62.7871 28.7268 62.5151 24.4909 61.2282C22.8743 60.7391 21.6821 59.9448 20.848 58.8015C20.6095 58.4746 20.3956 58.068 20.6127 57.5303C20.7074 57.2951 20.7256 57.0077 20.7319 56.7815C20.8266 52.8483 21.3158 49.0068 22.1866 45.3638C22.7184 43.148 22.4677 40.8133 21.3951 38.023C21.2238 37.5675 21.013 37.0819 20.7532 36.5347L20.7197 36.4581C20.7133 36.4427 20.7043 36.4246 20.6952 36.406C20.6431 36.2931 20.5606 36.1309 20.5089 36.1309C20.4966 36.1309 20.4721 36.134 20.4295 36.1522C20.3379 36.1921 20.3166 36.2011 20.4327 36.5249C20.4327 36.528 20.4358 36.528 20.4358 36.5308C20.4512 36.5734 20.4662 36.6164 20.4816 36.6563C20.6285 37.0965 20.7781 37.5363 20.9277 37.9764C21.2151 38.8201 21.5116 39.6909 21.7804 40.5559C22.251 42.0687 22.2234 43.731 21.6948 45.7882C20.8361 49.1379 20.3652 52.7042 20.2921 56.3898C20.2495 58.4466 19.0482 59.614 16.8142 59.7608C16.7806 59.764 16.7498 59.764 16.7194 59.764C16.1569 59.764 15.5521 59.4584 15.2003 59.1529C14.262 58.346 13.883 57.1968 14.1581 56.0022C14.2896 55.4246 14.412 54.8408 14.528 54.2573C14.8671 52.5428 15.136 50.807 15.3807 49.0862C15.509 48.1967 15.6283 47.3136 15.7475 46.4364L15.8454 45.7183C16.1265 43.643 16.417 41.4978 16.7838 39.3984C16.9425 38.4754 17.3001 37.5923 17.6152 36.8099C18.0585 35.7128 18.6728 34.7654 19.458 33.9738C20.4453 32.9774 21.6983 32.2226 23.2079 31.7213C24.5742 31.2661 25.995 30.8749 27.3672 30.4959C27.6546 30.4165 27.9416 30.3368 28.2322 30.2574C28.5713 30.1627 28.9108 30.0679 29.2531 29.97L29.623 29.8631L29.6443 30.248C29.6992 31.2716 29.9743 32.2467 30.4054 33.133C30.4331 33.1942 30.4635 33.2553 30.5002 33.3165C30.6498 33.613 30.8211 33.9004 31.0106 34.1752C31.0564 34.2486 31.1085 34.322 31.1602 34.3982C32.2849 35.9477 33.8834 37.0878 35.451 37.5248C35.8699 37.644 36.2883 37.7111 36.6949 37.7234L36.9914 37.7325V38.1296L36.9946 39.6823V41.2594C36.9946 48.194 36.9977 55.1254 37.0068 62.0596C37.0064 62.2735 37.0064 62.5179 36.826 62.7015ZM60.2424 58.209C59.8022 59.2054 58.9558 59.7766 57.9227 59.7766C57.8891 59.7766 57.8556 59.7766 57.8189 59.7734C57.6475 59.7671 57.4734 59.7458 57.2962 59.7091C56.5568 59.5532 55.967 59.3056 55.5237 58.9511C55.2761 58.7585 55.0744 58.5323 54.9185 58.2725C54.6188 57.7956 54.4661 57.2027 54.4479 56.4909C54.3409 52.4354 53.8672 48.9085 52.9991 45.7025C52.7575 44.8163 52.6537 43.9482 52.6505 43.1172C52.6473 42.4966 52.6994 41.8918 52.7942 41.3111C52.791 41.3048 52.791 41.2988 52.7942 41.2929C53.0082 39.9329 53.4302 38.6922 53.8459 37.6286C53.9071 37.4727 53.9706 37.3168 54.035 37.1608C54.1234 36.9469 54.2126 36.7301 54.2951 36.513C54.4112 36.1952 54.3713 36.1767 54.301 36.1494C54.2643 36.134 54.243 36.1313 54.2339 36.1313C54.2126 36.1313 54.1514 36.1557 54.0354 36.4033C53.6809 37.1458 53.3812 37.8612 53.1369 38.5548C52.3027 40.8958 52.0887 42.9861 52.4555 45.0614C52.5044 45.352 52.5684 45.6421 52.6418 45.9323C53.4179 48.9855 53.855 52.39 53.9742 56.3444C53.9805 56.5766 54.0231 56.8119 54.0658 57.0625C54.1056 57.3069 54.1514 57.5576 54.1637 57.8205C54.1759 58.1351 54.078 58.4896 53.9007 58.7466C53.3903 59.4892 52.7089 60.0885 51.8073 60.5713C51.7401 60.608 51.6726 60.6416 51.6024 60.6751C51.3335 60.8125 51.043 60.9408 50.7315 61.0572C50.7284 61.0572 50.7284 61.0572 50.7284 61.0572C50.6305 61.0971 50.5325 61.1307 50.4319 61.1674C48.7817 61.7449 46.9508 62.133 44.836 62.3533C43.4819 62.4938 42.1037 62.5977 40.7714 62.7015C40.7469 62.7046 40.7256 62.7046 40.7011 62.7078C39.9889 62.7599 39.2768 62.8148 38.5678 62.8728C38.5188 62.8791 38.4762 62.8819 38.4331 62.8819C38.2282 62.8819 38.0696 62.8298 37.9503 62.726C37.9381 62.7169 37.9259 62.7078 37.9136 62.6956C37.7395 62.5215 37.715 62.2739 37.715 62.075V62.0627C37.7273 55.7977 37.7304 49.5326 37.7304 43.2703L37.7336 39.6673V37.7329L38.0301 37.7238C41.4622 37.6136 44.8849 34.0319 45.0744 30.3522L45.093 30.0008V29.9886L45.1356 29.9977L45.365 30.0525L45.4475 30.0707C45.7471 30.1378 46.0463 30.2022 46.346 30.2661C47.0123 30.4067 47.7 30.5535 48.366 30.7489C49.7075 31.1461 51.0951 31.5558 52.4247 32.0998C54.6741 33.0197 56.3029 34.7219 57.2717 37.1608C57.9839 38.9547 58.2373 40.8496 58.4849 42.6802L58.5397 43.0805C58.6649 44.0066 58.7841 44.9323 58.9006 45.8585C59.3072 49.0459 59.7288 52.3438 60.4804 55.5221C60.7039 56.4605 60.6273 57.3409 60.2424 58.209Z" fill="#06142D"/>
<path d="M41.5989 22.8408C41.5125 22.8602 41.3644 22.9162 41.289 22.947L41.2081 22.975C41.0909 23.0197 40.9736 23.0753 40.8508 23.1369C40.6471 23.2344 40.4379 23.3378 40.2038 23.388C39.085 23.6391 38.2145 23.7508 37.3804 23.7508C37.0093 23.7508 36.6437 23.7283 36.2952 23.6809C36.1503 23.6584 36.005 23.6418 35.8601 23.6252C35.0568 23.5277 34.2281 23.4298 33.4694 22.9612C33.3829 22.9083 33.2211 22.855 33.1121 22.8467C32.9613 23.0169 32.8555 23.2455 32.8748 23.3323C33.3545 25.7373 34.4038 27.2129 36.1779 27.9745C36.4598 28.0945 36.7416 28.2145 37.0259 28.3345L37.1151 28.3708L37.1431 28.2816L37.3942 28.3432C37.4696 28.3598 37.5422 28.3684 37.6172 28.3684C37.941 28.3684 38.2256 28.1928 38.5296 28.0029C38.6662 27.9192 38.8059 27.8327 38.9536 27.7573C40.9231 26.7724 41.5397 24.8557 41.8547 23.2964C41.867 23.2316 41.7718 23.0307 41.5989 22.8408ZM41.3257 23.9122C41.0162 24.9722 40.6337 26.0716 39.6713 26.7996C38.7424 27.5055 38.0641 27.9129 37.3642 27.9129C36.6583 27.9129 36.0086 27.5224 35.0489 26.7968C34.1393 26.108 33.771 25.1258 33.3861 23.9122L33.2297 23.4184L33.7264 23.5577C34.9652 23.9063 36.1562 24.0765 37.367 24.0765C37.6962 24.0765 38.0254 24.0626 38.3519 24.0374C39.1332 23.9789 39.9144 23.8447 40.7123 23.6355C40.8015 23.6162 40.8935 23.5909 40.9831 23.5656L41.4659 23.429L41.3257 23.9122Z" fill="#06142D"/>
<path d="M28.1797 24.2829L28.1801 24.2762L27.9847 19.9357C27.9741 19.7012 27.9709 19.4572 27.9681 19.2085C27.9563 18.2867 27.9437 17.3334 27.5773 16.5181C27.2461 15.7819 26.5469 15.2845 25.6591 15.1538C24.686 15.0101 23.7129 15.3465 23.1191 16.0314C22.6497 16.5726 22.7666 17.2824 22.8704 17.9089C22.8913 18.0368 22.9123 18.162 22.9273 18.2828L23.4673 22.6296C23.4819 22.7465 23.493 22.8736 23.5044 23.0058C23.5688 23.7354 23.6493 24.6434 24.365 25.0377C24.6587 25.2 25.0322 25.2561 25.4333 25.2561C25.9512 25.2561 26.5154 25.1617 27.0108 25.0792C27.2923 25.0322 27.5584 24.9876 27.7711 24.9687C27.9369 24.9537 28.0704 24.8751 28.147 24.7468C28.2259 24.6142 28.2374 24.4436 28.1797 24.2829Z" fill="#FB952C"/>
<path d="M27.8714 24.3362L27.8737 24.2794L27.6795 19.9491C27.6688 19.7114 27.6653 19.4639 27.6621 19.212C27.6507 18.321 27.6384 17.4 27.2982 16.6429C27.0108 16.0037 26.3969 15.5707 25.6144 15.4558C25.6085 15.455 25.6026 15.4554 25.5967 15.4546C26.4186 16.6279 26.6397 18.0265 26.7403 19.4363C26.8655 21.1906 27.0751 23.007 27.0301 24.7657C27.2914 24.7223 27.5378 24.682 27.7438 24.6635C27.8125 24.6571 27.8587 24.6331 27.8852 24.5893C27.9187 24.5332 27.9187 24.4459 27.8852 24.367L27.8714 24.3362Z" fill="#FB952C"/>
<path d="M26.8048 24.8025C26.38 21.7616 27.0819 18.162 25.3895 15.4393C25.3307 15.4357 25.2719 15.4263 25.2139 15.4263C24.7374 15.4263 24.2794 15.5526 23.8945 15.7816C24.8424 16.6394 24.9663 18.4996 25.1148 19.6559C25.3394 21.4019 25.4168 23.1907 25.1653 24.9367C25.6675 24.9778 26.2667 24.8913 26.8048 24.8025Z" fill="#FB952C"/>
<path opacity="0.3" d="M24.5124 24.7697C24.6277 24.8332 24.7635 24.8735 24.9096 24.9023C24.9783 21.9154 25.131 18.6037 23.7169 15.8967C23.5823 15.9942 23.4588 16.106 23.3502 16.2311C22.9748 16.6642 23.0747 17.2713 23.1718 17.8587C23.1935 17.991 23.2148 18.1201 23.2302 18.2444L23.7702 22.5913C23.7852 22.7117 23.7967 22.842 23.8089 22.9782C23.8701 23.6698 23.9392 24.4534 24.5124 24.7697Z" fill="white"/>
<path d="M28.1797 24.2829L28.1801 24.2762L27.9847 19.9357C27.9741 19.7012 27.9709 19.4572 27.9681 19.2085C27.9563 18.2867 27.9437 17.3334 27.5773 16.5181C27.2461 15.7819 26.5469 15.2845 25.6591 15.1538C24.686 15.0101 23.7129 15.3465 23.1191 16.0314C22.6497 16.5726 22.7666 17.2824 22.8704 17.9089C22.8913 18.0368 22.9123 18.162 22.9273 18.2828L23.4673 22.6296C23.4819 22.7465 23.493 22.8736 23.5044 23.0058C23.5688 23.7354 23.6493 24.6434 24.365 25.0377C24.6587 25.2 25.0322 25.2561 25.4333 25.2561C25.9512 25.2561 26.5154 25.1617 27.0108 25.0792C27.2923 25.0322 27.5584 24.9876 27.7711 24.9687C27.9369 24.9537 28.0704 24.8751 28.147 24.7468C28.2259 24.6142 28.2374 24.4436 28.1797 24.2829ZM27.8844 24.5889C27.8584 24.6327 27.8118 24.6568 27.7431 24.6631C27.537 24.6817 27.2907 24.7215 27.0294 24.7654C27.0748 23.0062 26.8647 21.1903 26.7396 19.4359C26.6393 18.0266 26.4179 16.6275 25.5959 15.4542C25.6019 15.455 25.6078 15.4546 25.6137 15.4554C26.3961 15.5707 27.01 16.0034 27.2974 16.6425C27.6381 17.4001 27.6499 18.3211 27.6614 19.2117C27.6646 19.4635 27.6681 19.7111 27.6788 19.9487L27.873 24.279L27.8706 24.3358L27.8837 24.3666C27.9184 24.4456 27.9184 24.5328 27.8844 24.5889ZM23.7701 22.5913L23.2301 18.2445C23.2147 18.1201 23.1933 17.9906 23.1716 17.8588C23.0745 17.2714 22.9746 16.6642 23.3501 16.2311C23.4586 16.106 23.5822 15.9947 23.7168 15.8968C25.1305 18.6037 24.9781 21.9155 24.9094 24.9023C24.7634 24.8735 24.6276 24.8333 24.5123 24.7697C23.9391 24.4535 23.87 23.6699 23.8088 22.9782C23.7966 22.842 23.7851 22.7117 23.7701 22.5913ZM25.1147 19.6562C24.9663 18.5003 24.8423 16.6397 23.8945 15.7819C24.2798 15.5529 24.7377 15.4266 25.2138 15.4266C25.2718 15.4266 25.331 15.4357 25.3895 15.4396C27.0819 18.1624 26.3796 21.7619 26.8047 24.8029C26.2671 24.8917 25.6678 24.9777 25.1652 24.9375C25.4167 23.191 25.3389 21.4023 25.1147 19.6562Z" fill="#06142D"/>
<path opacity="0.21" d="M28.0348 23.026C28.034 22.2511 27.8741 21.5251 27.8319 20.7545C27.8224 20.5788 27.6017 20.5626 27.5397 20.715C26.9164 22.2416 26.0759 24.2226 24.3863 24.7839C24.3073 24.81 24.3255 24.9174 24.4052 24.9245C24.6196 24.9438 24.8205 24.9332 25.012 24.9024C25.0314 24.9944 25.1127 25.0757 25.2327 25.0496C25.5856 24.9726 25.9433 24.9426 26.3002 24.9142C26.3033 24.9154 26.3057 24.9178 26.3088 24.9189C26.6539 25.0311 26.9188 24.9991 27.1229 24.8803C27.5468 24.8605 27.959 24.7887 28.0107 24.3371C28.015 24.2995 28.004 24.2632 27.987 24.2293C28.092 23.8566 28.0352 23.3971 28.0348 23.026Z" fill="#9B409E"/>
<path d="M46.4767 24.2829L46.4763 24.2762L46.6717 19.9357C46.682 19.7012 46.6855 19.4572 46.6883 19.2085C46.7001 18.2867 46.7127 17.3334 47.0791 16.5181C47.4099 15.7819 48.1095 15.2845 48.9973 15.1538C49.9704 15.0101 50.9435 15.3465 51.5373 16.0314C52.0067 16.5726 51.8898 17.2824 51.786 17.9089C51.7651 18.0368 51.7441 18.162 51.7291 18.2828L51.1891 22.6296C51.1745 22.7465 51.1634 22.8736 51.1516 23.0058C51.0872 23.7354 51.0067 24.6434 50.291 25.0377C49.9973 25.2 49.6238 25.2561 49.2227 25.2561C48.7048 25.2561 48.1406 25.1617 47.6452 25.0792C47.3637 25.0322 47.0976 24.9876 46.8849 24.9687C46.7191 24.9537 46.5856 24.8751 46.5086 24.7468C46.4305 24.6142 46.419 24.4436 46.4767 24.2829Z" fill="#FB952C"/>
<path d="M46.7849 24.3362L46.7825 24.2794L46.9767 19.9491C46.9874 19.7114 46.991 19.4639 46.9941 19.212C47.0056 18.321 47.0178 17.4 47.3581 16.6429C47.6455 16.0037 48.2594 15.5707 49.0418 15.4558C49.0477 15.455 49.0536 15.4554 49.0596 15.4546C48.2376 16.6279 48.0166 18.0265 47.9159 19.4363C47.7908 21.1906 47.5811 23.007 47.6262 24.7657C47.3648 24.7223 47.1185 24.682 46.9124 24.6635C46.8437 24.6571 46.7975 24.6331 46.7711 24.5893C46.7371 24.5332 46.7371 24.4459 46.7711 24.367L46.7849 24.3362Z" fill="#FB952C"/>
<path d="M47.8516 24.8023C48.2763 21.7613 47.5744 18.1618 49.2668 15.439C49.3252 15.4355 49.3845 15.426 49.4425 15.426C49.919 15.426 50.3765 15.5524 50.7618 15.7813C49.814 16.6392 49.69 18.4993 49.5416 19.6556C49.317 21.4017 49.2396 23.1904 49.4911 24.9365C48.9885 24.9776 48.3892 24.8911 47.8516 24.8023Z" fill="#FB952C"/>
<path opacity="0.3" d="M50.1443 24.7697C50.0291 24.8332 49.8932 24.8735 49.7472 24.9023C49.6785 21.9154 49.5257 18.6037 50.9398 15.8967C51.0744 15.9942 51.198 16.106 51.3065 16.2311C51.682 16.6642 51.5821 17.2713 51.485 17.8587C51.4633 17.991 51.4419 18.1201 51.4265 18.2444L50.8865 22.5913C50.8715 22.7117 50.86 22.842 50.8478 22.9782C50.7866 23.6698 50.7175 24.4534 50.1443 24.7697Z" fill="white"/>
<path d="M46.5092 24.7459C46.5862 24.8738 46.7196 24.9528 46.8854 24.9678C47.0986 24.9867 47.3643 25.0313 47.6458 25.0783C48.1412 25.1608 48.7053 25.2552 49.2233 25.2552C49.6244 25.2552 49.9978 25.1987 50.2915 25.0369C51.0073 24.6425 51.0874 23.7345 51.1521 23.005C51.164 22.8727 51.1746 22.746 51.1896 22.6287L51.7297 18.2819C51.7447 18.1615 51.7656 18.0363 51.7866 17.908C51.89 17.2815 52.0072 16.5717 51.5378 16.0305C50.9441 15.346 49.971 15.0096 48.9979 15.1529C48.11 15.2836 47.4105 15.781 47.0797 16.5173C46.7133 17.3325 46.7007 18.2858 46.6888 19.2076C46.6857 19.4567 46.6825 19.7003 46.6723 19.9348L46.4768 24.2753L46.4772 24.2821C46.4188 24.4435 46.4303 24.6141 46.5092 24.7459ZM46.7714 24.3669L46.7844 24.3361L46.782 24.2793L46.9762 19.949C46.9869 19.7114 46.9904 19.4638 46.9936 19.212C47.0051 18.321 47.0173 17.4 47.3576 16.6428C47.645 16.0037 48.2589 15.5706 49.0413 15.4557C49.0472 15.4549 49.0531 15.4553 49.0591 15.4545C48.2371 16.6278 48.0161 18.0265 47.9154 19.4362C47.7903 21.1906 47.5806 23.0069 47.6256 24.7656C47.3643 24.7222 47.118 24.682 46.9119 24.6634C46.8432 24.6571 46.797 24.633 46.7706 24.5892C46.7378 24.5327 46.7378 24.4455 46.7714 24.3669ZM50.8474 22.9781C50.7862 23.6698 50.7171 24.4534 50.1439 24.7696C50.0286 24.8332 49.8928 24.8734 49.7468 24.9022C49.6781 21.9154 49.5253 18.6036 50.9394 15.8967C51.074 15.9942 51.1975 16.1059 51.3061 16.2311C51.6815 16.6641 51.5817 17.2713 51.4845 17.8587C51.4628 17.9909 51.4415 18.12 51.4261 18.2444L50.8861 22.5912C50.8711 22.7116 50.8596 22.8419 50.8474 22.9781ZM49.4909 24.937C48.9888 24.9776 48.3895 24.8912 47.8514 24.8024C48.2762 21.7614 47.5743 18.1619 49.2667 15.4391C49.3251 15.4356 49.3844 15.4261 49.4424 15.4261C49.9189 15.4261 50.3764 15.5524 50.7617 15.7814C49.8139 16.6392 49.6899 18.4994 49.5415 19.6557C49.3168 21.4022 49.2395 23.1909 49.4909 24.937Z" fill="#06142D"/>
<path opacity="0.21" d="M46.669 24.2291C46.652 24.2631 46.6409 24.2994 46.6453 24.3369C46.6974 24.7881 47.1095 24.8604 47.5331 24.8801C47.7372 24.9989 48.0021 25.0309 48.3471 24.9188C48.3507 24.9176 48.3527 24.9152 48.3558 24.9141C48.7127 24.9425 49.0704 24.9725 49.4233 25.0495C49.5429 25.0755 49.6246 24.9942 49.644 24.9022C49.8358 24.933 50.0364 24.9437 50.2507 24.9243C50.3309 24.9172 50.3486 24.8098 50.2697 24.7838C48.5797 24.2224 47.7392 22.2414 47.1162 20.7148C47.0542 20.5629 46.8336 20.5787 46.8241 20.7543C46.7819 21.5249 46.6224 22.2509 46.6212 23.0259C46.6208 23.3969 46.5639 23.8565 46.669 24.2291Z" fill="#9B409E"/>
<path d="M47.1488 22.8159C45.3573 25.4562 42.8904 26.7783 40.0393 27.8335C39.9793 27.7522 39.9051 27.6792 39.8108 27.6223C39.5305 27.4545 39.1543 27.4474 38.8002 27.5059C38.4855 27.4869 38.1492 27.5445 37.8898 27.5899C37.4461 27.6677 36.7142 27.785 36.4627 28.2117C36.2329 28.6017 36.4923 28.9539 36.8591 29.1177C37.0762 29.2148 37.3517 29.2989 37.6506 29.3562C37.6604 29.3577 37.6699 29.3601 37.6798 29.3613C38.5254 29.5176 39.553 29.4552 40.02 28.8457C40.1286 28.704 40.1866 28.5378 40.1973 28.3708C43.2919 27.9539 46.0016 25.6429 47.6068 23.0828C47.7895 22.7919 47.3387 22.5364 47.1488 22.8159Z" fill="#2247B1"/>
<path d="M38.4591 29.5862C38.1109 29.5862 37.8101 29.5412 37.6518 29.5116C37.3158 29.448 37.0308 29.362 36.7967 29.2578C36.5251 29.1362 36.3277 28.9356 36.2547 28.7078C36.1943 28.5199 36.2211 28.3214 36.3313 28.1346C36.6115 27.6585 37.3427 27.531 37.8267 27.4461L37.863 27.4398C38.1156 27.3956 38.4575 27.3356 38.7919 27.353C39.2451 27.2799 39.6146 27.3265 39.889 27.4915C39.962 27.535 40.0275 27.5883 40.0875 27.6526C42.6007 26.715 45.1706 25.4589 47.0221 22.7302C47.1749 22.5048 47.4406 22.5028 47.6147 22.6157C47.8057 22.7404 47.8567 22.971 47.7355 23.1644C45.8978 26.0956 43.1379 28.0845 40.3335 28.5057C40.3042 28.6636 40.2387 28.8113 40.1404 28.9388C39.7397 29.4626 39.0351 29.5862 38.4591 29.5862ZM38.6715 27.655C38.4042 27.655 38.1263 27.7035 37.9159 27.7402L37.8792 27.747C37.4769 27.8172 36.803 27.9349 36.5942 28.2894C36.5286 28.4007 36.5125 28.5101 36.5456 28.6147C36.5914 28.7576 36.732 28.8938 36.9214 28.9786C37.1311 29.0722 37.3999 29.1531 37.679 29.206C38.4859 29.3545 39.4705 29.3107 39.8988 28.7528C39.9853 28.6403 40.0358 28.5049 40.0449 28.3612L40.0528 28.2361L40.1771 28.2195C43.4218 27.7825 46.0754 25.2378 47.4773 23.0018C47.51 22.9493 47.5006 22.9059 47.4485 22.8715C47.4441 22.8684 47.3419 22.8028 47.2759 22.9011C45.3514 25.7376 42.6863 27.0166 40.0931 27.9763L39.9857 28.0162L39.9174 27.9242C39.8629 27.8508 39.8025 27.7951 39.733 27.7533C39.4658 27.5938 39.0931 27.6127 38.8258 27.6566L38.8092 27.6593L38.7919 27.6581C38.7516 27.6566 38.7117 27.655 38.6715 27.655Z" fill="#06142D"/>
<path d="M50.7624 42.0632H41.4292V45.2723H50.7624V42.0632Z" fill="#FB952C"/>
<path d="M50.7624 42.0632H41.4292V45.2723H50.7624V42.0632Z" stroke="#06142D" stroke-width="0.394773" stroke-miterlimit="10"/>
</g>
<path d="M70.7041 30.21C71.0017 28.3349 71.3002 26.4601 71.5971 24.5849C71.678 24.0749 71.5181 23.8542 71.0088 23.7721C68.5612 23.3757 66.1129 22.9833 63.6665 22.5814C63.383 22.5349 63.1351 22.5704 62.8967 22.7307C62.1292 23.2458 61.3626 23.7626 60.5872 24.2655C60.2671 24.4732 60.1099 24.7562 60.0515 25.1246C59.6236 27.8323 59.1893 30.5389 58.7574 33.2462C58.7097 33.5451 58.6599 33.8439 58.622 34.1444C58.5849 34.4377 58.6986 34.5944 58.984 34.6611C59.0954 34.6872 59.2095 34.7006 59.3228 34.7183C62.5567 35.2248 65.7907 35.7309 69.0239 36.2394C69.1266 36.2556 69.2359 36.2777 69.3243 36.3282C69.5194 36.4403 69.6465 36.3657 69.7144 36.1893C69.7756 36.031 69.8056 35.8585 69.8328 35.6891C70.1249 33.8633 70.4143 32.0367 70.7041 30.21Z" fill="white"/>
<path d="M71.0636 24.2924L69.2464 35.7361L59.1758 34.1369C59.1841 34.0453 59.1884 33.9758 59.1999 33.9039C59.6665 30.9459 60.1331 27.9879 60.6057 25.0306C60.6167 24.9619 60.6589 24.8759 60.7162 24.8372C61.5243 24.2809 62.3348 23.7283 63.1539 23.1835C63.2471 23.1215 63.3821 23.0757 63.4883 23.0927C65.8419 23.4571 68.2011 23.8281 70.5539 24.1988L70.9065 24.2549C70.9534 24.262 71.0024 24.2762 71.0636 24.2924Z" fill="#DCEFF4"/>
<path opacity="0.15" d="M71.0637 24.2923L69.2466 35.736L60.1865 34.2974C62.3503 33.5024 64.4631 31.4772 65.9526 30.1337C67.8491 28.4232 69.3555 26.4296 70.5541 24.1987L70.9066 24.2548C70.9536 24.2619 71.0025 24.2761 71.0637 24.2923Z" fill="#9B409E"/>
<path d="M70.7039 30.21C70.4137 32.0366 70.1247 33.8632 69.8322 35.6894C69.805 35.8584 69.775 36.0309 69.7138 36.1896C69.6459 36.3661 69.5184 36.4407 69.3237 36.3286C69.2357 36.278 69.1264 36.2559 69.0233 36.2397C65.7897 35.7313 62.5558 35.2252 59.3222 34.7187C59.2089 34.7009 59.0948 34.6871 58.9834 34.6614C58.698 34.5951 58.5847 34.438 58.6214 34.1447C58.6593 33.8442 58.7091 33.5454 58.7568 33.2466C59.1887 30.5396 59.623 27.8326 60.0509 25.1249C60.1093 24.7562 60.2661 24.4735 60.5866 24.2659C61.3624 23.7629 62.129 23.2462 62.8961 22.731C63.1345 22.5707 63.3824 22.5356 63.6659 22.5818C66.1127 22.9832 68.5606 23.376 71.0082 23.7724C71.5175 23.8549 71.6774 24.0752 71.5965 24.5852C71.3 26.4604 71.0019 28.3352 70.7039 30.21ZM69.2468 35.7344C69.8531 31.9154 70.4579 28.1074 71.0639 24.2907C71.0007 24.2761 70.9546 24.2627 70.9072 24.2552C68.4343 23.8652 65.9615 23.4743 63.487 23.0926C63.382 23.0764 63.2454 23.1218 63.1534 23.1834C62.3367 23.7274 61.525 24.2797 60.7165 24.8359C60.6601 24.8746 60.6154 24.9611 60.6044 25.0313C60.133 27.9882 59.666 30.9462 59.199 33.9039C59.1879 33.9741 59.1844 34.0456 59.1757 34.1352C62.5388 34.6693 65.8872 35.2011 69.2468 35.7344Z" fill="#06142D"/>
<path d="M65.6789 26.4274C64.6528 26.2644 63.626 26.1029 62.6004 25.9379C62.2803 25.8866 62.1441 25.7729 62.1752 25.5988C62.2064 25.4259 62.3683 25.3627 62.6912 25.414C64.7598 25.7417 66.8284 26.0713 68.8967 26.4022C68.9685 26.4136 69.0597 26.4219 69.1023 26.4681C69.1671 26.5384 69.2433 26.6485 69.2295 26.7267C69.2156 26.8056 69.1075 26.8842 69.0226 26.9284C68.9669 26.9576 68.8789 26.9315 68.8066 26.9201C67.764 26.7559 66.7218 26.5901 65.6793 26.4243C65.6793 26.4254 65.6789 26.4262 65.6789 26.4274Z" fill="#06142D"/>
<path d="M65.427 28.2138C64.4583 28.0598 63.4891 27.9058 62.5203 27.7523C62.4556 27.742 62.3908 27.7333 62.3265 27.7207C62.1441 27.6848 61.9384 27.6413 61.9807 27.3993C62.0221 27.1617 62.2341 27.1763 62.4157 27.2059C64.4981 27.5426 66.5798 27.8821 68.6614 28.222C68.8276 28.2489 68.984 28.3144 68.9468 28.5142C68.907 28.7285 68.7218 28.7226 68.5536 28.6962C67.5118 28.5327 66.4704 28.3665 65.4286 28.2011C65.4286 28.2051 65.4278 28.2094 65.427 28.2138Z" fill="#06142D"/>
<path d="M65.2457 29.3391C66.3045 29.5073 67.3633 29.6755 68.4221 29.8436C68.4544 29.8488 68.4872 29.8527 68.5188 29.8602C68.6692 29.8957 68.8236 29.9483 68.7987 30.1377C68.7715 30.3438 68.6041 30.3545 68.439 30.3296C67.5571 30.1958 66.6756 30.0608 65.7941 29.9242C64.5324 29.7288 63.2711 29.5326 62.0098 29.3332C61.8112 29.302 61.5731 29.2973 61.5728 29.0095C61.5728 28.8259 61.7555 28.7675 62.0962 28.8216C63.1467 28.989 64.1976 29.1556 65.2481 29.3221C65.2473 29.3285 65.2465 29.3336 65.2457 29.3391Z" fill="#06142D"/>
<path d="M69.5077 22.6912C69.8054 20.816 70.1038 18.9412 70.4007 17.066C70.4816 16.556 70.3217 16.3353 69.8125 16.2528C67.3649 15.8568 64.9165 15.464 62.4701 15.0622C62.1866 15.0156 61.9387 15.0511 61.7003 15.2114C60.9328 15.7266 60.1662 16.2433 59.3904 16.7463C59.0703 16.9539 58.9132 17.237 58.8547 17.6053C58.4268 20.313 57.9926 23.0196 57.5607 25.727C57.5129 26.0258 57.4632 26.3246 57.4253 26.6251C57.3882 26.9184 57.5019 27.0751 57.7873 27.1418C57.8986 27.1679 58.0127 27.1813 58.126 27.1991C61.36 27.7056 64.594 28.2117 67.8271 28.7201C67.9298 28.7363 68.0391 28.7584 68.1276 28.8089C68.3226 28.9211 68.4497 28.8464 68.5176 28.67C68.5788 28.5117 68.6088 28.3388 68.636 28.1698C68.9286 26.3444 69.2175 24.5178 69.5077 22.6912Z" fill="white"/>
<path d="M69.8673 16.7731L68.0502 28.2168L57.9795 26.6176C57.9878 26.526 57.9921 26.4565 58.0036 26.3846C58.4702 23.4266 58.9368 20.4686 59.4094 17.5113C59.4204 17.4426 59.4627 17.3566 59.5199 17.3179C60.328 16.7617 61.1385 16.209 61.9576 15.6642C62.0504 15.6022 62.1858 15.5564 62.292 15.5734C64.646 15.9378 67.0048 16.3088 69.3576 16.6795L69.7102 16.7356C69.7572 16.7431 69.8061 16.7569 69.8673 16.7731Z" fill="#DCEFF4"/>
<path opacity="0.15" d="M69.8674 16.773L68.0503 28.2167L58.9902 26.7781C61.154 25.9831 63.2668 23.9583 64.7563 22.6145C66.6528 20.9039 68.1592 18.9103 69.3578 16.6794L69.7103 16.7355C69.7573 16.743 69.8062 16.7568 69.8674 16.773Z" fill="#9B409E"/>
<path d="M69.5076 22.6911C69.2174 24.5177 68.9285 26.3443 68.6359 28.1706C68.6087 28.3395 68.5787 28.512 68.5175 28.6707C68.4496 28.8472 68.3221 28.9218 68.1275 28.8097C68.0394 28.7592 67.9301 28.7371 67.827 28.7209C64.5934 28.2124 61.3595 27.7063 58.1259 27.1998C58.0126 27.182 57.8985 27.1686 57.7872 27.1426C57.5017 27.0762 57.3884 26.9191 57.4252 26.6258C57.4631 26.3254 57.5128 26.0265 57.5606 25.7277C57.9924 23.0207 58.4267 20.3138 58.8546 17.606C58.9131 17.2373 59.0698 16.9547 59.3903 16.747C60.1661 16.2441 60.9327 15.7273 61.7002 15.2121C61.9386 15.0522 62.1865 15.0167 62.47 15.0629C64.9168 15.4644 67.3648 15.8572 69.8123 16.2535C70.3216 16.336 70.4815 16.5567 70.4006 17.0668C70.1037 18.9412 69.8052 20.8163 69.5076 22.6911ZM68.0505 28.2156C68.6569 24.3965 69.2616 20.5885 69.8676 16.7719C69.8045 16.7573 69.7583 16.7435 69.7109 16.7363C67.238 16.3467 64.7652 15.9555 62.2907 15.5741C62.1857 15.558 62.0491 15.6033 61.9572 15.6649C61.14 16.2089 60.3287 16.7612 59.5198 17.3175C59.4634 17.3561 59.4188 17.4426 59.4077 17.5129C58.9363 20.4697 58.4693 23.4278 58.0023 26.3854C57.9913 26.4557 57.9877 26.5271 57.979 26.6167C61.3421 27.1501 64.6906 27.6818 68.0505 28.2156Z" fill="#06142D"/>
<path d="M64.4826 18.9084C63.4566 18.7453 62.4298 18.5839 61.4041 18.4189C61.084 18.3675 60.9478 18.2538 60.979 18.0797C61.0101 17.9068 61.172 17.8437 61.4949 17.895C63.5635 18.2227 65.6321 18.5523 67.7004 18.8831C67.7722 18.8946 67.8634 18.9028 67.9061 18.949C67.9708 19.0193 68.047 19.1294 68.0332 19.2076C68.0193 19.2866 67.9112 19.3651 67.8263 19.4097C67.771 19.4389 67.6826 19.4129 67.6104 19.4014C66.5678 19.2372 65.5256 19.0714 64.483 18.9056C64.483 18.9064 64.4826 18.9072 64.4826 18.9084Z" fill="#06142D"/>
<path d="M64.2308 20.6943C63.2621 20.5403 62.2929 20.3868 61.3241 20.2328C61.2598 20.2225 61.1946 20.2138 61.1307 20.2012C60.9483 20.1653 60.7426 20.1219 60.7849 19.8799C60.8263 19.6422 61.0383 19.6572 61.2199 19.6864C63.3023 20.0232 65.384 20.3627 67.4656 20.7026C67.6318 20.7294 67.7882 20.795 67.751 20.9947C67.7112 21.2091 67.526 21.2032 67.3578 21.1771C66.316 21.0141 65.2742 20.8475 64.2328 20.6821C64.232 20.686 64.2316 20.6903 64.2308 20.6943Z" fill="#06142D"/>
<path d="M64.0494 21.8202C65.1082 21.9883 66.167 22.1565 67.2258 22.3247C67.2582 22.3298 67.2909 22.3338 67.3225 22.3413C67.4729 22.3768 67.6273 22.4293 67.6024 22.6188C67.5752 22.8249 67.4078 22.8355 67.2428 22.8107C66.3608 22.6768 65.4793 22.5418 64.5978 22.4052C63.3361 22.2098 62.0748 22.0132 60.8135 21.8146C60.6149 21.7835 60.3769 21.7783 60.3765 21.4909C60.3765 21.3074 60.5593 21.2489 60.8999 21.303C61.9504 21.4704 63.0013 21.637 64.0518 21.8036C64.051 21.8091 64.0502 21.8146 64.0494 21.8202Z" fill="#06142D"/>
<path d="M16.469 26.2582C20.0492 24.4477 22.5051 20.7377 22.5051 16.452C22.5051 10.3851 17.587 5.46704 11.5201 5.46704C5.45324 5.46704 0.535156 10.3851 0.535156 16.452C0.535156 22.5189 5.45324 27.437 11.5201 27.437C11.7266 27.437 11.9315 27.4303 12.1352 27.4188C13.1865 28.8506 15.7975 31.0815 21.5256 30.0097C21.5256 30.0097 17.3963 29.3469 16.469 26.2582Z" fill="#FB952C"/>
<path d="M16.6544 26.3355C20.3617 24.407 22.6597 20.6326 22.6597 16.452C22.6597 13.9002 21.7947 11.5438 20.3463 9.66424C18.6531 7.46377 16.1562 5.91428 13.302 5.45595C12.7212 5.36121 12.1251 5.31226 11.5203 5.31226C5.38044 5.31226 0.383789 10.3093 0.383789 16.452C0.383789 17.7018 0.591439 18.9059 0.976738 20.0278C2.18988 23.6096 5.18502 26.3785 8.90457 27.277C9.74505 27.4819 10.6191 27.5889 11.5207 27.5889C11.7039 27.5889 11.8843 27.5858 12.0616 27.5767C12.9601 28.7653 14.8976 30.4435 18.6843 30.4435C19.5429 30.4435 20.4967 30.3579 21.5539 30.1593L22.4157 30.0002L21.5507 29.8597C21.5109 29.8533 17.6141 29.1933 16.6544 26.3355ZM12.2598 27.3288L12.2108 27.2617L12.1283 27.2648C11.9266 27.277 11.7248 27.283 11.5199 27.283C10.805 27.283 10.1019 27.2127 9.42647 27.0781C5.43531 26.2925 2.22304 23.31 1.11057 19.444C0.835411 18.4933 0.688947 17.491 0.688947 16.452C0.688947 10.4771 5.54821 5.61781 11.5199 5.61781C11.9846 5.61781 12.4398 5.64821 12.889 5.70348C15.9513 6.09154 18.6223 7.76341 20.34 10.1624C21.6084 11.935 22.3541 14.1078 22.3541 16.452C22.3541 20.5596 20.0711 24.2633 16.4005 26.1215L16.2876 26.1796L16.3243 26.302C17.0274 28.652 19.4782 29.6303 20.7407 29.9848C15.6185 30.7183 13.2376 28.6615 12.2598 27.3288Z" fill="#06142D"/>
<path opacity="0.21" d="M21.5505 29.8593L22.4154 29.9999L21.5536 30.159C20.496 30.3575 19.5426 30.4432 18.684 30.4432C14.8973 30.4432 12.9598 28.7654 12.0613 27.5764C11.884 27.5854 11.7036 27.5886 11.5205 27.5886C10.6188 27.5886 9.74477 27.4816 8.9043 27.2767C8.98996 27.2463 9.07523 27.2155 9.16405 27.182C9.24972 27.1484 9.33815 27.1149 9.42697 27.0782C13.6353 25.4308 20.1632 21.1096 20.3405 10.1625C20.3436 10.0768 20.3468 9.99118 20.3436 9.90591C20.3436 9.82656 20.3468 9.74405 20.3468 9.66431C21.7952 11.5438 22.6602 13.9002 22.6602 16.452C22.6602 20.6327 20.3618 24.4071 16.6549 26.3356C17.6142 29.1933 21.511 29.8534 21.5505 29.8593Z" fill="#9B409E"/>
<path d="M8.88569 17.0517C8.88569 17.769 8.3042 18.3505 7.58689 18.3505C6.86959 18.3505 6.28809 17.769 6.28809 17.0517C6.28809 16.3344 6.86959 15.7529 7.58689 15.7529C8.3042 15.7529 8.88569 16.3344 8.88569 17.0517Z" fill="white"/>
<path d="M12.8203 17.0517C12.8203 17.769 12.2388 18.3505 11.5215 18.3505C10.8042 18.3505 10.2227 17.769 10.2227 17.0517C10.2227 16.3344 10.8042 15.7529 11.5215 15.7529C12.2388 15.7529 12.8203 16.3344 12.8203 17.0517Z" fill="white"/>
<path d="M16.7553 17.0517C16.7553 17.769 16.1738 18.3505 15.4565 18.3505C14.7392 18.3505 14.1577 17.769 14.1577 17.0517C14.1577 16.3344 14.7392 15.7529 15.4565 15.7529C16.1738 15.7529 16.7553 16.3344 16.7553 17.0517Z" fill="white"/>
<path opacity="0.2" d="M13.3018 5.45586C13.2347 5.49257 13.1671 5.53521 13.0969 5.57824C13.0298 5.61811 12.9595 5.66074 12.8888 5.70338C9.8021 7.61369 2.86475 12.5705 1.11038 19.4439C1.08275 19.5418 1.05827 19.6393 1.03695 19.7372C1.01247 19.8319 0.991158 19.9298 0.975761 20.0273C0.590858 18.9058 0.382812 17.7017 0.382812 16.4515C0.382812 10.3084 5.37946 5.31177 11.5194 5.31177C12.1249 5.31216 12.7211 5.36111 13.3018 5.45586Z" fill="white"/>
</svg>
