<svg width="62" height="61" viewBox="0 0 62 61" fill="none" xmlns="http://www.w3.org/2000/svg">
<path d="M34.2886 18.3547V25.9239H27.7138V18.3547C24.7936 19.6261 22.75 22.536 22.75 25.9239C22.75 30.4801 26.445 34.1726 31.0012 34.1726C35.5587 34.1726 39.2525 30.4801 39.2525 25.9239C39.2525 22.536 37.2088 19.6261 34.2886 18.3547Z" fill="#BCBEC0"/>
<path d="M38.45 27.4322C36.7675 30.474 33.0211 32.1966 29.647 31.0845C25.1823 29.6112 24.8225 24.0696 27.7138 21.0843V18.3547C24.7936 19.6261 22.75 22.536 22.75 25.9239C22.75 30.4801 26.445 34.1726 31.0012 34.1726C35.5587 34.1726 39.2525 30.4801 39.2525 25.9239C39.2525 25.6896 39.2387 25.4575 39.2223 25.2255C39.082 25.9852 38.84 26.7263 38.45 27.4322Z" fill="#A3A5A8"/>
<path d="M32.5711 34.0286H29.458V42.9218H32.5711V34.0286Z" fill="#D1D3D4"/>
<path d="M31.0154 34.0286H29.458V42.9218H31.0154V34.0286Z" fill="#BABCBE"/>
<path d="M34.112 52.0669V44.8023C33.7734 42.3411 31.0012 42.5581 31.0012 42.5581C27.9847 42.4865 27.8906 44.8023 27.8906 44.8023V52.0669H34.112Z" fill="#D83633"/>
<path d="M31.8553 52.0669V47.7915C31.8553 47.3213 31.473 46.9377 31.0015 46.9377C30.5313 46.9377 30.1477 47.3213 30.1477 47.7915V52.0669H31.8553Z" fill="#D1D3D4"/>
<path d="M56.2112 31.1885C56.2112 30.4236 56.1711 29.669 56.1046 28.9215L61.1535 27.5987L58.8903 18.9502L53.7435 20.2953C52.6577 18.0347 51.2461 15.9622 49.5671 14.1365L52.8708 9.85605L45.7943 4.39211L42.4479 8.72783C40.2826 7.62336 37.9405 6.8219 35.4728 6.38056V0.870117H26.5309V6.38056C24.1849 6.80071 21.9519 7.54152 19.8781 8.56221L16.5942 4.17772L9.43749 9.53892L12.6848 13.8733C11.4497 15.1797 10.3503 16.6128 9.416 18.1577L4.39342 16.3095L1.30533 24.7013L6.22906 26.5132C5.94436 28.0279 5.79029 29.5888 5.79029 31.1885C5.79029 31.7403 5.81405 32.2882 5.84935 32.8335L0.84668 34.1424L3.11114 42.7923L8.00211 41.511C9.06292 43.8717 10.472 46.0383 12.1722 47.9468L9.13033 51.8861L16.2081 57.349L19.2021 53.4685C21.4627 54.667 23.9265 55.5298 26.5306 55.9961V60.8698H35.4725V55.9961C37.9475 55.5509 40.297 54.7485 42.4662 53.6376L45.405 57.5622L52.5617 52.201L49.5828 48.2238C50.8455 46.8471 51.9525 45.3264 52.8866 43.6926L57.6058 45.4304L60.6952 37.0398L55.8767 35.2658C56.0947 33.9396 56.2112 32.5777 56.2112 31.1885ZM31.0011 48.0383C21.5199 48.0383 13.8329 40.3526 13.8329 30.8714C13.8329 21.3889 21.5199 13.7032 31.0011 13.7032C40.4823 13.7032 48.1692 21.3889 48.1692 30.8714C48.1696 40.3526 40.4823 48.0383 31.0011 48.0383Z" fill="#4D77BB"/>
<path d="M51.8745 45.3039C51.472 45.2814 51.0721 45.2563 50.6696 45.2236C47.9224 45.0005 45.2195 44.4138 42.6215 43.5035C39.5659 46.3184 35.4838 48.0385 31.0014 48.0385C21.5202 48.0385 13.8332 40.3529 13.8332 30.8717C13.8332 24.9022 16.8825 19.6453 21.5064 16.5682C21.0724 13.717 20.9408 10.8045 21.1918 7.96449C20.7467 8.15515 20.3092 8.35063 19.8791 8.56247L16.5952 4.17798L9.43849 9.53918L12.6858 13.8736C11.4507 15.18 10.3513 16.6131 9.41698 18.1579L4.3944 16.3098L1.30633 24.7016L6.23004 26.5135C5.94533 28.0282 5.79126 29.5891 5.79126 31.1888C5.79126 31.7405 5.81502 32.2884 5.85033 32.8338L0.847656 34.1427L3.11211 42.7926L8.00308 41.5112C9.0639 43.872 10.473 46.0386 12.1732 47.9471L9.1313 51.8864L16.2091 57.3493L19.2031 53.4687C21.4637 54.6673 23.9275 55.53 26.5315 55.9964V60.8701H35.4735V55.9964C37.9485 55.5512 40.298 54.7488 42.4672 53.6379L45.406 57.5624L52.5627 52.2012L49.5838 48.2241C50.4186 47.3112 51.1787 46.3332 51.8745 45.3039Z" fill="#39598D"/>
</svg>
