<svg width="106" height="107" viewBox="0 0 106 107" fill="none" xmlns="http://www.w3.org/2000/svg">
<rect width="150" height="35" transform="translate(24.9497 -24.0251) rotate(45)" fill="#0A3C77"/>
<path d="M55.8307 39.68C55.3259 39.1752 54.9563 38.634 54.722 38.0565C54.491 37.4824 54.4019 36.9049 54.4547 36.3241C54.5141 35.7433 54.722 35.1956 55.0784 34.6808L56.1327 35.448C55.7994 36.0123 55.6872 36.603 55.7961 37.22C55.9116 37.8371 56.2168 38.3931 56.7118 38.8881C57.0319 39.2082 57.3701 39.4474 57.7265 39.6058C58.0895 39.7642 58.4409 39.8252 58.7808 39.7889C59.1207 39.7526 59.4193 39.6058 59.6767 39.3484C59.8351 39.19 59.9423 39.0267 59.9984 38.8584C60.0611 38.6901 60.0842 38.5185 60.0677 38.3436C60.0578 38.1687 60.0215 37.9938 59.9588 37.8189C59.8961 37.644 59.8186 37.4741 59.7262 37.3091L58.4492 34.953C58.3106 34.6956 58.1934 34.43 58.0977 34.1561C58.0053 33.8789 57.9542 33.6001 57.9443 33.3196C57.9377 33.0358 57.9872 32.7553 58.0928 32.4782C58.2017 32.1977 58.3881 31.9254 58.6521 31.6615C59.0745 31.2391 59.5431 30.9883 60.0578 30.9091C60.5792 30.8299 61.1072 30.8992 61.6417 31.117C62.1763 31.3348 62.6779 31.6813 63.1465 32.1564C63.6216 32.6382 63.9632 33.1513 64.1711 33.6958C64.3856 34.2403 64.4615 34.7913 64.3988 35.349C64.3394 35.91 64.1364 36.4495 63.7899 36.9676L62.6911 36.1954C62.932 35.8555 63.0706 35.4959 63.1069 35.1164C63.1498 34.7369 63.1003 34.364 62.9584 33.9977C62.8198 33.6282 62.6003 33.2899 62.3001 32.983C62.013 32.6893 61.7044 32.4732 61.3745 32.3346C61.0445 32.196 60.7244 32.1432 60.4142 32.1762C60.1073 32.2059 59.8433 32.3313 59.6223 32.5524C59.4045 32.7702 59.2906 33.0094 59.2807 33.2701C59.2741 33.5275 59.322 33.7865 59.4243 34.0472C59.5332 34.3079 59.6503 34.5505 59.7757 34.7748L60.7409 36.5221C60.8531 36.7201 60.9719 36.9577 61.0973 37.2349C61.226 37.5154 61.3167 37.8206 61.3695 38.1506C61.4256 38.4773 61.4025 38.8171 61.3002 39.1702C61.2012 39.52 60.9801 39.8665 60.6369 40.2097C60.2938 40.5528 59.9192 40.7888 59.5134 40.9175C59.1108 41.0495 58.6966 41.0841 58.271 41.0214C57.8486 40.9554 57.4295 40.8069 57.0137 40.5759C56.5947 40.3483 56.2003 40.0496 55.8307 39.68ZM58.7945 42.3468L68.3079 37.6049L69.5354 38.8325L64.7936 48.3459L63.8779 47.4302L68.2584 38.585L68.5356 38.8622L59.7102 43.2625L58.7945 42.3468ZM61.6109 41.8271L62.4375 41.0005L66.1399 44.7029L65.3133 45.5295L61.6109 41.8271ZM65.2837 48.836L72.4113 41.7084L75.2277 44.5248C75.297 44.5941 75.3762 44.6799 75.4653 44.7821C75.5577 44.8811 75.6402 44.9834 75.7128 45.089C76.0395 45.5345 76.2309 45.9899 76.287 46.4552C76.3464 46.9237 76.2853 47.3808 76.1038 47.8262C75.9256 48.2684 75.6468 48.6792 75.2673 49.0587C74.8911 49.4349 74.4787 49.7121 74.0299 49.8903C73.5877 50.0685 73.1307 50.1295 72.6588 50.0734C72.1935 50.0173 71.7398 49.8276 71.2976 49.5042C71.1953 49.4283 71.093 49.3458 70.9907 49.2567C70.8884 49.1676 70.8026 49.0884 70.7333 49.0191L68.798 47.0838L66.1647 49.717L65.2837 48.836ZM69.6345 46.2473L71.5402 48.1529C71.6029 48.2156 71.6771 48.2833 71.7629 48.3559C71.852 48.4318 71.9411 48.4978 72.0302 48.5539C72.3107 48.7287 72.5912 48.8178 72.8716 48.8211C73.1587 48.8244 73.4293 48.765 73.6834 48.643C73.9408 48.5176 74.1685 48.3559 74.3665 48.1579C74.5645 47.9599 74.7245 47.7338 74.8466 47.4798C74.972 47.2224 75.033 46.9501 75.0297 46.6631C75.0297 46.3793 74.9406 46.0988 74.7624 45.8216C74.7096 45.7292 74.6437 45.6401 74.5645 45.5543C74.4919 45.4685 74.4242 45.3943 74.3615 45.3316L72.4559 43.4259L69.6345 46.2473Z" fill="white"/>
</svg>
