<svg width="36" height="36" viewBox="0 0 36 36" fill="none" xmlns="http://www.w3.org/2000/svg">
<path d="M27 11.25L20 11.25C19.59 11.25 19.25 10.91 19.25 10.5C19.25 10.09 19.59 9.75 20 9.75L27 9.75C27.41 9.75 27.75 10.09 27.75 10.5C27.75 10.91 27.41 11.25 27 11.25Z" fill="#2B51B7"/>
<path d="M27 16.25L20 16.25C19.59 16.25 19.25 15.91 19.25 15.5C19.25 15.09 19.59 14.75 20 14.75L27 14.75C27.41 14.75 27.75 15.09 27.75 15.5C27.75 15.91 27.41 16.25 27 16.25Z" fill="#2B51B7"/>
<path d="M27 21.25L9 21.25C8.59 21.25 8.25 20.91 8.25 20.5C8.25 20.09 8.59 19.75 9 19.75L27 19.75C27.41 19.75 27.75 20.09 27.75 20.5C27.75 20.91 27.41 21.25 27 21.25Z" fill="#2B51B7"/>
<path d="M27 26.25L9 26.25C8.59 26.25 8.25 25.91 8.25 25.5C8.25 25.09 8.59 24.75 9 24.75L27 24.75C27.41 24.75 27.75 25.09 27.75 25.5C27.75 25.91 27.41 26.25 27 26.25Z" fill="#2B51B7"/>
<path d="M13.92 9.5L11.08 9.5C9.68 9.5 9 10.18 9 11.58L9 14.43C9 15.83 9.68 16.51 11.08 16.51L13.93 16.51C15.33 16.51 16.01 15.83 16.01 14.43L16.01 11.58C16 10.18 15.32 9.5 13.92 9.5Z" fill="#2B51B7"/>
</svg>
