<svg width="12" height="13" viewBox="0 0 12 13" fill="none" xmlns="http://www.w3.org/2000/svg">
<path d="M4.27341 12.3056C4.83341 12.4747 5.39925 12.5739 6.00008 12.5739C7.54718 12.5739 9.03091 11.9593 10.1249 10.8653C11.2188 9.77139 11.8334 8.28766 11.8334 6.74056C11.8334 5.97452 11.6825 5.21597 11.3894 4.50824C11.0962 3.80051 10.6665 3.15745 10.1249 2.61577C9.5832 2.0741 8.94013 1.64442 8.2324 1.35126C7.52467 1.05811 6.76613 0.907227 6.00008 0.907227C5.23404 0.907227 4.47549 1.05811 3.76776 1.35126C3.06003 1.64442 2.41697 2.0741 1.87529 2.61577C0.78133 3.70973 0.166748 5.19346 0.166748 6.74056C0.166748 9.21973 1.72425 11.3489 3.92341 12.1889C3.87091 11.7339 3.81841 10.9814 3.92341 10.4622L4.59425 7.58056C4.59425 7.58056 4.42508 7.24223 4.42508 6.70556C4.42508 5.90056 4.92675 5.29973 5.49841 5.29973C6.00008 5.29973 6.23341 5.66723 6.23341 6.13973C6.23341 6.64139 5.90091 7.35889 5.73175 8.04723C5.63258 8.61889 6.03508 9.12056 6.61841 9.12056C7.65675 9.12056 8.46175 8.01223 8.46175 6.44889C8.46175 5.04889 7.45841 4.09223 6.01758 4.09223C4.37258 4.09223 3.40425 5.31723 3.40425 6.60639C3.40425 7.10806 3.56758 7.61556 3.83591 7.94806C3.88841 7.98306 3.88841 8.02973 3.87091 8.11723L3.70175 8.75306C3.70175 8.85223 3.63758 8.88723 3.53841 8.81723C2.79175 8.49056 2.36008 7.42889 2.36008 6.57139C2.36008 4.72806 3.66675 3.05389 6.18675 3.05389C8.19341 3.05389 9.75675 4.49473 9.75675 6.40806C9.75675 8.41473 8.51425 10.0247 6.73508 10.0247C6.16925 10.0247 5.61508 9.72139 5.41675 9.36556L5.02591 10.7481C4.89175 11.2497 4.52425 11.9206 4.27341 12.3231V12.3056Z" fill="white"/>
</svg>
