<svg width="14" height="14" viewBox="0 0 14 14" fill="none" xmlns="http://www.w3.org/2000/svg">
<path d="M5.27341 12.565C5.83341 12.7342 6.39925 12.8334 7.00008 12.8334C8.54718 12.8334 10.0309 12.2188 11.1249 11.1248C12.2188 10.0308 12.8334 8.54712 12.8334 7.00002C12.8334 6.23398 12.6825 5.47543 12.3894 4.7677C12.0962 4.05997 11.6665 3.41691 11.1249 2.87523C10.5832 2.33356 9.94013 1.90388 9.2324 1.61072C8.52467 1.31757 7.76613 1.16669 7.00008 1.16669C6.23404 1.16669 5.47549 1.31757 4.76776 1.61072C4.06003 1.90388 3.41697 2.33356 2.87529 2.87523C1.78133 3.96919 1.16675 5.45292 1.16675 7.00002C1.16675 9.47919 2.72425 11.6084 4.92341 12.4484C4.87091 11.9934 4.81841 11.2409 4.92341 10.7217L5.59425 7.84002C5.59425 7.84002 5.42508 7.50169 5.42508 6.96502C5.42508 6.16002 5.92675 5.55919 6.49841 5.55919C7.00008 5.55919 7.23341 5.92669 7.23341 6.39919C7.23341 6.90085 6.90091 7.61835 6.73175 8.30669C6.63258 8.87835 7.03508 9.38002 7.61841 9.38002C8.65675 9.38002 9.46175 8.27169 9.46175 6.70835C9.46175 5.30835 8.45841 4.35169 7.01758 4.35169C5.37258 4.35169 4.40425 5.57669 4.40425 6.86585C4.40425 7.36752 4.56758 7.87502 4.83591 8.20752C4.88841 8.24252 4.88841 8.28919 4.87091 8.37669L4.70175 9.01252C4.70175 9.11169 4.63758 9.14669 4.53841 9.07669C3.79175 8.75002 3.36008 7.68835 3.36008 6.83085C3.36008 4.98752 4.66675 3.31335 7.18675 3.31335C9.19341 3.31335 10.7567 4.75419 10.7567 6.66752C10.7567 8.67419 9.51425 10.2842 7.73508 10.2842C7.16925 10.2842 6.61508 9.98085 6.41675 9.62502L6.02591 11.0075C5.89175 11.5092 5.52425 12.18 5.27341 12.5825V12.565Z" fill="#13297E"/>
</svg>
