<svg width="60" height="61" viewBox="0 0 60 61" fill="none" xmlns="http://www.w3.org/2000/svg">
<g clip-path="url(#clip0_269_3298)">
<mask id="mask0_269_3298" style="mask-type:luminance" maskUnits="userSpaceOnUse" x="-9" y="-3" width="85" height="85">
<path d="M75.9375 -2.83423H-8.4375V81.5408H75.9375V-2.83423Z" fill="white"/>
</mask>
<g mask="url(#mask0_269_3298)">
<path d="M43.846 51.7213C43.846 52.0942 43.5436 52.3963 43.171 52.3963H38.9101C38.5372 52.3963 38.2351 52.0942 38.2351 51.7213V23.2663C38.2351 22.8934 38.5372 22.5913 38.9101 22.5913H43.171C43.5436 22.5913 43.846 22.8934 43.846 23.2663V51.7213Z" fill="#2FC280"/>
<path d="M42.1735 22.5913H40.0081V52.3966H42.1735V22.5913Z" fill="#358EB5"/>
<path d="M36.1506 18.7664C36.1506 20.6304 34.6392 22.1414 32.7756 22.1414H19.0508C17.1871 22.1414 15.6758 20.6304 15.6758 18.7664V16.8538C15.6758 14.9897 17.1871 13.4788 19.0508 13.4788H32.7756C34.6392 13.4788 36.1506 14.9897 36.1506 16.8538V18.7664Z" fill="#2FC280"/>
<path d="M41.0476 57.9161C41.0476 59.7801 39.5366 61.2911 37.6726 61.2911H14.2002C12.3365 61.2911 10.8252 59.7801 10.8252 57.9161V25.5161C10.8252 23.6521 12.3365 22.1411 14.2002 22.1411H37.6726C39.5366 22.1411 41.0476 23.6521 41.0476 25.5161V57.9161Z" fill="#2FC280"/>
<path d="M41.0476 52.8539C41.0476 54.7179 39.5366 56.2289 37.6726 56.2289H14.2002C12.3365 56.2289 10.8252 54.7179 10.8252 52.8539V20.4539C10.8252 18.5898 12.3365 17.0789 14.2002 17.0789H37.6726C39.5366 17.0789 41.0476 18.5898 41.0476 20.4539V52.8539Z" fill="#286B88"/>
<path d="M37.6726 17.0789H14.2002V56.2289H37.6726V17.0789Z" fill="#358EB5"/>
<path d="M33.9196 20.9041H17.8596V32.8289H33.9196V20.9041Z" fill="white"/>
<path d="M22.8765 53.5729C22.8765 53.8513 22.6511 54.0768 22.3726 54.0768H19.1394C18.8609 54.0768 18.6355 53.8513 18.6355 53.5729V51.2205C18.6355 50.9421 18.8609 50.7163 19.1394 50.7163H22.3726C22.6511 50.7163 22.8765 50.9421 22.8765 51.2205V53.5729Z" fill="#A13065"/>
<path d="M28.0101 53.5729C28.0101 53.8513 27.7846 54.0768 27.5062 54.0768H24.2733C23.9948 54.0768 23.769 53.8513 23.769 53.5729V51.2205C23.769 50.9421 23.9948 50.7163 24.2733 50.7163H27.5062C27.7846 50.7163 28.0101 50.9421 28.0101 51.2205V53.5729Z" fill="#FFD53D"/>
<path d="M33.1432 53.5729C33.1432 53.8513 32.9174 54.0768 32.639 54.0768H29.4061C29.1276 54.0768 28.9019 53.8513 28.9019 53.5729V51.2205C28.9019 50.9421 29.1276 50.7163 29.4061 50.7163H32.639C32.9174 50.7163 33.1432 50.9421 33.1432 51.2205V53.5729Z" fill="#2FC280"/>
<path d="M22.8765 48.9604C22.8765 49.2388 22.6511 49.4642 22.3726 49.4642H19.1394C18.8609 49.4642 18.6355 49.2388 18.6355 48.9604V46.608C18.6355 46.3295 18.8609 46.1038 19.1394 46.1038H22.3726C22.6511 46.1038 22.8765 46.3295 22.8765 46.608V48.9604Z" fill="#86BBD3"/>
<path d="M28.0101 48.9604C28.0101 49.2388 27.7846 49.4642 27.5062 49.4642H24.2733C23.9948 49.4642 23.769 49.2388 23.769 48.9604V46.608C23.769 46.3295 23.9948 46.1038 24.2733 46.1038H27.5062C27.7846 46.1038 28.0101 46.3295 28.0101 46.608V48.9604Z" fill="#86BBD3"/>
<path d="M33.1432 48.9604C33.1432 49.2388 32.9174 49.4642 32.639 49.4642H29.4061C29.1276 49.4642 28.9019 49.2388 28.9019 48.9604V46.608C28.9019 46.3295 29.1276 46.1038 29.4061 46.1038H32.639C32.9174 46.1038 33.1432 46.3295 33.1432 46.608V48.9604Z" fill="#86BBD3"/>
<path d="M22.8765 45.0231C22.8765 45.3015 22.6511 45.527 22.3726 45.527H19.1394C18.8609 45.527 18.6355 45.3015 18.6355 45.0231V42.6707C18.6355 42.3923 18.8609 42.1665 19.1394 42.1665H22.3726C22.6511 42.1665 22.8765 42.3923 22.8765 42.6707V45.0231Z" fill="#86BBD3"/>
<path d="M28.0101 45.0231C28.0101 45.3015 27.7846 45.527 27.5062 45.527H24.2733C23.9948 45.527 23.769 45.3015 23.769 45.0231V42.6707C23.769 42.3923 23.9948 42.1665 24.2733 42.1665H27.5062C27.7846 42.1665 28.0101 42.3923 28.0101 42.6707V45.0231Z" fill="#86BBD3"/>
<path d="M33.1432 45.0231C33.1432 45.3015 32.9174 45.527 32.639 45.527H29.4061C29.1276 45.527 28.9019 45.3015 28.9019 45.0231V42.6707C28.9019 42.3923 29.1276 42.1665 29.4061 42.1665H32.639C32.9174 42.1665 33.1432 42.3923 33.1432 42.6707V45.0231Z" fill="#86BBD3"/>
<path d="M22.8765 41.0854C22.8765 41.3638 22.6511 41.5892 22.3726 41.5892H19.1394C18.8609 41.5892 18.6355 41.3638 18.6355 41.0854V38.733C18.6355 38.4545 18.8609 38.2288 19.1394 38.2288H22.3726C22.6511 38.2288 22.8765 38.4545 22.8765 38.733V41.0854Z" fill="#86BBD3"/>
<path d="M28.0101 41.0854C28.0101 41.3638 27.7846 41.5892 27.5062 41.5892H24.2733C23.9948 41.5892 23.769 41.3638 23.769 41.0854V38.733C23.769 38.4545 23.9948 38.2288 24.2733 38.2288H27.5062C27.7846 38.2288 28.0101 38.4545 28.0101 38.733V41.0854Z" fill="#86BBD3"/>
<path d="M33.1432 41.0854C33.1432 41.3638 32.9174 41.5892 32.639 41.5892H29.4061C29.1276 41.5892 28.9019 41.3638 28.9019 41.0854V38.733C28.9019 38.4545 29.1276 38.2288 29.4061 38.2288H32.639C32.9174 38.2288 33.1432 38.4545 33.1432 38.733V41.0854Z" fill="#86BBD3"/>
<path d="M36.3093 58.5351C36.3093 58.8148 36.0825 59.0413 35.803 59.0413H16.3407C16.0613 59.0413 15.8345 58.8148 15.8345 58.5351C15.8345 58.2553 16.0613 58.0288 16.3407 58.0288H35.803C36.0825 58.0288 36.3093 58.2556 36.3093 58.5351Z" fill="#286B88"/>
<path d="M31.9173 3.46655L30.409 4.81655L28.9004 3.46655L27.3928 4.81655L25.8869 3.46655L24.3806 4.81655L22.8743 3.46655L21.3677 4.81655L19.8618 3.46655V15.2791H31.9173V3.46655Z" fill="white"/>
<path d="M22.116 26.6417L25.5521 29.7915L30.3472 23.9417" stroke="#2FC280" stroke-width="1.35" stroke-miterlimit="10" stroke-linecap="round"/>
</g>
<mask id="mask1_269_3298" style="mask-type:luminance" maskUnits="userSpaceOnUse" x="8" y="3" width="60" height="62">
<path d="M67.8381 3.57886H8.10059V64.3289H67.8381V3.57886Z" fill="white"/>
</mask>
<g mask="url(#mask1_269_3298)">
<path d="M61.1411 53.1731C61.1411 53.4416 60.9273 53.6591 60.6632 53.6591H39.4669C39.2031 53.6591 38.989 53.4416 38.989 53.1731V40.861C38.989 40.5925 39.2031 40.375 39.4669 40.375H60.6632C60.9273 40.375 61.1411 40.5925 61.1411 40.861V53.1731Z" fill="#A13065"/>
<path d="M45.6794 44.3446C45.6794 45.0158 45.1446 45.5596 44.4846 45.5596H42.0951C41.4352 45.5596 40.9004 45.0158 40.9004 44.3446V43.6156C40.9004 42.9447 41.4352 42.4006 42.0951 42.4006H44.4846C45.1446 42.4006 45.6794 42.9447 45.6794 43.6156V44.3446Z" fill="#FFD53D"/>
<path d="M44.8151 47.8276H40.9004V49.5286H44.8151V47.8276Z" fill="#86BBD3"/>
<path d="M51.1752 50.3384H40.9004V52.0394H51.1752V50.3384Z" fill="#86BBD3"/>
<path d="M49.4604 47.8276H45.5459V49.5286H49.4604V47.8276Z" fill="#86BBD3"/>
<path d="M54.1056 47.8276H50.1912V49.5286H54.1056V47.8276Z" fill="#86BBD3"/>
<path d="M58.7516 47.8276H54.8372V49.5286H58.7516V47.8276Z" fill="#86BBD3"/>
</g>
</g>
<defs>
<clipPath id="clip0_269_3298">
<rect width="60" height="60" fill="white" transform="translate(0 0.956543)"/>
</clipPath>
</defs>
</svg>
