<svg width="106" height="106" viewBox="0 0 106 106" fill="none" xmlns="http://www.w3.org/2000/svg">
<rect width="150" height="35" transform="translate(24.9497 -25.0251) rotate(45)" fill="#0A3C77"/>
<path d="M54.3711 36.9229L61.4987 29.7952L62.3798 30.6763L55.2521 37.8039L54.3711 36.9229ZM56.3413 38.8931L63.4689 31.7655L64.2708 32.5673L61.2861 40.9374L69.6413 37.9378L70.453 38.7496L63.3303 45.8723L62.4938 45.0358L67.6812 39.8484L60.0685 42.6203L59.5982 42.1501L62.3701 34.5373L57.1778 39.7296L56.3413 38.8931ZM66.6982 49.547C66.1933 49.0421 65.8237 48.5009 65.5894 47.9235C65.3584 47.3493 65.2693 46.7718 65.3221 46.1911C65.3815 45.6103 65.5894 45.0625 65.9458 44.5477L67.0001 45.3149C66.6668 45.8792 66.5546 46.4699 66.6635 47.087C66.779 47.704 67.0843 48.26 67.5792 48.755C67.8993 49.0751 68.2375 49.3143 68.5939 49.4727C68.9569 49.6311 69.3083 49.6922 69.6482 49.6559C69.9881 49.6196 70.2867 49.4727 70.5441 49.2154C70.7025 49.057 70.8098 48.8936 70.8659 48.7253C70.9286 48.557 70.9517 48.3854 70.9352 48.2106C70.9253 48.0357 70.889 47.8608 70.8263 47.6859C70.7636 47.511 70.686 47.341 70.5936 47.1761L69.3166 44.82C69.178 44.5626 69.0609 44.297 68.9652 44.0231C68.8728 43.7459 68.8216 43.467 68.8117 43.1866C68.8051 42.9028 68.8546 42.6223 68.9602 42.3451C69.0691 42.0646 69.2555 41.7924 69.5195 41.5284C69.9419 41.106 70.4105 40.8552 70.9253 40.776C71.4466 40.6968 71.9746 40.7661 72.5092 40.9839C73.0437 41.2017 73.5453 41.5482 74.0139 42.0234C74.4891 42.5051 74.8306 43.0183 75.0385 43.5627C75.253 44.1072 75.3289 44.6583 75.2662 45.216C75.2068 45.7769 75.0038 46.3164 74.6574 46.8345L73.5585 46.0624C73.7994 45.7225 73.938 45.3628 73.9743 44.9833C74.0172 44.6038 73.9677 44.231 73.8258 43.8647C73.6872 43.4951 73.4678 43.1569 73.1675 42.85C72.8804 42.5563 72.5719 42.3402 72.2419 42.2016C71.9119 42.063 71.5918 42.0102 71.2816 42.0432C70.9748 42.0729 70.7108 42.1983 70.4897 42.4193C70.2719 42.6371 70.158 42.8764 70.1481 43.1371C70.1415 43.3944 70.1894 43.6535 70.2917 43.9142C70.4006 44.1749 70.5177 44.4174 70.6431 44.6418L71.6083 46.389C71.7205 46.587 71.8393 46.8246 71.9647 47.1018C72.0934 47.3823 72.1841 47.6875 72.2369 48.0175C72.293 48.3442 72.2699 48.6841 72.1676 49.0372C72.0686 49.3869 71.8476 49.7334 71.5044 50.0766C71.1612 50.4198 70.7867 50.6557 70.3808 50.7844C69.9782 50.9164 69.5641 50.9511 69.1384 50.8884C68.716 50.8224 68.2969 50.6739 67.8812 50.4429C67.4621 50.2152 67.0678 49.9166 66.6982 49.547Z" fill="white"/>
</svg>
