<svg width="74" height="61" viewBox="0 0 74 61" fill="none" xmlns="http://www.w3.org/2000/svg">
<path d="M36.9477 20.4854H0.853271V48.2897H36.9477V20.4854Z" fill="#C49426"/>
<path d="M18.7421 21.9894L16.5161 18.4758H6.65716V21.9894H2.76099V49.6865H38.4846V21.9894H18.7421Z" fill="#E8B84B"/>
<path d="M73.1465 55.5578H40.7466V16.2686H68.8539L73.1465 21.0667V55.5578Z" fill="#DE3E3E"/>
<path d="M41.5249 16.8691H68.1912L72.231 21.4135V55.0439H41.5249V16.8691Z" fill="white"/>
<path d="M72.2309 21.4135H68.1636L68.1911 16.8691L72.2309 21.4135Z" fill="#A6A6A6"/>
<path d="M70.0496 23.7019H43.5583V24.5046H70.0496V23.7019Z" fill="#314C61"/>
<path d="M61.4841 21.5198H43.5583V22.3224H61.4841V21.5198Z" fill="#314C61"/>
<path d="M70.0496 25.8823H43.5583V26.685H70.0496V25.8823Z" fill="#314C61"/>
<path d="M70.0489 48.3987H44.323V53.065H70.0489V48.3987Z" fill="#ABABAB"/>
<path d="M50.3349 34.8345C48.8585 35.8113 48.4512 37.8071 49.428 39.2835C50.4047 40.7599 52.4005 41.1672 53.8769 40.1904C55.3534 39.2137 55.7606 37.2179 54.7838 35.7405C53.8071 34.265 51.8113 33.8578 50.3349 34.8345Z" fill="#E14EE6"/>
<path d="M48.5649 32.0834C45.613 34.0349 44.7996 38.0246 46.7521 40.9764C48.7036 43.9283 52.6932 44.7418 55.6451 42.7893C58.597 40.8378 59.4105 36.8481 57.4579 33.8963C55.5064 30.9454 51.5168 30.1319 48.5649 32.0834ZM54.6792 41.3296C52.5329 42.749 49.6312 42.1578 48.2118 40.0115C46.7924 37.8652 47.3836 34.9635 49.5299 33.5441C51.6762 32.1247 54.5779 32.7159 55.9972 34.8622C57.4176 37.0085 56.8255 39.9102 54.6792 41.3296Z" fill="#FF4747"/>
<path d="M52.9849 31.082L52.8098 32.825C54.0679 33.0178 55.2423 33.7201 55.9988 34.8621C57.4181 37.0084 56.827 39.9101 54.6807 41.3295L55.6466 42.7892C58.5985 40.8377 59.412 36.8481 57.4595 33.8962C56.4021 32.2988 54.7476 31.327 52.9849 31.082Z" fill="#4ABF85"/>
<path d="M49.3919 41.2344L48.3708 42.6567C50.4709 44.1558 53.3667 44.2954 55.6448 42.7895L54.6789 41.3298C53.0234 42.4246 50.9194 42.3233 49.3919 41.2344Z" fill="#587CC3"/>
<path d="M63.5978 30.08C63.2653 30.7488 63.5388 31.5643 64.2086 31.8977C64.8785 32.2302 65.6929 31.9567 66.0264 31.2869C66.3589 30.618 66.0854 29.8026 65.4156 29.4691C64.7457 29.1367 63.9303 29.4101 63.5978 30.08Z" fill="#FF4747"/>
<path d="M62.3694 29.4493C61.7045 30.7871 62.2514 32.4169 63.5901 33.0819C64.9288 33.7468 66.5578 33.1999 67.2227 31.8612C67.8876 30.5234 67.3407 28.8936 66.002 28.2286C64.6632 27.5637 63.0344 28.1116 62.3694 29.4493ZM66.5597 31.5327C66.0758 32.5055 64.8915 32.9038 63.9187 32.4199C62.9458 31.9359 62.5475 30.7517 63.0314 29.7779C63.5154 28.805 64.6997 28.4067 65.6735 28.8906C66.6453 29.3746 67.0437 30.5598 66.5597 31.5327Z" fill="#FF4747"/>
<path d="M63.7712 28.1481L64.0762 28.8219C64.5768 28.6262 65.1542 28.6341 65.6716 28.8908C66.6444 29.3747 67.0428 30.559 66.5588 31.5328L67.2208 31.8614C67.8858 30.5236 67.3389 28.8937 66.0001 28.2288C65.2772 27.8688 64.4677 27.8639 63.7712 28.1481Z" fill="#E3BD36"/>
<path d="M64.6077 32.6167L64.5359 33.3524C65.6208 33.4557 66.7078 32.8941 67.2212 31.8612L66.5592 31.5327C66.1864 32.2832 65.3966 32.6914 64.6077 32.6167Z" fill="#6F58C3"/>
<path d="M65.028 35.7021C64.2942 35.5614 63.582 36.0444 63.4413 36.7782C63.3007 37.512 63.7837 38.2241 64.5175 38.3648C65.2513 38.5054 65.9634 38.0225 66.104 37.2887C66.2447 36.5549 65.7627 35.8428 65.028 35.7021Z" fill="#E14EE6"/>
<path d="M65.3054 34.3495C63.8379 34.0682 62.4155 35.0332 62.1342 36.5008C61.8529 37.9683 62.8178 39.3907 64.2854 39.672C65.753 39.9533 67.1753 38.9883 67.4566 37.5208C67.7379 36.0532 66.773 34.6299 65.3054 34.3495ZM64.4241 38.9451C63.3569 38.7405 62.6555 37.7057 62.8601 36.6394C63.0647 35.5722 64.0985 34.8709 65.1658 35.0755C66.233 35.2801 66.9343 36.3148 66.7307 37.3811C66.5261 38.4483 65.4913 39.1497 64.4241 38.9451Z" fill="#FF4747"/>
<path d="M66.9351 35.3499L66.3685 35.8249C66.6911 36.2538 66.8397 36.8125 66.7305 37.381C66.5259 38.4483 65.4911 39.1496 64.4248 38.945L64.2861 39.6709C65.7537 39.9523 67.176 38.9873 67.4574 37.5197C67.6088 36.726 67.3954 35.944 66.9351 35.3499Z" fill="#4ABF85"/>
<path d="M62.8556 37.3574L62.1277 37.4863C62.3195 38.5584 63.1536 39.4555 64.2858 39.6719L64.4245 38.946C63.6022 38.7876 62.9963 38.1365 62.8556 37.3574Z" fill="#587CC3"/>
<path d="M64.0485 42.3224C63.4249 42.7346 63.2528 43.5776 63.6659 44.2012C64.078 44.8248 64.921 44.996 65.5446 44.5838C66.1683 44.1717 66.3404 43.3287 65.9273 42.7051C65.5142 42.0824 64.6722 41.9103 64.0485 42.3224Z" fill="#E3BD36"/>
<path d="M63.3005 41.1617C62.0543 41.986 61.711 43.67 62.5353 44.9163C63.3596 46.1625 65.0435 46.5058 66.2898 45.6815C67.536 44.8572 67.8793 43.1733 67.0551 41.927C66.2308 40.6807 64.5468 40.3375 63.3005 41.1617ZM65.8816 45.0648C64.9757 45.6638 63.7501 45.414 63.151 44.508C62.552 43.6021 62.8018 42.3765 63.7077 41.7775C64.6137 41.1784 65.8393 41.4283 66.4383 42.3342C67.0383 43.2402 66.7885 44.4658 65.8816 45.0648Z" fill="#FF4747"/>
<path d="M65.1668 40.7388L65.093 41.4745C65.6242 41.5562 66.1199 41.8523 66.4396 42.3342C67.0386 43.2402 66.7888 44.4658 65.8829 45.0648L66.2911 45.6815C67.5373 44.8573 67.8806 43.1733 67.0564 41.927C66.6088 41.2522 65.9114 40.8421 65.1668 40.7388Z" fill="#E14EE6"/>
<path d="M63.6498 45.0244L63.219 45.6254C64.1062 46.2579 65.3279 46.3169 66.2899 45.6815L65.8817 45.0647C65.1833 45.5271 64.2941 45.4848 63.6498 45.0244Z" fill="#52C34E"/>
<path d="M50.0989 39.8246H23.5674V0.783203H53.9813V35.8979L50.0989 39.8246Z" fill="#575757"/>
<path d="M49.6211 39.3936L24.0811 39.3877L24.0899 1.34473L53.5615 1.35162L53.5537 35.4021L49.6211 39.3936Z" fill="white"/>
<path d="M49.6221 35.4011L49.6211 39.3937L53.5537 35.4021L49.6221 35.4011Z" fill="#ABABAB"/>
<path d="M45.1947 4.92627H27.8179V8.44375H45.1947V4.92627Z" fill="#29A697"/>
<path d="M50.1857 10.478H27.8179V11.4853H50.1857V10.478Z" fill="#858585"/>
<path d="M50.1847 13.2959H27.8169V14.3031H50.1847V13.2959Z" fill="#858585"/>
<path d="M50.1818 25.9761H27.814V26.9833H50.1818V25.9761Z" fill="#858585"/>
<path d="M50.1808 28.7939H27.813V29.8012H50.1808V28.7939Z" fill="#858585"/>
<path d="M39.7425 31.6113H27.813V32.6186H39.7425V31.6113Z" fill="#858585"/>
<path d="M50.0352 16.2017H27.8149V23.8632H50.0352V16.2017Z" fill="#BF5E5E"/>
<path d="M12.8439 34.2909L10.646 35.1226L18.8874 56.9034L21.0853 56.0717L12.8439 34.2909Z" fill="#783636"/>
<path d="M21.596 60.7825L18.8782 56.9198L21.0756 56.0876L21.596 60.7825Z" fill="#D6AC6F"/>
<path d="M21.5957 60.7828L20.979 59.872L21.4738 59.6841L21.5957 60.7828Z" fill="#33353B"/>
<path d="M11.671 31.1916L9.47314 32.0232L10.6463 35.1236L12.8441 34.2919L11.671 31.1916Z" fill="#7A6B4A"/>
<path d="M9.70556 29.3271L9.68587 29.335C9.14881 29.5376 8.9029 30.2015 9.13504 30.8163L9.58162 31.9957L11.545 31.2531L11.0984 30.0737C10.8662 29.4579 10.2426 29.1245 9.70556 29.3271Z" fill="#C48F9B"/>
</svg>
