<svg width="80" height="61" viewBox="0 0 80 61" fill="none" xmlns="http://www.w3.org/2000/svg">
<path d="M66.8444 0.870352L0.152588 25.1426L13.1556 60.8703L79.8474 36.5981L66.8444 0.870352Z" fill="#388E3C"/>
<path d="M75.4985 12.3035H4.5271V50.3239H75.4985V12.3035Z" fill="#81C784"/>
<path d="M65.3597 22.4424V17.373H14.6658V22.4424H9.59644V40.1853H14.6658V45.2547H65.3597V40.1853H70.4291V22.4424H65.3597Z" fill="#4CAF50"/>
<path d="M40.0128 41.4526C45.6123 41.4526 50.1516 36.9133 50.1516 31.3138C50.1516 25.7143 45.6123 21.175 40.0128 21.175C34.4133 21.175 29.874 25.7143 29.874 31.3138C29.874 36.9133 34.4133 41.4526 40.0128 41.4526Z" fill="#81C784"/>
<path d="M41.6404 38.1367V22.0068H42.6737V38.1367H41.6404ZM45.1184 26.8458C45.0428 26.2073 44.7362 25.7116 44.1985 25.3588C43.6609 25.0059 43.0014 24.8295 42.2201 24.8295C41.6488 24.8295 41.149 24.9219 40.7205 25.1068C40.2963 25.2916 39.9644 25.5457 39.725 25.8691C39.4898 26.1926 39.3722 26.5601 39.3722 26.9718C39.3722 27.3162 39.4541 27.6123 39.6179 27.8602C39.7859 28.1038 40.0001 28.3075 40.2606 28.4713C40.521 28.631 40.794 28.7633 41.0797 28.8683C41.3653 28.9691 41.6278 29.051 41.8672 29.114L43.1778 29.4669C43.5138 29.5551 43.8877 29.6769 44.2993 29.8323C44.7152 29.9877 45.1121 30.1998 45.4902 30.4687C45.8724 30.7333 46.1874 31.0736 46.4353 31.4894C46.6831 31.9052 46.807 32.4156 46.807 33.0205C46.807 33.7178 46.6243 34.3478 46.2589 34.9107C45.8976 35.4736 45.3684 35.9209 44.6711 36.2528C43.978 36.5846 43.1358 36.7505 42.1445 36.7505C41.2204 36.7505 40.4202 36.6014 39.7439 36.3032C39.0718 36.0049 38.5426 35.5891 38.1561 35.0556C37.7739 34.5221 37.5575 33.9026 37.5071 33.1969H39.1201C39.1621 33.6842 39.326 34.0874 39.6116 34.4066C39.9014 34.7217 40.2669 34.9569 40.7079 35.1123C41.1532 35.2635 41.632 35.3391 42.1445 35.3391C42.7409 35.3391 43.2765 35.2425 43.7512 35.0493C44.2258 34.8519 44.6018 34.5789 44.879 34.2302C45.1562 33.8774 45.2948 33.4657 45.2948 32.9953C45.2948 32.5668 45.1751 32.2182 44.9357 31.9494C44.6963 31.6805 44.3812 31.4621 43.9906 31.2941C43.5999 31.1261 43.1778 30.979 42.7241 30.853L41.1364 30.3994C40.1282 30.1095 39.3302 29.6958 38.7421 29.1581C38.154 28.6205 37.86 27.9169 37.86 27.0474C37.86 26.3249 38.0553 25.6948 38.4459 25.1572C38.8408 24.6153 39.3701 24.1953 40.0337 23.897C40.7016 23.5946 41.4472 23.4434 42.2705 23.4434C43.1022 23.4434 43.8415 23.5925 44.4883 23.8907C45.1352 24.1848 45.6477 24.588 46.0257 25.1005C46.408 25.6129 46.6096 26.1947 46.6306 26.8458H45.1184Z" fill="#388E3C"/>
</svg>
