<svg width="40" height="40" viewBox="0 0 40 40" fill="none" xmlns="http://www.w3.org/2000/svg">
<path d="M26.9834 3.33399L13.0167 3.33399C6.95004 3.33399 3.33337 6.95065 3.33337 13.0173L3.33337 26.9673C3.33337 33.0506 6.95003 36.6673 13.0167 36.6673L26.9667 36.6673C33.0334 36.6673 36.65 33.0507 36.65 26.984L36.65 13.0173C36.6667 6.95066 33.05 3.33399 26.9834 3.33399ZM24.65 20.884L18.7667 26.7673C18.5167 27.0173 18.2 27.134 17.8834 27.134C17.5667 27.134 17.25 27.0173 17 26.7673C16.5167 26.284 16.5167 25.484 17 25.0006L22 20.0007L17 15.0007C16.5167 14.5173 16.5167 13.7173 17 13.234C17.4834 12.7507 18.2834 12.7507 18.7667 13.234L24.65 19.1173C25.15 19.6007 25.15 20.4007 24.65 20.884Z" fill="#172E6C"/>
</svg>
