<svg width="60" height="61" viewBox="0 0 60 61" fill="none" xmlns="http://www.w3.org/2000/svg">
<path d="M32.7328 8.62866H27.2666V23.8544H32.7328V8.62866Z" fill="#0593A1"/>
<path d="M35.4516 10.2238L30.0002 0.783447L24.5488 10.2238H35.4516Z" fill="#0593A1"/>
<path d="M32.7333 37.7122H27.2671V52.9379H32.7333V37.7122Z" fill="#485678"/>
<path d="M24.5488 51.3433L30.0002 60.7837L35.4516 51.3433H24.5488Z" fill="#485678"/>
<path d="M23.0705 28.0505H7.84473V33.5167H23.0705V28.0505Z" fill="#DF4937"/>
<path d="M9.44038 25.332L0 30.7834L9.44038 36.2348V25.332Z" fill="#DF4937"/>
<path d="M52.1549 28.05H36.9292V33.5162H52.1549V28.05Z" fill="#FDD303"/>
<path d="M50.5596 36.2348L60 30.7834L50.5596 25.332V36.2348Z" fill="#FDD303"/>
<path d="M41.6431 19.1749L47.1915 22.0432L36.0948 19.8858L30.5464 17.0176L41.6431 19.1749Z" fill="#C7B77A"/>
<path d="M28.1348 20.9641L41.6432 19.1748L41.4942 42.7112L27.9858 44.5012L28.1348 20.9641Z" fill="#FFEB9C"/>
<path d="M17.0386 18.8075L30.547 17.0176L41.6437 19.1749L28.1353 20.9642L17.0386 18.8075Z" fill="#706745"/>
<path d="M28.1354 20.9643L27.9864 44.5013L16.8896 42.344L17.0386 18.8076L28.1354 20.9643Z" fill="#BAAB72"/>
<path d="M31.7204 25.6352L45.2288 23.8459L41.6431 19.1748L28.1348 20.9641L31.7204 25.6352Z" fill="#E7D58D"/>
<path d="M19.9234 25.1582L28.1352 20.9643L17.0384 18.8076L8.82666 23.0015L19.9234 25.1582Z" fill="#C7B77A"/>
<g opacity="0.5">
<path d="M36.7912 35.4051C36.849 35.8052 36.6762 36.0589 36.5215 36.2008C36.2357 36.4635 35.8015 36.556 35.49 36.4231C35.3198 36.3498 35.1182 36.1745 35.1194 35.759L35.1342 31.937L38.2549 31.6011C37.6692 30.2883 36.384 29.4579 34.8825 29.6043C33.3809 29.7508 32.0887 30.8554 31.4927 32.33L34.6024 31.9948L34.5896 35.8251C34.5877 36.3723 34.8279 36.7904 35.2472 36.9709C35.4528 37.0589 35.6872 37.0846 35.9235 37.0531C36.2466 37.0107 36.5722 36.863 36.8297 36.626C37.2132 36.274 37.3891 35.7718 37.3134 35.2477L36.7912 35.4051Z" fill="#3C3C3B"/>
</g>
</svg>
