<svg width="165" height="151" viewBox="0 0 165 151" fill="none" xmlns="http://www.w3.org/2000/svg">
<circle cx="82" cy="75.7397" r="75" fill="#EFF3FF"/>
<g clip-path="url(#clip0_302_2145)">
<path d="M81.7779 116.436C109.473 116.436 131.924 115.124 131.924 113.507C131.924 111.89 109.473 110.579 81.7779 110.579C54.083 110.579 31.6318 111.89 31.6318 113.507C31.6318 115.124 54.083 116.436 81.7779 116.436Z" fill="#D0D0D0"/>
<path d="M101.853 36.4693V113.146C101.853 113.777 101.347 114.267 100.716 114.267H65.0309C64.7459 114.267 64.4983 114.161 64.3173 113.98C64.1282 113.796 64.0137 113.535 64.0137 113.239V36.3759C64.0137 35.8752 64.3838 35.436 64.8845 35.436H75.0193C75.3043 35.436 75.5652 35.6225 75.6718 35.8915L76.0926 36.9247C76.1991 37.1911 76.4575 37.3773 76.7449 37.3773H89.1458C89.4334 37.3773 89.6918 37.1989 89.798 36.9327L90.2188 35.8943C90.3254 35.6254 90.5838 35.4363 90.8714 35.4363H100.86C101.411 35.436 101.853 35.9153 101.853 36.4693Z" fill="#0A3C77"/>
<path opacity="0.6" d="M68.7192 38.5244H69.2466V37.8214H68.7192V38.5244Z" fill="white"/>
<path opacity="0.6" d="M67.8599 38.5244H68.3872V37.5869H67.8599V38.5244Z" fill="white"/>
<path opacity="0.6" d="M67.001 38.5244H67.5283V37.3526H67.001V38.5244Z" fill="white"/>
<path opacity="0.6" d="M66.1416 38.5244H66.6689V37.118H66.1416V38.5244Z" fill="white"/>
<path opacity="0.6" d="M97.0224 37.5649H96.71V38.2679H97.0224V37.5649Z" fill="white"/>
<path opacity="0.6" d="M97.2374 38.5244H99.7275V37.3083H97.2374V38.5244Z" fill="white"/>
<g opacity="0.1">
<path d="M81.0376 37.3761L70.1445 78.1792V78.1816L70.0232 78.6401V78.6425L69.8266 79.3775V79.3798L69.703 79.8381L64.0151 101.144V75.3581L74.6731 35.4355H75.02C75.3063 35.4355 75.5657 35.6223 75.6725 35.8915L76.092 36.9248C76.1988 37.1917 76.4582 37.3758 76.7445 37.3758L81.0376 37.3761Z" fill="white"/>
<path d="M101.854 58.2144V84.0008L95.0598 109.45L94.895 110.068L93.7744 114.267H86.8906L88.011 110.071L88.1905 109.397L89.0905 106.025L89.27 105.351L89.6314 104.002L89.8108 103.328L90.1698 101.979L90.3493 101.305L96.0131 80.0931V80.0908L96.2751 79.1108V79.1085L101.854 58.2144Z" fill="white"/>
<path d="M84.7683 37.3762L73.943 77.9247L73.8776 78.1673L73.2858 80.3892L73.2204 80.6318L64.3183 113.981C64.1289 113.796 64.0151 113.535 64.0151 113.239V109.316L71.6727 80.6315L71.7382 80.3889L72.3299 78.167L72.3953 77.9244L83.2207 37.376L84.7683 37.3762Z" fill="white"/>
</g>
<path opacity="0.3" d="M101.853 40.4346H64.0137V110.872H101.853V40.4346Z" fill="white"/>
<path d="M94.5729 71.3873C95.3007 71.3873 95.8909 70.7971 95.8909 70.0694V49.2618C95.8909 48.5338 95.3007 47.9438 94.5729 47.9438C93.8451 47.9438 93.2549 48.5338 93.2549 49.2618V70.0694C93.2549 70.7971 93.8448 71.3873 94.5729 71.3873Z" fill="#0A3C77"/>
<path opacity="0.3" d="M94.5727 70.8699C94.1312 70.8699 93.772 70.5107 93.772 70.0692V49.2617C93.772 48.8202 94.1312 48.4609 94.5727 48.4609C95.0142 48.4609 95.3734 48.8202 95.3734 49.2617V70.0692C95.3732 70.5107 95.0142 70.8699 94.5727 70.8699Z" fill="black"/>
<path d="M96.4608 51.6175C96.6298 50.5757 95.9223 49.5941 94.8805 49.425C93.8387 49.2559 92.8571 49.9634 92.688 51.0052C92.5189 52.047 93.2264 53.0287 94.2682 53.1977C95.31 53.3668 96.2917 52.6593 96.4608 51.6175Z" fill="#0A3C77"/>
<path d="M86.8136 71.3873C87.5414 71.3873 88.1316 70.7971 88.1316 70.0694V49.2618C88.1316 48.5338 87.5414 47.9438 86.8136 47.9438C86.0858 47.9438 85.4956 48.5338 85.4956 49.2618V70.0694C85.4956 70.7971 86.0855 71.3873 86.8136 71.3873Z" fill="#0A3C77"/>
<path opacity="0.3" d="M86.8134 70.8699C86.3719 70.8699 86.0127 70.5107 86.0127 70.0692V49.2617C86.0127 48.8202 86.3719 48.4609 86.8134 48.4609C87.2549 48.4609 87.6142 48.8202 87.6142 49.2617V70.0692C87.6139 70.5107 87.2549 70.8699 86.8134 70.8699Z" fill="black"/>
<path d="M88.702 67.1361C88.871 66.0942 88.1635 65.1126 87.1217 64.9435C86.0799 64.7745 85.0983 65.4819 84.9292 66.5238C84.7601 67.5656 85.4676 68.5472 86.5094 68.7163C87.5513 68.8854 88.5329 68.1779 88.702 67.1361Z" fill="#0A3C77"/>
<path d="M79.0538 71.3873C79.7816 71.3873 80.3718 70.7971 80.3718 70.0694V49.2618C80.3718 48.5338 79.7816 47.9438 79.0538 47.9438C78.326 47.9438 77.7358 48.5338 77.7358 49.2618V70.0694C77.7361 70.7971 78.326 71.3873 79.0538 71.3873Z" fill="#0A3C77"/>
<path opacity="0.3" d="M79.0546 70.8699C78.6131 70.8699 78.2539 70.5107 78.2539 70.0692V49.2617C78.2539 48.8202 78.6131 48.4609 79.0546 48.4609C79.4961 48.4609 79.8554 48.8202 79.8554 49.2617V70.0692C79.8551 70.5107 79.4961 70.8699 79.0546 70.8699Z" fill="black"/>
<path d="M80.9422 56.7909C81.1113 55.749 80.4038 54.7674 79.362 54.5983C78.3201 54.4292 77.3385 55.1367 77.1694 56.1786C77.0003 57.2204 77.7078 58.202 78.7497 58.3711C79.7915 58.5402 80.7731 57.8327 80.9422 56.7909Z" fill="#0A3C77"/>
<path d="M71.295 71.3873C72.0228 71.3873 72.613 70.7971 72.613 70.0694V49.2618C72.613 48.5338 72.0228 47.9438 71.295 47.9438C70.5672 47.9438 69.9771 48.5338 69.9771 49.2618V70.0694C69.9773 70.7971 70.5672 71.3873 71.295 71.3873Z" fill="#0A3C77"/>
<path opacity="0.3" d="M71.2954 70.8699C70.8539 70.8699 70.4946 70.5107 70.4946 70.0692V49.2617C70.4946 48.8202 70.8539 48.4609 71.2954 48.4609C71.7368 48.4609 72.0961 48.8202 72.0961 49.2617V70.0692C72.0958 70.5107 71.7368 70.8699 71.2954 70.8699Z" fill="black"/>
<path d="M73.1834 64.5496C73.3525 63.5078 72.645 62.5262 71.6032 62.3571C70.5613 62.188 69.5797 62.8955 69.4106 63.9373C69.2416 64.9792 69.9491 65.9608 70.9909 66.1299C72.0327 66.299 73.0143 65.5915 73.1834 64.5496Z" fill="#0A3C77"/>
<path opacity="0.6" d="M96.4608 51.6175C96.6298 50.5757 95.9223 49.5941 94.8805 49.425C93.8387 49.2559 92.8571 49.9634 92.688 51.0052C92.5189 52.047 93.2264 53.0287 94.2682 53.1977C95.31 53.3668 96.2917 52.6593 96.4608 51.6175Z" fill="white"/>
<path opacity="0.6" d="M94.5725 52.705C93.8041 52.705 93.1787 52.0799 93.1787 51.3113C93.1787 50.5429 93.8038 49.9175 94.5725 49.9175C95.3411 49.9175 95.9663 50.5429 95.9663 51.3113C95.966 52.0799 95.3409 52.705 94.5725 52.705Z" fill="white"/>
<path opacity="0.6" d="M88.702 67.1361C88.871 66.0942 88.1635 65.1126 87.1217 64.9435C86.0799 64.7745 85.0983 65.4819 84.9292 66.5238C84.7601 67.5656 85.4676 68.5472 86.5094 68.7163C87.5513 68.8854 88.5329 68.1779 88.702 67.1361Z" fill="white"/>
<path opacity="0.6" d="M86.8137 68.2231C86.0453 68.2231 85.4199 67.598 85.4199 66.8293C85.4199 66.0607 86.045 65.4355 86.8137 65.4355C87.5824 65.4355 88.2075 66.0607 88.2075 66.8293C88.2072 67.598 87.5821 68.2231 86.8137 68.2231Z" fill="white"/>
<path opacity="0.6" d="M80.9422 56.7909C81.1113 55.749 80.4038 54.7674 79.362 54.5983C78.3201 54.4292 77.3385 55.1367 77.1694 56.1786C77.0003 57.2204 77.7078 58.202 78.7497 58.3711C79.7915 58.5402 80.7731 57.8327 80.9422 56.7909Z" fill="white"/>
<path opacity="0.6" d="M79.0549 57.8779C78.2865 57.8779 77.6611 57.2528 77.6611 56.4841C77.6611 55.7157 78.2862 55.0903 79.0549 55.0903C79.8233 55.0903 80.4487 55.7157 80.4487 56.4841C80.4484 57.2528 79.8233 57.8779 79.0549 57.8779Z" fill="white"/>
<path opacity="0.6" d="M73.1834 64.5496C73.3525 63.5078 72.645 62.5262 71.6032 62.3571C70.5613 62.188 69.5797 62.8955 69.4106 63.9373C69.2416 64.9792 69.9491 65.9608 70.9909 66.1299C72.0327 66.299 73.0143 65.5915 73.1834 64.5496Z" fill="white"/>
<path opacity="0.6" d="M71.2956 65.6367C70.5272 65.6367 69.9019 65.0116 69.9019 64.2429C69.9019 63.4745 70.527 62.8491 71.2956 62.8491C72.064 62.8491 72.6894 63.4745 72.6894 64.2429C72.6891 65.0116 72.064 65.6367 71.2956 65.6367Z" fill="white"/>
<path d="M99.3124 108.108H66.5548C66.1619 108.108 65.8433 107.789 65.8433 107.396V76.8013C65.8433 76.4085 66.1619 76.0898 66.5548 76.0898H99.3127C99.7055 76.0898 100.024 76.4085 100.024 76.8013V107.396C100.024 107.789 99.7055 108.108 99.3124 108.108Z" fill="#0A3C77"/>
<path opacity="0.3" d="M99.3124 108.108H66.5548C66.1619 108.108 65.8433 107.789 65.8433 107.396V76.8013C65.8433 76.4085 66.1619 76.0898 66.5548 76.0898H99.3127C99.7055 76.0898 100.024 76.4085 100.024 76.8013V107.396C100.024 107.789 99.7055 108.108 99.3124 108.108Z" fill="black"/>
<path opacity="0.6" d="M79.8496 96.8433V99.5957L81.2669 99.7291C81.4583 100.652 81.8238 101.51 82.3239 102.271L81.4136 103.371L83.3598 105.317L84.4595 104.407C85.2214 104.907 86.079 105.273 87.0016 105.464L87.135 106.881H89.8874L90.0209 105.464C90.9437 105.273 91.8013 104.907 92.5632 104.407L93.6629 105.317L95.6091 103.371L94.6987 102.271C95.1987 101.51 95.5641 100.652 95.7558 99.7291L97.1728 99.5957V96.8433L95.7558 96.7098C95.5644 95.7873 95.1987 94.9294 94.6987 94.1675L95.6091 93.0678L93.6629 91.1216L92.5635 92.032C91.8015 91.532 90.9439 91.1663 90.0211 90.9749L89.8877 89.5576H87.1353L87.0018 90.9749C86.0793 91.1663 85.2214 91.5318 84.4595 92.032L83.36 91.1216L81.4138 93.0678L82.3242 94.1675C81.8243 94.9294 81.4583 95.787 81.2672 96.7098L79.8496 96.8433ZM88.5112 94.4934C90.5692 94.4934 92.2373 96.1615 92.2373 98.2195C92.2373 100.277 90.5692 101.946 88.5112 101.946C86.4535 101.946 84.7854 100.277 84.7854 98.2195C84.7854 96.1618 86.4535 94.4934 88.5112 94.4934Z" fill="white"/>
<path opacity="0.4" d="M68.6948 88.9398V91.0967L69.8054 91.2012C69.9554 91.9241 70.242 92.5963 70.6338 93.1935L69.9205 94.055L71.4454 95.5801L72.3071 94.8668C72.9041 95.2587 73.5763 95.5452 74.2991 95.6952L74.4036 96.8058H76.5604L76.6648 95.6952C77.388 95.5452 78.0602 95.2587 78.6571 94.8668L79.5186 95.5801L81.0438 94.055L80.3304 93.1935C80.7223 92.5963 81.0088 91.9241 81.1588 91.2012L82.2694 91.0967V88.9398L81.1588 88.8353C81.0088 88.1124 80.7223 87.4402 80.3304 86.843L81.0438 85.9815L79.5186 84.4564L78.6571 85.1697C78.0602 84.7781 77.388 84.4915 76.6648 84.3415L76.5604 83.231H74.4036L74.2991 84.3415C73.5763 84.4915 72.9038 84.7781 72.3069 85.1697L71.4454 84.4564L69.9205 85.9815L70.6338 86.843C70.242 87.4402 69.9554 88.1121 69.8054 88.8353L68.6948 88.9398ZM75.4824 87.0985C77.095 87.0985 78.4021 88.4057 78.4021 90.0182C78.4021 91.6308 77.095 92.9382 75.4824 92.9382C73.8698 92.9382 72.5627 91.6311 72.5627 90.0182C72.5627 88.4057 73.8698 87.0985 75.4824 87.0985Z" fill="white"/>
<path opacity="0.2" d="M80.7231 82.2804V84.0921L81.656 84.1801C81.7817 84.7873 82.0225 85.3519 82.3515 85.8534L81.7522 86.5771L83.0332 87.8581L83.7569 87.2588C84.2584 87.5878 84.823 87.8286 85.4303 87.9543L85.5182 88.8872H87.3297L87.4176 87.9543C88.0249 87.8283 88.5895 87.5875 89.0909 87.2586L89.8146 87.8578L91.0956 86.5768L90.4964 85.8532C90.8253 85.3517 91.0659 84.7871 91.1918 84.1798L92.1247 84.0919L92.1244 82.2801L91.1918 82.1925C91.0659 81.5852 90.8251 81.0206 90.4961 80.5191L91.0953 79.7955L89.8143 78.5145L89.0907 79.1137C88.5892 78.7847 88.0246 78.5439 87.4173 78.418L87.3294 77.4854H85.5179L85.43 78.418C84.8227 78.5439 84.2581 78.7847 83.7566 79.1137L83.033 78.5145L81.752 79.7955L82.3512 80.5191C82.0223 81.0206 81.7815 81.5852 81.6555 82.1925L80.7231 82.2804ZM86.4239 80.734C87.7784 80.734 88.8763 81.8319 88.8763 83.1864C88.8763 84.5408 87.7784 85.6387 86.4239 85.6387C85.0697 85.6387 83.9716 84.5406 83.9716 83.1864C83.9716 81.8319 85.0697 80.734 86.4239 80.734Z" fill="white"/>
<path opacity="0.6" d="M77.5592 89.4612L76.0385 87.9404L73.9609 88.497L73.4043 90.5743L74.9251 92.0951L77.0024 91.5385L77.5592 89.4612Z" fill="white"/>
<path opacity="0.8" d="M88.8477 95.5757L86.3904 96.6066L86.0547 99.2498L88.176 100.862L90.6333 99.8315L90.969 97.188L88.8477 95.5757Z" fill="white"/>
<path opacity="0.4" d="M87.9517 84.0687V82.3048L86.4245 81.4229L84.897 82.3048V84.0687L86.4245 84.9503L87.9517 84.0687Z" fill="white"/>
<path d="M123.467 67.3076L126.219 69.5425C126.219 69.5425 126.892 69.5564 127.103 69.7786C127.314 70.0008 128.127 71.6521 128.011 71.8774C127.896 72.1027 126.538 72.5478 126.252 72.2814C125.966 72.015 125.468 70.487 125.478 70.3241L121.962 67.9656L123.467 67.3076Z" fill="#B97964"/>
<path d="M124.993 68.2905L124.377 69.6328C124.377 69.6328 120.593 67.8612 119.773 66.8292C119.564 66.5628 119.274 66.1387 118.961 65.6551C118.447 64.8559 117.865 63.8938 117.461 63.2187C117.161 62.7144 116.959 62.3704 116.959 62.3704L119.101 58.9927C119.569 59.3522 121.002 65.1249 121.258 65.4352C121.514 65.7456 124.993 68.2905 124.993 68.2905Z" fill="black"/>
<path opacity="0.2" d="M118.962 65.655C118.447 64.8559 117.865 63.8938 117.462 63.2187L118.458 60.7617C118.458 60.7617 118.998 63.5808 118.962 65.655Z" fill="black"/>
<path d="M101.518 54.4896L98.617 52.427C98.617 52.427 98.272 51.8492 97.9743 51.7752C97.6766 51.7015 95.8398 51.8125 95.7012 52.0243C95.5626 52.2361 95.8476 53.6361 96.2205 53.7532C96.5935 53.8704 98.1672 53.5463 98.3043 53.4571L101.251 55.4928L101.518 54.4896Z" fill="#B97964"/>
<path d="M124.414 112.357L122.79 112.644L122.124 110.43L121.517 108.398L123.389 107.745L123.932 110.186L124.414 112.357Z" fill="#B97964"/>
<path opacity="0.2" d="M123.941 110.237L122.132 110.475L121.521 108.421L123.391 107.756L123.941 110.237Z" fill="black"/>
<path d="M113.574 112.398H111.926L111.655 110.186L111.41 108.122L113.367 107.824L113.478 110.25L113.574 112.398Z" fill="#B97964"/>
<path opacity="0.2" d="M113.478 110.395L111.655 110.315L111.41 108.186L113.367 107.856L113.478 110.395Z" fill="black"/>
<path d="M124.094 108.461L121.425 108.932C118.732 102.221 116.816 96.6202 115.463 91.972C114.734 89.4638 114.157 87.2336 113.721 85.2546L113.833 92.5594V109.036H111.142C104.549 77.7415 109.221 70.4665 109.221 70.4665L117.109 69.1479C117.408 70.3252 117.635 72.2484 117.769 73.5768L118.125 76.1921L121.208 92.1169L124.094 108.461Z" fill="#0A3C77"/>
<path d="M121.006 108.601L124.317 107.504L124.272 108.912L121.534 109.785L121.006 108.601Z" fill="#0A3C77"/>
<path opacity="0.6" d="M121.006 108.601L124.317 107.504L124.272 108.912L121.534 109.785L121.006 108.601Z" fill="white"/>
<path d="M110.788 108.755L114.239 108.25L113.95 109.629L111.102 110.012L110.788 108.755Z" fill="#0A3C77"/>
<path opacity="0.6" d="M110.788 108.755L114.239 108.25L113.95 109.629L111.102 110.012L110.788 108.755Z" fill="white"/>
<path opacity="0.2" d="M115.826 93.2005C115.702 92.7838 115.569 92.3741 115.452 91.972C114.792 89.6955 114.35 87.6479 113.833 85.8103V85.8054L113.563 82.4222C113.563 82.4222 115.251 78.7051 114.619 76.0898C114.678 76.2386 115.794 79.0879 115.356 81.9347C115.356 81.9347 115.144 87.0727 115.826 93.2005Z" fill="black"/>
<path d="M116.052 55.5966C116.031 55.6111 116.007 55.625 115.984 55.6343C115.664 55.8043 115.302 55.9597 114.909 55.9972C113.809 56.1048 113.098 55.8635 112.685 55.318C112.682 55.3178 112.682 55.3178 112.682 55.3178C112.11 54.5059 112.11 53.1996 112.406 51.6625C112.539 50.9572 112.721 50.3523 112.98 49.8968C112.983 49.8922 112.985 49.8743 112.988 49.8699C113 49.8518 113.011 49.8257 113.023 49.8076C113.403 49.1737 113.946 48.8018 114.746 48.719C115.022 48.6911 115.331 48.6955 115.675 48.7353C118.7 49.0969 118.593 54.172 116.052 55.5966Z" fill="#B97964"/>
<path opacity="0.2" d="M115.984 55.6345C115.664 55.8045 115.308 55.9177 114.915 55.955C113.814 56.0626 113.108 55.7861 112.696 55.2334C113.205 55.4178 113.905 55.5531 114.633 55.3257C115.092 55.1843 115.559 55.3482 115.984 55.6345Z" fill="black"/>
<path d="M116.211 58.1083C116.482 58.9535 115.398 59.4149 115.398 59.4149C113.493 58.8133 113.058 57.874 113.058 57.874C114.505 56.9284 113.843 54.7207 113.843 54.7207L114.168 54.843L116.389 55.0554C116.389 55.0554 115.899 56.2748 115.844 56.5472C115.845 56.5495 115.842 56.5523 115.843 56.5547C115.568 57.9779 116.211 58.1083 116.211 58.1083Z" fill="#B97964"/>
<path d="M112.981 49.8767C112.981 49.8767 112.539 51.974 114.428 53.145C114.428 53.145 115.004 55.4583 116.269 55.6546C117.994 55.9222 119.839 53.6584 119.566 51.0726C119.212 47.7195 114.32 46.8137 112.981 49.8767Z" fill="black"/>
<path d="M113.491 52.4041C113.535 52.0736 113.873 51.5532 114.376 51.6955C114.898 51.8426 115.022 53.1917 113.677 53.3145C113.484 53.3321 113.4 53.0936 113.491 52.4041Z" fill="#B97964"/>
<path d="M111.752 112.086H113.592C113.67 112.086 113.738 112.141 113.755 112.217L114.133 113.923C114.165 114.076 114.067 114.226 113.915 114.259C113.894 114.263 113.874 114.265 113.853 114.265C113.1 114.253 113.039 114.206 112.093 114.206C111.511 114.206 109.754 114.267 108.949 114.267C108.145 114.267 108.04 113.473 108.369 113.4C109.846 113.078 110.958 112.632 111.43 112.208C111.518 112.127 111.633 112.083 111.752 112.086Z" fill="black"/>
<path d="M111.118 112.422C110.988 112.433 110.858 112.398 110.75 112.325C110.678 112.265 110.642 112.173 110.655 112.081C110.654 112.027 110.684 111.977 110.733 111.954C110.945 111.845 111.564 112.225 111.632 112.269C111.648 112.277 111.657 112.295 111.654 112.313C111.652 112.331 111.639 112.347 111.62 112.352C111.456 112.394 111.287 112.417 111.118 112.422ZM110.833 112.025C110.812 112.023 110.792 112.028 110.774 112.037C110.762 112.037 110.747 112.054 110.745 112.091C110.737 112.152 110.76 112.213 110.806 112.254C111.021 112.352 111.265 112.364 111.489 112.288C111.289 112.159 111.066 112.07 110.833 112.025Z" fill="#0A3C77"/>
<path d="M111.608 112.354H111.586C111.388 112.247 111.006 111.825 111.045 111.623C111.059 111.553 111.12 111.503 111.191 111.504C111.26 111.494 111.331 111.516 111.384 111.562C111.605 111.742 111.652 112.293 111.654 112.32C111.654 112.337 111.646 112.352 111.632 112.361C111.623 112.362 111.615 112.359 111.608 112.354ZM111.223 111.576H111.201C111.142 111.576 111.137 111.611 111.135 111.623C111.111 111.747 111.354 112.066 111.552 112.215C111.539 111.997 111.46 111.787 111.325 111.616C111.297 111.591 111.26 111.577 111.223 111.576Z" fill="#0A3C77"/>
<path d="M122.727 112.086H124.567C124.645 112.086 124.713 112.141 124.73 112.217L125.108 113.923C125.14 114.076 125.042 114.226 124.89 114.259C124.869 114.263 124.848 114.265 124.827 114.265C124.074 114.253 124.014 114.206 123.068 114.206C122.486 114.206 120.728 114.267 119.924 114.267C119.119 114.267 119.015 113.473 119.344 113.4C120.821 113.078 121.932 112.632 122.405 112.208C122.493 112.127 122.608 112.083 122.727 112.086Z" fill="black"/>
<path d="M122.094 112.422C121.963 112.433 121.833 112.398 121.726 112.325C121.654 112.265 121.618 112.173 121.63 112.081C121.629 112.027 121.66 111.977 121.709 111.954C121.921 111.845 122.54 112.225 122.608 112.269C122.624 112.277 122.633 112.295 122.63 112.313C122.628 112.331 122.614 112.347 122.596 112.352C122.431 112.394 122.263 112.417 122.094 112.422ZM121.808 112.025C121.788 112.023 121.768 112.028 121.75 112.037C121.738 112.037 121.723 112.054 121.721 112.091C121.713 112.152 121.736 112.213 121.782 112.254C121.997 112.352 122.241 112.364 122.464 112.288C122.264 112.159 122.042 112.07 121.808 112.025Z" fill="#0A3C77"/>
<path d="M122.583 112.354H122.561C122.364 112.247 121.981 111.825 122.02 111.623C122.034 111.553 122.096 111.503 122.166 111.504C122.236 111.494 122.306 111.516 122.359 111.562C122.581 111.742 122.627 112.293 122.63 112.32C122.63 112.337 122.622 112.352 122.608 112.361C122.599 112.362 122.59 112.359 122.583 112.354ZM122.198 111.576H122.176C122.118 111.576 122.113 111.611 122.11 111.623C122.086 111.747 122.33 112.066 122.527 112.215C122.514 111.997 122.435 111.787 122.301 111.616C122.272 111.591 122.236 111.577 122.198 111.576Z" fill="#0A3C77"/>
<path d="M109.221 70.4956C109.221 70.4956 107.716 61.3276 110.302 57.2168C110.302 57.2168 115.467 56.8959 119.101 58.9931C119.101 58.9931 117.599 63.0751 117.376 70.4953L109.221 70.4956Z" fill="black"/>
<path opacity="0.2" d="M108.75 63.4791C108.638 62.2351 108.998 61.0376 109.06 59.9824C110.01 59.191 110.761 58.0439 110.761 58.0439C110.761 58.0439 111.231 61.7582 108.75 63.4791Z" fill="black"/>
<path d="M110.942 57.1988C110.942 57.1988 105.823 56.5988 105.053 56.276C104.571 56.0738 100.809 53.6152 100.809 53.6152L99.9268 54.9288C99.9268 54.9288 103.776 58.0376 104.427 58.3948C105.953 59.233 109.383 60.4155 109.383 60.4155C109.383 60.4155 111.456 58.9749 110.942 57.1988Z" fill="black"/>
<path d="M118.458 49.4195C118.458 49.4195 120.213 47.9262 121.957 48.8653C123.7 49.8044 121.67 53.4226 122.179 54.5314C122.688 55.6402 123.793 55.5582 122.399 56.288C121.005 57.0179 122.355 57.6221 122.355 57.6221C122.355 57.6221 121.107 58.0452 121.005 57.0179C120.902 55.9906 120.453 55.1407 120.049 54.9649C119.645 54.789 120.733 52.8389 120.356 51.8745C119.978 50.91 118.883 50.992 118.883 50.992L118.458 49.4195Z" fill="black"/>
<path d="M115.675 48.7357C115.675 48.7357 113.46 47.3481 112.417 48.3346C110.808 49.8571 113.102 52.0452 115.531 53.0823L115.675 48.7357Z" fill="black"/>
<path d="M68.725 76.7689L50.584 56.57C51.227 55.1511 51.1008 53.4343 50.1449 52.1277C49.0842 50.6778 47.3596 50.084 45.7564 50.3811C45.5164 50.4256 45.4142 50.7124 45.5771 50.894L47.9566 53.5434C48.0494 53.6469 48.0802 53.7922 48.037 53.9244L47.5215 55.5036C47.4784 55.6358 47.3679 55.7351 47.2319 55.7638L45.6064 56.1073C45.4703 56.136 45.3291 56.0899 45.2363 55.9865L42.8566 53.3371C42.6934 53.1552 42.3973 53.2269 42.3274 53.4609C41.9009 54.8883 42.203 56.496 43.2712 57.6854C44.4855 59.0376 46.3424 59.4617 47.9633 58.9217L66.1043 79.1207C65.4611 80.5395 65.5875 82.2563 66.5435 83.5629C67.6041 85.0128 69.3289 85.6066 70.9319 85.3095C71.1719 85.265 71.2741 84.9782 71.1112 84.7966L68.7317 82.1472C68.6389 82.0437 68.6081 81.8984 68.6513 81.7662L69.1668 80.1867C69.21 80.0546 69.3204 79.9553 69.4564 79.9266L71.0819 79.5833C71.218 79.5546 71.3592 79.6007 71.452 79.7041L73.8317 82.3536C73.9949 82.5354 74.2911 82.464 74.3609 82.2297C74.7874 80.8023 74.4853 79.1946 73.4171 78.0052C72.2026 76.6533 70.3456 76.2289 68.725 76.7689Z" fill="#0A3C77"/>
<path opacity="0.7" d="M68.725 76.7689L50.584 56.57C51.227 55.1511 51.1008 53.4343 50.1449 52.1277C49.0842 50.6778 47.3596 50.084 45.7564 50.3811C45.5164 50.4256 45.4142 50.7124 45.5771 50.894L47.9566 53.5434C48.0494 53.6469 48.0802 53.7922 48.037 53.9244L47.5215 55.5036C47.4784 55.6358 47.3679 55.7351 47.2319 55.7638L45.6064 56.1073C45.4703 56.136 45.3291 56.0899 45.2363 55.9865L42.8566 53.3371C42.6934 53.1552 42.3973 53.2269 42.3274 53.4609C41.9009 54.8883 42.203 56.496 43.2712 57.6854C44.4855 59.0376 46.3424 59.4617 47.9633 58.9217L66.1043 79.1207C65.4611 80.5395 65.5875 82.2563 66.5435 83.5629C67.6041 85.0128 69.3289 85.6066 70.9319 85.3095C71.1719 85.265 71.2741 84.9782 71.1112 84.7966L68.7317 82.1472C68.6389 82.0437 68.6081 81.8984 68.6513 81.7662L69.1668 80.1867C69.21 80.0546 69.3204 79.9553 69.4564 79.9266L71.0819 79.5833C71.218 79.5546 71.3592 79.6007 71.452 79.7041L73.8317 82.3536C73.9949 82.5354 74.2911 82.464 74.3609 82.2297C74.7874 80.8023 74.4853 79.1946 73.4171 78.0052C72.2026 76.6533 70.3456 76.2289 68.725 76.7689Z" fill="white"/>
<path d="M48.2297 52.9658C48.2297 52.9658 42.8447 53.6724 42.1456 54.633C41.4465 55.5938 41.4077 56.485 44.5923 57.3988L45.5244 56.7201C45.5244 56.7201 44.2041 56.2153 44.3593 55.9047C44.5147 55.594 48.2297 55.7104 48.2297 55.7104V52.9658Z" fill="#E4897B"/>
<path d="M50.2533 52.8974L49.5033 55.5148L48.2437 55.7062L45.6057 56.107L45.5281 55.0518L45.3755 52.9672C45.3755 52.9672 47.967 52.4448 50.2533 52.8974Z" fill="#0A3C77"/>
<path opacity="0.2" d="M48.9242 54.0039L48.244 55.7057L45.6059 56.1066L45.5283 55.0514C46.868 54.0091 48.9242 54.0039 48.9242 54.0039Z" fill="black"/>
<path d="M48.4048 112.342L50.5023 112.561L50.6083 111.346L50.8954 108.038L48.7979 107.815L48.4798 111.47L48.4048 112.342Z" fill="#E4897B"/>
<path d="M37.936 112.075H39.9689L39.987 111.614L39.9896 111.558L40.093 108.609L40.0956 108.55L40.137 107.419H38.1016L37.936 112.075Z" fill="#E4897B"/>
<path opacity="0.2" d="M48.7981 107.815L48.48 111.47L50.6085 111.346L50.8956 108.038L48.7981 107.815Z" fill="black"/>
<path opacity="0.2" d="M37.9487 111.816H37.9513L39.9868 111.558H39.9893L40.0954 108.713H40.0928L38.0548 108.876L37.9513 111.727L37.9487 111.816Z" fill="black"/>
<path d="M40.2504 111.953H37.7805C37.6972 111.953 37.6253 112.011 37.6072 112.092L37.2063 113.903C37.1719 114.065 37.2756 114.224 37.4378 114.258C37.4595 114.263 37.4817 114.265 37.5037 114.265C38.3029 114.252 38.8848 114.203 39.8883 114.203C40.5064 114.203 42.3712 114.267 43.2247 114.267C44.0782 114.267 44.1894 113.424 43.8402 113.347C42.2729 113.005 41.0935 112.532 40.5918 112.082C40.4987 111.997 40.3766 111.95 40.2504 111.953Z" fill="black"/>
<path d="M50.725 111.888H48.2551C48.1718 111.889 48.0999 111.947 48.0818 112.028L47.6809 113.838C47.6465 114.001 47.7502 114.16 47.9124 114.194C47.9341 114.199 47.9563 114.201 47.9783 114.2C48.7775 114.188 49.3594 114.138 50.3629 114.138C50.9811 114.138 52.8458 114.203 53.6993 114.203C54.5528 114.203 54.664 113.36 54.3148 113.282C52.7475 112.941 51.5682 112.468 51.0664 112.018C50.9733 111.932 50.8512 111.886 50.725 111.888Z" fill="black"/>
<path d="M51.0883 111.041H48.1063C48.1063 111.041 47.2507 85.2593 44.0256 76.5899C44.4208 92.7113 40.6214 111.299 40.6214 111.299H37.6756C37.6756 111.299 39.0218 96.7457 39.0218 90.3815C39.0218 79.103 35.9285 73.5944 38.9403 66.2974H49.7305C52.3727 82.2159 53.3901 93.4538 51.0883 111.041Z" fill="black"/>
<path d="M51.4229 110.2L51.2773 111.04H47.7534V110.264L51.4229 110.2Z" fill="#0A3C77"/>
<path d="M40.9603 110.523L40.622 111.299H37.6671L37.4731 110.523H40.9603Z" fill="#0A3C77"/>
<path d="M59.0246 53.8431C58.9454 53.9075 58.8653 53.9683 58.7828 54.0221C58.2903 54.3521 57.727 54.5068 57.1766 54.4998C57.0321 54.4987 56.8875 54.4863 56.7455 54.4636C55.9957 54.3407 55.3124 53.9153 54.9177 53.2304C54.7543 52.9529 54.6382 52.6273 54.5885 52.2626C54.3826 50.8293 55.1115 49.8912 56.2166 48.2075C56.4491 47.8413 56.7623 47.5332 57.135 47.3134C58.4401 46.5318 60.1318 46.9591 60.9113 48.2631C62.0167 50.0836 60.4527 52.6482 59.0246 53.8431Z" fill="#E4897B"/>
<path opacity="0.2" d="M57.1769 54.4998C57.0323 54.4987 56.8877 54.4863 56.7457 54.4636C55.9959 54.3407 55.3126 53.9153 54.918 53.2304C55.263 53.0026 55.6129 52.896 55.6129 52.896C55.6129 52.896 56.6886 53.4627 57.1769 54.4998Z" fill="black"/>
<path d="M52.373 54.1862C52.633 55.4991 54.7809 56.6766 54.7809 56.6766C54.7809 56.6766 56.2448 57.2453 56.2709 56.6756C55.6419 56.0259 55.5426 55.4341 55.7164 54.8998C55.818 54.5889 56.0136 54.299 56.2505 54.0272C56.3733 53.8831 56.5101 53.7463 56.6495 53.6147L55.562 50.0435C55.0046 51.4558 53.7852 53.9095 52.373 54.1862Z" fill="#E4897B"/>
<path d="M61.8088 48.509C61.589 47.2813 60.9685 47.2257 60.9685 47.2257C60.9088 46.2476 58.6017 45.2596 57.0934 45.5764C55.5851 45.8932 54.5547 47.2288 54.1416 48.4547C53.5401 50.2403 53.9029 52.4571 53.9029 52.4571C53.9034 52.4573 53.9039 52.4578 53.9039 52.4578C55.1249 53.3876 56.3985 53.5596 56.7854 52.8701C57.1723 52.1806 58.1272 51.9439 58.1272 51.9439C58.7083 52.4493 59.629 51.9483 59.629 51.9483C59.629 51.9483 60.6724 51.5878 60.8513 50.5688C61.03 49.5503 61.994 49.5438 61.8088 48.509Z" fill="black"/>
<path d="M58.0785 51.3644C57.9145 51.7875 57.9166 52.1889 58.0845 52.4806C58.31 52.8642 58.8697 52.5606 59.1821 52.0397C59.456 51.5759 59.6823 50.8047 59.2708 50.6237C58.8591 50.4426 58.2859 50.8448 58.0785 51.3644Z" fill="#E4897B"/>
<path d="M58.3438 45.5656C60.6122 44.8885 62.4376 48.612 62.3479 50.5859C62.275 52.1891 60.591 51.9947 60.591 51.9947C60.591 51.9947 61.5203 51.9328 61.4308 50.8062C61.4308 50.8062 61.0281 52.185 60.1255 51.2806C59.2231 50.3761 60.292 48.2191 60.292 48.2191L58.3438 45.5656Z" fill="black"/>
<path opacity="0.2" d="M43.7774 87.1295C43.3791 83.1078 42.6368 79.6861 42.6368 79.6861C39.5824 75.848 41.2505 72.3047 41.2505 72.3047C41.6592 74.7695 44.0257 76.5902 44.0257 76.5902C44.111 80.0585 44.0024 83.6406 43.7774 87.1295Z" fill="black"/>
<path d="M52.3677 53.5962C52.3677 53.5962 53.0238 53.1102 54.2347 53.8263C55.4457 54.5425 55.8445 55.9127 55.8445 55.9127L52.3677 53.5962Z" fill="#0A3C77"/>
<path d="M50.8959 71.3869C50.8959 71.3869 50.8959 65.0941 57.475 57.4777C57.475 57.4777 54.5206 53.3535 50.2532 52.896C50.2532 52.896 42.375 55.6005 38.0835 67.1187L50.8959 71.3869Z" fill="#0A3C77"/>
<path opacity="0.6" d="M57.4742 57.4774C56.7784 58.2843 56.1551 59.0757 55.5991 59.8464C54.4999 61.3698 53.6567 62.8129 53.0127 64.1268C50.8971 68.4356 50.8971 71.3866 50.8971 71.3866L38.0845 67.1192C42.3752 55.5997 50.2531 52.897 50.2531 52.897C54.5206 53.3548 57.4742 57.4774 57.4742 57.4774Z" fill="white"/>
<path d="M50.9748 70.4837C50.9463 70.6958 50.9282 70.8716 50.9179 71.0113L38.2578 66.6637C38.3199 66.5007 38.3845 66.3404 38.4492 66.1826L50.9748 70.4837Z" fill="#0A3C77"/>
<path d="M51.1971 69.2039C51.1583 69.3875 51.1221 69.5582 51.0937 69.7185C46.7073 68.0245 41.7131 66.1339 38.8862 65.1563C38.9561 64.9959 39.0285 64.8407 39.1009 64.6855C42.2536 65.7718 47.7108 67.8564 51.1971 69.2039Z" fill="#0A3C77"/>
<path d="M51.5308 67.9055C51.479 68.0787 51.4325 68.2469 51.3885 68.4072C47.9073 66.902 42.6597 64.6907 39.5923 63.6768C39.6725 63.5191 39.7526 63.3665 39.8328 63.2139C42.9571 64.2536 48.0884 66.4132 51.5308 67.9055Z" fill="#0A3C77"/>
<path d="M51.9626 66.5784C51.9031 66.7491 51.8436 66.9146 51.7893 67.075C48.3909 65.4352 43.5156 63.1929 40.3784 62.236C40.4664 62.0808 40.5569 61.9282 40.6474 61.7808C43.8389 62.7687 48.6081 64.9594 51.9626 66.5784Z" fill="#0A3C77"/>
<path d="M52.4981 65.2415C52.4257 65.4045 52.3584 65.5648 52.2963 65.7252C49.0453 63.9872 44.5322 61.7526 41.2476 60.8344C41.3484 60.6818 41.4519 60.5293 41.5553 60.3818C44.8839 61.3414 49.2962 63.5242 52.4981 65.2415Z" fill="#0A3C77"/>
<path d="M53.1295 63.8885C53.0493 64.0488 52.9717 64.2092 52.8967 64.3669C49.8397 62.5643 45.6809 60.3685 42.2178 59.4684C42.3316 59.3158 42.4454 59.1684 42.5618 59.021C46.0507 59.9676 50.119 62.1117 53.1295 63.8885Z" fill="#0A3C77"/>
<path d="M53.8559 62.5385C53.7654 62.6963 53.6801 62.8515 53.5947 63.0041C50.7575 61.1729 46.9272 59.0418 43.3037 58.1314C43.433 57.9814 43.5623 57.8366 43.6968 57.6943C47.3229 58.6487 51.0653 60.7307 53.8559 62.5385Z" fill="#0A3C77"/>
<path d="M54.6628 61.2174C54.5671 61.3622 54.4766 61.507 54.3861 61.6519C51.7791 59.8182 48.2565 57.7672 44.5244 56.8335C44.6718 56.6887 44.8167 56.549 44.9615 56.4146C48.6418 57.3974 52.092 59.4121 54.6628 61.2174Z" fill="#0A3C77"/>
<path d="M55.5632 59.8955C55.4623 60.0377 55.364 60.1774 55.2657 60.3145C52.8992 58.5066 49.6715 56.5462 45.9136 55.5737C46.0843 55.4341 46.2498 55.2996 46.4127 55.1729C50.0827 56.1945 53.2329 58.1161 55.5632 59.8955Z" fill="#0A3C77"/>
<path d="M56.5483 58.5946C56.4397 58.7317 56.3337 58.8662 56.2302 59.0033C54.1094 57.2497 51.1817 55.3902 47.5117 54.3738C47.7109 54.2393 47.9023 54.1177 48.0859 54.0039C51.6266 55.0617 54.4638 56.8773 56.5483 58.5946Z" fill="#0A3C77"/>
<path d="M57.4738 57.4771C57.4039 57.5573 57.3367 57.6374 57.2695 57.7176C55.4125 56.0598 52.8236 54.3321 49.4019 53.2691C49.72 53.1114 49.9605 53.0105 50.1027 52.9536C52.8417 53.8821 55.0349 55.2244 56.7367 56.5926C56.7367 56.5926 56.7393 56.5926 56.7393 56.5952C57.2151 57.115 57.4738 57.4771 57.4738 57.4771Z" fill="#0A3C77"/>
<path opacity="0.2" d="M55.5991 59.8466C54.4999 61.3699 53.6568 62.8131 53.0128 64.1269C52.93 60.8113 55.4025 59.0034 55.4025 59.0034L55.5991 59.8466Z" fill="black"/>
<path d="M57.4746 59.4233V67.3957L60.5613 72.9491L61.8317 74.3635C61.8317 74.3635 60.3482 75.2801 59.9388 74.6912C59.5296 74.1023 59.1202 72.9491 59.1202 72.9491C59.1202 72.9491 56.0536 68.8303 55.5733 67.8455C55.0931 66.8606 54.918 60.9123 54.918 60.9123L57.4746 59.4233Z" fill="#E4897B"/>
<path d="M57.475 57.478C57.961 58.8232 57.9571 63.4067 57.9571 63.4067L54.5111 63.7082L54.2349 61.8978C54.2349 61.8978 54.2599 60.2568 55.4202 58.6357C56.209 57.5331 57.475 57.478 57.475 57.478Z" fill="#0A3C77"/>
</g>
<rect x="109" y="87.7397" width="56" height="56" rx="28" fill="#0A3C77"/>
<path d="M130.547 129.124C128.648 129.124 126.984 128.612 125.555 127.588C124.125 126.564 123.005 125.124 122.195 123.268C121.405 121.412 121.011 119.257 121.011 116.804C121.011 114.329 121.405 112.174 122.195 110.34C122.984 108.505 124.093 107.076 125.523 106.052C126.952 105.028 128.616 104.516 130.515 104.516C132.456 104.516 134.131 105.028 135.539 106.052C136.968 107.076 138.088 108.516 138.899 110.372C139.709 112.206 140.115 114.35 140.115 116.804C140.115 119.257 139.709 121.412 138.899 123.268C138.109 125.102 137 126.542 135.571 127.588C134.141 128.612 132.467 129.124 130.547 129.124ZM130.579 125.156C131.667 125.156 132.595 124.825 133.363 124.164C134.131 123.481 134.717 122.521 135.123 121.284C135.549 120.025 135.763 118.532 135.763 116.804C135.763 115.076 135.549 113.593 135.123 112.356C134.717 111.097 134.12 110.137 133.331 109.476C132.563 108.814 131.624 108.484 130.515 108.484C129.448 108.484 128.531 108.814 127.763 109.476C126.995 110.137 126.397 111.097 125.971 112.356C125.565 113.593 125.363 115.076 125.363 116.804C125.363 118.51 125.565 119.993 125.971 121.252C126.397 122.489 126.995 123.449 127.763 124.132C128.552 124.814 129.491 125.156 130.579 125.156ZM147.411 128.74V108.612H142.803V104.9H151.763V128.74H147.411Z" fill="white"/>
<defs>
<clipPath id="clip0_302_2145">
<rect width="100" height="100" fill="white" transform="translate(32 25.4355)"/>
</clipPath>
</defs>
</svg>
