<svg width="165" height="151" viewBox="0 0 165 151" fill="none" xmlns="http://www.w3.org/2000/svg">
<circle cx="82" cy="75.7397" r="75" fill="#EFF3FF"/>
<path d="M113.338 74.927C113.338 75.9279 112.527 76.7393 111.526 76.7393C110.525 76.7393 109.714 75.9279 109.714 74.927C109.714 73.9261 110.525 73.1147 111.526 73.1147C112.527 73.1146 113.338 73.9259 113.338 74.927Z" fill="#0A3C77"/>
<path d="M107.508 76.2923C108.262 75.5384 108.262 74.3161 107.508 73.5621C106.754 72.8082 105.532 72.8082 104.778 73.5621C104.024 74.3161 104.024 75.5384 104.778 76.2923C105.532 77.0463 106.754 77.0463 107.508 76.2923Z" fill="#0A3C77"/>
<path d="M102.008 73.5608C103.14 73.5608 104.057 72.6434 104.057 71.5116C104.057 70.3799 103.14 69.4624 102.008 69.4624C100.876 69.4624 99.959 70.3799 99.959 71.5116C99.959 72.6434 100.876 73.5608 102.008 73.5608Z" fill="#0A3C77"/>
<path d="M103.279 66.6379C103.488 65.4743 102.714 64.3617 101.55 64.1529C100.387 63.944 99.2741 64.7179 99.0652 65.8815C98.8563 67.045 99.6303 68.1576 100.794 68.3665C101.957 68.5754 103.07 67.8015 103.279 66.6379Z" fill="#0A3C77"/>
<path d="M103.789 63.8747C105.011 63.8747 106.001 62.8844 106.001 61.6627C106.001 60.441 105.011 59.4507 103.789 59.4507C102.568 59.4507 101.577 60.441 101.577 61.6627C101.577 62.8844 102.568 63.8747 103.789 63.8747Z" fill="#0A3C77"/>
<path d="M109.759 62.0749C110.987 61.5615 111.567 60.1494 111.054 58.9209C110.54 57.6924 109.128 57.1127 107.9 57.6261C106.671 58.1395 106.091 59.5516 106.605 60.7801C107.118 62.0086 108.53 62.5883 109.759 62.0749Z" fill="#0A3C77"/>
<path d="M117.234 71.8683C117.455 70.9271 116.872 69.9848 115.931 69.7635C114.99 69.5422 114.047 70.1258 113.826 71.0669C113.605 72.0081 114.188 72.9504 115.129 73.1717C116.071 73.393 117.013 72.8094 117.234 71.8683Z" fill="#0A3C77"/>
<path d="M117.044 67.7232C117.882 67.4023 118.301 66.4628 117.98 65.6249C117.659 64.7869 116.72 64.3677 115.882 64.6885C115.044 65.0094 114.624 65.9489 114.945 66.7868C115.266 67.6248 116.206 68.044 117.044 67.7232Z" fill="#0A3C77"/>
<path d="M115.223 61.8438C115.354 61.0347 114.804 60.2726 113.995 60.1416C113.186 60.0106 112.424 60.5604 112.293 61.3695C112.162 62.1786 112.712 62.9407 113.521 63.0716C114.33 63.2026 115.092 62.6529 115.223 61.8438Z" fill="#0A3C77"/>
<path fill-rule="evenodd" clip-rule="evenodd" d="M56.3142 47.882C56.761 48.3596 57.136 48.8895 57.4345 49.4547L59.2247 49.4478L59.89 52.3343L58.2774 53.1121C58.2567 53.7509 58.1518 54.3916 57.9589 55.017L59.2293 56.2776L57.6586 58.789L55.9692 58.199C55.4917 58.6463 54.9614 59.0209 54.3961 59.3191L54.4029 61.1097L51.5167 61.775L50.7387 60.1624C50.0999 60.1414 49.4594 60.0364 48.8339 59.8433L47.5734 61.1137L45.0615 59.5432L45.6517 57.8536C45.2043 57.3761 44.8299 56.8461 44.5316 56.2807L42.741 56.2874L42.0757 53.4009L43.6887 52.6233C43.7096 51.9845 43.8146 51.344 44.0074 50.7187L42.7373 49.458L44.3079 46.9464L45.9973 47.5366C46.4748 47.0893 47.0051 46.7145 47.5703 46.4163L47.5636 44.6257L50.4498 43.9604L51.2276 45.5732C51.8663 45.594 52.5069 45.699 53.1324 45.892L54.3929 44.6217L56.9042 46.1921L56.3142 47.882ZM52.7818 50.245C51.294 49.3146 49.3333 49.7663 48.4027 51.2545C47.4722 52.7425 47.9244 54.7032 49.412 55.6335C50.9002 56.5639 52.8605 56.1119 53.7911 54.6241C54.7218 53.1359 54.27 51.1756 52.7818 50.245Z" fill="#0A3C77"/>
<path fill-rule="evenodd" clip-rule="evenodd" d="M58.0586 35.7416C58.3059 36.006 58.5135 36.2994 58.6788 36.6124L59.6699 36.6085L60.0381 38.2065L59.1453 38.6372C59.1338 38.9909 59.0758 39.3457 58.9689 39.6918L59.6722 40.3898L58.8024 41.7802L57.867 41.4536C57.6026 41.7013 57.3091 41.9087 56.9961 42.0738L56.9999 43.0651L55.4021 43.4335L54.9715 42.5407C54.6178 42.5292 54.2632 42.471 53.917 42.3641L53.2191 43.0676L51.8284 42.198L52.1552 41.2626C51.9075 40.9982 51.7002 40.7048 51.535 40.3917L50.5437 40.3953L50.1753 38.7971L51.0683 38.3667C51.0798 38.013 51.1382 37.6584 51.2447 37.3122L50.5414 36.6143L51.411 35.2236L52.3464 35.5504C52.6108 35.3027 52.9044 35.0952 53.2173 34.9301L53.2135 33.9388L54.8113 33.5703L55.242 34.4633C55.5956 34.4748 55.9503 34.533 56.2966 34.6398L56.9946 33.9365L58.385 34.8058L58.0586 35.7416ZM56.1029 37.0499C55.2792 36.5348 54.1937 36.785 53.6785 37.6088C53.1634 38.4327 53.4138 39.5181 54.2374 40.0332C55.0613 40.5484 56.1467 40.2982 56.6618 39.4743C57.177 38.6504 56.9268 37.5651 56.1029 37.0499Z" fill="#0A3C77"/>
<path d="M44.1542 38.6953C44.1558 38.6926 44.1832 38.708 44.2341 38.7401C44.2856 38.771 44.357 38.8249 44.4384 38.9056C44.5999 39.0628 44.8045 39.3545 44.8483 39.7705C44.8685 39.9756 44.8499 40.2089 44.76 40.437C44.67 40.6628 44.5213 40.8897 44.3019 41.0583C44.1949 41.1453 44.0707 41.2161 43.9365 41.2689C43.8029 41.3236 43.6575 41.3582 43.5078 41.3682C43.2081 41.3949 42.8909 41.3177 42.6192 41.151C42.3502 40.9797 42.1419 40.7282 42.0348 40.4469C41.9781 40.3077 41.9457 40.1618 41.9363 40.0178C41.9249 39.874 41.9343 39.7312 41.9656 39.597C42.0211 39.3257 42.1599 39.0928 42.3237 38.9129C42.4896 38.7324 42.691 38.6133 42.8844 38.5417C43.2776 38.3991 43.6295 38.4551 43.8415 38.5316C43.9496 38.5694 44.0294 38.6101 44.0796 38.6427C44.1301 38.6748 44.156 38.6928 44.1542 38.6953C44.1491 38.7047 44.0442 38.6316 43.8301 38.5653C43.6199 38.5008 43.2795 38.4576 42.9064 38.6018C42.7231 38.6742 42.5332 38.7904 42.3784 38.9639C42.2256 39.1369 42.0966 39.3585 42.0467 39.6146C42.0181 39.7413 42.0104 39.8759 42.0219 40.0113C42.0315 40.1469 42.0628 40.2839 42.1167 40.4145C42.2187 40.6785 42.4143 40.9135 42.6668 41.0746C42.9222 41.2309 43.219 41.304 43.5009 41.28C43.6418 41.2714 43.7787 41.2395 43.9048 41.1888C44.0316 41.1401 44.1491 41.0742 44.2504 40.993C44.4589 40.8361 44.6016 40.623 44.6901 40.4099C44.7782 40.1948 44.7997 39.9733 44.7846 39.7767C44.751 39.3781 44.5632 39.0909 44.4129 38.9301C44.2597 38.7664 44.1479 38.704 44.1542 38.6953Z" fill="#0A3C77"/>
<path d="M45.739 37.6352C45.7379 37.6354 45.7423 37.6193 45.7523 37.587C45.764 37.5511 45.7793 37.5033 45.7989 37.4425C45.8435 37.3096 45.9072 37.1191 45.9898 36.8724L45.9957 36.8893C45.7058 36.7105 45.3251 36.4757 44.8646 36.192L44.8931 36.1887C44.7224 36.3621 44.5329 36.5548 44.3301 36.761L44.319 36.7724L44.3034 36.7678C44.0454 36.6892 43.7595 36.638 43.4559 36.6291L43.4381 36.6286L43.4302 36.6122C43.3208 36.387 43.2023 36.1434 43.079 35.8897L43.1151 35.907C42.7077 36.0021 42.2751 36.1029 41.8213 36.2089L41.8489 36.1741C41.8504 36.4227 41.852 36.6965 41.8537 36.9772L41.8539 36.9999L41.8339 37.0105C41.5985 37.1351 41.3555 37.3029 41.1375 37.5085L41.1205 37.5246L41.098 37.5169C40.863 37.4353 40.6038 37.3451 40.3398 37.2535L40.3872 37.2368C40.1664 37.5911 39.9283 37.9729 39.6843 38.3644L39.6783 38.3124C39.8559 38.4883 40.051 38.6816 40.2488 38.8773L40.2672 38.8955L40.2595 38.9203C40.1806 39.1764 40.1284 39.4671 40.1192 39.7635L40.1184 39.7898L40.0946 39.8014C39.868 39.9108 39.6209 40.0302 39.3713 40.1508L39.3951 40.1011C39.4898 40.511 39.5914 40.9503 39.6943 41.3957L39.6503 41.361C39.9039 41.36 40.1777 41.3589 40.4536 41.3577L40.4809 41.3575L40.4936 41.3817C40.6201 41.6219 40.7879 41.8631 40.9887 42.0769L40.9889 42.0771L40.9891 42.0773C40.9935 42.0979 40.9795 42.0316 40.9989 42.1232L40.9987 42.124L40.9981 42.1255L40.9972 42.1286L40.9951 42.1345L40.9909 42.1465L40.9824 42.1703L40.9657 42.2179L40.9325 42.3131L40.8661 42.5032C40.8219 42.6297 40.7779 42.7557 40.734 42.881L40.7153 42.8281C41.0961 43.0663 41.4716 43.3013 41.842 43.5329L41.7865 43.5394C41.977 43.3476 42.1655 43.1577 42.3521 42.9697L42.3711 42.9507L42.3967 42.9586C42.673 43.0441 42.9573 43.0909 43.2394 43.1003L43.2659 43.1013L43.2774 43.1251C43.3953 43.3699 43.5112 43.6108 43.6257 43.8487L43.5773 43.8255C44.0193 43.7241 44.4513 43.625 44.8723 43.5285L44.8401 43.5692C44.8395 43.2967 44.8387 43.0289 44.8381 42.766V42.7415L44.8598 42.7301C45.1187 42.594 45.3531 42.4258 45.5576 42.235L45.5749 42.2188L45.5971 42.2267C45.8569 42.3179 46.1086 42.4064 46.3546 42.4928L46.3104 42.5084C46.5592 42.1127 46.7941 41.739 47.0175 41.3834L47.0225 41.4263C46.8227 41.2268 46.6351 41.0398 46.4542 40.8593L46.4402 40.8453L46.446 40.8266C46.537 40.5342 46.5802 40.251 46.5901 39.9809L46.5909 39.9628L46.607 39.9552C46.8705 39.8294 47.1076 39.7161 47.3317 39.609L47.3171 39.6385C47.204 39.1365 47.1076 38.7087 47.025 38.3424L47.0448 38.3581C46.7242 38.3569 46.4611 38.3562 46.2417 38.3554H46.2328L46.2288 38.3477C46.094 38.0889 45.9635 37.9146 45.8748 37.8017C45.831 37.7485 45.7974 37.7076 45.7724 37.6771C45.7484 37.6489 45.7379 37.6354 45.739 37.6352C45.7402 37.635 45.7536 37.6477 45.778 37.6721C45.8026 37.6978 45.8396 37.737 45.8863 37.7921C45.979 37.9023 46.1144 38.0751 46.2543 38.3339L46.2415 38.3262C46.4609 38.3239 46.724 38.321 47.0446 38.3174L47.0607 38.3172L47.0646 38.3331C47.1508 38.6987 47.2512 39.1257 47.3693 39.6265L47.3741 39.6472L47.3547 39.6566C47.1314 39.7653 46.895 39.8805 46.6326 40.0081L46.6493 39.9824C46.641 40.2576 46.5988 40.5465 46.5076 40.8455L46.4995 40.8128C46.6813 40.9923 46.8699 41.1786 47.0709 41.3769L47.0905 41.3963L47.0759 41.4199C46.854 41.7767 46.6207 42.1513 46.3738 42.5481L46.358 42.5735L46.3296 42.5637C46.0835 42.4782 45.8312 42.3907 45.5712 42.3004L45.6108 42.292C45.4019 42.4884 45.1621 42.6616 44.8973 42.8017L44.9188 42.7658C44.9201 43.0289 44.9215 43.2965 44.9228 43.569L44.923 43.6022L44.8906 43.6097C44.4697 43.7072 44.0381 43.8073 43.5963 43.9096L43.5629 43.9173L43.5479 43.8864C43.4329 43.6487 43.3165 43.4079 43.1983 43.1633L43.2363 43.1881C42.9466 43.1788 42.6541 43.131 42.3702 43.0435L42.4147 43.0323C42.2281 43.2205 42.0397 43.4106 41.8497 43.6026L41.8245 43.6279L41.7942 43.6089C41.4238 43.3776 41.0481 43.1427 40.6671 42.9047L40.6366 42.8855L40.6485 42.8515C40.6923 42.7261 40.7363 42.6001 40.7804 42.4736L40.8469 42.2835L40.8801 42.1883L40.8968 42.1405L40.905 42.1167L40.9093 42.1048L40.9114 42.0988L40.9123 42.096L40.9129 42.0944L40.9131 42.0937C40.9325 42.185 40.9185 42.119 40.9227 42.1393L40.9225 42.1392L40.9221 42.1388C40.7157 41.9189 40.5431 41.6709 40.4133 41.424L40.4533 41.448C40.1775 41.4489 39.9037 41.4499 39.6499 41.4508L39.614 41.451L39.606 41.4161C39.5034 40.9706 39.4024 40.5312 39.3082 40.121L39.3003 40.0865L39.3322 40.0711C39.582 39.9509 39.8293 39.8319 40.056 39.7228L40.0312 39.7607C40.041 39.4561 40.0954 39.1578 40.1768 38.8951L40.1875 38.9381C39.9903 38.7419 39.7957 38.5484 39.6184 38.3721L39.5946 38.3483L39.6125 38.3199C39.8577 37.9292 40.0967 37.5477 40.3185 37.1942L40.3356 37.1669L40.3659 37.1775C40.6297 37.27 40.8885 37.361 41.1233 37.4434L41.084 37.4519C41.308 37.2422 41.5574 37.0711 41.7988 36.9448L41.7788 36.9778C41.7784 36.6971 41.7779 36.4233 41.7775 36.1747V36.1461L41.8051 36.1397C42.2596 36.0362 42.6925 35.9376 43.1005 35.8446L43.1257 35.8389L43.1368 35.8619C43.2586 36.1161 43.3755 36.3607 43.4836 36.5865L43.4579 36.5698C43.767 36.5809 44.0575 36.6353 44.3192 36.7171L44.2929 36.724C44.4973 36.5197 44.6888 36.3287 44.8608 36.1566L44.8739 36.1436L44.8892 36.1534C45.346 36.4431 45.7237 36.6825 46.0113 36.8651L46.0211 36.8714L46.0172 36.8822C45.9293 37.1243 45.8613 37.3111 45.8139 37.4417C45.791 37.5025 45.7732 37.5502 45.7597 37.5861C45.7473 37.6183 45.7404 37.635 45.739 37.6352Z" fill="#0A3C77"/>
<path d="M96.7001 35.4372C96.7001 35.4372 96.7512 35.4384 96.8522 35.443C96.9526 35.4532 97.1054 35.4422 97.3022 35.4804C97.6956 35.5288 98.2937 35.6594 98.9651 36.0636C99.3042 36.2567 99.6487 36.5343 99.9743 36.8888C100.299 37.2438 100.599 37.6871 100.814 38.2176C101.031 38.7464 101.147 39.3631 101.138 40.0209C101.136 40.6767 101.134 41.375 101.132 42.1148C101.11 48.0334 101.08 56.5962 101.042 67.1768C101 77.7581 100.95 90.3569 100.895 104.347C100.888 106.095 100.881 107.866 100.874 109.657C100.872 110.105 100.87 110.554 100.868 111.004C100.861 111.454 100.83 111.917 100.693 112.355C100.563 112.793 100.38 113.22 100.122 113.601C99.8647 113.983 99.5523 114.327 99.195 114.621C98.4723 115.197 97.5683 115.562 96.6327 115.604C96.3983 115.62 96.1673 115.616 95.9356 115.615L95.2394 115.612C94.7746 115.61 94.3088 115.608 93.8418 115.605C91.9737 115.597 90.0876 115.589 88.1847 115.58C84.3789 115.563 80.5057 115.545 76.5749 115.527C74.6096 115.518 72.6298 115.509 70.6369 115.5C69.6404 115.495 68.6407 115.491 67.6378 115.486C66.632 115.533 65.5929 115.264 64.7554 114.678C63.9144 114.096 63.2956 113.218 63.0091 112.245C62.8549 111.761 62.8283 111.245 62.8302 110.746C62.8323 110.246 62.8344 109.746 62.8365 109.248C62.845 107.254 62.8534 105.274 62.8619 103.308C62.8787 99.3765 62.8953 95.5021 62.9118 91.6954C62.945 84.0818 62.9771 76.7378 63.0076 69.7419C63.0387 62.746 63.0684 56.0982 63.0961 49.8766C63.1103 46.7658 63.1239 43.7616 63.137 40.8739C63.1387 40.513 63.1402 40.1537 63.142 39.7964C63.1452 39.6175 63.1587 39.4372 63.1691 39.2586C63.2009 39.0824 63.2153 38.903 63.2618 38.7306C63.4267 38.0373 63.7504 37.3889 64.2016 36.8561C64.6561 36.3262 65.225 35.9069 65.8505 35.6339C66.4757 35.3547 67.1609 35.2581 67.8229 35.2689C69.1456 35.2756 70.4366 35.2821 71.695 35.2884C72.3242 35.2917 72.9451 35.2948 73.5578 35.298C73.864 35.2996 74.1683 35.3011 74.4704 35.3027C74.7749 35.2888 75.0899 35.3733 75.3392 35.549C75.5882 35.7247 75.7792 35.977 75.8768 36.2607C75.9889 36.5449 75.9607 36.8511 75.963 37.1357C75.9622 37.2803 75.9616 37.4244 75.9609 37.5681C75.9607 37.7121 75.9549 37.8551 75.9731 37.9926C76.0075 38.2691 76.1233 38.5344 76.3036 38.7414C76.4802 38.9516 76.7231 39.1021 76.9846 39.168C77.1163 39.2014 77.2486 39.2114 77.3866 39.2093C77.5237 39.21 77.6601 39.2106 77.796 39.2114C78.3394 39.2143 78.8739 39.217 79.3992 39.2198C81.5006 39.231 83.4562 39.2415 85.2563 39.2511C86.1564 39.2561 87.0176 39.2607 87.8387 39.2652C88.0428 39.2625 88.2494 39.2761 88.4443 39.2598C88.6403 39.2383 88.8279 39.1713 88.9909 39.0699C89.3191 38.8673 89.5426 38.5302 89.6192 38.174C89.6606 37.9958 89.6543 37.814 89.656 37.6337C89.657 37.454 89.6579 37.2768 89.6589 37.1025C89.6618 36.9291 89.6518 36.7548 89.6841 36.5852C89.7138 36.4166 89.7716 36.2559 89.8528 36.1114C90.0135 35.8205 90.2737 35.6012 90.5623 35.4891C90.8533 35.3637 91.1628 35.4033 91.4432 35.3985C92.5817 35.4056 93.5454 35.4117 94.3245 35.4165C95.1027 35.4223 95.6963 35.4267 96.0963 35.4296C96.4956 35.4328 96.7001 35.4372 96.7001 35.4372C96.7001 35.4372 96.4956 35.4397 96.0965 35.4396C95.6965 35.4388 95.1029 35.4378 94.3245 35.4363C93.5454 35.434 92.5817 35.4311 91.4432 35.4278C91.1602 35.4332 90.8564 35.3956 90.574 35.5185C90.2927 35.6287 90.0391 35.8431 89.8828 36.1277C89.8039 36.269 89.7476 36.426 89.719 36.5908C89.6879 36.7549 89.6979 36.9274 89.6954 37.1021C89.6948 37.2766 89.6942 37.4536 89.6937 37.6333C89.6921 37.8117 89.6992 37.9981 89.657 38.1817C89.579 38.5475 89.3504 38.8948 89.0124 39.1041C88.8446 39.2089 88.6509 39.2784 88.4487 39.3011C88.2442 39.3181 88.0446 39.3045 87.8384 39.3078C87.0174 39.3047 86.1561 39.3014 85.256 39.298C83.4558 39.2909 81.5001 39.2832 79.3986 39.2751C78.8733 39.273 78.3388 39.2709 77.7954 39.2686C77.6595 39.268 77.5232 39.2675 77.3863 39.2669C77.2505 39.2694 77.1061 39.2594 76.9702 39.2244C76.6966 39.1559 76.4428 38.9987 76.2583 38.7798C76.0701 38.564 75.949 38.2877 75.9129 37.9997C75.8937 37.8543 75.8998 37.71 75.8996 37.5673C75.9002 37.4237 75.9008 37.2797 75.9011 37.1349C75.8986 36.8456 75.9253 36.5518 75.8174 36.2811C75.7237 36.0092 75.5404 35.7681 75.3025 35.6006C75.0623 35.4332 74.7693 35.3533 74.4698 35.3666C74.1676 35.3652 73.8634 35.3641 73.5572 35.3628C72.9445 35.3603 72.3236 35.3576 71.6944 35.3551C70.4361 35.3499 69.145 35.3445 67.8224 35.3389C67.165 35.3292 66.4949 35.4244 65.8789 35.6997C65.264 35.9689 64.7045 36.3819 64.2579 36.9034C63.8146 37.4279 63.497 38.0655 63.3353 38.7471C63.2896 38.9165 63.276 39.0929 63.2445 39.2661C63.2347 39.4422 63.2213 39.6177 63.2182 39.796C63.2169 40.1533 63.2155 40.5126 63.214 40.8735C63.2026 43.7614 63.1909 46.7656 63.1788 49.8762C63.1539 56.0978 63.1274 62.7456 63.0995 69.7415C63.0709 76.7374 63.0408 84.0814 63.0097 91.695C62.9938 95.5018 62.9776 99.3759 62.9613 103.308C62.9531 105.274 62.9448 107.254 62.9363 109.248C62.9342 109.746 62.9321 110.245 62.93 110.745C62.9283 111.243 62.954 111.741 63.1049 112.217C63.3851 113.167 63.99 114.026 64.8124 114.595C65.6347 115.168 66.6393 115.431 67.638 115.385C68.6409 115.39 69.6406 115.395 70.6371 115.399C72.63 115.409 74.6098 115.418 76.5751 115.427C80.5059 115.445 84.3789 115.463 88.1849 115.481C90.0878 115.49 91.974 115.499 93.842 115.508C94.309 115.51 94.7749 115.512 95.2396 115.515L95.9358 115.518C96.1677 115.52 96.3996 115.523 96.6272 115.508C97.543 115.466 98.4272 115.109 99.1349 114.547C99.4847 114.259 99.7906 113.921 100.042 113.548C100.296 113.175 100.475 112.757 100.602 112.329C100.737 111.899 100.766 111.45 100.774 111.003C100.776 110.553 100.778 110.104 100.78 109.656C100.787 107.865 100.795 106.095 100.803 104.346C100.866 90.3564 100.923 77.7573 100.971 67.1762C101.022 56.5956 101.064 48.0328 101.093 42.1144C101.097 41.3747 101.1 40.6764 101.104 40.0205C101.114 39.3658 101.001 38.7546 100.786 38.2285C100.575 37.7011 100.277 37.2595 99.9557 36.9055C99.6331 36.552 99.2915 36.2744 98.9546 36.0808C98.288 35.6757 97.6928 35.5421 97.3007 35.4906C97.1047 35.4509 96.9522 35.4603 96.852 35.4484C96.7512 35.4419 96.7001 35.4372 96.7001 35.4372Z" fill="#263238"/>
<path d="M96.7001 35.4372C96.7001 35.4372 96.7512 35.4384 96.8522 35.443C96.9526 35.4532 97.1054 35.4422 97.3022 35.4804C97.6956 35.5288 98.2937 35.6594 98.9651 36.0636C99.3042 36.2567 99.6487 36.5343 99.9743 36.8888C100.299 37.2438 100.599 37.6871 100.814 38.2176C101.031 38.7464 101.147 39.3631 101.138 40.0209C101.136 40.6767 101.134 41.375 101.132 42.1148C101.11 48.0334 101.08 56.5962 101.042 67.1768C101 77.7581 100.95 90.3569 100.895 104.347C100.888 106.095 100.881 107.866 100.874 109.657C100.872 110.105 100.87 110.554 100.868 111.004C100.861 111.454 100.83 111.917 100.693 112.355C100.563 112.793 100.38 113.22 100.122 113.601C99.8647 113.983 99.5523 114.327 99.195 114.621C98.4723 115.197 97.5683 115.562 96.6327 115.604C96.3983 115.62 96.1673 115.616 95.9356 115.615L95.2394 115.612C94.7746 115.61 94.3088 115.608 93.8418 115.605C91.9737 115.597 90.0876 115.589 88.1847 115.58C84.3789 115.563 80.5057 115.545 76.5749 115.527C74.6096 115.518 72.6298 115.509 70.6369 115.5C69.6404 115.495 68.6407 115.491 67.6378 115.486C66.632 115.533 65.5929 115.264 64.7554 114.678C63.9144 114.096 63.2956 113.218 63.0091 112.245C62.8549 111.761 62.8283 111.245 62.8302 110.746C62.8323 110.246 62.8344 109.746 62.8365 109.248C62.845 107.254 62.8534 105.274 62.8619 103.308C62.8787 99.3765 62.8953 95.5021 62.9118 91.6954C62.945 84.0818 62.9771 76.7378 63.0076 69.7419C63.0387 62.746 63.0684 56.0982 63.0961 49.8766C63.1103 46.7658 63.1239 43.7616 63.137 40.8739C63.1387 40.513 63.1402 40.1537 63.142 39.7964C63.1452 39.6175 63.1587 39.4372 63.1691 39.2586C63.2009 39.0824 63.2153 38.903 63.2618 38.7306C63.4267 38.0373 63.7504 37.3889 64.2016 36.8561C64.6561 36.3262 65.225 35.9069 65.8505 35.6339C66.4757 35.3547 67.1609 35.2581 67.8229 35.2689C69.1456 35.2756 70.4366 35.2821 71.695 35.2884C72.3242 35.2917 72.9451 35.2948 73.5578 35.298C73.864 35.2996 74.1683 35.3011 74.4704 35.3027C74.7749 35.2888 75.0899 35.3733 75.3392 35.549C75.5882 35.7247 75.7792 35.977 75.8768 36.2607C75.9889 36.5449 75.9607 36.8511 75.963 37.1357C75.9622 37.2803 75.9616 37.4244 75.9609 37.5681C75.9607 37.7121 75.9549 37.8551 75.9731 37.9926C76.0075 38.2691 76.1233 38.5344 76.3036 38.7414C76.4802 38.9516 76.7231 39.1021 76.9846 39.168C77.1163 39.2014 77.2486 39.2114 77.3866 39.2093C77.5237 39.21 77.6601 39.2106 77.796 39.2114C78.3394 39.2143 78.8739 39.217 79.3992 39.2198C81.5006 39.231 83.4562 39.2415 85.2563 39.2511C86.1564 39.2561 87.0176 39.2607 87.8387 39.2652C88.0428 39.2625 88.2494 39.2761 88.4443 39.2598C88.6403 39.2383 88.8279 39.1713 88.9909 39.0699C89.3191 38.8673 89.5426 38.5302 89.6192 38.174C89.6606 37.9958 89.6543 37.814 89.656 37.6337C89.657 37.454 89.6579 37.2768 89.6589 37.1025C89.6618 36.9291 89.6518 36.7548 89.6841 36.5852C89.7138 36.4166 89.7716 36.2559 89.8528 36.1114C90.0135 35.8205 90.2737 35.6012 90.5623 35.4891C90.8533 35.3637 91.1628 35.4033 91.4432 35.3985C92.5817 35.4056 93.5454 35.4117 94.3245 35.4165C95.1027 35.4223 95.6963 35.4267 96.0963 35.4296C96.4956 35.4328 96.7001 35.4372 96.7001 35.4372ZM96.7001 35.4372C96.7001 35.4372 96.4956 35.4397 96.0965 35.4396C95.6965 35.4388 95.1029 35.4378 94.3245 35.4363C93.5454 35.434 92.5817 35.4311 91.4432 35.4278C91.1602 35.4332 90.8564 35.3956 90.574 35.5185C90.2927 35.6287 90.0391 35.8431 89.8828 36.1277C89.8039 36.269 89.7476 36.426 89.719 36.5908C89.6879 36.7549 89.6979 36.9274 89.6954 37.1021C89.6948 37.2766 89.6942 37.4536 89.6937 37.6333C89.6921 37.8117 89.6992 37.9981 89.657 38.1817C89.579 38.5475 89.3504 38.8948 89.0124 39.1041C88.8446 39.2089 88.6509 39.2784 88.4487 39.3011C88.2442 39.3181 88.0446 39.3045 87.8384 39.3078C87.0174 39.3047 86.1561 39.3014 85.256 39.298C83.4558 39.2909 81.5001 39.2832 79.3986 39.2751C78.8733 39.273 78.3388 39.2709 77.7954 39.2686C77.6595 39.268 77.5232 39.2675 77.3863 39.2669C77.2505 39.2694 77.1061 39.2594 76.9702 39.2244C76.6966 39.1559 76.4428 38.9987 76.2583 38.7798C76.0701 38.564 75.949 38.2877 75.9129 37.9997C75.8937 37.8543 75.8998 37.71 75.8996 37.5673C75.9002 37.4237 75.9008 37.2797 75.9011 37.1349C75.8986 36.8456 75.9253 36.5518 75.8174 36.2811C75.7237 36.0092 75.5404 35.7681 75.3025 35.6006C75.0623 35.4332 74.7693 35.3533 74.4698 35.3666C74.1676 35.3652 73.8634 35.3641 73.5572 35.3628C72.9445 35.3603 72.3236 35.3576 71.6944 35.3551C70.4361 35.3499 69.145 35.3445 67.8224 35.3389C67.165 35.3292 66.4949 35.4244 65.8789 35.6997C65.264 35.9689 64.7045 36.3819 64.2579 36.9034C63.8146 37.4279 63.497 38.0655 63.3353 38.7471C63.2896 38.9165 63.276 39.0929 63.2445 39.2661C63.2347 39.4422 63.2213 39.6177 63.2182 39.796C63.2169 40.1533 63.2155 40.5126 63.214 40.8735C63.2026 43.7614 63.1909 46.7656 63.1788 49.8762C63.1539 56.0978 63.1274 62.7456 63.0995 69.7415C63.0709 76.7374 63.0408 84.0814 63.0097 91.695C62.9938 95.5018 62.9776 99.3759 62.9613 103.308C62.9531 105.274 62.9448 107.254 62.9363 109.248C62.9342 109.746 62.9321 110.245 62.93 110.745C62.9283 111.243 62.954 111.741 63.1049 112.217C63.3851 113.167 63.99 114.026 64.8124 114.595C65.6347 115.168 66.6393 115.431 67.638 115.385C68.6409 115.39 69.6406 115.395 70.6371 115.399C72.63 115.409 74.6098 115.418 76.5751 115.427C80.5059 115.445 84.3789 115.463 88.1849 115.481C90.0878 115.49 91.974 115.499 93.842 115.508C94.309 115.51 94.7749 115.512 95.2396 115.515L95.9358 115.518C96.1677 115.52 96.3996 115.523 96.6272 115.508C97.543 115.466 98.4272 115.109 99.1349 114.547C99.4847 114.259 99.7906 113.921 100.042 113.548C100.296 113.175 100.475 112.757 100.602 112.329C100.737 111.899 100.766 111.45 100.774 111.003C100.776 110.553 100.778 110.104 100.78 109.656C100.787 107.865 100.795 106.095 100.803 104.346C100.866 90.3564 100.923 77.7573 100.971 67.1762C101.022 56.5956 101.064 48.0328 101.093 42.1144C101.097 41.3747 101.1 40.6764 101.104 40.0205C101.114 39.3658 101.001 38.7546 100.786 38.2285C100.575 37.7011 100.277 37.2595 99.9557 36.9055C99.6331 36.552 99.2915 36.2744 98.9546 36.0808C98.288 35.6757 97.6928 35.5421 97.3007 35.4906C97.1047 35.4509 96.9522 35.4603 96.852 35.4484C96.7512 35.4419 96.7001 35.4372 96.7001 35.4372Z" stroke="black" stroke-width="0.5"/>
<path d="M91.4825 57.8702L91.0461 57.3522L92.345 56.6564L86.3145 54.6152L88.3556 60.4601L89.0979 59.4859C89.0979 59.4859 92.9999 66.3522 89.0979 70.5263C85.2228 74.6716 80.6553 73.7734 80.6553 73.7734L81.5366 76.6495C81.5366 76.6495 88.7268 77.1599 92.5769 70.6655C96.4271 64.1713 91.4825 57.8702 91.4825 57.8702Z" fill="#0A3C77"/>
<path d="M73.3996 72.2767L73.836 72.7947L72.5371 73.4906L78.5677 75.5317L76.5265 69.6868L75.7842 70.661C75.7842 70.661 71.8822 63.7947 75.7842 59.6207C79.6594 55.4754 84.2269 56.3734 84.2269 56.3734L83.3454 53.4972C83.3454 53.4972 76.1552 52.9869 72.305 59.4813C68.455 65.9757 73.3996 72.2767 73.3996 72.2767Z" fill="#0A3C77"/>
<path d="M91.4825 57.8702L91.0461 57.3522L92.345 56.6564L86.3145 54.6152L88.3556 60.4601L89.0979 59.4859C89.0979 59.4859 92.9999 66.3522 89.0979 70.5263C85.2228 74.6716 80.6553 73.7734 80.6553 73.7734L81.5366 76.6495C81.5366 76.6495 88.7268 77.1599 92.5769 70.6655C96.4271 64.1713 91.4825 57.8702 91.4825 57.8702Z" fill="#0A3C77"/>
<path d="M73.3996 72.2767L73.836 72.7947L72.5371 73.4906L78.5677 75.5317L76.5265 69.6868L75.7842 70.661C75.7842 70.661 71.8822 63.7947 75.7842 59.6207C79.6594 55.4754 84.2269 56.3734 84.2269 56.3734L83.3454 53.4972C83.3454 53.4972 76.1552 52.9869 72.305 59.4813C68.455 65.9757 73.3996 72.2767 73.3996 72.2767Z" fill="#0A3C77"/>
<path fill-rule="evenodd" clip-rule="evenodd" d="M85.8795 61.6642C86.1686 61.9733 86.4113 62.3164 86.6047 62.6822L87.7634 62.6778L88.194 64.5461L87.1503 65.0496C87.1369 65.4631 87.0689 65.8778 86.9441 66.2826L87.7664 67.0986L86.7496 68.7241L85.656 68.3422C85.3469 68.6317 85.0038 68.8742 84.6378 69.0674L84.6422 70.2263L82.7741 70.6569L82.2704 69.6132C81.8569 69.5998 81.4424 69.5316 81.0376 69.4066L80.2218 70.229L78.596 69.2123L78.978 68.1187C78.6885 67.8096 78.4462 67.4665 78.2528 67.1005L77.0937 67.1049L76.6631 65.2366L77.7072 64.7331C77.7206 64.3196 77.7888 63.905 77.9134 63.5003L77.0912 62.6843L78.1079 61.0587L79.2013 61.4407C79.5104 61.1512 79.8537 60.9087 80.2195 60.7155L80.2151 59.5566L82.0832 59.126L82.5867 60.1699C83.0002 60.1833 83.4148 60.2513 83.8197 60.3763L84.6355 59.5539L86.2612 60.5704L85.8795 61.6642ZM83.5929 63.1939C82.6299 62.5916 81.3608 62.884 80.7584 63.8473C80.1561 64.8103 80.4488 66.0795 81.4118 66.6818C82.3751 67.2841 83.644 66.9915 84.2463 66.0284C84.8486 65.0651 84.5562 63.7962 83.5929 63.1939Z" fill="#0A3C77"/>
<path d="M73.5283 87.5405C73.1433 87.5405 72.8026 87.4612 72.5063 87.3025C72.2123 87.1439 71.9813 86.9199 71.8133 86.6305C71.6453 86.3412 71.5613 86.0029 71.5613 85.6155V82.399L72.0793 82.3955V85.549C72.0793 85.8104 72.1236 86.0367 72.2123 86.228C72.301 86.417 72.4165 86.5734 72.5588 86.697C72.7035 86.8184 72.861 86.9082 73.0313 86.9665C73.2016 87.0249 73.3673 87.054 73.5283 87.054C73.6916 87.054 73.8585 87.0249 74.0288 86.9665C74.1991 86.9082 74.3555 86.8184 74.4978 86.697C74.6401 86.5734 74.7556 86.417 74.8443 86.228C74.933 86.0367 74.9773 85.8104 74.9773 85.549V82.3955H75.4953V85.6155C75.4953 86.0029 75.4113 86.3412 75.2433 86.6305C75.0753 86.9175 74.8431 87.1415 74.5468 87.3025C74.2528 87.4612 73.9133 87.5405 73.5283 87.5405ZM78.1738 87.5405C77.8262 87.5405 77.5322 87.453 77.2918 87.278C77.0515 87.1007 76.8695 86.8615 76.7458 86.5605C76.6222 86.2572 76.5603 85.9177 76.5603 85.542C76.5603 85.1594 76.6222 84.8187 76.7458 84.52C76.8718 84.219 77.0562 83.9822 77.2988 83.8095C77.5415 83.6369 77.8402 83.5505 78.1948 83.5505C78.5402 83.5505 78.8365 83.638 79.0838 83.813C79.3312 83.988 79.5202 84.226 79.6508 84.527C79.7838 84.828 79.8503 85.1664 79.8503 85.542C79.8503 85.92 79.7838 86.2595 79.6508 86.5605C79.5178 86.8615 79.3265 87.1007 79.0768 87.278C78.8272 87.453 78.5262 87.5405 78.1738 87.5405ZM76.4728 89.1155V83.6555H76.9348V86.501H76.9908V89.1155H76.4728ZM78.1213 87.061C78.385 87.061 78.6043 86.9945 78.7793 86.8615C78.9543 86.7285 79.085 86.5477 79.1713 86.319C79.26 86.088 79.3043 85.829 79.3043 85.542C79.3043 85.2574 79.2612 85.0007 79.1748 84.772C79.0885 84.5434 78.9567 84.3625 78.7793 84.2295C78.6043 84.0965 78.3815 84.03 78.1108 84.03C77.8472 84.03 77.6278 84.0942 77.4528 84.2225C77.2802 84.3509 77.1507 84.5294 77.0643 84.758C76.978 84.9844 76.9348 85.2457 76.9348 85.542C76.9348 85.8337 76.978 86.095 77.0643 86.326C77.1507 86.5547 77.2813 86.7344 77.4563 86.865C77.6313 86.9957 77.853 87.061 78.1213 87.061ZM82.0854 87.5405C81.7331 87.5405 81.4321 87.453 81.1824 87.278C80.9327 87.1007 80.7414 86.8615 80.6084 86.5605C80.4754 86.2595 80.4089 85.92 80.4089 85.542C80.4089 85.1664 80.4742 84.828 80.6049 84.527C80.7379 84.226 80.9281 83.988 81.1754 83.813C81.4227 83.638 81.7191 83.5505 82.0644 83.5505C82.4191 83.5505 82.7177 83.6369 82.9604 83.8095C83.2031 83.9822 83.3862 84.219 83.5099 84.52C83.6359 84.8187 83.6989 85.1594 83.6989 85.542C83.6989 85.9177 83.6371 86.2572 83.5134 86.5605C83.3897 86.8615 83.2077 87.1007 82.9674 87.278C82.7271 87.453 82.4331 87.5405 82.0854 87.5405ZM82.1379 87.061C82.4062 87.061 82.6279 86.9957 82.8029 86.865C82.9779 86.7344 83.1086 86.5547 83.1949 86.326C83.2812 86.095 83.3244 85.8337 83.3244 85.542C83.3244 85.2457 83.2812 84.9844 83.1949 84.758C83.1086 84.5294 82.9779 84.3509 82.8029 84.2225C82.6302 84.0942 82.4121 84.03 82.1484 84.03C81.8777 84.03 81.6537 84.0965 81.4764 84.2295C81.2991 84.3625 81.1672 84.5434 81.0809 84.772C80.9969 85.0007 80.9549 85.2574 80.9549 85.542C80.9549 85.829 80.9981 86.088 81.0844 86.319C81.1731 86.5477 81.3049 86.7285 81.4799 86.8615C81.6549 86.9945 81.8742 87.061 82.1379 87.061ZM83.3244 87.4355V84.59H83.2684V82.3955H83.7864V87.4355H83.3244ZM85.8498 87.5405C85.5652 87.5405 85.326 87.4892 85.1323 87.3865C84.941 87.2839 84.7975 87.1474 84.7018 86.977C84.6062 86.8067 84.5583 86.6212 84.5583 86.4205C84.5583 86.2152 84.5992 86.0402 84.6808 85.8955C84.7648 85.7485 84.878 85.6284 85.0203 85.535C85.165 85.4417 85.3318 85.3705 85.5208 85.3215C85.7122 85.2749 85.9233 85.234 86.1543 85.199C86.3877 85.1617 86.6152 85.1302 86.8368 85.1045C87.0608 85.0765 87.2568 85.0497 87.4248 85.024L87.2428 85.136C87.2498 84.7627 87.1775 84.4862 87.0258 84.3065C86.8742 84.1269 86.6105 84.037 86.2348 84.037C85.9758 84.037 85.7565 84.0954 85.5768 84.212C85.3995 84.3287 85.2747 84.513 85.2023 84.765L84.7018 84.618C84.7882 84.2797 84.962 84.0172 85.2233 83.8305C85.4847 83.6439 85.8242 83.5505 86.2418 83.5505C86.5872 83.5505 86.88 83.6159 87.1203 83.7465C87.363 83.8749 87.5345 84.0615 87.6348 84.3065C87.6815 84.4162 87.7118 84.5387 87.7258 84.674C87.7398 84.8094 87.7468 84.947 87.7468 85.087V87.4355H87.2883V86.487L87.4213 86.543C87.293 86.8674 87.0935 87.1147 86.8228 87.285C86.5522 87.4554 86.2278 87.5405 85.8498 87.5405ZM85.9093 87.096C86.1497 87.096 86.3597 87.0529 86.5393 86.9665C86.719 86.8802 86.8637 86.7624 86.9733 86.613C87.083 86.4614 87.1542 86.291 87.1868 86.102C87.2148 85.9807 87.23 85.8477 87.2323 85.703C87.2347 85.556 87.2358 85.4464 87.2358 85.374L87.4318 85.4755C87.2568 85.4989 87.0667 85.5222 86.8613 85.5455C86.6583 85.5689 86.4577 85.5957 86.2593 85.626C86.0633 85.6564 85.886 85.6925 85.7273 85.7345C85.62 85.7649 85.5162 85.808 85.4158 85.864C85.3155 85.9177 85.2327 85.99 85.1673 86.081C85.1043 86.172 85.0728 86.2852 85.0728 86.4205C85.0728 86.5302 85.0997 86.6364 85.1533 86.739C85.2093 86.8417 85.298 86.9269 85.4193 86.9945C85.543 87.0622 85.7063 87.096 85.9093 87.096ZM90.716 87.4355C90.5036 87.4799 90.2936 87.4974 90.086 87.488C89.8806 87.4787 89.6963 87.4344 89.533 87.355C89.372 87.2757 89.2495 87.152 89.1655 86.984C89.0978 86.844 89.0605 86.7029 89.0535 86.5605C89.0488 86.4159 89.0465 86.2514 89.0465 86.067V82.6055H89.5575V86.046C89.5575 86.2047 89.5586 86.3377 89.561 86.445C89.5656 86.55 89.5901 86.6434 89.6345 86.725C89.7185 86.8814 89.8515 86.9747 90.0335 87.005C90.2178 87.0354 90.4453 87.0284 90.716 86.984V87.4355ZM88.238 84.0965V83.6555H90.716V84.0965H88.238ZM92.9235 87.5405C92.5548 87.5405 92.2352 87.4589 91.9645 87.2955C91.6962 87.1322 91.4873 86.9024 91.338 86.606C91.1887 86.3097 91.114 85.962 91.114 85.563C91.114 85.15 91.1875 84.793 91.3345 84.492C91.4815 84.191 91.688 83.9589 91.954 83.7955C92.2223 83.6322 92.5385 83.5505 92.9025 83.5505C93.2758 83.5505 93.5943 83.6369 93.858 83.8095C94.1217 83.9799 94.3212 84.2249 94.4565 84.5445C94.5918 84.8642 94.6537 85.2457 94.642 85.689H94.117V85.507C94.1077 85.017 94.0015 84.6472 93.7985 84.3975C93.5978 84.1479 93.3038 84.023 92.9165 84.023C92.5105 84.023 92.199 84.1549 91.982 84.4185C91.7673 84.6822 91.66 85.0579 91.66 85.5455C91.66 86.0215 91.7673 86.3914 91.982 86.655C92.199 86.9164 92.5058 87.047 92.9025 87.047C93.1732 87.047 93.4088 86.9852 93.6095 86.8615C93.8125 86.7355 93.9723 86.5547 94.089 86.319L94.5685 86.5045C94.4192 86.8335 94.1987 87.089 93.907 87.271C93.6177 87.4507 93.2898 87.5405 92.9235 87.5405ZM91.478 85.689V85.2585H94.3655V85.689H91.478Z" fill="black"/>
<path d="M98.3841 42.3497C98.3843 42.3698 97.6061 42.3929 96.6463 42.4007C95.6861 42.4086 94.9077 42.3988 94.9077 42.3785C94.9075 42.3583 95.6855 42.3353 96.6457 42.3274C97.6053 42.3195 98.3839 42.3295 98.3841 42.3497Z" fill="#263238"/>
<path d="M98.3909 43.2393C98.3911 43.2595 97.6129 43.2823 96.6531 43.2904C95.6929 43.2985 94.9146 43.2883 94.9146 43.2681C94.9144 43.248 95.6923 43.2251 96.6525 43.217C97.6123 43.2092 98.3907 43.2192 98.3909 43.2393Z" fill="#263238"/>
<path d="M98.3987 44.1286C98.3989 44.1487 97.6207 44.1716 96.6609 44.1796C95.7007 44.1875 94.9224 44.1775 94.9224 44.1574C94.9222 44.1372 95.7002 44.1144 96.6603 44.1063C97.6202 44.0982 98.3985 44.1084 98.3987 44.1286Z" fill="#263238"/>
<path d="M66.7646 45.144C66.766 45.1426 66.7907 45.1411 66.8368 45.1392C66.8938 45.1373 66.9599 45.1352 67.0378 45.1325C67.2275 45.1281 67.4756 45.1221 67.7801 45.1148L67.7596 45.1357C67.7569 44.9712 67.754 44.7915 67.7509 44.5976C67.7519 44.4975 67.7423 44.4033 67.7521 44.2877C67.772 44.1725 67.8748 44.0707 68.0011 44.0588C68.1207 44.0565 68.2261 44.0511 68.3557 44.0571C68.4895 44.0734 68.6032 44.202 68.5992 44.3437C68.602 44.5947 68.6049 44.857 68.608 45.1288L68.5736 45.095C68.8743 45.092 69.1875 45.0889 69.51 45.0854L69.4745 45.1217C69.4712 44.7446 69.4678 44.3545 69.4641 43.9549C69.4634 43.8553 69.4624 43.7562 69.4616 43.6577C69.4613 43.5661 69.4056 43.5049 69.3299 43.4365C69.1913 43.3 69.0548 43.1654 68.9206 43.033C68.7866 42.9007 68.6549 42.7707 68.5256 42.6432C68.4611 42.5794 68.3974 42.5165 68.3342 42.4541C68.2684 42.3907 68.2167 42.3252 68.1405 42.3095C68.0666 42.2895 67.9852 42.3053 67.9256 42.3506C67.869 42.3986 67.8085 42.4664 67.7513 42.522C67.6359 42.6384 67.524 42.7515 67.4153 42.8609C67.2039 43.0804 66.9839 43.281 66.8237 43.4705C66.7564 43.5752 66.7815 43.7034 66.7767 43.82C66.7765 43.9359 66.7763 44.0461 66.7759 44.1498C66.7748 44.3522 66.7736 44.5294 66.7727 44.6813C66.7711 44.817 66.77 44.9293 66.7688 45.0211C66.7679 45.0998 66.7663 45.1421 66.7646 45.144C66.7629 45.1457 66.7608 45.1071 66.7581 45.0315C66.7556 44.941 66.7525 44.8306 66.7487 44.6968C66.7452 44.5436 66.7412 44.365 66.7366 44.161C66.7347 44.0552 66.7325 43.9428 66.7304 43.8246C66.7295 43.7647 66.7285 43.7032 66.7276 43.6404C66.727 43.574 66.7441 43.5053 66.7792 43.4444C66.9524 43.2321 67.1592 43.0443 67.3721 42.8183C67.4798 42.7079 67.5912 42.5938 67.7054 42.4767C67.7655 42.4178 67.8147 42.359 67.8861 42.2976C67.961 42.24 68.0639 42.2194 68.1576 42.2442C68.2572 42.2661 68.3221 42.3479 68.3824 42.4051C68.4458 42.4671 68.5099 42.5299 68.5746 42.5933C68.7042 42.7202 68.8363 42.8498 68.9707 42.9817C69.1053 43.1138 69.242 43.248 69.3808 43.3843C69.4138 43.4191 69.4534 43.4486 69.4854 43.4976C69.5158 43.5442 69.5331 43.5995 69.5346 43.6554C69.5356 43.7543 69.5363 43.8539 69.5373 43.954C69.5404 44.3535 69.5432 44.7437 69.5461 45.1208L69.5465 45.1567L69.5106 45.1569C69.188 45.159 68.8749 45.1609 68.5742 45.1628L68.5398 45.163L68.5396 45.1288C68.5383 44.857 68.537 44.5947 68.5356 44.3437C68.5396 44.2306 68.4515 44.1308 68.3465 44.1164C68.2388 44.1106 68.1117 44.1145 68.0068 44.1154C67.9062 44.1237 67.8221 44.2045 67.8049 44.2975C67.7958 44.3915 67.8028 44.5014 67.8008 44.5966C67.8008 44.7905 67.801 44.9702 67.801 45.135V45.1561L67.7805 45.1559C67.4708 45.1538 67.2187 45.1519 67.0257 45.1505C66.9493 45.1492 66.8848 45.148 66.8291 45.1471C66.7853 45.1465 66.7633 45.1453 66.7646 45.144Z" fill="#263238"/>
<path d="M89.7755 44.3849C89.7755 44.4125 86.8498 44.4348 83.2416 44.4348C79.6322 44.4348 76.707 44.4123 76.707 44.3849C76.707 44.3574 79.6322 44.335 83.2416 44.335C86.8498 44.3348 89.7755 44.3572 89.7755 44.3849Z" fill="#263238"/>
<path d="M89.4361 105.067H75.7166C73.9644 105.067 72.5439 103.647 72.5439 101.894C72.5439 100.142 73.9644 98.7217 75.7166 98.7217H89.4361C91.1883 98.7217 92.6087 100.142 92.6087 101.894C92.6089 103.647 91.1885 105.067 89.4361 105.067Z" fill="#0A3C77"/>
<path d="M95.6153 90.0133C95.6153 90.0409 89.7167 90.0632 82.442 90.0632C75.1649 90.0632 69.2676 90.0408 69.2676 90.0133C69.2676 89.9857 75.1649 89.9634 82.442 89.9634C89.7167 89.9634 95.6153 89.9858 95.6153 90.0133Z" fill="#263238"/>
<path d="M90.3666 91.6285C90.3666 91.6562 86.8182 91.6785 82.442 91.6785C78.0642 91.6785 74.5166 91.656 74.5166 91.6285C74.5166 91.6009 78.0642 91.5786 82.442 91.5786C86.818 91.5786 90.3666 91.6009 90.3666 91.6285Z" fill="#263238"/>
<path d="M53.9101 115.418L52.7437 119.731L56.5347 120.077L57.3313 115.971L53.9101 115.418Z" fill="#0A3C77"/>
<path d="M56.6445 119.725C56.6433 119.74 56.431 119.734 56.0892 119.707C55.7474 119.679 55.277 119.627 54.759 119.56C54.26 119.493 53.8084 119.433 53.434 119.383C53.0953 119.335 52.8859 119.303 52.8872 119.288C52.8886 119.274 53.1007 119.28 53.4423 119.308C53.7839 119.337 54.2543 119.389 54.7725 119.456C55.2715 119.522 55.7229 119.583 56.0975 119.632C56.4363 119.679 56.646 119.71 56.6445 119.725Z" fill="#263238"/>
<g opacity="0.6">
<path d="M52.7437 119.731L56.5347 120.077L56.5959 119.76L52.8531 119.285L52.7475 119.688" fill="white"/>
</g>
<path d="M54.6268 119.539C54.603 119.533 54.7643 118.793 54.9872 117.887C55.2103 116.98 55.4104 116.249 55.4342 116.255C55.458 116.261 55.2967 117.001 55.0736 117.908C54.8509 118.814 54.6508 119.545 54.6268 119.539Z" fill="#263238"/>
<path d="M56.4349 119.697C56.4116 119.696 56.5558 119.388 56.4435 118.895C56.3857 118.655 56.2598 118.376 56.0286 118.145C55.8011 117.912 55.4597 117.75 55.0851 117.711C54.7098 117.675 54.344 117.766 54.0698 117.942C53.7922 118.116 53.6011 118.354 53.4794 118.569C53.2383 119.012 53.2617 119.344 53.24 119.339C53.2369 119.339 53.235 119.319 53.2344 119.281C53.2325 119.244 53.2358 119.188 53.2433 119.117C53.2592 118.975 53.307 118.77 53.4237 118.54C53.5424 118.313 53.7357 118.06 54.0257 117.873C54.3125 117.683 54.6988 117.585 55.0938 117.623C55.4881 117.663 55.8487 117.837 56.0868 118.087C56.3277 118.335 56.4525 118.631 56.5048 118.882C56.5547 119.136 56.5372 119.348 56.5061 119.487C56.4898 119.557 56.4744 119.611 56.4594 119.645C56.4462 119.681 56.4378 119.698 56.4349 119.697Z" fill="#263238"/>
<path d="M69.5629 114.261L69.3091 118.093C69.3091 118.093 73.123 119.358 73.1449 120.071L65.6934 120.125L65.8439 114.138L69.5629 114.261Z" fill="#0A3C77"/>
<g opacity="0.6">
<path d="M67.0157 117.701C66.8703 117.736 66.7659 117.895 66.7949 118.041C66.8239 118.188 66.9848 118.296 67.1307 118.263C67.2766 118.231 67.4079 118.044 67.3626 117.901C67.3173 117.759 67.1217 117.643 66.9879 117.709" fill="white"/>
</g>
<g opacity="0.6">
<path d="M65.6934 120.125L65.7085 119.521L72.9055 119.72C72.9055 119.72 73.1449 119.823 73.1827 120.125H65.6934Z" fill="white"/>
</g>
<path d="M69.4308 118.058C69.4285 118.095 69.2461 118.106 69.0637 118.217C68.8783 118.324 68.7813 118.479 68.7483 118.463C68.7149 118.455 68.7757 118.239 68.999 118.108C69.2212 117.975 69.4397 118.025 69.4308 118.058Z" fill="#263238"/>
<path d="M70.2019 118.405C70.2092 118.441 70.0498 118.498 69.9216 118.648C69.7891 118.794 69.7528 118.959 69.7167 118.957C69.6823 118.961 69.6635 118.748 69.8265 118.564C69.9878 118.379 70.2023 118.37 70.2019 118.405Z" fill="#263238"/>
<path d="M70.6177 119.354C70.5845 119.36 70.5394 119.177 70.6387 118.981C70.7366 118.784 70.9105 118.71 70.9249 118.741C70.9445 118.772 70.8309 118.875 70.7518 119.038C70.669 119.198 70.6538 119.351 70.6177 119.354Z" fill="#263238"/>
<path d="M69.3922 117.179C69.3759 117.211 69.2106 117.156 69.0045 117.164C68.7985 117.168 68.6365 117.232 68.6184 117.2C68.5981 117.173 68.7584 117.043 69.0011 117.037C69.2438 117.03 69.4108 117.151 69.3922 117.179Z" fill="#263238"/>
<path d="M69.4289 116.405C69.4289 116.42 69.2846 116.438 69.0561 116.392C68.9424 116.368 68.8088 116.327 68.6696 116.26C68.5999 116.226 68.529 116.186 68.4588 116.14C68.4252 116.117 68.385 116.093 68.3488 116.049C68.3096 116.009 68.2896 115.912 68.338 115.855C68.3779 115.799 68.4461 115.776 68.4999 115.776C68.5548 115.776 68.5989 115.789 68.6393 115.8C68.7216 115.823 68.7984 115.852 68.8687 115.887C69.009 115.956 69.1221 116.041 69.2058 116.123C69.3738 116.288 69.4286 116.426 69.4161 116.432C69.3992 116.444 69.3185 116.327 69.1467 116.19C69.0611 116.122 68.9511 116.05 68.8197 115.992C68.7539 115.964 68.6828 115.939 68.6076 115.92C68.5292 115.897 68.4622 115.894 68.4409 115.929C68.4332 115.942 68.4321 115.947 68.4478 115.971C68.4641 115.993 68.4956 116.014 68.5287 116.037C68.5932 116.082 68.6585 116.122 68.7224 116.156C68.8505 116.224 68.9733 116.272 69.0787 116.305C69.2901 116.371 69.4301 116.385 69.4289 116.405Z" fill="#263238"/>
<path d="M69.3796 116.455C69.3666 116.46 69.2984 116.328 69.2923 116.092C69.2896 115.975 69.3059 115.834 69.3554 115.685C69.3806 115.611 69.414 115.535 69.4574 115.461C69.5033 115.389 69.5595 115.292 69.701 115.28C69.7748 115.28 69.8343 115.339 69.8537 115.389C69.8767 115.44 69.8804 115.483 69.8879 115.527C69.899 115.614 69.8948 115.699 69.8806 115.778C69.8523 115.936 69.7834 116.066 69.7097 116.158C69.5582 116.347 69.4052 116.386 69.4025 116.374C69.391 116.355 69.5198 116.288 69.6367 116.106C69.6943 116.017 69.7469 115.898 69.7654 115.76C69.7748 115.691 69.7759 115.618 69.765 115.544C69.7558 115.464 69.7279 115.4 69.6982 115.407C69.6611 115.405 69.5964 115.463 69.564 115.525C69.5236 115.591 69.4912 115.658 69.4655 115.724C69.4148 115.857 69.3904 115.986 69.3819 116.094C69.3648 116.313 69.3996 116.45 69.3796 116.455Z" fill="#263238"/>
<path d="M69.5633 80.9712L58.2095 80.8857L52.7231 116.92L57.4352 117.518L63.4742 87.8893L65.2815 117.624L65.2863 117.712L70.3822 117.623L69.5633 80.9712Z" fill="#263238"/>
<path d="M64.3987 83.8914C64.3951 83.888 64.4769 83.883 64.6333 83.8763C64.8035 83.8699 65.0321 83.8617 65.3163 83.8511C65.9247 83.8338 66.7688 83.81 67.77 83.7816L67.8167 83.7803L67.8169 83.8275C67.8186 84.5394 67.8205 85.3359 67.8227 86.181V86.2037L67.806 86.2192C67.6696 86.3444 67.5249 86.4777 67.3786 86.6123C66.9414 87.013 66.5186 87.4004 66.1188 87.7668L66.0854 87.7973L66.0518 87.7673C65.4275 87.2109 64.8578 86.7031 64.3722 86.2703L64.3584 86.258L64.3586 86.2402C64.3674 85.5244 64.3745 84.9365 64.3799 84.5133C64.3841 84.3209 64.3876 84.1662 64.3901 84.0481C64.393 83.9425 64.3958 83.8886 64.3987 83.8914C64.4016 83.8943 64.4045 83.9538 64.4075 84.0637C64.41 84.184 64.4135 84.3417 64.4177 84.5379C64.4229 84.9551 64.4302 85.5346 64.439 86.2402L64.4254 86.21C64.9146 86.6386 65.4887 87.1414 66.1179 87.6925L66.0509 87.693C66.4499 87.3257 66.8719 86.9371 67.3081 86.5357C67.4546 86.4013 67.5996 86.2682 67.7359 86.143L67.7192 86.181C67.7213 85.3359 67.7232 84.5396 67.7249 83.8275L67.7718 83.8734C66.782 83.8826 65.9478 83.8907 65.3464 83.8962C65.0579 83.8966 64.8255 83.897 64.6527 83.8972C64.5786 83.8964 64.5174 83.8959 64.4663 83.8953C64.4235 83.8945 64.4004 83.8932 64.3987 83.8914Z" fill="#455A64"/>
<path d="M59.0557 83.7348C59.0526 83.731 59.1254 83.735 59.2651 83.7456C59.4185 83.7581 59.6228 83.7748 59.8761 83.7955C60.4231 83.845 61.1807 83.9138 62.0841 83.9956L62.1298 83.9998L62.1242 84.0461C62.0411 84.7424 61.9462 85.5362 61.845 86.3829L61.8425 86.4038L61.826 86.4171C61.6697 86.5419 61.5042 86.674 61.3366 86.8078C60.9188 87.1403 60.5139 87.4625 60.1291 87.7687L60.0896 87.8002L60.0585 87.7609C59.5708 87.1442 59.1233 86.5785 58.7385 86.092L58.7275 86.0782L58.7298 86.0613C58.8253 85.3547 58.9038 84.7722 58.9606 84.3515C58.9883 84.1611 59.0105 84.0075 59.0276 83.89C59.0436 83.7851 59.0532 83.7316 59.0557 83.7348C59.0584 83.7381 59.0539 83.798 59.0436 83.9078C59.0315 84.0284 59.0157 84.1858 58.9961 84.3811C58.9506 84.797 58.8877 85.3728 58.8113 86.0711L58.8026 86.0406C59.1916 86.5238 59.644 87.0856 60.137 87.6981L60.0665 87.6902C60.4507 87.383 60.8549 87.0599 61.2719 86.7266C61.4397 86.5929 61.6054 86.4608 61.7617 86.3362L61.7427 86.3704C61.8485 85.5243 61.948 84.7311 62.0349 84.0351L62.0753 84.0854C61.1853 83.9861 60.439 83.9028 59.9001 83.8427C59.6436 83.8118 59.437 83.7871 59.2817 83.7684C59.1375 83.75 59.0587 83.7387 59.0557 83.7348Z" fill="#455A64"/>
<path d="M66.0018 89.2048C65.9944 89.2177 65.7997 89.118 65.4871 88.9546C65.1745 88.7912 64.7429 88.5658 64.2619 88.3256C63.7806 88.0856 63.3409 87.8766 63.0222 87.7251C62.7037 87.5736 62.5071 87.478 62.5128 87.4643C62.5182 87.4517 62.725 87.5233 63.052 87.6579C63.3789 87.7925 63.8251 87.9918 64.3082 88.2325C64.7909 88.4735 65.2187 88.71 65.5228 88.8903C65.8271 89.0706 66.0089 89.1927 66.0018 89.2048Z" fill="#455A64"/>
<path d="M65.8556 90.0799C65.8514 90.0913 65.6978 90.0492 65.4684 89.9342C65.2393 89.82 64.9388 89.6238 64.6585 89.3484C64.3788 89.0721 64.1779 88.7747 64.0604 88.5474C63.942 88.3197 63.8976 88.1669 63.9089 88.1624C63.9389 88.1461 64.1802 88.7381 64.7317 89.2743C65.2758 89.8173 65.8714 90.0496 65.8556 90.0799Z" fill="#455A64"/>
<path d="M69.0607 100.492C69.0667 100.494 69.0517 100.562 69.0093 100.68C68.9672 100.798 68.8918 100.965 68.7725 101.157C68.5389 101.538 68.0903 102.016 67.4475 102.288C66.8039 102.559 66.149 102.547 65.7126 102.448C65.4922 102.4 65.32 102.337 65.2059 102.285C65.0915 102.233 65.0326 102.196 65.0352 102.19C65.0429 102.172 65.2918 102.3 65.7264 102.376C66.1561 102.454 66.7876 102.453 67.407 102.192C68.0258 101.93 68.4672 101.479 68.7111 101.116C68.9599 100.752 69.0419 100.484 69.0607 100.492Z" fill="#455A64"/>
<path d="M68.3145 100.185C68.3196 100.196 68.1607 100.286 67.8805 100.376C67.6016 100.468 67.1991 100.547 66.7512 100.563C66.3033 100.582 65.8987 100.54 65.6101 100.496C65.3214 100.45 65.1466 100.402 65.1489 100.389C65.1539 100.354 65.8653 100.492 66.747 100.459C67.1868 100.443 67.5812 100.377 67.8602 100.306C68.1401 100.235 68.3079 100.169 68.3145 100.185Z" fill="#455A64"/>
<path d="M59.8728 100.399C59.8806 100.408 59.7416 100.558 59.4778 100.757C59.215 100.956 58.82 101.194 58.3464 101.371C57.8721 101.547 57.4177 101.625 57.0888 101.647C56.7591 101.669 56.5556 101.646 56.5562 101.634C56.5563 101.617 56.7591 101.614 57.0817 101.573C57.404 101.534 57.846 101.446 58.3103 101.273C58.7739 101.1 59.1658 100.878 59.4356 100.697C59.7059 100.517 59.8616 100.386 59.8728 100.399Z" fill="#455A64"/>
<path d="M58.8777 100.355C58.884 100.38 58.4184 100.489 57.8365 100.44C57.2541 100.396 56.8118 100.215 56.8219 100.191C56.8312 100.161 57.2776 100.293 57.8447 100.337C58.4115 100.384 58.8733 100.324 58.8777 100.355Z" fill="#455A64"/>
<path d="M63.4065 88.1381C63.4115 88.1497 63.221 88.2487 62.896 88.3693C62.5713 88.4903 62.1093 88.6251 61.5861 88.7093C61.0625 88.7927 60.5814 88.8088 60.2354 88.7954C59.8888 88.7823 59.6771 88.7476 59.6782 88.7351C59.6796 88.7189 59.8927 88.7276 60.236 88.7218C60.5793 88.7165 61.0529 88.689 61.5698 88.6068C62.0861 88.5237 62.5448 88.4018 62.8725 88.2998C63.2003 88.1979 63.4001 88.1232 63.4065 88.1381Z" fill="#455A64"/>
<path d="M63.0966 86.9746C63.1252 86.9744 63.1498 87.0635 63.1513 87.1735C63.1528 87.2835 63.1308 87.3732 63.102 87.3738C63.0734 87.3743 63.0488 87.2853 63.0474 87.1749C63.0459 87.0645 63.068 86.9748 63.0966 86.9746Z" fill="#455A64"/>
<path d="M63.0976 86.1763C63.1262 86.1767 63.1491 86.2661 63.1483 86.3761C63.1477 86.4862 63.1239 86.5754 63.0951 86.5754C63.0665 86.5754 63.0437 86.486 63.0445 86.3756C63.0452 86.2652 63.069 86.1759 63.0976 86.1763Z" fill="#455A64"/>
<path d="M63.1139 85.3779C63.1425 85.3789 63.1637 85.4687 63.1608 85.5788C63.1579 85.6888 63.1324 85.7775 63.1037 85.7769C63.0751 85.7763 63.054 85.6865 63.0569 85.5761C63.0598 85.4659 63.0853 85.3772 63.1139 85.3779Z" fill="#455A64"/>
<path d="M63.1456 84.5801C63.1742 84.5816 63.1934 84.6719 63.1886 84.7819C63.1836 84.8919 63.1563 84.98 63.1277 84.9789C63.0991 84.9777 63.0799 84.8875 63.0847 84.7771C63.0895 84.6669 63.1168 84.5786 63.1456 84.5801Z" fill="#455A64"/>
<path d="M63.193 83.7832C63.2217 83.7852 63.2391 83.876 63.2322 83.9858C63.2251 84.0956 63.1961 84.1834 63.1675 84.1816C63.1389 84.1799 63.1214 84.0893 63.1285 83.9791C63.1354 83.8691 63.1644 83.7813 63.193 83.7832Z" fill="#455A64"/>
<path d="M63.2562 82.9878C63.2848 82.9903 63.3006 83.0814 63.2914 83.191C63.2822 83.3006 63.2514 83.3878 63.2228 83.3855C63.1942 83.3832 63.1785 83.2924 63.1877 83.1823C63.1971 83.0723 63.2276 82.9853 63.2562 82.9878Z" fill="#455A64"/>
<path d="M63.3187 82.336C63.3473 82.3391 63.3646 82.3984 63.3575 82.4685C63.3504 82.5386 63.3214 82.5933 63.2928 82.5904C63.2642 82.5878 63.2469 82.5284 63.254 82.458C63.2613 82.3877 63.2903 82.3332 63.3187 82.336Z" fill="#455A64"/>
<path d="M56.9006 116.728C56.9288 116.733 56.934 116.826 56.9125 116.934C56.8908 117.042 56.8504 117.125 56.8224 117.119C56.7944 117.114 56.789 117.021 56.8107 116.913C56.8322 116.805 56.8725 116.722 56.9006 116.728Z" fill="#455A64"/>
<path d="M57.0571 115.945C57.0851 115.951 57.0905 116.043 57.0688 116.151C57.0471 116.259 57.0068 116.342 56.9788 116.336C56.9505 116.331 56.9454 116.239 56.9669 116.131C56.9886 116.022 57.0289 115.939 57.0571 115.945Z" fill="#455A64"/>
<path d="M57.2135 115.163C57.2418 115.168 57.247 115.261 57.2255 115.369C57.2038 115.477 57.1634 115.56 57.1354 115.554C57.1074 115.549 57.102 115.456 57.1237 115.348C57.1452 115.24 57.1855 115.157 57.2135 115.163Z" fill="#455A64"/>
<path d="M57.3703 114.38C57.3984 114.385 57.4037 114.477 57.3822 114.586C57.3605 114.694 57.3202 114.777 57.2922 114.771C57.2641 114.765 57.2588 114.673 57.2803 114.565C57.3018 114.457 57.3421 114.374 57.3703 114.38Z" fill="#455A64"/>
<path d="M57.527 113.597C57.5552 113.603 57.5604 113.695 57.5389 113.803C57.5172 113.911 57.4769 113.994 57.4489 113.988C57.4208 113.983 57.4155 113.891 57.4372 113.782C57.4587 113.674 57.499 113.591 57.527 113.597Z" fill="#455A64"/>
<path d="M57.6834 112.815C57.7116 112.82 57.7168 112.912 57.6953 113.021C57.6738 113.129 57.6333 113.212 57.6052 113.206C57.577 113.2 57.5718 113.108 57.5933 113C57.6148 112.892 57.6551 112.809 57.6834 112.815Z" fill="#455A64"/>
<path d="M57.8395 112.032C57.8677 112.037 57.8729 112.129 57.8514 112.237C57.8297 112.345 57.7894 112.428 57.7614 112.423C57.7333 112.417 57.728 112.325 57.7497 112.217C57.7712 112.109 57.8115 112.026 57.8395 112.032Z" fill="#455A64"/>
<path d="M57.9968 111.249C58.0251 111.255 58.0303 111.347 58.0088 111.455C57.9871 111.563 57.9467 111.646 57.9187 111.641C57.8905 111.635 57.8853 111.543 57.9068 111.435C57.9283 111.327 57.9686 111.244 57.9968 111.249Z" fill="#455A64"/>
<path d="M58.153 110.467C58.181 110.472 58.1864 110.564 58.1649 110.672C58.1432 110.78 58.1029 110.863 58.0749 110.858C58.0468 110.852 58.0414 110.76 58.0631 110.652C58.0846 110.544 58.125 110.461 58.153 110.467Z" fill="#455A64"/>
<path d="M58.3098 109.684C58.338 109.689 58.3432 109.782 58.3217 109.89C58.3 109.998 58.2597 110.081 58.2317 110.075C58.2034 110.07 58.1982 109.977 58.2199 109.869C58.2413 109.761 58.2816 109.678 58.3098 109.684Z" fill="#455A64"/>
<path d="M58.466 108.901C58.4942 108.907 58.4994 108.999 58.4779 109.107C58.4562 109.215 58.4159 109.298 58.3878 109.292C58.3598 109.287 58.3544 109.195 58.3761 109.087C58.3976 108.979 58.438 108.896 58.466 108.901Z" fill="#455A64"/>
<path d="M58.6228 108.118C58.651 108.124 58.6562 108.216 58.6347 108.324C58.613 108.432 58.5727 108.515 58.5447 108.51C58.5165 108.504 58.5113 108.412 58.5328 108.304C58.5543 108.196 58.5946 108.113 58.6228 108.118Z" fill="#455A64"/>
<path d="M58.7792 107.336C58.8074 107.341 58.8126 107.433 58.7909 107.542C58.7692 107.65 58.7289 107.733 58.7008 107.727C58.6728 107.721 58.6674 107.629 58.6891 107.521C58.7108 107.413 58.7511 107.33 58.7792 107.336Z" fill="#455A64"/>
<path d="M58.9364 106.553C58.9646 106.559 58.9698 106.651 58.9481 106.759C58.9264 106.867 58.8861 106.95 58.8581 106.944C58.83 106.939 58.8247 106.847 58.8463 106.738C58.8679 106.631 58.9082 106.547 58.9364 106.553Z" fill="#455A64"/>
<path d="M59.0925 105.77C59.1207 105.776 59.1259 105.868 59.1044 105.976C59.0827 106.084 59.0423 106.167 59.0143 106.162C58.9863 106.156 58.9809 106.064 59.0026 105.956C59.0241 105.848 59.0644 105.765 59.0925 105.77Z" fill="#455A64"/>
<path d="M59.2497 104.988C59.2779 104.993 59.2831 105.085 59.2616 105.193C59.2399 105.301 59.1996 105.384 59.1715 105.379C59.1435 105.373 59.1381 105.281 59.1598 105.173C59.1811 105.065 59.2215 104.982 59.2497 104.988Z" fill="#455A64"/>
<path d="M59.406 104.205C59.434 104.21 59.4394 104.303 59.4179 104.411C59.3962 104.519 59.3559 104.602 59.3278 104.596C59.2998 104.591 59.2944 104.498 59.3159 104.39C59.3376 104.282 59.3779 104.199 59.406 104.205Z" fill="#455A64"/>
<path d="M59.5622 103.422C59.5904 103.428 59.5956 103.52 59.5741 103.628C59.5524 103.736 59.5121 103.819 59.484 103.813C59.456 103.808 59.4506 103.716 59.4723 103.608C59.4936 103.5 59.534 103.417 59.5622 103.422Z" fill="#455A64"/>
<path d="M59.7191 102.639C59.7471 102.645 59.7525 102.737 59.7308 102.845C59.7091 102.953 59.6688 103.036 59.6408 103.031C59.6127 103.025 59.6074 102.933 59.6291 102.825C59.6506 102.717 59.6911 102.634 59.7191 102.639Z" fill="#455A64"/>
<path d="M59.8752 101.857C59.9034 101.862 59.9086 101.954 59.8871 102.063C59.8654 102.171 59.8251 102.254 59.797 102.248C59.769 102.242 59.7636 102.15 59.7853 102.042C59.8066 101.934 59.8469 101.851 59.8752 101.857Z" fill="#455A64"/>
<path d="M60.0319 101.074C60.0601 101.08 60.0653 101.172 60.0438 101.28C60.0221 101.388 59.9818 101.471 59.9538 101.465C59.9257 101.46 59.9204 101.368 59.9421 101.259C59.9634 101.151 60.0039 101.068 60.0319 101.074Z" fill="#455A64"/>
<path d="M60.1887 100.291C60.2169 100.297 60.2221 100.389 60.2006 100.497C60.1789 100.605 60.1386 100.688 60.1105 100.683C60.0825 100.677 60.0771 100.585 60.0986 100.477C60.1201 100.369 60.1605 100.286 60.1887 100.291Z" fill="#455A64"/>
<path d="M60.3454 99.5086C60.3737 99.5141 60.3788 99.6063 60.3573 99.7144C60.3356 99.8225 60.2953 99.9054 60.2673 99.8999C60.2391 99.8943 60.2339 99.8021 60.2556 99.694C60.2769 99.5859 60.3174 99.503 60.3454 99.5086Z" fill="#455A64"/>
<path d="M60.5016 98.7259C60.5299 98.7314 60.535 98.8238 60.5135 98.9317C60.4918 99.0398 60.4515 99.1227 60.4235 99.1172C60.3955 99.1116 60.3901 99.0194 60.4118 98.9113C60.4331 98.8034 60.4734 98.7203 60.5016 98.7259Z" fill="#455A64"/>
<path d="M60.6582 97.9436C60.6864 97.9492 60.6916 98.0414 60.6699 98.1495C60.6482 98.2576 60.6079 98.3405 60.5798 98.3349C60.5516 98.3294 60.5464 98.2372 60.5679 98.1291C60.5896 98.021 60.6301 97.9379 60.6582 97.9436Z" fill="#455A64"/>
<path d="M60.8151 97.1604C60.8433 97.166 60.8485 97.2581 60.827 97.3662C60.8053 97.4743 60.765 97.5573 60.737 97.5517C60.7089 97.5461 60.7036 97.454 60.7253 97.3459C60.7466 97.238 60.7869 97.1549 60.8151 97.1604Z" fill="#455A64"/>
<path d="M60.9712 96.3782C60.9992 96.3838 61.0046 96.4759 60.9829 96.584C60.9612 96.6921 60.9209 96.7751 60.8928 96.7695C60.8646 96.7639 60.8594 96.6718 60.8809 96.5637C60.9026 96.4556 60.9431 96.3726 60.9712 96.3782Z" fill="#455A64"/>
<path d="M61.1281 95.5955C61.1563 95.601 61.1615 95.6932 61.14 95.8013C61.1183 95.9094 61.078 95.9923 61.05 95.9868C61.0219 95.9812 61.0165 95.889 61.0382 95.781C61.0597 95.673 61.1001 95.5899 61.1281 95.5955Z" fill="#455A64"/>
<path d="M61.2843 94.8128C61.3124 94.8184 61.3178 94.9105 61.2963 95.0186C61.2746 95.1267 61.2342 95.2098 61.2062 95.2041C61.1782 95.1985 61.1728 95.1064 61.1945 94.9983C61.2158 94.8902 61.2563 94.807 61.2843 94.8128Z" fill="#455A64"/>
<path d="M61.4413 94.03C61.4695 94.0356 61.4747 94.1278 61.453 94.2359C61.4313 94.344 61.391 94.4271 61.3629 94.4213C61.3349 94.4158 61.3295 94.3236 61.3512 94.2155C61.3727 94.1076 61.4131 94.0245 61.4413 94.03Z" fill="#455A64"/>
<path d="M61.5978 93.2474C61.6259 93.2529 61.6312 93.3451 61.6097 93.4532C61.588 93.5613 61.5477 93.6442 61.5197 93.6386C61.4916 93.6331 61.4863 93.5409 61.508 93.4328C61.5293 93.3247 61.5698 93.2416 61.5978 93.2474Z" fill="#455A64"/>
<path d="M61.7548 92.4646C61.7828 92.4702 61.7882 92.5624 61.7665 92.6704C61.7448 92.7785 61.7045 92.8615 61.6764 92.8559C61.6484 92.8504 61.643 92.7582 61.6647 92.6501C61.6862 92.542 61.7265 92.4591 61.7548 92.4646Z" fill="#455A64"/>
<path d="M61.9111 91.6819C61.9393 91.6875 61.9445 91.7796 61.9228 91.8877C61.9013 91.9958 61.8608 92.0788 61.8327 92.0732C61.8045 92.0676 61.7993 91.9755 61.821 91.8674C61.8425 91.7593 61.883 91.6762 61.9111 91.6819Z" fill="#455A64"/>
<path d="M62.068 90.8992C62.0961 90.9048 62.1014 90.9969 62.0799 91.105C62.0582 91.2131 62.0179 91.2962 61.9899 91.2905C61.9619 91.2849 61.9565 91.1928 61.9782 91.0847C61.9995 90.9768 62.0398 90.8936 62.068 90.8992Z" fill="#455A64"/>
<path d="M62.2239 90.1165C62.2521 90.1221 62.2573 90.2142 62.2358 90.3223C62.2141 90.4304 62.1737 90.5134 62.1457 90.5078C62.1175 90.5022 62.1123 90.4101 62.134 90.302C62.1553 90.1939 62.1958 90.1107 62.2239 90.1165Z" fill="#455A64"/>
<path d="M62.3805 89.3338C62.4086 89.3393 62.4139 89.4315 62.3924 89.5396C62.3707 89.6477 62.3304 89.7306 62.3024 89.7251C62.2744 89.7195 62.269 89.6273 62.2907 89.5192C62.312 89.4111 62.3523 89.3282 62.3805 89.3338Z" fill="#455A64"/>
<path d="M62.5375 88.5511C62.5658 88.5566 62.5709 88.6488 62.5492 88.7569C62.5275 88.865 62.4872 88.9479 62.4592 88.9424C62.431 88.9368 62.4258 88.8446 62.4475 88.7365C62.469 88.6284 62.5093 88.5453 62.5375 88.5511Z" fill="#455A64"/>
<path d="M78.1875 64.4137C78.1875 64.4137 79.5159 62.4221 79.5513 62.4046C79.5513 62.4046 80.7505 60.3851 81.1491 60.3848C81.5502 60.3844 81.4039 60.7939 80.9922 61.5176C80.6313 62.1517 80.5948 62.5478 80.5948 62.5478L81.5798 63.1427C81.5798 63.1427 82.2375 62.8881 82.265 63.5013C82.2742 63.7064 82.2201 63.9602 82.1517 64.334C82.1118 64.5523 82.0129 64.7852 81.8069 64.703C81.7124 64.6654 81.6352 64.5926 81.6306 64.4565C81.618 64.0936 81.6857 63.9606 81.6395 63.9604C81.5803 63.9602 80.9306 65.8635 80.9306 65.8635L78.1875 64.4137Z" fill="#FFBE9D"/>
<path d="M80.8696 62.8505C80.971 62.781 81.073 62.7111 81.1857 62.6621C81.2982 62.6132 81.4234 62.5861 81.5443 62.6064C81.6203 62.6191 81.6956 62.6525 81.744 62.7126C81.8102 62.795 81.8147 62.9144 81.7818 63.015C81.749 63.1156 81.6841 63.202 81.6203 63.2863" fill="#FFBE9D"/>
<path d="M80.4204 62.4483C80.5164 62.3828 80.6132 62.3169 80.7199 62.2709C80.8267 62.2248 80.9451 62.1992 81.0598 62.2183C81.1318 62.2302 81.203 62.2615 81.2489 62.3183C81.3117 62.3959 81.3157 62.5084 81.2846 62.603C81.2533 62.6979 81.0388 62.9175 80.9786 62.997" fill="#FFBE9D"/>
<path d="M78.6506 63.2896L76.731 67.3951L78.8472 69.558L79.95 66.4983C79.95 66.4983 80.541 66.616 80.782 66.2241C81.051 65.7865 81.404 64.522 81.404 64.522L78.6506 63.2896Z" fill="#FFBE9D"/>
<path d="M80.0225 63.1762C80.0018 63.1698 80.0498 62.8949 80.2496 62.6084C80.3514 62.4667 80.4808 62.3701 80.5787 62.3171C80.6772 62.2634 80.7444 62.2455 80.7506 62.2574C80.7688 62.288 80.5207 62.4108 80.3334 62.67C80.1494 62.9312 80.0546 63.1898 80.0225 63.1762Z" fill="#EB996E"/>
<path d="M82.152 63.1934C82.1433 63.207 82.0777 63.1713 81.9659 63.1519C81.8563 63.1321 81.6935 63.135 81.5466 63.216C81.3999 63.2974 81.3043 63.4314 81.2348 63.5251C81.166 63.6211 81.1207 63.6816 81.1077 63.6743C81.0958 63.6676 81.1173 63.596 81.172 63.4867C81.2277 63.3809 81.32 63.2241 81.4963 63.1248C81.6735 63.0273 81.8659 63.039 81.984 63.0807C82.1057 63.1227 82.1594 63.1839 82.152 63.1934Z" fill="#EB996E"/>
<path d="M81.4372 62.6143C81.4428 62.6454 81.2001 62.6865 80.9862 62.8795C80.7716 63.0692 80.6662 63.2921 80.6368 63.2775C80.6134 63.2715 80.6786 63.015 80.9177 62.8013C81.0363 62.6969 81.1713 62.6377 81.2712 62.616C81.3718 62.594 81.4355 62.6016 81.4372 62.6143Z" fill="#EB996E"/>
<path d="M81.9091 63.501C81.9362 63.4904 81.9865 63.6498 81.8857 63.809C81.7863 63.9691 81.6209 63.9929 81.6186 63.9641C81.61 63.9359 81.7221 63.8788 81.7978 63.7538C81.8773 63.6314 81.8799 63.5054 81.9091 63.501Z" fill="#EB996E"/>
<path d="M78.1925 64.3341C78.1925 64.3341 78.1255 63.109 78.4216 62.8315C78.7177 62.5541 79.5663 62.8423 79.5663 62.8423" fill="#FFBE9D"/>
<path d="M79.6862 62.2581C79.7086 62.276 79.512 62.5886 79.2471 62.9564C78.9819 63.3243 78.7477 63.6096 78.7237 63.5939C78.6997 63.5781 78.8963 63.2655 79.1628 62.8956C79.4293 62.5258 79.6637 62.2403 79.6862 62.2581Z" fill="#EB996E"/>
<path d="M62.6908 52.9688L62.6616 62.5296L66.7635 62.7252L66.8822 60.3997C66.8822 60.3997 68.3391 60.6891 68.715 59.3359C68.9552 58.4715 68.8951 51.792 68.8951 51.792L62.6908 52.9688Z" fill="#FFBE9D"/>
<path d="M69.4344 52.4655C68.7884 52.6504 68.648 53.7064 68.648 53.7064L67.6346 55.9447C67.1183 55.5405 66.4252 55.5638 66.2939 56.4708C66.199 57.1263 67.0141 57.2589 67.0141 57.2589C66.5396 58.0663 66.2177 58.7195 65.5268 59.4875C64.7792 60.3187 64.3603 60.4026 63.5494 60.416H62.6553C62.6553 60.416 62.2175 58.9952 61.4071 55.442C60.5078 51.5001 65.1691 52.0079 66.0333 51.0017C67.4409 49.3629 71.4712 51.8824 69.4344 52.4655Z" fill="#263238"/>
<path d="M61.4926 55.8137C60.7371 55.3062 60.6689 53.886 61.1096 53.0345C61.5504 52.1829 62.4781 51.606 63.4368 51.5874C63.5651 51.5849 63.6974 51.591 63.817 51.5447C63.9944 51.4762 64.1092 51.3082 64.2252 51.1575C64.9004 50.2795 65.564 49.4168 66.8225 49.417C67.027 49.417 67.2532 49.417 67.6138 49.6132C67.7933 49.7109 68.0465 50.0423 68.089 50.2422C68.3255 50.1301 68.5663 50.0166 68.8251 49.9774C69.0839 49.9383 69.3681 49.9836 69.5635 50.1575C69.759 50.3317 69.8316 50.6519 69.6797 50.8651C70.1038 50.8382 70.5059 51.1893 70.5727 51.6091C70.6395 52.0288 70.038 52.3239 69.9754 52.3565C69.9754 52.3565 70.3056 53.0477 69.5182 53.462C69.2012 53.6289 68.789 53.4279 68.7421 53.4037" fill="#263238"/>
<path d="M64.4875 56.7329C64.5139 56.7302 64.5547 57.0618 64.464 57.4589C64.3757 57.8565 64.197 58.1388 64.1741 58.1249C64.1467 58.1111 64.2782 57.8183 64.3627 57.436C64.45 57.0547 64.4567 56.7337 64.4875 56.7329Z" fill="#455A64"/>
<path d="M64.9836 56.2642C65.0113 56.2653 65.0172 56.5815 64.9454 56.963C64.8748 57.3449 64.7552 57.6377 64.7289 57.6287C64.7006 57.6197 64.774 57.3184 64.8433 56.944C64.9139 56.5698 64.9541 56.2622 64.9836 56.2642Z" fill="#455A64"/>
<path d="M66.4045 54.6861C66.4143 54.6997 66.2981 54.7844 66.1506 54.9574C66.0018 55.1284 65.8325 55.3959 65.7087 55.7204C65.5844 56.045 65.5163 56.3559 65.4635 56.5801C65.412 56.805 65.3765 56.9444 65.3619 56.9417C65.3483 56.9394 65.3581 56.7961 65.3913 56.5665C65.4258 56.3376 65.4834 56.0185 65.6117 55.6829C65.7398 55.3471 65.9277 55.0722 66.0967 54.9076C66.2647 54.7404 66.3985 54.6761 66.4045 54.6861Z" fill="#455A64"/>
<path d="M66.9783 53.6114C66.9904 53.6081 67.0323 53.704 67.058 53.87C67.0839 54.0355 67.0847 54.2725 67.0223 54.5228C66.9591 54.7732 66.8466 54.9817 66.7456 55.1153C66.6446 55.2499 66.5625 55.3144 66.5534 55.3058C66.5277 55.2862 66.8053 54.9775 66.9215 54.4975C67.0455 54.0198 66.9465 53.6166 66.9783 53.6114Z" fill="#455A64"/>
<path d="M62.0829 55.9997C62.0689 56.0248 61.9433 55.9813 61.8024 55.9025C61.6615 55.8238 61.5586 55.7397 61.5726 55.7146C61.5866 55.6896 61.7122 55.733 61.8531 55.8119C61.994 55.8904 62.0969 55.9747 62.0829 55.9997Z" fill="#455A64"/>
<path d="M64.0647 54.9787C64.0917 54.9827 64.0748 55.1853 63.9475 55.3946C63.8214 55.6048 63.6499 55.7139 63.6338 55.6918C63.6142 55.6689 63.7433 55.534 63.8585 55.3408C63.976 55.149 64.0353 54.9722 64.0647 54.9787Z" fill="#455A64"/>
<path d="M64.6742 54.6516C64.7007 54.6576 64.6577 54.9003 64.4916 55.1485C64.3273 55.3981 64.1203 55.5319 64.1046 55.5099C64.0852 55.4866 64.2511 55.3255 64.4051 55.0911C64.5612 54.8584 64.6453 54.6428 64.6742 54.6516Z" fill="#455A64"/>
<path d="M67.7031 50.6471C67.696 50.6554 67.6261 50.5886 67.4782 50.5045C67.3302 50.4233 67.0941 50.3344 66.7911 50.3269C66.491 50.3175 66.1225 50.3889 65.7827 50.5978C65.4429 50.8063 65.1422 51.146 64.9239 51.5543C64.7649 51.8512 64.6549 52.1603 64.5754 52.4508L64.5589 52.5109L64.5038 52.4819C64.1993 52.322 63.8767 52.2517 63.5887 52.2478C63.2996 52.24 63.0452 52.293 62.8438 52.3603C62.4384 52.4988 62.2461 52.681 62.2355 52.6647C62.2324 52.661 62.2779 52.6153 62.3728 52.5431C62.4682 52.4723 62.6178 52.3801 62.8228 52.3016C63.0273 52.2238 63.289 52.1611 63.5899 52.1628C63.8894 52.1605 64.2283 52.2283 64.5508 52.3941L64.4794 52.4252C64.5577 52.1282 64.6687 51.811 64.8327 51.505C65.0579 51.0837 65.373 50.7305 65.7335 50.5156C66.0949 50.3002 66.4816 50.234 66.7945 50.2532C67.1106 50.2706 67.3533 50.3749 67.4994 50.4695C67.5714 50.5198 67.6255 50.5605 67.657 50.5945C67.6896 50.6268 67.7056 50.6446 67.7031 50.6471Z" fill="#455A64"/>
<path d="M69.8599 51.1676C69.8526 51.1657 69.974 51.1369 70.0953 51.2742C70.1506 51.3403 70.2017 51.4447 70.1898 51.5737C70.1773 51.7024 70.0884 51.835 69.9513 51.9143C69.8163 51.9971 69.6316 52.0245 69.4531 51.9829C69.2733 51.9437 69.1007 51.8485 68.9389 51.7337C68.7759 51.6196 68.6192 51.4871 68.436 51.389C68.2533 51.2898 68.0474 51.2174 67.8301 51.1761C67.3935 51.0947 66.9597 51.1438 66.5934 51.2608C66.225 51.3788 65.9191 51.5563 65.6793 51.7254C65.2005 52.0697 64.9641 52.3579 64.9495 52.3429C64.9447 52.3387 64.9994 52.2643 65.1117 52.1407C65.225 52.0186 65.3963 51.8464 65.6359 51.6659C65.8748 51.486 66.1845 51.2969 66.5637 51.1696C66.9417 51.0432 67.3923 50.9887 67.8493 51.0738C68.0768 51.117 68.293 51.1938 68.485 51.2995C68.6789 51.4053 68.8373 51.5428 68.9944 51.6553C69.1503 51.7694 69.3098 51.8596 69.4721 51.8986C69.6335 51.9395 69.7927 51.9189 69.9146 51.8502C70.0371 51.7845 70.1166 51.6726 70.132 51.5662C70.1475 51.4581 70.1087 51.3616 70.0634 51.299C69.9659 51.1688 69.8545 51.1792 69.8599 51.1676Z" fill="#455A64"/>
<path d="M58.3237 63.5312L54.6603 69.6835C54.2504 70.401 53.871 71.1663 53.5091 71.9593C53.217 72.719 53.3858 73.7107 53.8958 74.3412L53.7923 74.1922C54.1986 74.6947 54.8101 74.9867 55.4563 74.9867H55.551C56.4027 74.9867 57.1732 74.4818 57.513 73.7007L58.69 71.9147L58.3237 63.5312Z" fill="#0A3C77"/>
<path d="M69.3774 62.3555C68.394 61.8533 67.4231 61.7398 66.3636 61.7089C65.13 61.673 63.3909 61.5004 62.0615 61.6417C62.0615 61.6417 58.2737 61.922 58.0107 64.5178L58.5279 76.7098L57.6606 81.8756L69.7997 82.2423L69.7127 76.148C69.8626 72.9772 69.5426 68.4872 69.5426 68.4872C69.7294 66.7827 70.6621 66.0152 70.7946 64.9068C70.9115 63.9269 70.2564 62.8044 69.3774 62.3555Z" fill="#0A3C77"/>
<path d="M65.9562 76.8851C65.9602 76.8897 65.8992 76.9527 65.7776 77.0542C65.6563 77.156 65.4704 77.2919 65.2243 77.4336C64.7364 77.7184 63.9767 78.0039 63.1023 78.0192C62.2278 78.0348 61.4582 77.7761 60.9606 77.5089C60.7096 77.3758 60.5189 77.2468 60.3941 77.1493C60.269 77.0521 60.2058 76.9914 60.2096 76.9866C60.2217 76.9699 60.4903 77.1977 60.9936 77.4432C61.492 77.6896 62.2468 77.9303 63.1004 77.9152C63.9536 77.9 64.6994 77.6329 65.1888 77.3691C65.683 77.1057 65.9437 76.8688 65.9562 76.8851Z" fill="#263238"/>
<path d="M57.9922 64.6572C57.9958 64.657 58.0004 64.6979 58.0064 64.7759C58.0118 64.865 58.0185 64.9779 58.0269 65.1165C58.0413 65.4264 58.0611 65.8511 58.0853 66.3701C58.13 67.441 58.1911 68.8972 58.2585 70.5061C58.3314 72.1151 58.3973 73.571 58.4459 74.6418C58.4724 75.1604 58.4939 75.5851 58.5096 75.8948C58.5156 76.0336 58.5204 76.1465 58.5242 76.2358C58.5263 76.3137 58.5257 76.355 58.5223 76.3552C58.5186 76.3556 58.5123 76.3149 58.5035 76.2373C58.4946 76.1484 58.4833 76.0359 58.4695 75.8977C58.4411 75.6026 58.4096 75.175 58.3727 74.6462C58.3007 73.5887 58.2232 72.1266 58.155 70.5105C58.0866 68.8952 58.0394 67.432 58.0123 66.3727C58.0018 65.8534 57.9933 65.4281 57.987 65.118C57.9866 64.979 57.9862 64.8659 57.9858 64.7767C57.9862 64.6985 57.9885 64.6574 57.9922 64.6572Z" fill="#263238"/>
<path d="M57.2322 65.3028C57.2353 65.3045 57.2209 65.3372 57.1904 65.3977C57.1533 65.4681 57.108 65.5549 57.0527 65.6601C56.9302 65.8863 56.748 66.2112 56.5144 66.6074C56.0536 67.4039 55.3606 68.4704 54.6604 69.6831C54.3106 70.2889 54.0137 70.8885 53.7567 71.4362C53.5017 71.9834 53.3702 72.5203 53.4038 72.9747C53.4295 73.4288 53.5643 73.7817 53.6849 74.0042C53.805 74.2295 53.9045 74.3339 53.8959 74.3408C53.8932 74.3431 53.868 74.318 53.8223 74.2673C53.7782 74.2154 53.716 74.136 53.6497 74.0242C53.5159 73.8036 53.3665 73.4461 53.3304 72.9795C53.2859 72.5122 53.4157 71.9525 53.6693 71.3973C53.9237 70.8426 54.2182 70.2412 54.5704 69.6316C55.2735 68.4142 55.9752 67.3555 56.4518 66.5696C56.6847 66.1872 56.8761 65.8729 57.018 65.64C57.08 65.5386 57.1309 65.4553 57.1723 65.3873C57.2086 65.3303 57.2292 65.3011 57.2322 65.3028Z" fill="#263238"/>
<path d="M79.5607 68.6498L76.7518 66.8125L74.979 69.8836C74.979 69.8836 72.5211 66.4673 71.4046 64.4657C70.377 62.6235 69.0476 62.1274 68.4061 61.9939C68.2166 61.9544 68.0448 62.1122 68.0657 62.3046L69.0345 68.9474C69.1564 69.2932 71.184 72.2325 72.3172 73.7115C74.2082 76.18 76.9943 74.6002 77.7594 72.8724C78.3667 71.5014 79.3119 69.418 79.5607 68.6498Z" fill="#0A3C77"/>
<path d="M75.7867 72.6554C75.7719 72.656 75.755 72.4878 75.7329 72.2171C75.7095 71.9467 75.6818 71.5725 75.5973 71.1709C75.5131 70.7692 75.3725 70.4228 75.2387 70.1905C75.1066 69.9567 74.9947 69.8301 75.0073 69.8188C75.0152 69.8104 75.1486 69.921 75.3015 70.1523C75.4556 70.3816 75.6127 70.737 75.6991 71.1492C75.7857 71.561 75.8018 71.941 75.8064 72.2134C75.8095 72.4865 75.8005 72.6548 75.7867 72.6554Z" fill="#263238"/>
<path d="M76.6089 71.2827C76.5924 71.2841 76.5789 71.1403 76.509 70.9231C76.4391 70.7077 76.3001 70.4182 76.0597 70.1699C75.823 69.9186 75.5354 69.7657 75.3129 69.7613C75.0886 69.7498 74.9642 69.8397 74.9567 69.8241C74.9461 69.8182 75.064 69.6964 75.3136 69.688C75.563 69.673 75.8869 69.8335 76.1346 70.0981C76.3896 70.3615 76.5255 70.6741 76.5797 70.9033C76.634 71.1349 76.6208 71.2827 76.6089 71.2827Z" fill="#263238"/>
<path d="M68.2231 62.8142C68.2254 62.8169 68.2019 62.8438 68.1557 62.8921C68.1298 62.9186 68.1013 62.9478 68.0693 62.9805C68.0366 63.0196 68.0009 63.0628 67.9618 63.1101C67.8059 63.3074 67.601 63.6194 67.4754 64.0543C67.3416 64.4844 67.2886 65.0316 67.3689 65.6226C67.4099 65.9177 67.4823 66.2245 67.6102 66.5209C67.7344 66.821 67.899 67.1184 68.0643 67.4228C68.752 68.6301 69.4599 69.6751 69.9718 70.4289C70.2254 70.7935 70.4339 71.0932 70.5885 71.3154C70.7352 71.5239 70.8179 71.6383 70.8116 71.6433C70.8087 71.6454 70.7845 71.6197 70.741 71.5684C70.6974 71.5172 70.634 71.4407 70.5561 71.3396C70.3979 71.1389 70.1774 70.8423 69.9115 70.471C69.3831 69.7264 68.6649 68.6873 67.9735 67.4735C67.8068 67.1664 67.6423 66.8675 67.5161 66.5601C67.3854 66.2527 67.3132 65.9371 67.2738 65.6351C67.197 65.0295 67.2592 64.47 67.4051 64.0322C67.543 63.5897 67.7627 63.2761 67.9307 63.0838C67.9731 63.0381 68.0117 62.9964 68.0468 62.9586C68.0818 62.9282 68.1129 62.901 68.1411 62.8764C68.1929 62.833 68.2208 62.8115 68.2231 62.8142Z" fill="#263238"/>
<path d="M68.2308 80.4643C68.232 80.4678 68.2024 80.4804 68.1452 80.5014C68.0759 80.5254 67.9928 80.5542 67.8929 80.5887C67.7833 80.6266 67.6481 80.6701 67.4889 80.7126C67.33 80.756 67.1503 80.8109 66.9473 80.8545C66.5443 80.9537 66.0576 81.0444 65.5135 81.1177C64.9686 81.1849 64.3657 81.2312 63.7317 81.2352C63.0975 81.2348 62.4943 81.1918 61.9488 81.1277C61.4041 81.0574 60.917 80.9697 60.5134 80.8725C60.3103 80.8301 60.1302 80.7761 59.971 80.7337C59.8114 80.6922 59.6763 80.6494 59.5663 80.6122C59.4662 80.5782 59.3829 80.55 59.3134 80.5263C59.256 80.5056 59.2264 80.4931 59.2276 80.4897C59.2287 80.4862 59.2604 80.4922 59.3197 80.5064C59.3904 80.5248 59.4756 80.5469 59.5776 80.5734C59.6889 80.6047 59.8253 80.6415 59.9856 80.6774C60.1455 80.7145 60.326 80.7631 60.5291 80.8007C60.9327 80.8881 61.4183 80.9679 61.9599 81.0324C62.5023 81.0908 63.1014 81.1306 63.7311 81.1311C64.3607 81.1271 64.9593 81.0841 65.5014 81.0225C66.0426 80.9549 66.5276 80.8723 66.9308 80.7827C67.1337 80.7439 67.3138 80.6941 67.4736 80.6563C67.6337 80.6195 67.7698 80.5816 67.881 80.5498C67.983 80.5227 68.068 80.5 68.1387 80.4812C68.1978 80.467 68.2297 80.4609 68.2308 80.4643Z" fill="#263238"/>
<g opacity="0.3">
<path d="M57.7734 73.3065L58.3218 72.4557L58.0357 65.7559L57.7734 73.3065Z" fill="black"/>
</g>
<g opacity="0.3">
<path d="M67.2407 65.3027C67.2407 65.3027 67.2584 67.7444 67.8229 68.7115C68.3872 69.6786 69.7075 71.7687 69.7029 71.6439C69.6985 71.5191 69.6277 69.9207 69.6277 69.9207C69.6277 69.9207 67.2522 66.6694 67.2407 65.3027Z" fill="black"/>
</g>
<path d="M57.2882 73.5096C57.2897 73.5135 57.2306 73.5438 57.1129 73.5603C56.9961 73.5774 56.8189 73.5693 56.6185 73.4966C56.4184 73.4244 56.1997 73.2863 56.0044 73.0851C55.8086 72.8828 55.6469 72.6212 55.4924 72.345C55.3382 72.0685 55.1988 71.8027 55.0398 71.5854C54.8814 71.3679 54.7061 71.1968 54.5391 71.0826C54.2012 70.8483 53.926 70.8635 53.9312 70.8429C53.931 70.8385 53.9963 70.828 54.1134 70.8441C54.2302 70.8596 54.3976 70.9111 54.5779 71.0234C54.7578 71.1354 54.9458 71.3084 55.1138 71.5305C55.2825 71.753 55.4261 72.0211 55.5795 72.296C55.7328 72.5702 55.8887 72.8261 56.0711 73.0216C56.2535 73.2168 56.4576 73.3541 56.6438 73.4307C57.0243 73.5897 57.2887 73.4876 57.2882 73.5096Z" fill="white"/>
<path d="M58.0306 69.3028C58.0135 69.3076 57.9719 69.1578 57.8546 68.9418C57.7388 68.726 57.532 68.4509 57.2342 68.2247C56.9351 67.9998 56.6141 67.8762 56.3746 67.8238C56.135 67.77 55.9795 67.7708 55.9795 67.7531C55.9785 67.7433 56.1356 67.7168 56.3881 67.7543C56.6392 67.7904 56.9815 67.9094 57.2945 68.1448C57.6063 68.3813 57.8144 68.6782 57.9177 68.9099C58.0228 69.1426 58.0402 69.3012 58.0306 69.3028Z" fill="white"/>
<path d="M67.2858 65.7072C67.2835 65.717 67.1541 65.682 66.9154 65.6627C66.6773 65.6436 66.3277 65.6517 65.912 65.754C65.496 65.8529 65.0196 66.0424 64.5196 66.3108C64.0166 66.5737 63.4842 66.9078 62.8813 67.1835C62.28 67.4648 61.651 67.6072 61.0778 67.6426C60.5028 67.6748 59.9842 67.6076 59.5637 67.5016C59.1419 67.3978 58.8174 67.2576 58.6022 67.148C58.4928 67.0963 58.4133 67.0456 58.3584 67.0136C58.3038 66.9807 58.2762 66.9621 58.2779 66.959C58.2825 66.9506 58.3993 67.0157 58.6189 67.1126C58.8376 67.2106 59.1623 67.3392 59.5802 67.4327C59.9971 67.5285 60.5078 67.5871 61.0721 67.5506C61.6354 67.5103 62.2477 67.3693 62.8402 67.0923C63.4346 66.8206 63.9682 66.4894 64.4772 66.2289C64.9835 65.9628 65.4712 65.7763 65.8965 65.6847C66.3217 65.5895 66.6793 65.5922 66.9196 65.6235C67.04 65.6394 67.1326 65.6579 67.1938 65.6761C67.2551 65.6934 67.2867 65.7039 67.2858 65.7072Z" fill="white"/>
<path d="M69.6458 72.3494C69.6467 72.3527 69.6087 72.3654 69.535 72.3865C69.4609 72.4045 69.3535 72.4437 69.2099 72.4673C68.9256 72.5301 68.5034 72.5775 67.9821 72.5649C67.4604 72.5543 66.8435 72.4639 66.1733 72.3105C65.5026 72.1569 64.7797 71.937 64.0213 71.7141C63.2633 71.4927 62.5299 71.3201 61.8529 71.2322C61.1763 71.1475 60.5573 71.141 60.0477 71.218C59.5379 71.2919 59.137 71.4213 58.8746 71.5407C58.6108 71.6571 58.4717 71.7385 58.4664 71.7293C58.4646 71.7264 58.4981 71.7043 58.5639 71.6651C58.6313 71.6294 58.724 71.5618 58.8584 71.5052C59.1184 71.3739 59.5216 71.232 60.0371 71.1481C60.5528 71.0611 61.1801 71.0601 61.8642 71.1408C62.5487 71.2243 63.2881 71.3958 64.0493 71.6181C64.8089 71.8414 65.5289 72.0632 66.1942 72.2208C66.8593 72.378 67.4689 72.4748 67.9846 72.4942C68.4999 72.5157 68.9185 72.4796 69.2028 72.4291C69.4876 72.3805 69.6433 72.3398 69.6458 72.3494Z" fill="white"/>
<path d="M69.7131 76.1479C69.7039 76.1799 69.144 75.8182 68.1159 75.7174C67.6059 75.6617 66.9917 75.6919 66.3185 75.7796C65.6448 75.8712 64.9116 76.0256 64.1372 76.1709C63.3633 76.3155 62.6214 76.443 61.939 76.5025C61.2572 76.5637 60.6363 76.5593 60.1219 76.4904C59.6074 76.4236 59.2001 76.3103 58.9306 76.2047C58.7933 76.1588 58.694 76.1039 58.624 76.0745C58.555 76.0423 58.5195 76.024 58.521 76.0209C58.5249 76.0119 58.6716 76.076 58.9436 76.1682C59.2151 76.2617 59.6204 76.3633 60.1304 76.4203C60.6403 76.4794 61.2544 76.4766 61.9308 76.4107C62.6078 76.3466 63.3456 76.2172 64.1192 76.0726C64.8916 75.9274 65.6277 75.7754 66.3068 75.6882C66.9857 75.6049 67.6076 75.5818 68.1237 75.6471C68.6396 75.7089 69.0465 75.8305 69.3118 75.9468C69.448 75.9966 69.5441 76.0576 69.6131 76.0895C69.6801 76.1248 69.7146 76.1448 69.7131 76.1479Z" fill="white"/>
<path d="M63.4724 81.0433C63.4681 81.0486 63.4 81.0053 63.2807 80.9225C63.1621 80.8388 62.9887 80.7201 62.7723 80.5771C62.3401 80.2906 61.7269 79.9189 61.0161 79.5725C60.3046 79.2271 59.6335 78.9741 59.1412 78.8109C58.8953 78.7291 58.6948 78.6659 58.5556 78.6243C58.4168 78.5816 58.3406 78.5548 58.3423 78.548C58.344 78.5413 58.4233 78.5553 58.5656 78.5866C58.7083 78.6168 58.9124 78.6698 59.1623 78.7435C59.6625 78.89 60.3428 79.1346 61.0597 79.4827C61.7757 79.8317 62.3881 80.2159 62.8121 80.5189C63.0244 80.6702 63.192 80.7981 63.304 80.8916C63.4165 80.9841 63.4766 81.0379 63.4724 81.0433Z" fill="white"/>
<path d="M69.3827 80.9783C69.3879 80.9875 69.2427 81.0841 68.9793 81.1806C68.7171 81.2776 68.3315 81.3607 67.9018 81.3481C67.4719 81.3341 67.0923 81.2273 66.8366 81.1144C66.5797 81.0017 66.4407 80.8963 66.4465 80.8875C66.4549 80.8727 66.6052 80.9554 66.8625 81.0485C67.119 81.1422 67.4884 81.2344 67.9049 81.2482C68.3212 81.2601 68.6955 81.1912 68.9574 81.1134C69.2201 81.0365 69.3752 80.9631 69.3827 80.9783Z" fill="white"/>
<path d="M73.5845 68.3029C73.5891 68.3033 73.5914 68.3657 73.5622 68.4734C73.5336 68.5807 73.4649 68.731 73.3378 68.8858C73.2108 69.0404 73.0259 69.1945 72.798 69.3247C72.5696 69.4555 72.3021 69.5576 72.0281 69.6697C71.7547 69.7819 71.4986 69.9003 71.2981 70.0516C71.0979 70.2031 70.9512 70.3821 70.864 70.5501C70.6834 70.893 70.7628 71.1489 70.7411 71.147C70.7371 71.1481 70.7118 71.0907 70.7039 70.979C70.6955 70.868 70.716 70.7015 70.8007 70.5188C70.8848 70.3365 71.0339 70.1426 71.2421 69.9787C71.4514 69.8143 71.7142 69.6907 71.9903 69.5774C72.2664 69.4645 72.5312 69.366 72.7533 69.2443C72.9756 69.1231 73.1569 68.981 73.2844 68.8395C73.5449 68.554 73.5653 68.2956 73.5845 68.3029Z" fill="white"/>
<path d="M71.2255 64.2276C71.2322 64.2293 71.2203 64.291 71.193 64.4018C71.1803 64.4574 71.1621 64.5248 71.1337 64.6009C71.106 64.6771 71.0792 64.766 71.0348 64.8581C70.9563 65.0471 70.8392 65.2617 70.689 65.4871C70.5345 65.7095 70.3444 65.9405 70.1178 66.1563C69.8884 66.3694 69.6463 66.5451 69.4149 66.6856C69.1807 66.8217 68.9591 66.9254 68.7659 66.9922C68.6713 67.0308 68.5809 67.0523 68.5033 67.0752C68.4257 67.099 68.3574 67.113 68.3009 67.1222C68.1886 67.1426 68.1264 67.1506 68.125 67.1439C68.121 67.1253 68.3683 67.0775 68.7404 66.9264C68.927 66.8525 69.1407 66.7442 69.3671 66.6069C69.5908 66.465 69.8254 66.2914 70.0493 66.0835C70.2706 65.8727 70.458 65.6492 70.6134 65.4347C70.7643 65.2172 70.8852 65.0106 70.9705 64.8288C71.1442 64.4665 71.2072 64.2224 71.2255 64.2276Z" fill="white"/>
<path d="M67.5293 61.7088C67.5318 61.7151 67.4327 61.7595 67.2507 61.8342C67.0695 61.9108 66.8013 62.0068 66.4655 62.1116C66.13 62.2182 65.7234 62.3222 65.2672 62.4155C64.81 62.5039 64.3028 62.5782 63.7667 62.6195C63.2303 62.6569 62.7174 62.6575 62.2522 62.6369C61.7872 62.6112 61.3698 62.5674 61.0224 62.5112C60.6749 62.4564 60.3956 62.4006 60.2051 62.3512C60.0143 62.304 59.9096 62.2746 59.9111 62.2679C59.9127 62.2612 60.0202 62.2777 60.213 62.313C60.4052 62.3505 60.6853 62.3956 61.0322 62.4411C61.379 62.4881 61.7943 62.5244 62.2562 62.5448C62.7184 62.5601 63.227 62.5569 63.7594 62.5196C64.2912 62.4787 64.7949 62.4077 65.2497 62.3251C65.7036 62.2376 66.1091 62.1412 66.4453 62.0438C66.7817 61.9482 67.0524 61.8628 67.2371 61.7975C67.4228 61.7345 67.5268 61.7025 67.5293 61.7088Z" fill="white"/>
<path d="M75.0739 70.0664C75.0793 70.0647 75.1081 70.1325 75.1417 70.2609C75.1759 70.389 75.2119 70.5793 75.2242 70.8168C75.2576 71.2933 75.1666 71.9469 75.0355 72.6525C74.9718 73.0069 74.8942 73.3462 74.7744 73.6394C74.6569 73.9333 74.4956 74.1762 74.3284 74.348C74.1623 74.5224 73.9933 74.6253 73.8718 74.68C73.7495 74.7347 73.6761 74.747 73.6746 74.742C73.6637 74.7236 73.9653 74.6501 74.2763 74.3C74.4309 74.128 74.5793 73.892 74.6886 73.6054C74.7999 73.3193 74.8736 72.987 74.937 72.6344C75.0681 71.9285 75.1684 71.2872 75.1536 70.8193C75.1467 70.3516 75.0547 70.071 75.0739 70.0664Z" fill="white"/>
<path d="M78.9229 70.5583C78.9062 70.566 78.816 70.3623 78.6146 70.0701C78.4147 69.7777 78.0866 69.4063 77.6436 69.0955C77.1991 68.7866 76.7376 68.6063 76.3941 68.5193C76.0502 68.4308 75.8281 68.4162 75.8296 68.398C75.83 68.391 75.8857 68.3899 75.9865 68.3939C76.0875 68.3958 76.2332 68.4143 76.4102 68.4504C76.588 68.4851 76.7952 68.5485 77.0175 68.6385C77.2379 68.7328 77.4725 68.8561 77.7008 69.0135C77.9272 69.1736 78.1236 69.3514 78.288 69.526C78.4491 69.7037 78.5798 69.8764 78.6737 70.0313C78.7687 70.1851 78.8361 70.3156 78.8726 70.4097C78.9112 70.5028 78.9292 70.5555 78.9229 70.5583Z" fill="white"/>
<g opacity="0.3">
<path d="M67.6402 80.6156C67.8408 80.5252 67.9003 80.2512 67.7746 80.093C67.6488 79.9348 67.4236 79.8995 67.2214 79.9035C66.2298 79.9231 65.364 80.5868 64.3883 80.765C63.646 80.9007 62.8811 80.7477 62.159 80.5286C61.4369 80.3096 60.7324 80.0237 59.9909 79.8837C59.836 79.8545 59.6743 79.8319 59.522 79.873C59.3698 79.9141 59.2287 80.0342 59.2095 80.1909C59.1903 80.3474 59.2271 80.4634 59.4606 80.5432C59.4606 80.5432 61.9161 81.2258 63.694 81.1993C65.5802 81.1711 67.6402 80.6156 67.6402 80.6156Z" fill="black"/>
</g>
<path d="M122.557 120.053C122.557 120.08 104.397 120.103 82.0021 120.103C59.599 120.103 41.4438 120.08 41.4438 120.053C41.4438 120.025 59.5992 120.003 82.0021 120.003C104.397 120.003 122.557 120.025 122.557 120.053Z" fill="#263238"/>
<rect x="109" y="87.7397" width="56" height="56" rx="28" fill="#0A3C77"/>
<path d="M127.453 129.124C125.554 129.124 123.89 128.612 122.461 127.588C121.032 126.564 119.912 125.124 119.101 123.268C118.312 121.412 117.917 119.257 117.917 116.804C117.917 114.329 118.312 112.174 119.101 110.34C119.89 108.505 121 107.076 122.429 106.052C123.858 105.028 125.522 104.516 127.421 104.516C129.362 104.516 131.037 105.028 132.445 106.052C133.874 107.076 134.994 108.516 135.805 110.372C136.616 112.206 137.021 114.35 137.021 116.804C137.021 119.257 136.616 121.412 135.805 123.268C135.016 125.102 133.906 126.542 132.477 127.588C131.048 128.612 129.373 129.124 127.453 129.124ZM127.485 125.156C128.573 125.156 129.501 124.825 130.269 124.164C131.037 123.481 131.624 122.521 132.029 121.284C132.456 120.025 132.669 118.532 132.669 116.804C132.669 115.076 132.456 113.593 132.029 112.356C131.624 111.097 131.026 110.137 130.237 109.476C129.469 108.814 128.53 108.484 127.421 108.484C126.354 108.484 125.437 108.814 124.669 109.476C123.901 110.137 123.304 111.097 122.877 112.356C122.472 113.593 122.269 115.076 122.269 116.804C122.269 118.51 122.472 119.993 122.877 121.252C123.304 122.489 123.901 123.449 124.669 124.132C125.458 124.814 126.397 125.156 127.485 125.156ZM140.253 128.74V125.444L146.717 118.692C147.997 117.348 148.979 116.281 149.661 115.492C150.365 114.681 150.856 113.988 151.133 113.412C151.411 112.836 151.549 112.249 151.549 111.652C151.549 110.649 151.229 109.86 150.589 109.284C149.971 108.708 149.171 108.42 148.189 108.42C147.165 108.42 146.28 108.718 145.533 109.316C144.787 109.892 144.243 110.745 143.901 111.876L140.093 110.692C140.349 109.433 140.872 108.345 141.661 107.428C142.451 106.489 143.411 105.774 144.541 105.284C145.693 104.772 146.909 104.516 148.189 104.516C149.725 104.516 151.069 104.793 152.221 105.348C153.395 105.902 154.301 106.681 154.941 107.684C155.603 108.686 155.933 109.86 155.933 111.204C155.933 112.057 155.773 112.9 155.453 113.732C155.133 114.564 154.653 115.417 154.013 116.292C153.373 117.145 152.541 118.105 151.517 119.172L145.917 125.06H156.253V128.74H140.253Z" fill="white"/>
</svg>
