<svg width="165" height="151" viewBox="0 0 165 151" fill="none" xmlns="http://www.w3.org/2000/svg">
<circle cx="82" cy="75.7397" r="75" fill="#EFF3FF"/>
<path d="M58.4755 104.629H37.0121L33.9673 107.087H58.4755V104.629Z" fill="#0A3C77"/>
<path d="M82.9837 98.0767L61.5203 98.2326L58.4756 101.056H82.9837V98.0767Z" fill="#0A3C77"/>
<path d="M107.492 88.0771H85.866L82.9839 90.8999H107.492V88.0771Z" fill="#0A3C77"/>
<path d="M107.492 80.9155V90.8998H82.9836V101.057H58.4755V107.087H33.9673V115.512H58.4755H82.9836H107.492V115.422H132V80.9155H107.492Z" fill="#00224B"/>
<path d="M128.657 78.0928L110.409 78.1073L107.492 80.9156H132L128.657 78.0928Z" fill="#0A3C77"/>
<path d="M41.5105 80.1277C41.5105 82.754 39.3815 84.8829 36.7553 84.8829C34.1289 84.8829 32 82.754 32 80.1277C32 77.5014 34.1289 75.3726 36.7553 75.3726C39.3815 75.3726 41.5105 77.5014 41.5105 80.1277Z" fill="#DADADA"/>
<path d="M40.2381 80.1144C40.2381 82.0452 38.6727 83.6107 36.7419 83.6107C34.811 83.6107 33.2456 82.0452 33.2456 80.1144C33.2456 78.1834 34.811 76.6182 36.7419 76.6182C38.6728 76.6182 40.2381 78.1835 40.2381 80.1144Z" fill="#0A3C77"/>
<path d="M123.474 43.4268L112.769 44.1284L115.798 47.8376L94.5664 65.0835L87.8748 56.681L68.589 72.0686L64.8853 64.2908L36.1968 78.8348L37.2872 80.9854L63.7709 67.5591L67.7181 75.8483L87.4923 60.071L94.1969 68.4901L117.324 49.7052L119.935 52.903L123.474 43.4268Z" fill="#0A3C77"/>
<path d="M67.0812 95.9771C67.0812 95.9771 68.4799 96.2872 69.8484 97.1562C71.7272 98.3493 73.4635 99.6844 73.4635 99.6844L64.0365 99.232L63.9937 96.2102L67.0812 95.9771Z" fill="#1C1C1C"/>
<path d="M68.6714 96.5419H63.9908L64.1315 80.9572C63.9148 80.9102 63.6483 80.8845 63.5195 80.8896L63.4295 80.8913H50.0181V76.2107H63.3933C63.9478 76.1969 66.1432 76.2338 67.5951 77.6308C68.3914 78.3969 68.8121 79.403 68.8121 80.5402L68.6714 96.5419Z" fill="#9D9D9C"/>
<path d="M68.4778 40.3838H66.4212C66.0276 40.3838 65.2202 40.3608 64.982 40.6375C64.7862 40.8649 64.8622 41.3597 64.8862 41.6823C64.8968 41.8238 64.9936 42.4805 64.9936 42.4805C64.0702 42.2121 65.0795 41.0877 64.0945 40.3359C63.7023 40.0364 63.5581 40.4211 63.5581 41.2882C63.5581 42.1554 63.5581 42.589 64.0309 43.4168C64.345 43.9668 65.0422 44.5802 65.4744 44.9302C65.5681 45.0301 65.9889 45.2672 66.0629 45.2887V47.3964C66.0629 47.7478 66.717 48.0327 67.5238 48.0327C68.3305 48.0327 68.9843 47.7478 68.9843 47.3964V45.2393C69.4498 45.0419 69.7766 44.5806 69.7766 44.043V41.6823C69.7766 40.9652 69.1947 40.3838 68.4778 40.3838Z" fill="#FAD9AA"/>
<path d="M58.7065 55.1654C58.7065 55.1654 61.3067 54.8566 63.8138 52.3494C65.5208 50.6422 65.6987 46.7515 65.6987 46.7515H69.2751C69.2751 46.7515 69.3556 51.7767 66.71 54.9741C63.1744 59.2473 59.099 58.9297 59.099 58.9297L58.7065 55.1654Z" fill="#9D9D9C"/>
<path d="M64.9502 41.0756C64.9502 41.3846 65.2007 41.6352 65.5097 41.6352C65.8181 41.6352 66.0687 41.3846 66.0687 41.0756V36.9951C66.0687 36.6862 65.818 36.4355 65.5097 36.4355C65.2007 36.4355 64.9502 36.6861 64.9502 36.9951V41.0756Z" fill="#FDEACE"/>
<path d="M68.54 41.9586C68.54 42.2999 68.8168 42.5769 69.158 42.5769C69.4999 42.5769 69.7766 42.2999 69.7766 41.9586V40.237C69.7766 39.8955 69.4999 39.6187 69.158 39.6187C68.8168 39.6187 68.54 39.8955 68.54 40.237V41.9586Z" fill="#FDEACE"/>
<path d="M67.3032 42.4779C67.3032 42.8194 67.5805 43.0965 67.9216 43.0965C68.2633 43.0965 68.5401 42.8194 68.5401 42.4779V39.9334C68.5401 39.5918 68.2633 39.3149 67.9216 39.3149C67.5804 39.3149 67.3032 39.5918 67.3032 39.9334V42.4779Z" fill="#FDEACE"/>
<path d="M66.0488 42.009C66.0488 42.3504 66.3259 42.6274 66.6675 42.6274C67.0087 42.6274 67.2858 42.3504 67.2858 42.009L67.305 40.0218C67.305 39.6802 67.0282 39.4033 66.687 39.4033C66.3454 39.4033 66.0683 39.6802 66.0683 40.0218L66.0488 42.009Z" fill="#FDEACE"/>
<path d="M46.6106 55.1099H48.2342H56.9756H58.3533C59.4514 55.1099 60.3416 55.8944 60.3416 56.8624V79.1614C60.3416 80.1297 59.4514 80.9148 58.3533 80.9148H46.6106C45.5125 80.9148 44.6226 80.1297 44.6226 79.1614V56.8624C44.6226 55.8944 45.5126 55.1099 46.6106 55.1099Z" fill="#9D9D9C"/>
<path d="M56.9758 55.1099L52.6054 65.3216L48.2344 55.1099H56.9758Z" fill="#F6F6F6"/>
<path d="M51.1445 55.4466C51.1445 56.0038 51.7966 56.4556 52.6013 56.4556C53.4066 56.4556 54.0592 56.0038 54.0592 55.4466V52.7929C54.0592 52.2357 53.4067 51.7837 52.6013 51.7837C51.7965 51.7837 51.1445 52.2357 51.1445 52.7929V55.4466Z" fill="#FAD9AA"/>
<path d="M52.1865 57.8305C52.0198 57.7902 51.7844 57.5384 51.8946 57.3661C52.1213 57.0123 52.1271 56.8477 52.4132 56.8477H52.7356C53.0222 56.8477 53.0462 56.9985 53.2734 57.3733C53.3787 57.5469 53.1621 57.8078 52.9665 57.8282C52.9712 57.8745 53.6032 62.99 53.6032 62.99L52.6052 65.3217L51.5459 62.8476C51.5459 62.8476 52.1817 57.876 52.1865 57.8305Z" fill="#002F43"/>
<path d="M51.5384 38.5908H52.6052H53.6657C56.016 38.5908 57.9217 40.496 57.9217 42.8461V47.9182C57.9217 50.2685 55.3167 52.7182 53.4991 52.7182H52.4387H51.3719C49.9716 52.7182 47.2827 50.2685 47.2827 47.9182V42.8461C47.2827 40.496 49.1879 38.5908 51.5384 38.5908Z" fill="#FDEACF"/>
<path d="M46.966 45.3133C47.0777 45.3133 47.184 45.3331 47.2825 45.3677V42.8461C47.2825 40.496 49.1877 38.5908 51.5382 38.5908H52.605V44.7053C52.6215 44.9796 52.7249 46.13 53.3149 46.7196C53.6933 47.0983 54.1185 47.2616 54.1185 47.2616L52.605 48.308L52.4384 52.7182H51.3717C49.9714 52.7182 47.2825 50.2685 47.2825 47.9182V47.6557C47.184 47.6902 47.0777 47.71 46.966 47.71C46.4675 47.71 46.064 47.3337 46.064 46.869V46.1543C46.064 45.6899 46.4675 45.3133 46.966 45.3133Z" fill="#FAD9AA"/>
<path d="M48.9561 45.4793C48.9561 45.7925 49.2107 46.0468 49.524 46.0468C49.8375 46.0468 50.0912 45.7925 50.0912 45.4793C50.0912 45.1656 49.8375 44.9116 49.524 44.9116C49.2107 44.9116 48.9561 45.1655 48.9561 45.4793Z" fill="#1D1D1B"/>
<path d="M55.3799 45.4793C55.3799 45.7925 55.6341 46.0468 55.9476 46.0468C56.2609 46.0468 56.5155 45.7925 56.5155 45.4793C56.5155 45.1656 56.2609 44.9116 55.9476 44.9116C55.6341 44.9116 55.3799 45.1655 55.3799 45.4793Z" fill="#1D1D1B"/>
<path d="M54.5688 64.6391C54.5688 64.9023 54.7821 65.1156 55.0456 65.1156H58.5863C58.8494 65.1156 59.0627 64.9024 59.0627 64.6391C59.0627 64.3759 58.8494 64.1626 58.5863 64.1626H55.0456C54.7821 64.1626 54.5688 64.376 54.5688 64.6391Z" fill="#3C3C3B"/>
<path d="M60.408 76.7072C60.7123 76.4756 61.543 75.2715 61.7669 74.5804C61.9141 74.1258 61.1465 73.7901 60.4971 73.3323C60.4133 73.2734 60.1192 73.0672 60.1192 73.0672C60.2394 72.9612 61.4024 73.9965 61.8732 73.2612C61.987 73.0835 61.9324 73.0096 61.2107 72.5661C60.2634 71.9844 59.0889 71.675 58.6808 71.7074C58.0634 71.7559 57.8125 72.0454 57.337 72.3085C57.212 72.3562 56.8422 72.65 56.7958 72.7092L54.8875 71.9341C54.5691 71.805 54.0707 72.2926 53.7741 73.023C53.4773 73.7534 53.495 74.45 53.8129 74.5794L55.7659 75.3725C55.7737 75.8668 55.7968 76.1122 56.5578 76.5302L58.8168 77.2616C59.6353 77.3161 59.641 77.2914 60.408 76.7072Z" fill="#FDEACF"/>
<path d="M45.9495 40.9688C46.0304 40.736 46.162 40.5172 46.349 40.3323L49.3391 37.375C49.5345 37.0853 49.8026 36.8591 50.1091 36.7107C50.3639 36.5742 50.6457 36.509 50.9273 36.5145C51.1277 36.5114 51.3322 36.5381 51.5343 36.6002L58.9067 38.8681C59.9389 39.1855 60.5179 40.2795 60.2007 41.3114L60.1527 41.4671C59.8352 42.499 58.7887 42.7839 57.7093 42.7608C53.7036 42.6752 50.7767 40.628 50.7767 40.628C50.7767 40.628 50.9733 40.9732 49.6989 42.6951C48.9562 43.6988 48.2561 43.7371 47.975 43.8065L47.7775 45.0397C47.5122 45.6542 47.456 45.8667 46.887 45.8667C46.3177 45.8667 45.856 45.4963 45.856 45.0397V41.3116C45.8558 41.1889 45.8898 41.0734 45.9495 40.9688Z" fill="#1C1C1C"/>
<path d="M44.1028 100.492C44.1028 100.492 45.4877 101.132 46.7142 102.359C48.3981 104.044 49.9012 105.847 49.9012 105.847L39.9062 103.317L40.9605 100.035L44.1028 100.492Z" fill="#1C1C1C"/>
<path d="M55.9701 71.5403C55.9701 71.5403 54.5682 74.3364 53.0671 75.6522C53.0671 75.6522 43.2692 75.4797 41.8024 66.8124C41.3876 64.3618 41.3823 57.0611 41.3823 57.0611C41.3823 55.9396 42.2912 55.0308 43.4129 55.0308H44.0728C45.1938 55.0308 46.1029 55.9396 46.1029 57.0611C46.1029 57.0611 45.8122 63.7393 46.4044 65.876C48.2341 72.4764 55.9701 71.5403 55.9701 71.5403Z" fill="#757575"/>
<path d="M46.0227 101.704L40.646 101.032L44.7699 78.7427L50.0185 80.1182L46.0227 101.704Z" fill="#9D9D9C"/>
<path d="M124.906 77.2045C124.906 77.521 124.65 77.7775 124.333 77.7775H108.38C108.064 77.7775 107.807 77.521 107.807 77.2045V68.7651C107.807 68.4484 108.064 68.1919 108.38 68.1919H124.333C124.65 68.1919 124.906 68.4485 124.906 68.7651V77.2045Z" fill="#0F7F6F"/>
<path d="M124.11 70.8496L122.377 69.1157H110.337L108.603 70.8496V75.1197L110.337 76.8535H122.377L124.11 75.1197V70.8496Z" fill="#7DD1C5"/>
<path d="M119.103 72.9368C119.103 74.8625 117.868 76.4236 116.345 76.4236C114.821 76.4236 113.586 74.8625 113.586 72.9368C113.586 71.0112 114.821 69.4502 116.345 69.4502C117.868 69.4501 119.103 71.0112 119.103 72.9368Z" fill="#0E7768"/>
<path d="M116.08 75.3577V74.7378C115.724 74.7318 115.355 74.6213 115.141 74.4678L115.288 74.0567C115.509 74.2039 115.828 74.3206 116.172 74.3206C116.607 74.3206 116.902 74.0689 116.902 73.7191C116.902 73.3816 116.663 73.1728 116.209 72.9888C115.583 72.7434 115.196 72.4611 115.196 71.9272C115.196 71.4179 115.558 71.0312 116.122 70.9391V70.3193H116.503V70.9145C116.871 70.9268 117.123 71.025 117.301 71.1294L117.147 71.5344C117.019 71.4607 116.767 71.3258 116.374 71.3258C115.902 71.3258 115.724 71.6081 115.724 71.8535C115.724 72.1726 115.951 72.3322 116.485 72.553C117.117 72.8109 117.436 73.13 117.436 73.6762C117.436 74.1609 117.098 74.615 116.466 74.7195V75.3576L116.08 75.3577Z" fill="#7DD1C5"/>
<path d="M126.775 78.6664C126.775 78.983 126.518 79.2396 126.201 79.2396H110.248C109.932 79.2396 109.675 78.9831 109.675 78.6664V70.2271C109.675 69.9105 109.932 69.6538 110.248 69.6538H126.201C126.518 69.6538 126.775 69.9105 126.775 70.2271V78.6664Z" fill="#129082"/>
<path d="M125.979 72.3114L124.245 70.5776H112.205L110.472 72.3114V76.5818L112.205 78.3153H124.245L125.979 76.5818V72.3114Z" fill="#7DD1C5"/>
<path d="M118.213 77.8856C119.737 77.8856 120.972 76.3245 120.972 74.3989C120.972 72.4732 119.737 70.9121 118.213 70.9121C116.69 70.9121 115.455 72.4732 115.455 74.3989C115.455 76.3245 116.69 77.8856 118.213 77.8856Z" fill="#0E7768"/>
<path d="M117.948 76.8197V76.1999C117.592 76.1938 117.224 76.0833 117.009 75.9298L117.157 75.5187C117.378 75.6659 117.697 75.7826 118.04 75.7826C118.476 75.7826 118.771 75.5308 118.771 75.181C118.771 74.8435 118.531 74.6348 118.077 74.4507C117.451 74.2052 117.065 73.923 117.065 73.3891C117.065 72.8797 117.427 72.4931 117.991 72.401V71.7812H118.372V72.3765C118.74 72.3888 118.991 72.4869 119.169 72.5913L119.016 72.9963C118.887 72.9227 118.636 72.7876 118.243 72.7876C117.77 72.7876 117.592 73.07 117.592 73.3154C117.592 73.6346 117.819 73.7941 118.353 74.015C118.985 74.2727 119.304 74.5918 119.304 75.1381C119.304 75.6228 118.967 76.077 118.335 76.1813V76.8195H117.948V76.8197Z" fill="#7DD1C5"/>
<path d="M128.289 78.452C128.289 78.0867 128.076 77.7905 127.811 77.7905H122.232C121.969 77.7905 121.754 78.0867 121.754 78.452V79.1458C121.754 79.1664 121.755 79.1867 121.757 79.207C121.756 79.2201 121.754 79.2332 121.754 79.2463C121.754 80.0503 123.217 80.702 125.022 80.702C126.827 80.702 128.29 80.0503 128.29 79.2463C128.29 79.2331 128.288 79.2201 128.287 79.207C128.289 79.1867 128.29 79.1663 128.29 79.1458L128.289 78.452Z" fill="#F4BD31"/>
<path d="M128.29 78.3513C128.29 79.1553 126.827 79.8071 125.022 79.8071C123.217 79.8071 121.754 79.1553 121.754 78.3513C121.754 77.5472 123.217 76.8955 125.022 76.8955C126.827 76.8955 128.29 77.5472 128.29 78.3513Z" fill="#F2D453"/>
<path d="M127.317 76.5484C127.317 76.1833 127.103 75.8872 126.839 75.8872H121.26C120.996 75.8872 120.782 76.1833 120.782 76.5484V77.2423C120.782 77.2629 120.783 77.2833 120.784 77.3036C120.783 77.3167 120.782 77.3297 120.782 77.3429C120.782 78.147 122.245 78.7986 124.05 78.7986C125.854 78.7986 127.317 78.1469 127.317 77.3429C127.317 77.3297 127.316 77.3167 127.315 77.3036C127.316 77.2833 127.317 77.2629 127.317 77.2423L127.317 76.5484Z" fill="#F4BD31"/>
<path d="M127.317 76.4484C127.317 77.2524 125.854 77.9041 124.05 77.9041C122.245 77.9041 120.782 77.2524 120.782 76.4484C120.782 75.6444 122.245 74.9927 124.05 74.9927C125.854 74.9927 127.317 75.6444 127.317 76.4484Z" fill="#F2D453"/>
<path d="M131.676 79.1422C131.863 78.8432 131.839 78.4913 131.623 78.3562L127.057 75.5015C126.841 75.3665 126.514 75.4994 126.327 75.7983L125.972 76.3663C125.961 76.3831 125.952 76.4003 125.942 76.4174C125.935 76.4279 125.927 76.4377 125.92 76.4487C125.509 77.1068 126.373 78.3887 127.85 79.3122C129.327 80.2356 130.858 80.4506 131.269 79.7924C131.276 79.7817 131.281 79.7702 131.288 79.7592C131.299 79.7433 131.31 79.7271 131.321 79.7101L131.676 79.1422Z" fill="#F4BD31"/>
<path d="M131.728 79.0598C131.316 79.7177 129.785 79.5028 128.308 78.5794C126.831 77.6559 125.967 76.3738 126.378 75.7158C126.79 75.0577 128.321 75.2728 129.798 76.1962C131.275 77.1196 132.139 78.4016 131.728 79.0598Z" fill="#F2D453"/>
<path d="M130.227 74.3999C130.227 76.5823 128.458 78.3516 126.276 78.3516C124.093 78.3516 122.324 76.5824 122.324 74.3999C122.324 72.2174 124.093 70.4482 126.276 70.4482C128.458 70.4482 130.227 72.2174 130.227 74.3999Z" fill="#F4C951"/>
<path d="M126.068 77.1383V76.4461C125.67 76.4392 125.259 76.3159 125.019 76.1445L125.184 75.6852C125.43 75.8498 125.787 75.98 126.171 75.98C126.657 75.98 126.986 75.699 126.986 75.3083C126.986 74.9313 126.719 74.6982 126.212 74.4927C125.513 74.2185 125.081 73.9031 125.081 73.3069C125.081 72.7381 125.485 72.3062 126.116 72.2034V71.5112H126.541V72.1761C126.952 72.1897 127.233 72.2994 127.431 72.416L127.26 72.8683C127.116 72.7861 126.835 72.6354 126.397 72.6354C125.869 72.6354 125.67 72.9506 125.67 73.2247C125.67 73.5812 125.924 73.7594 126.52 74.0061C127.226 74.294 127.582 74.6503 127.582 75.2605C127.582 75.802 127.206 76.3091 126.5 76.4256V77.1384H126.068V77.1383Z" fill="#C19529"/>
<path d="M126.276 77.9618C124.312 77.9618 122.714 76.364 122.714 74.4001C122.714 72.4362 124.312 70.8384 126.276 70.8384C128.24 70.8384 129.838 72.4362 129.838 74.4001C129.838 76.3639 128.24 77.9618 126.276 77.9618ZM126.276 71.043C124.425 71.043 122.919 72.5489 122.919 74.4C122.919 76.2512 124.425 77.757 126.276 77.757C128.127 77.757 129.633 76.2512 129.633 74.4C129.633 72.5489 128.127 71.043 126.276 71.043Z" fill="#F7DC97"/>
<rect x="109" y="87.7397" width="56" height="56" rx="28" fill="#0A3C77"/>
<path d="M127.219 129.124C125.32 129.124 123.656 128.612 122.227 127.588C120.797 126.564 119.677 125.124 118.867 123.268C118.077 121.412 117.683 119.257 117.683 116.804C117.683 114.329 118.077 112.174 118.867 110.34C119.656 108.505 120.765 107.076 122.195 106.052C123.624 105.028 125.288 104.516 127.187 104.516C129.128 104.516 130.803 105.028 132.211 106.052C133.64 107.076 134.76 108.516 135.571 110.372C136.381 112.206 136.787 114.35 136.787 116.804C136.787 119.257 136.381 121.412 135.571 123.268C134.781 125.102 133.672 126.542 132.243 127.588C130.813 128.612 129.139 129.124 127.219 129.124ZM127.251 125.156C128.339 125.156 129.267 124.825 130.035 124.164C130.803 123.481 131.389 122.521 131.795 121.284C132.221 120.025 132.435 118.532 132.435 116.804C132.435 115.076 132.221 113.593 131.795 112.356C131.389 111.097 130.792 110.137 130.003 109.476C129.235 108.814 128.296 108.484 127.187 108.484C126.12 108.484 125.203 108.814 124.435 109.476C123.667 110.137 123.069 111.097 122.643 112.356C122.237 113.593 122.035 115.076 122.035 116.804C122.035 118.51 122.237 119.993 122.643 121.252C123.069 122.489 123.667 123.449 124.435 124.132C125.224 124.814 126.163 125.156 127.251 125.156ZM147.923 129.124C146.622 129.124 145.384 128.889 144.211 128.42C143.059 127.929 142.067 127.246 141.235 126.372C140.424 125.476 139.87 124.42 139.571 123.204L143.379 121.86C143.763 122.948 144.35 123.78 145.139 124.356C145.928 124.91 146.856 125.188 147.923 125.188C148.776 125.188 149.512 125.028 150.131 124.708C150.771 124.388 151.272 123.929 151.635 123.332C151.998 122.713 152.179 121.988 152.179 121.156C152.179 120.324 151.998 119.62 151.635 119.044C151.294 118.446 150.803 117.988 150.163 117.668C149.523 117.348 148.766 117.188 147.891 117.188C147.486 117.188 147.059 117.23 146.611 117.316C146.184 117.401 145.8 117.529 145.459 117.7L144.467 115.62L150.643 108.58H140.915V104.9H155.539V108.324L149.331 115.588L149.395 113.956C150.824 113.977 152.072 114.286 153.139 114.884C154.206 115.481 155.038 116.302 155.635 117.348C156.232 118.393 156.531 119.62 156.531 121.028C156.531 122.564 156.158 123.95 155.411 125.188C154.664 126.404 153.64 127.364 152.339 128.068C151.038 128.772 149.566 129.124 147.923 129.124Z" fill="white"/>
</svg>
